<svg width="22" height="22" viewBox="0 0 22 22" fill="none" xmlns="http://www.w3.org/2000/svg">
<circle cx="10.9902" cy="10.9902" r="10.9902" fill="white"/>
<path d="M4.58753 14.5986C3.81254 14.9014 3.79045 15.9221 3.87555 16.2887C5.4885 16.345 8.81255 16.3311 9.20894 16.3648C9.70442 16.4068 11.4543 16.0724 12.0217 15.4985C12.4756 15.0394 14.2269 13.9923 14.9597 13.4774C15.0065 13.6318 14.5737 15.4779 14.3514 16.3817L18.0846 16.408C18.3044 15.1575 18.2276 12.3254 18.2072 12.1326C18.1868 11.9398 17.6105 5.7526 17.3629 5.75085C17.1648 5.74946 13.0516 5.66914 11.0198 5.62916C10.8215 7.24579 10.3419 9.47684 9.17611 11.6453C8.01035 13.8137 5.55626 14.2202 4.58753 14.5986Z" fill="#336DFD"/>
<path d="M16.5149 8.03345C17.1922 8.08421 17.5761 7.6129 17.6834 7.37089C17.7757 7.37154 18.1175 10.7981 18.2769 12.5113L17.3153 12.5045C17.3138 12.2937 17.1802 11.8826 16.6574 11.9249C16.0039 11.9778 16.2124 11.5385 16.2892 11.5199C16.366 11.5013 16.6534 11.35 16.5368 11.1767C16.4202 11.0034 16.3799 10.7348 16.5329 10.6208C16.686 10.5069 17.1218 9.57092 16.6409 9.54837C16.1599 9.52582 15.6684 7.96998 16.5149 8.03345Z" fill="#336DFD"/>
<path d="M3.85833 15.7102C3.82826 15.7715 3.86118 16.1207 3.8814 16.2877C7.65426 16.4682 9.95872 16.4074 10.4339 16.2568C10.9091 16.1062 12.2021 15.7882 12.675 15.3104C13.0533 14.9282 14.4745 13.8541 14.9676 13.5368C15.0144 13.6911 14.5811 15.4842 14.3586 16.3614L18.1304 16.388C18.2909 14.8111 18.254 12.2513 18.1776 12.2123C18.1011 12.1733 16.7877 12.318 15.59 12.6559C14.3923 12.9939 13.3906 14.1223 12.2535 14.961C11.1165 15.7997 10.5638 15.7574 9.36484 15.9221C8.40571 16.0539 5.2942 15.8357 3.85833 15.7102Z" fill="#222222" stroke="#222222"/>
<path d="M12.1399 6.26726C11.8632 6.29625 11.2542 6.05486 10.9842 5.93053C10.9283 6.18142 10.7804 7.03086 10.538 8.11159C10.3441 8.97617 9.95511 9.97596 9.78484 10.3678C9.94064 10.6588 10.2268 10.3516 10.3808 10.372C10.5347 10.3924 10.628 9.98714 10.9362 10.086C11.2445 10.1848 11.1295 10.242 11.8209 10.1502C12.5122 10.0584 12.5289 9.69126 12.4105 9.24585C12.3157 8.88953 12.0484 8.77296 11.9265 8.75922C11.5784 8.4475 11.6362 8.46724 11.8068 8.12052C11.9773 7.77379 12.8413 7.62524 12.6285 7.43045C12.4583 7.27462 12.5561 7.14645 12.6262 7.10184C13.4289 6.43097 12.9642 5.94447 12.6182 5.94204C12.2721 5.9396 12.4856 6.23103 12.1399 6.26726Z" fill="#336DFD"/>
<path d="M11.5982 7.91928C11.5222 7.73697 11.9843 7.37486 12.2249 7.21659L13.8013 7.14063C14.0925 7.31787 14.5572 7.7863 14.0862 8.2421C13.4975 8.81185 13.2886 8.54597 13.1366 8.52697C12.9847 8.50798 13.1745 7.91928 12.5288 8.3371C11.8831 8.75491 11.6932 8.14717 11.5982 7.91928Z" fill="#336DFD"/>
<path d="M15.6614 9.7875C15.7506 9.4797 15.8069 6.96765 15.8237 5.74046L13.4418 5.70442C13.3413 6.78323 13.1835 9.10693 13.3558 9.77127C13.5711 10.6017 13.9336 10.6621 14.7148 10.6676C15.496 10.6731 15.5497 10.1722 15.6614 9.7875Z" fill="#222222"/>
<path d="M15.4654 6.04387C15.4546 7.09441 15.4172 9.26138 15.3538 9.52496C15.2746 9.85443 15.2369 10.2832 14.6799 10.2793C14.1229 10.2754 13.8645 10.2241 13.7101 9.51339C13.6822 8.79594 13.6589 7.09525 13.7887 6.03207" stroke="#336DFD" stroke-width="0.3" stroke-dasharray="12 12"/>
</svg>
