<svg width="1440" height="663" viewBox="0 0 1440 663" fill="none" xmlns="http://www.w3.org/2000/svg">
<rect x="289.105" y="113.667" width="309.768" height="307.037" transform="rotate(1.67711 289.105 113.667)" stroke="#222222" stroke-width="4" stroke-dasharray="8 8"/>
<path d="M575.639 426.887L551.612 426.336C552.833 419.97 553.767 413.779 554.525 407.344C557.15 385.009 557.812 362.361 554.866 339.977C554.36 336.135 552.533 336.774 552.466 340.426C552.386 344.86 553.391 349.459 553.709 353.995C554.982 372.136 554.216 390.391 552.456 408.479L549.738 426.116L479.626 424.03C481.252 393.686 487.081 363.735 494.547 334.341C494.684 331.658 492.255 331.025 491.156 333.959C489.732 337.765 488.42 344.464 487.435 348.616C481.559 373.405 479.459 398.963 477.734 424.385L466.043 423.623L466.348 413.006C468.873 388.364 472.086 363.846 480.053 340.312C485.225 325.04 492.614 310.582 500.053 296.287C500.172 295.532 499.332 295.036 498.785 294.511C488.23 289.144 478.699 279.671 478.119 267.334C477.214 248.057 488.186 227.844 498.866 212.382C509.091 213.293 519.495 213.892 529.785 213.877C530.458 213.876 531.072 213.62 531.679 213.617C537.958 213.563 541.671 213.029 547.897 212.158C557.123 201.009 565.403 188.211 575.796 178.005C576.694 177.126 585.153 173.761 585.906 173.953C586.412 174.082 586.617 175.511 586.657 175.971C587.112 181.155 585.852 186.499 585.561 191.639C584.592 208.81 584.168 225.613 584.736 242.766C585.132 254.713 586.281 266.284 582.223 277.899C579.174 286.625 572.808 293.627 564.485 297.923L563.781 299.76C573.546 325.076 580.985 351.796 581.136 379.134C581.227 395.422 579.016 411.022 575.639 426.89L575.639 426.887Z" fill="#336DFD"/>
<path d="M573.481 426.875C576.759 411.056 578.909 395.505 578.836 379.27C578.714 352.024 571.547 325.398 562.132 300.171L562.814 298.339C570.862 294.049 577.023 287.068 579.974 278.364C583.907 266.784 582.806 255.251 582.434 243.343C581.9 226.247 582.325 209.499 583.276 192.382C583.561 187.262 584.466 181.881 584.349 176.765C584.311 176.306 584.167 174.958 584.077 174.476C583.598 174.566 577.769 179.646 576.9 180.526C566.85 190.711 558.291 202.356 549.365 213.477C543.346 214.352 538.042 214.587 531.971 214.643C531.384 214.65 530.002 214.597 529.351 214.599C519.407 214.622 509.349 214.034 499.471 213.135C489.139 228.557 478.514 248.715 479.371 267.927C479.921 280.224 489.651 289.434 499.847 294.774C500.376 295.296 500.661 296.017 500.544 296.766C493.343 311.019 486.189 325.435 481.177 340.665C473.457 364.131 470.33 388.571 467.872 413.135L467.567 423.718C467.228 425.102 464.421 425.939 463.555 424.384C462.742 422.92 463.702 418.219 463.816 416.402C465.252 393.259 468.613 368.424 475.076 346.18C480.051 329.064 487.676 312.954 495.65 297.115C486.111 291.881 477.518 282.858 475.698 271.705C473.738 259.683 477.834 245.356 482.65 234.395C485.975 226.826 490.161 219.685 494.418 212.629C488.87 211.684 483.219 210.392 478.372 207.395C471.973 203.436 469.59 197.399 474.446 190.864C482.099 180.559 497.461 183.555 507.442 188.422C510.814 183.977 513.847 179.093 518.253 175.572C535.185 162.048 551.673 176.293 566.541 185.217C569.754 182.138 571.492 180.355 574.658 177.237C579.008 173.93 580.45 171.815 585.668 169.689C587.077 171.92 587.406 178.094 587.466 179.325C587.8 186.171 587.737 192.579 587.343 199.563C586.797 209.282 586.096 219.625 586.177 229.344C586.39 254.479 592.554 280.059 570.732 298.24C570.156 298.72 566.809 300.933 566.776 301.221C573.519 318.468 578.732 336.766 581.247 355.186C584.549 379.363 583.07 404.205 577.24 427.88C576.279 429.553 573.33 428.949 573.475 426.872L573.481 426.875Z" fill="#222222"/>
<path d="M480.588 423.509C480.023 425.86 476.731 426.048 476.466 423.386C478.122 398.035 481.74 372.479 487.265 347.75C488.189 343.609 489.353 337.278 490.688 333.481C491.719 330.553 494.804 331.379 494.671 334.054C487.652 363.377 482.164 393.253 480.591 423.512L480.588 423.509Z" fill="#222222"/>
<path d="M552.851 425.841C552.154 427.701 549.461 427.465 549.136 425.731L551.64 408.218C553.279 390.26 554.018 372.139 552.912 354.136C552.635 349.636 551.512 344.131 551.596 339.727C551.664 336.102 555.138 336.059 555.586 339.87C558.195 362.079 557.84 384.632 555.408 406.807C554.706 413.196 553.978 419.52 552.854 425.841L552.851 425.841Z" fill="#222222"/>
<path d="M543.383 222.134C557.251 220.97 568.242 233.877 562.79 247.213C555.098 266.029 525.288 259.276 527.15 239.716C527.998 230.797 534.077 222.912 543.38 222.131L543.383 222.134Z" fill="#222222"/>
<path d="M506.414 221.036C529.548 219.133 530.616 254.994 506.847 256.141C483.291 257.275 485.583 222.75 506.414 221.036Z" fill="#222222"/>
<path d="M529.875 256.522C531.643 258.372 526.586 262.77 525.404 264.16C525.154 264.454 524.539 264.491 524.456 264.799C524.29 265.417 523.851 269.846 524.033 270.069C528.148 270.941 531.975 272.573 535.252 275.22C536.733 276.416 541.19 280.2 539.01 282.138C536.865 284.046 534.197 279.799 532.852 278.662C527.856 274.428 519.079 272.051 513.356 276.104C512.186 276.932 508.521 281.247 507.548 277.602C506.704 274.441 513.013 271.17 515.518 270.477C516.654 270.163 518.306 270.172 519.172 269.903C520.038 269.634 520.23 265.754 520.057 264.984C519.861 264.106 517.683 262.327 517.022 261.266C516.163 259.889 514.706 256.873 516.075 255.562C517.84 253.866 528.263 254.831 529.875 256.519L529.875 256.522Z" fill="#222222"/>
<path d="M454.596 167.314C454.583 171.654 455.656 175.738 455.659 180.079C455.667 188.08 455.318 197.033 455.669 205.004C456.347 220.338 456.915 236.215 457.401 251.543C446.512 249.225 436.795 248.232 425.636 249.016C423.679 249.553 421.154 250.907 423.263 251.151C432.928 251.024 443.271 251.442 452.695 253.668C453.829 253.934 455.84 254.362 456.981 254.613C457.645 255.093 457.244 265.566 457.309 267.016L452.166 263.492C446.148 259.717 430.331 255.453 423.356 255.426C421.509 255.42 421.631 255.693 421.616 256.749C422.223 258.126 428.514 258.764 430.259 259.132C435.369 260.208 441.478 262.089 446.217 264.282C447.877 265.052 451.996 267.973 453.056 268.262C453.732 268.448 455.955 268.567 456.618 268.639C455.423 278.343 451.264 285.219 443.986 291.445C443.129 292.18 440.55 294.031 440.117 294.662C439.164 296.054 438.615 300.989 438.675 302.909C438.671 303.166 438.782 304.785 438.555 304.925C438.31 305.078 433.841 305.636 432.796 306.004C430.452 306.824 427.31 308.322 424.996 309.458C423.838 310.028 419.945 312.416 419.117 312.554C418.476 312.66 415.911 311.616 414.438 311.438C412.43 311.194 411.378 311.214 409.938 311.281C408.838 311.331 405.708 309.515 404.513 308.807C403.319 308.1 401.378 307.24 400.134 306.636C399.921 306.314 401.808 301.055 402.055 300.308C403.767 295.147 407.322 284.93 411.386 281.502C416.073 277.546 418.703 276.118 422.083 270.469C423.058 268.839 424.665 265.056 423.354 263.403C422.044 261.75 408.54 258.788 405.328 257.306C403.418 256.424 400.727 253.379 400.787 250.967C400.86 248.018 403.591 247.335 405.552 245.587C406.746 244.521 407.388 243.443 405.901 241.743C404.244 239.846 397.528 240.27 395.373 241.221C392.754 242.377 394.778 244.454 395.792 246.128C397.127 248.331 399.238 250.131 397.621 253.264C395.568 257.237 388.23 255.732 384.753 256.174C382.764 256.428 382.698 257.184 382.748 258.738C382.816 260.905 384.589 268.624 384.301 269.72C384.184 270.161 381.834 273.969 381.27 274.774C377.985 279.465 374.261 285.503 372.359 290.901C371.937 291.241 366.12 286.71 365.521 286.199C361.329 282.611 358.673 277.676 356.974 272.343C354.112 263.367 357.183 253.271 360.278 244.681C363.755 245.451 367.255 246.141 370.71 247.001C371.859 247.287 373.507 248.149 374.503 248.212C376.853 248.359 377.692 246.042 375.216 244.996C373.113 244.108 369.305 243.948 366.975 243.427C365.528 243.105 363.662 242.724 362.318 242.426C361.845 242.32 361.7 241.22 361.741 240.627C361.773 240.177 363.644 235.934 363.902 235.887C366.036 236.5 368.27 237.505 370.25 238.499C371.917 239.337 377.496 243.718 378.468 240.725C379.325 238.082 373.564 237.216 371.588 236.203C369.434 235.102 367.424 234.135 365.109 233.428L365.717 231.579L395.293 168.948L405.465 204.932C405.674 205.19 405.316 205.786 405.637 205.857C408.802 206.537 412.733 206.362 415.978 206.79C418.77 207.159 423.84 209.402 425.727 207.059C434.055 193.579 442.532 180.033 452.584 167.77C452.787 167.521 452.594 167.209 453.294 167.404L454.596 167.314ZM390.605 231.645C390.207 232.019 382.965 232.473 381.487 233.352C379.579 234.486 380.281 236.169 382.698 236.084C386.708 234.97 391.248 234.731 395.215 233.619C397.059 233.103 398.347 231.981 397.235 229.905C396.635 228.783 389.985 224.651 388.597 223.546C387.899 222.991 386.827 221.674 386.228 221.496C383.752 220.76 382.277 221.562 383.587 223.46C384.024 224.089 392.32 230.339 391.922 230.714L390.605 231.645ZM432.598 227.77C432.322 227.477 432.016 228.161 431.638 227.95C427.063 229.4 423.547 230.834 419.129 232.785C416.791 233.817 413.965 232.987 416.127 235.931C420.284 237.653 424.431 240.909 428.465 242.655C430.289 243.445 430.774 242.205 430.44 240.14C430.105 238.074 422.482 235.942 420.932 234.442L433.863 230.023C434.758 229.175 433.474 228.707 432.598 227.77Z" fill="#DCFC73"/>
<path d="M397.799 270.184L395.37 273.132C390.379 279.924 386.708 287.874 383.699 295.758C382.852 297.975 381.142 302.103 380.818 304.274C380.364 307.34 383.33 307.256 384.447 305.09C385.564 302.924 386.324 299.501 387.294 297.028C389.59 291.16 394.667 276.459 399.869 273.287C402.461 271.708 406.983 270.838 409.947 271.399C410.56 271.515 414.153 273.293 413.936 274.142C407.648 279.912 403.679 288.164 400.645 296.074C397.795 303.502 395.469 316.854 389.029 321.681C381.807 327.091 368.619 322.474 368.456 312.571C368.375 307.571 374.88 290.548 377.308 285.488C381.02 277.757 387.808 266.78 398.191 269.612L397.799 270.184Z" fill="#F3383D"/>
<path d="M511.968 190.335C511.31 189.388 519.143 180.692 520.398 179.646C535.081 167.418 550.973 180.48 563.753 188.697L548.037 208.411C536.334 201.799 524.376 195.551 511.968 190.335Z" fill="#DCFC73"/>
<path d="M541.66 209.442C541.668 209.89 540.544 209.878 540.184 209.923C528.01 211.458 505.12 210.281 492.987 207.938C486.498 206.686 470.813 201.943 478.724 192.683C487.17 182.8 504.444 191.187 513.926 195.423C523.387 199.649 532.452 204.711 541.66 209.442Z" fill="#DCFC73"/>
<path d="M544.435 226.096C565.392 224.211 565.736 255.203 544.802 253.381C526.486 251.788 529.13 227.476 544.435 226.096Z" fill="white"/>
<path d="M506.221 224.955C523.054 223.276 525.749 248.031 509.183 251.75C488.715 256.346 489.87 226.585 506.221 224.955Z" fill="white"/>
<path d="M434.044 227.217C434.937 228.14 434.726 229.627 433.814 230.46L422.739 234.793C424.314 236.267 431.24 238.546 431.569 240.499C431.898 242.452 430.193 243.66 428.337 242.88C424.232 241.159 420.012 237.952 415.783 236.254C413.578 233.355 415.995 232.552 418.371 231.54C422.866 229.624 428.027 227.97 432.679 226.549C433.379 226.628 433.764 226.931 434.044 227.217Z" fill="#222222"/>
<path d="M391.18 230.528C391.601 230.144 383.758 224.498 383.296 223.851C381.906 221.902 383.447 219.621 386.069 220.379C386.702 220.561 389.011 222.551 389.747 223.121C391.212 224.257 397.348 229.09 397.986 230.243C399.165 232.375 397.549 233.76 395.6 234.291C391.407 235.428 386.606 235.673 382.367 236.81C379.815 236.894 378.798 233.762 380.81 232.6C382.372 231.699 390.759 230.913 391.183 230.529L391.18 230.528Z" fill="#222222"/>
<path d="M539.259 235.738C546.378 234.457 546.098 245.853 540.662 246.388C534.572 246.99 534.522 236.591 539.259 235.738Z" fill="#222222"/>
<path d="M500.674 233.551C505.744 232.743 507.463 241.354 503.252 244.29C496.46 249.026 494.221 234.579 500.674 233.551Z" fill="#222222"/>
<path d="M340.188 419.998C340.616 416.082 340.672 412.118 341.143 408.204C342.988 392.886 346.346 376.602 349.966 361.61C353.398 347.402 357.765 333.448 361.763 319.435C361.736 318.78 361.556 318.139 360.989 317.76C346.859 311.946 334.736 302.235 327.395 288.668C312.691 261.486 319.041 229.9 328.939 202.268C329.554 200.554 330.559 197.116 331.404 195.719C331.584 195.421 331.68 195.178 332.1 195.239L347.821 197.538C345.031 205.905 343.516 214.835 341.378 223.415C334.643 250.431 333.881 275.981 357.564 294.169C360.53 296.447 364.385 299.87 367.825 301.219C366.237 305.994 365.028 310.418 366.023 315.516C367.673 323.959 375.489 327.888 383.509 326.701C384.054 326.886 385.005 329.402 385.668 330.285C388.116 333.54 395.211 330.41 398.506 329.875L386.355 344.612C385.87 345.406 386.308 346.206 386.805 347.023L398.321 356.171C400.037 356.517 400.81 355.167 401.601 353.944C405.2 348.396 407.344 341.819 410.195 335.89C410.368 335.529 410.705 335.388 411.484 335.537C411.741 339.243 412.489 343.043 413.072 346.706C413.385 348.681 414.198 356.688 415.14 357.785C416.081 358.882 416.271 358.098 417.485 357.774C420.004 357.103 427.769 353.822 430.148 352.382C431.833 351.36 432.375 351.226 432.045 348.995C431.714 346.764 429.097 341.29 428.038 339.056C427.727 338.399 424.53 333.2 424.778 332.977C428.155 334.186 433.717 337.371 437.016 334.674C440.14 332.116 442.499 322.657 443.16 318.626C444.884 320.695 447.222 323.665 448.47 326.12C460.741 350.256 461.772 380.089 458.005 406.478C457.177 412.261 455.806 417.803 454.732 423.543L434.662 422.483C435.452 420.237 436.547 416.13 436.97 413.577C439.882 395.969 440.828 374.536 439.288 356.807C439.04 353.95 438.182 350.877 436.742 351.147C436.322 356.365 437.681 362.302 437.817 367.553C438.205 382.338 436.421 397.508 434.21 412.1C433.761 415.063 433.086 417.85 432.859 420.828C432.729 421.362 432.11 421.973 432.172 422.451L340.188 419.998Z" fill="#DCFC73"/>
<path d="M357.543 320.582C355.68 320.158 353.681 319.127 351.976 318.219C338.593 311.105 328.218 300.398 321.882 286.605C308.227 256.877 316.527 223.808 327.709 194.789L329.689 190.089L353.817 194.025L352.471 198.448C350.71 203.932 348.543 209.291 346.864 214.808C337.985 244.025 334.797 275.836 363.651 294.653C364.474 295.188 367.899 297.443 368.541 297.521C369.232 297.606 370.557 294.327 370.142 293.611C369.978 293.327 365.814 290.437 365.035 289.76C351.065 277.601 350.488 264.599 355.371 247.566C355.685 246.472 356.835 244.881 355.581 244.632C353.964 244.31 347.586 244.317 347.087 243.079C345.071 238.085 355.33 240.783 357.669 240.994L360.035 234.809C359.951 234.201 352.523 232.318 351.527 231.735C350.018 230.855 350.019 228.79 351.698 228.142C352.868 227.692 357.389 229.403 358.86 229.889C359.721 230.172 361.431 231.415 362.13 230.699L394.243 160.668C397.388 161.572 399.606 170.823 400.42 172.473C403.354 182.89 405.357 192.435 408.245 202.224L423.067 204.128C431.953 191.091 439.864 177.297 449.978 165.114C450.77 164.164 454.058 160.181 454.865 159.864C457.274 158.922 458.334 160.576 458.472 162.718C458.792 167.69 457.99 173.59 457.987 178.706C457.974 203.329 460.25 227.882 461.079 252.474C461.166 252.886 463.367 253.068 463.2 255.045C463.052 256.746 461.248 256.514 460.999 257.17C460.584 258.254 460.902 262.575 460.754 264.186C459.468 278.267 454.672 287.689 443.847 296.554C443.221 297.066 442.384 296.731 442.34 298.039C442.249 300.765 442.811 303.848 442.722 306.616C444.859 308.391 444.145 312.18 444.911 313.718C445.053 314.005 446.677 315.263 447.148 315.861C448.836 318.001 450.446 321.038 451.735 323.476C467.699 353.687 464.836 391.92 458.114 424.32C456.803 426.053 454.943 425.288 454.016 423.608C455.096 417.867 456.41 412.092 457.237 406.304C461.014 379.906 460.594 350.281 448.282 326.139C447.03 323.684 445.566 320.912 443.84 318.838C443.177 322.874 440.998 332.562 437.862 335.117C434.552 337.818 429.005 334.562 425.617 333.352C425.372 333.575 428.36 338.614 428.672 339.274C429.737 341.512 432.368 347.029 432.692 349.217C433.016 351.405 432.48 351.586 430.79 352.605C428.403 354.045 420.841 357.67 418.314 358.342C417.095 358.665 416.004 358.851 415.08 357.778C414.156 356.706 413.045 348.832 412.731 346.856C412.149 343.189 411.687 339.402 411.426 335.695C410.982 335.512 410.772 336.106 410.772 336.106C407.916 342.034 405.762 348.615 402.152 354.165C401.356 355.388 400.58 356.739 398.863 356.393L385.629 346.465C385.131 345.648 385.28 344.522 385.766 343.728L397.769 330.213C394.464 330.747 387.328 333.709 384.872 330.453C384.207 329.57 384.101 327.388 383.553 327.203C375.509 328.386 367.145 324.349 365.488 315.902C364.488 310.803 366.008 306.291 367.603 301.518C364.152 300.168 360.655 297.781 357.682 295.502C333.923 277.306 333.491 249.987 340.246 222.962C342.39 214.38 345.394 206.072 348.189 197.703L332.418 195.402C331.997 195.341 331.901 195.584 331.72 195.882C330.873 197.28 329.862 200.719 329.248 202.433C319.321 230.074 312.957 261.67 327.706 288.861C335.071 302.434 347.231 312.148 361.408 317.965C361.978 318.345 362.162 318.989 362.186 319.641C358.176 333.656 353.796 347.616 350.354 361.829C346.721 376.822 343.354 393.114 341.507 408.437C341.035 412.353 340.979 416.318 340.55 420.235L340.553 420.241C339.253 422.218 336.7 421.681 336.292 419.331C337.281 410.238 338.374 401.17 339.871 392.15C343.905 367.822 350.418 344.145 357.543 320.582ZM397.979 269.862C387.522 267.013 381.866 278.185 378.127 285.961C375.682 291.051 369.028 307.45 369.107 312.483C369.268 322.445 381.233 326.15 388.51 320.71C395 315.858 397.05 302.962 399.92 295.489C402.976 287.536 407.172 279.636 413.505 273.833C413.724 272.976 410.523 272.002 409.906 271.888C406.921 271.326 403.654 271.681 401.042 273.268C395.804 276.458 389.681 291.132 387.369 297.036C386.395 299.524 385.516 303.52 384.43 305.623C383.344 307.726 380.03 307.378 380.487 304.295C380.811 302.111 382.565 297.92 383.418 295.69C386.448 287.761 390.289 279.717 395.317 272.886L397.976 269.862L397.979 269.862ZM454.011 167.984C453.723 167.974 453.504 168.101 453.298 168.35C443.193 180.632 434.672 194.198 426.3 207.699C424.403 210.045 419.306 207.798 416.499 207.429C413.236 207 409.284 207.174 406.103 206.493C405.78 206.425 405.525 206.297 405.318 206.039L395.171 170.963L365.971 232.251L365.896 232.952C368.223 233.664 370.607 234.767 372.772 235.87C374.76 236.882 379.65 238.766 378.791 241.414C377.818 244.411 372.208 240.026 370.528 239.183C368.538 238.187 366.292 237.18 364.146 236.566C363.89 236.614 362.006 240.862 361.975 241.313C361.936 241.905 362.314 241.891 362.787 241.998C364.138 242.296 365.699 242.342 367.153 242.665C369.495 243.187 373.431 244.007 375.545 244.897C378.034 245.945 377.168 249.059 374.806 248.912C373.807 248.849 372.15 247.988 370.992 247.699C367.515 246.836 363.999 246.145 360.504 245.374C357.393 253.98 355.108 263.833 357.982 272.823C359.691 278.165 363.663 283.181 367.878 286.775C368.48 287.287 371.808 290.02 372.232 289.679C374.14 284.27 376.866 278.596 380.169 273.898C380.736 273.091 383.38 270.269 383.497 269.827C383.786 268.73 381.803 260.636 381.734 258.465C381.684 256.909 381.544 254.954 383.543 254.7C387.036 254.257 394.283 256.138 396.35 252.156C397.978 249.018 396.231 248.846 394.889 246.637C393.869 244.96 391.537 240.558 394.17 239.401C396.337 238.452 406.646 239.526 408.313 241.426C409.808 243.129 407.222 245.219 406.021 246.286C404.05 248.037 401.305 248.717 401.232 251.674C401.171 254.09 404.414 255.849 406.334 256.733C409.563 258.218 423.637 261.896 424.997 263.602C426.356 265.308 423.628 269.574 422.644 271.21C419.246 276.87 416.606 278.297 411.891 282.259C407.805 285.692 404.232 295.925 402.512 301.094C402.263 301.842 400.821 305.889 401.036 306.212C402.283 306.817 403.549 307.396 404.747 308.101C405.945 308.807 408.987 311.125 410.094 311.075C411.541 311.01 412.423 310.351 414.441 310.596C415.919 310.775 418.59 312.335 419.234 312.229C420.067 312.088 423.596 309.771 424.76 309.204C427.086 308.065 430.28 306.366 432.64 305.545C433.691 305.18 437.871 304.555 438.117 304.399C438.343 304.259 438.435 304.04 438.439 303.782C438.378 301.857 437.586 296.435 438.544 295.044C438.979 294.412 441.587 292.965 442.449 292.229C449.764 285.994 454.5 278.527 455.701 268.808C455.034 268.736 454.462 269.189 453.783 269.003C452.717 268.713 448.575 265.787 446.907 265.016C442.145 262.816 436 260.934 430.862 259.856C429.108 259.487 422.105 259.03 421.494 257.651C420.679 255.807 421.867 254.614 423.727 254.62C430.739 254.647 447.239 259.987 453.29 263.765L456.394 266.057C456.329 264.605 457.504 255.763 456.837 255.282C455.69 255.027 454.562 254.652 453.419 254.385C443.944 252.155 433.545 251.735 423.828 251.861C421.711 251.617 421.48 248.549 423.445 248.012C434.667 247.227 445.879 248.695 456.824 251.017C456.331 235.661 455.151 220.371 454.467 205.016C454.11 197.032 453.619 189.047 453.614 181.034C453.61 176.686 453.987 172.322 454.002 167.975L454.011 167.984Z" fill="#222222"/>
<path d="M434.951 331.26C434.077 332.079 430.712 330.56 429.62 330.104C428.488 329.628 420.149 325.167 420.122 324.611C421.004 323.2 421.873 321.387 422.021 319.702C422.146 318.312 421.232 315.908 421.854 315.116C425.356 313.486 433.986 307.623 437.636 308.088C441.651 308.6 439.476 317.311 438.892 319.845C438.453 321.754 436.045 330.231 434.951 331.257L434.951 331.26Z" fill="#E1D2F3"/>
<path d="M416.512 327.058C416.977 327.019 417.071 327.397 417.309 327.685C418.585 329.226 420.485 333.19 421.478 335.151C423.644 339.439 425.422 343.923 427.256 348.378C427.288 348.932 425.584 349.743 425.064 350.046C422.744 351.391 420.176 352.369 417.78 353.563C417.441 353.361 417.455 353.068 417.363 352.746C416.689 350.434 416.313 346.064 415.927 343.464C415.299 339.235 414.24 333.449 414.158 329.296C414.15 328.863 414.091 328.208 414.333 327.871C414.404 327.772 416.381 327.07 416.512 327.062L416.512 327.058Z" fill="#E1D2F3"/>
<path d="M399.206 351.051L390.238 344.884L406.775 326.765C407.171 327.543 409.317 328.315 409.257 329.034C406.43 336.613 402.947 343.893 399.209 351.048L399.206 351.051Z" fill="#E1D2F3"/>
<path d="M403.795 323.298C399.438 324.684 395.194 326.844 390.723 327.81C390.057 327.954 388.147 328.655 387.893 327.678C387.803 327.328 387.798 325.98 387.955 325.726C388.073 325.53 390.836 323.971 391.581 323.267C395.038 319.991 397.343 314.663 398.432 309.883C398.838 309.466 404.087 313.184 404.809 313.862C403.234 316.824 402.877 320.028 403.798 323.302L403.795 323.298Z" fill="#E1D2F3"/>
<path d="M411.069 314.283C413.526 313.815 416.931 314.907 417.285 317.936C418.259 326.201 407.932 327.552 407.573 319.934C407.466 317.654 408.8 314.712 411.065 314.283L411.069 314.283Z" fill="#E1D2F3"/>
<path d="M435.294 422.891C434.553 424.389 431.867 424.084 431.585 422.647L434.512 408.377C436.585 393.706 437.763 378.863 437.095 364.042C436.928 360.336 435.94 355.772 436.131 352.161C436.286 349.188 439.758 349.297 440.113 352.443C442.181 370.78 441.279 389.275 438.311 407.375C437.454 412.589 436.573 417.75 435.297 422.891L435.294 422.891Z" fill="#222222"/>
<path d="M295.505 154.515C291.856 151.963 292.906 146.383 293.763 144.488C302.14 146.065 319.256 150.022 321.337 150.302C323.939 150.652 332.576 154.515 334.846 158.3C336.661 161.328 344.493 169.07 347.682 172.727C348.1 171.942 347.975 161.391 347.86 156.214L367.13 160.431C366.837 167.491 363.21 182.811 362.886 183.836C362.561 184.861 352.533 217.853 351.255 217.573C350.232 217.349 328.942 212.984 318.425 210.829C319.247 201.801 319.32 189.102 315.785 175.942C312.25 162.783 300.066 157.705 295.505 154.515Z" fill="#336DFD"/>
<path d="M349.47 204.145C353.019 204.659 354.46 207.672 354.737 209.114C355.213 209.218 360.883 190.973 363.658 181.838L358.695 180.752C358.447 181.897 357.289 183.978 354.643 183.137C351.335 182.086 351.909 184.72 352.284 184.911C352.658 185.102 353.967 186.261 353.168 187.068C352.37 187.875 351.856 189.289 352.514 190.088C353.173 190.886 354.351 196.488 351.847 196.049C349.343 195.61 345.035 203.501 349.47 204.145Z" fill="#336DFD"/>
<path d="M317.113 158.399C315.275 155.664 315.588 152.049 315.975 150.583L316.132 149.86C317.319 150.155 320.017 150.836 321.315 151.205C322.938 151.666 328.899 156.423 329.361 156.632C329.822 156.841 340.494 171.165 340.471 171.268C340.449 171.371 339.463 173.103 337.616 173.674C335.768 174.245 334.466 172.772 333.894 171.674C333.321 170.577 333.843 170.041 330.058 171.596C326.272 173.151 325.72 167.3 327.159 166.748C328.309 166.307 328.593 164.97 328.592 164.357C327.414 158.587 324.09 160.35 323.725 160.163C323.36 159.975 319.41 161.818 317.113 158.399Z" fill="#336DFD"/>
<path d="M292.987 147.599C292.902 147.23 293.47 145.369 293.765 144.484C313.415 147.907 325.223 150.929 327.5 152.303C329.777 153.677 336.079 156.917 337.971 160.069C339.485 162.591 345.584 170.094 347.763 172.396C348.181 171.611 347.993 161.349 347.847 156.316L367.316 160.576C366.345 169.343 363.235 183.228 362.796 183.351C362.358 183.474 355.754 181.153 349.967 177.916C344.18 174.678 340.304 167.369 335.4 161.478C330.497 155.587 327.6 155.172 321.609 152.876C316.816 151.039 300.531 148.593 292.987 147.599Z" fill="#222222" stroke="#222222"/>
<path d="M324.921 208.641C323.529 208.16 320.114 208.763 318.581 209.124C318.579 207.693 318.786 202.899 318.769 196.736C318.756 191.805 317.892 185.911 317.461 183.58C318.596 182.179 319.72 184.185 320.537 184.253C321.354 184.322 321.372 186.636 323.073 186.458C324.775 186.28 324.248 185.835 327.706 187.142C331.165 188.448 330.832 190.465 329.713 192.751C328.819 194.579 327.308 194.901 326.664 194.833C324.514 196.123 324.835 196.083 325.318 198.169C325.802 200.254 330.085 202.071 328.766 202.883C327.711 203.532 328.069 204.343 328.38 204.668C331.751 209.255 328.801 211.36 327.015 210.969C325.229 210.578 326.662 209.242 324.921 208.641Z" fill="#336DFD"/>
<path d="M330.345 181.031C329.74 181.949 331.657 184.45 332.691 185.586L340.616 187.748C342.309 187.097 345.232 185.037 343.382 182.011C341.07 178.228 339.69 179.458 338.895 179.394C338.099 179.33 338.36 182.776 335.577 179.765C332.793 176.754 331.1 179.884 330.345 181.031Z" fill="#336DFD"/>
<path d="M340.384 203.227C340.884 201.674 340.24 201.41 339.856 201.472L337.482 213.308L344.145 214.758C344.861 214.258 344.844 212.942 344.611 211.689C344.378 210.436 342.521 210.141 342.424 210.12C342.328 210.099 341.89 209.785 342.351 208.136C342.811 206.488 342.413 205.526 342.362 205.297C342.311 205.067 341.941 204.44 341.265 204.293C340.589 204.146 339.76 205.168 340.384 203.227Z" fill="#336DFD"/>
<path d="M347.097 193.622C347.206 195.401 344.631 209.135 343.318 215.832L331 213.247C331.713 207.26 333.55 194.432 335.196 191.019C337.253 186.752 339.19 186.846 343.222 187.729C347.255 188.611 346.961 191.399 347.097 193.622Z" fill="#222222"/>
<path d="M341.813 213.748C342.955 208.02 345.234 196.185 345.208 194.677C345.176 192.792 345.47 190.415 342.595 189.786C339.72 189.157 338.33 189.135 336.724 192.821C335.761 196.692 333.701 205.918 333.158 211.855" stroke="#336DFD" stroke-width="2" stroke-dasharray="12 12"/>
<path d="M318.758 175.752C318.959 178.896 322.067 180.126 323.595 180.348C325.824 180.28 327.215 177.593 326.15 176.475C325.085 175.357 323.815 172.866 323.715 172.401C323.601 171.871 323.908 167.349 321.472 168.369C319.035 169.389 318.506 171.821 318.758 175.752Z" fill="#336DFD"/>
<path d="M518.763 309.91C521.354 306.36 539.297 310.528 537.839 315.166C536.381 319.804 531.246 322.65 531.246 322.65C529.976 323.673 530.799 361.197 528.061 365.34C525.323 369.483 516.864 379.496 515.397 378.339C513.929 377.183 506.517 367.394 505.949 364.063C505.381 360.733 516.691 334.127 520.817 320.688C518.492 317.941 516.171 313.461 518.763 309.91Z" fill="#F3383D"/>
<path d="M518.763 309.91C521.354 306.36 539.297 310.528 537.839 315.166M518.763 309.91C516.171 313.461 518.492 317.941 520.817 320.688M518.763 309.91C512.246 306.462 498.853 298.791 497.414 295.691M537.839 315.166C536.381 319.804 531.246 322.65 531.246 322.65M537.839 315.166C546.871 312.314 564.475 302.818 565 299.168M520.817 320.688C522.268 322.403 523.9 323.758 525.589 324.175C527.488 324.643 529.462 323.9 531.246 322.65M520.817 320.688C516.691 334.127 505.381 360.733 505.949 364.063C506.517 367.394 513.929 377.183 515.397 378.339C516.864 379.496 525.323 369.483 528.061 365.34C530.799 361.197 529.976 323.673 531.246 322.65" stroke="#222222" stroke-width="4"/>
<path d="M1346.48 342.376C1351.55 351.041 1357.72 363.228 1362.26 371.174L1380.32 404.765C1385.24 415.498 1393.03 429.113 1398.56 440.451C1423.12 490.717 1443.61 540.738 1463.7 590.828L1457.77 592.521L1456.83 590.197C1434.54 534.001 1411.27 477.393 1382.44 421.09C1355.84 369.132 1326.15 317.743 1294.41 269.079L1298.08 264.828C1307.84 280.352 1320.12 298.235 1328.5 312.089C1334.47 321.943 1340.69 332.482 1346.48 342.376Z" fill="#8A9D4C"/>
<path d="M1354.28 414.347C1360.32 422.36 1367.86 433.743 1373.29 441.104L1395.13 472.355C1401.26 482.44 1410.57 495.052 1417.39 505.665C1447.61 552.717 1473.76 600.001 1499.52 647.399L1493.83 649.771L1492.62 647.574C1463.97 594.368 1434.29 540.867 1399.13 488.319C1366.68 439.825 1331.24 392.257 1294.06 347.634L1297.22 342.984C1308.72 357.261 1322.98 373.588 1332.92 386.367C1339.99 395.457 1347.38 405.197 1354.28 414.347Z" fill="#8A9D4C"/>
<path d="M1414.11 398.51C1416.94 409.085 1419.98 423.661 1422.46 433.324L1431.88 473.828C1434.05 486.504 1438.32 503.066 1440.95 516.564C1452.62 576.408 1460.39 634.744 1467.74 693.029L1461.55 692.961L1461.2 690.252C1453.19 624.941 1444.32 558.898 1429.96 491.457C1416.7 429.22 1400.3 366.624 1381.23 306.226L1385.85 302.939C1391.58 322.094 1399.18 344.476 1403.98 361.471C1407.39 373.558 1410.88 386.435 1414.11 398.51Z" fill="#8A9D4C"/>
<path d="M1379.02 359.877L1389.48 392.122L1452.41 592.831L1459.5 590.254C1444.5 542.921 1430.44 495.495 1415.59 448.102C1402.04 404.834 1388.4 361.928 1372.38 318.977L1347.56 261.204C1326 204.797 1295.91 154.728 1273.31 99.3778L1262.2 93.4551C1278.24 133.71 1298.57 170.536 1316.57 209.216C1339.19 257.858 1360.42 308.861 1379.02 359.877Z" fill="#8A9D4C"/>
<path d="M1195.92 175.473C1188.2 162.255 1203.18 153.567 1210.56 144.919C1221.6 131.981 1227.7 113.701 1228.01 96.7832C1228.35 77.9725 1215.21 62.9833 1203.29 49.7295C1219.91 39.5607 1236.55 29.4278 1252.6 18.4726C1253.38 19.849 1254.42 21.1367 1255.04 22.6113C1259.28 32.4469 1265.79 47.0759 1272.1 55.9751C1276.06 61.5582 1281.88 65.7023 1285.8 71.336C1293.48 82.3839 1297.21 97.0229 1305.51 107.973L1285.12 120.532L1271.09 97.5578C1266.98 99.2077 1265.18 102.571 1263.34 106.331C1258.37 116.508 1251.81 141.05 1242.11 147.023L1195.91 175.477L1195.92 175.473Z" fill="#E1D2F3"/>
<path d="M1423.14 395.381L1427.84 428.968L1454.94 637.654L1462.37 636.356C1455.81 587.112 1450.21 537.943 1443.82 488.67C1437.99 443.685 1432.02 399.041 1423.69 353.936L1409.3 292.695C1397.87 233.369 1376.94 178.796 1364.3 120.327L1354.39 112.552C1363.19 155.004 1376.81 194.829 1387.81 236.072C1401.63 287.936 1413.68 341.882 1423.14 395.381Z" fill="#8A9D4C"/>
<path d="M1351.6 151.148C1351.83 151.314 1351.16 152.789 1353.09 153.327C1363.48 156.206 1368.43 147.797 1367.24 164.74C1366.59 174.063 1362.46 202.231 1352.62 205.604C1341.63 209.37 1338.62 194.697 1338.87 186.529C1339.05 181.078 1344.54 151.683 1349.26 150.469C1350.17 150.5 1350.82 150.567 1351.6 151.148Z" fill="#336DFD"/>
<path d="M1386.96 142.745C1386.69 142.068 1391.26 131.291 1391.82 130.993C1394.07 129.827 1421.03 137.952 1425.36 139.701C1430.17 141.658 1437 144.582 1439.92 148.941C1444.71 156.12 1444.35 163.107 1435.07 165.482C1420.55 169.196 1399.15 149.637 1386.96 142.745Z" fill="#336DFD"/>
<path d="M1408.45 125.644C1406.79 125.783 1392.2 125.511 1391.44 125.141C1389.53 124.223 1387.55 113.018 1388.52 111.831C1389.49 110.644 1413.35 102.231 1416.56 101.53C1424.54 99.7893 1442.48 97.0599 1445.85 106.922C1449.95 118.913 1427.73 124.063 1419.26 124.644C1416.03 124.87 1410.88 125.553 1408.45 125.644Z" fill="#336DFD"/>
<path d="M1411.38 62.5362C1421.21 56.4232 1430.12 63.9296 1426.38 74.6053C1422.14 86.6847 1399.82 102.336 1389.06 109.107C1388.15 105.834 1381.34 102.025 1380.54 100.138C1379.48 97.6415 1395.68 76.1177 1398.66 73.0157C1401.43 70.1443 1408.12 64.5558 1411.38 62.5362Z" fill="#336DFD"/>
<path d="M1334.8 104.335C1337.68 107.943 1334.22 117.03 1331.32 117.548C1325.38 118.618 1304.13 107.823 1298.37 104.055C1291.19 99.3575 1281.23 92.7641 1285.11 82.8885C1290.21 69.9233 1314.22 87.6286 1320.6 92.4666C1323.65 94.7753 1332.88 101.903 1334.8 104.335Z" fill="#336DFD"/>
<path d="M1342.85 149.43C1343.69 151.598 1330.98 166.658 1328.63 169.123C1325.16 172.753 1316.88 180.003 1312.79 182.452C1294.15 193.609 1287.54 175.752 1302.94 161.217C1306.51 157.854 1331.68 141.424 1335.1 141.644C1335.66 141.674 1342.65 148.918 1342.86 149.432L1342.85 149.43Z" fill="#336DFD"/>
<path d="M1404.99 199.828C1391.01 207.943 1377.88 175.16 1375.14 165.853C1374.52 163.73 1372.04 155.165 1372.12 153.818C1372.25 151.734 1380.71 146.922 1382.63 147.919C1383.91 148.576 1390.56 156.359 1392.06 158.168C1398.61 166.055 1410.08 180.823 1408.86 191.428C1408.53 194.227 1407.57 198.34 1404.99 199.839L1404.99 199.828Z" fill="#336DFD"/>
<path d="M1332.26 122.59C1330.27 124.869 1332.88 135.283 1332.41 135.749C1331.54 136.621 1311.14 140.363 1308.14 140.811C1299.01 142.156 1271.66 145.893 1275.41 129.861C1277.92 119.064 1293.69 119.45 1301.58 118.879C1311.82 119.139 1322.14 121.121 1332.25 122.577L1332.26 122.59Z" fill="#336DFD"/>
<path d="M1370.91 97.9596C1369.18 98.7241 1360.03 95.9255 1357.21 95.9511C1356.99 83.4387 1356.59 52.0406 1366.88 43.8618C1371.48 40.2191 1378.18 42.9049 1380.33 48.1219C1381 49.7369 1382.21 59.1371 1382.16 61.0141C1382.04 66.068 1374.17 96.5113 1370.9 97.958L1370.91 97.9596Z" fill="#336DFD"/>
<path d="M1338.8 104.424C1337.45 98.5186 1331.79 93.8471 1328.63 88.6381C1323.58 80.3237 1312.64 60.0047 1319.19 51.1193C1321.78 47.6166 1327.26 49.369 1330.95 50.8685C1340.92 54.9328 1349.03 87.6567 1350.66 98.1068C1350.15 100.833 1342.37 101.663 1340.35 104.651L1338.79 104.412L1338.8 104.424Z" fill="#336DFD"/>
<ellipse cx="31.8358" cy="31.9441" rx="31.8358" ry="31.9441" transform="matrix(0.988377 0.152022 -0.152431 0.988314 1335.15 89.0664)" fill="#222222"/>
<path d="M1283.99 268.308C1286.43 270.414 1291.89 278.221 1293.84 281.299C1298.52 288.688 1314.18 317.301 1295.09 314.252C1284.55 312.561 1270.82 280.313 1271.83 269.795C1275.72 270.322 1278.62 270.516 1279.57 266.046C1280.67 267.31 1282.96 267.417 1283.99 268.308Z" fill="#336DFD"/>
<path d="M1264.73 222.24C1264.51 222.722 1256.48 226.426 1255.2 225.882C1250.43 223.825 1236.24 194.167 1235.3 187.916C1232.48 169.171 1246.63 172.828 1253.92 185.344C1256.89 190.44 1266.54 218.25 1264.73 222.24Z" fill="#336DFD"/>
<path d="M1267 268.939C1270.57 271.383 1266.95 296.603 1265.37 301.656C1260.47 317.403 1246.79 329.052 1245.38 303.619C1245.02 296.87 1250.88 271.343 1257.67 269.492C1258.41 269.289 1266.62 268.678 1267 268.939Z" fill="#336DFD"/>
<path d="M1215.32 298.248C1209.4 297.331 1211.9 286.474 1214.3 282.588C1219.17 274.715 1233.22 265.675 1241.46 262.027C1243.21 261.247 1245.54 258.471 1246.7 258.369C1247.99 258.26 1255.61 264.785 1254.47 267.083C1246.26 275.635 1228.48 300.289 1215.33 298.246L1215.32 298.248Z" fill="#336DFD"/>
<path d="M1290.09 251.723C1292.65 251.125 1319.7 262.562 1323.46 265.015C1339.17 275.244 1336.92 288.71 1316.63 281.819C1310.8 279.84 1287.7 266.746 1286 261.65C1285.73 260.848 1289.49 251.868 1290.11 251.722L1290.09 251.723Z" fill="#336DFD"/>
<path d="M1244.71 242.898C1244.05 244.829 1246.52 252.423 1246.21 252.828C1245.7 253.52 1232.03 257.54 1229.79 258.013C1223.62 259.295 1187.55 263.297 1193.54 250.285C1199.24 237.906 1233.29 242.407 1244.7 242.9L1244.71 242.898Z" fill="#336DFD"/>
<path d="M1287.45 171.616C1294.83 177.107 1286.88 216.927 1280.75 222.348C1279.38 223.556 1273.31 223.135 1271.87 222.46C1268.27 220.776 1272.36 189.264 1274.06 184.013C1275.6 179.274 1281.47 167.163 1287.46 171.626L1287.45 171.616Z" fill="#336DFD"/>
<path d="M1324.96 190.035C1332.33 196.574 1325.24 205.083 1319.8 211.265C1315.98 215.613 1295.41 232.871 1290.44 230.887C1290.09 230.749 1285.54 225.618 1285.56 225.052C1285.58 223.886 1297.41 208.177 1299.23 206.133C1306.87 197.528 1315.76 184.42 1324.96 190.035Z" fill="#336DFD"/>
<path d="M1332.7 244.488C1320.59 247.999 1306.52 246.649 1294.13 247.776C1295.13 245.054 1291.14 238.435 1291.37 237.976C1291.84 237.099 1307.72 231.883 1310.19 231.247C1317.2 229.467 1344.9 223.339 1344.77 235.476C1344.72 240.071 1335.91 243.559 1332.7 244.488Z" fill="#336DFD"/>
<path d="M1206.75 205.956C1214.23 202.133 1233 214.09 1239.14 218.695C1241.37 220.372 1248.59 226.166 1250.17 227.841C1253.05 230.927 1246.71 238.002 1244.83 238.114C1242.52 238.251 1223.1 228.735 1219.92 226.743C1215.8 224.167 1197.53 210.661 1206.75 205.944L1206.75 205.956Z" fill="#336DFD"/>
<ellipse cx="27.778" cy="27.8082" rx="27.778" ry="27.8082" transform="matrix(0.988361 -0.152131 0.149076 0.988827 1239.24 222.422)" fill="#222222"/>
<path d="M1399.13 319.503C1401.01 321.123 1405.21 327.125 1406.71 329.491C1410.31 335.172 1422.35 357.169 1407.66 354.825C1399.56 353.525 1389.01 328.733 1389.79 320.647C1392.78 321.052 1395 321.201 1395.73 317.765C1396.58 318.736 1398.34 318.819 1399.13 319.503Z" fill="#336DFD"/>
<path d="M1384.32 284.084C1384.15 284.454 1377.98 287.302 1377 286.883C1373.34 285.302 1362.42 262.501 1361.7 257.695C1359.53 243.285 1370.41 246.096 1376.01 255.718C1378.3 259.636 1385.72 281.016 1384.32 284.084Z" fill="#336DFD"/>
<path d="M1386.07 319.988C1388.81 321.868 1386.03 341.257 1384.82 345.141C1381.05 357.248 1370.53 366.203 1369.45 346.651C1369.17 341.462 1373.68 321.837 1378.9 320.414C1379.47 320.258 1385.78 319.788 1386.07 319.988Z" fill="#336DFD"/>
<path d="M1346.34 342.519C1341.79 341.814 1343.71 333.467 1345.56 330.479C1349.3 324.427 1360.1 317.477 1366.44 314.672C1367.78 314.072 1369.58 311.939 1370.47 311.86C1371.46 311.777 1377.32 316.793 1376.44 318.559C1370.13 325.134 1356.46 344.088 1346.35 342.518L1346.34 342.519Z" fill="#336DFD"/>
<path d="M1403.82 306.753C1405.79 306.294 1426.59 315.086 1429.47 316.971C1441.55 324.835 1439.82 335.189 1424.23 329.891C1419.74 328.369 1401.99 318.302 1400.68 314.385C1400.47 313.768 1403.36 306.864 1403.83 306.752L1403.82 306.753Z" fill="#336DFD"/>
<path d="M1368.94 299.964C1368.42 301.448 1370.33 307.286 1370.09 307.598C1369.7 308.13 1359.19 311.221 1357.46 311.584C1352.72 312.569 1324.99 315.646 1329.6 305.643C1333.98 296.126 1360.16 299.586 1368.93 299.966L1368.94 299.964Z" fill="#336DFD"/>
<path d="M1401.8 245.168C1407.47 249.39 1401.36 280.003 1396.64 284.171C1395.59 285.099 1390.92 284.776 1389.82 284.257C1387.05 282.962 1390.19 258.736 1391.5 254.699C1392.68 251.055 1397.2 241.745 1401.81 245.176L1401.8 245.168Z" fill="#336DFD"/>
<path d="M1430.63 259.327C1436.3 264.355 1430.84 270.896 1426.67 275.649C1423.73 278.991 1407.91 292.26 1404.09 290.734C1403.82 290.628 1400.33 286.683 1400.34 286.249C1400.35 285.352 1409.45 273.275 1410.85 271.704C1416.72 265.088 1423.55 255.011 1430.63 259.327Z" fill="#336DFD"/>
<path d="M1436.58 301.187C1427.27 303.886 1416.46 302.848 1406.93 303.715C1407.69 301.622 1404.63 296.533 1404.81 296.181C1405.17 295.506 1417.38 291.496 1419.28 291.007C1424.66 289.639 1445.96 284.928 1445.86 294.258C1445.82 297.791 1439.05 300.473 1436.58 301.187Z" fill="#336DFD"/>
<path d="M1339.75 271.565C1345.5 268.625 1359.93 277.818 1364.65 281.358C1366.37 282.647 1371.91 287.102 1373.13 288.39C1375.35 290.762 1370.47 296.201 1369.02 296.287C1367.25 296.393 1352.32 289.077 1349.87 287.545C1346.7 285.565 1332.66 275.182 1339.75 271.555L1339.75 271.565Z" fill="#336DFD"/>
<ellipse cx="21.3556" cy="21.3788" rx="21.3556" ry="21.3788" transform="matrix(0.988361 -0.152131 0.149076 0.988827 1364.73 284.227)" fill="#222222"/>
<path d="M1257.72 448.797C1251.42 436.926 1264.86 429.827 1271.64 422.498C1281.78 411.531 1287.78 395.703 1288.64 380.866C1289.59 364.369 1278.58 350.752 1268.59 338.701C1283.53 330.362 1298.48 322.054 1312.95 313.004C1313.59 314.24 1314.45 315.406 1314.95 316.722C1318.33 325.503 1323.53 338.571 1328.76 346.603C1332.03 351.642 1337 355.484 1340.24 360.566C1346.6 370.532 1349.35 383.511 1356.26 393.413L1337.92 403.717L1326.41 383.061C1322.75 384.365 1321.06 387.253 1319.31 390.489C1314.59 399.245 1307.97 420.553 1299.25 425.454L1257.72 448.8L1257.72 448.797Z" fill="#E1D2F3"/>
<path d="M78.4571 337.78C74.5102 345.459 69.7854 356.213 66.2611 363.249L52.3257 392.941C48.6112 402.386 42.5612 414.443 38.3386 424.438C19.6119 468.749 4.36231 512.656 -10.5425 556.603L-5.38195 557.771L-4.67627 555.731C11.8266 506.44 29.1556 456.748 51.2684 407.051C71.6725 361.189 94.7493 315.668 119.718 272.386L116.37 268.915C108.716 282.704 99.0205 298.638 92.4684 310.929C87.8089 319.671 82.9655 329.012 78.4571 337.78Z" fill="#8A9D4C"/>
<path d="M22.1956 390.58C20.0114 399.155 17.7368 410.974 15.8255 418.809L8.67561 451.653C7.10336 461.932 3.8177 475.36 1.86849 486.306C-6.77891 534.833 -12.1164 582.14 -17.1082 629.405L-11.8107 629.355L-11.5654 627.157C-6.1761 574.195 -0.0669852 520.638 10.7163 465.951C20.6649 415.485 33.2999 364.73 48.2713 315.759L44.2436 313.089C39.7675 328.621 33.7639 346.768 30.0384 360.547C27.3894 370.348 24.6913 380.789 22.1956 390.58Z" fill="#8A9D4C"/>
<path d="M17.2767 365.675L13.6373 394.599L-7.17527 574.277L-13.5727 573.259C-8.52493 530.858 -4.28938 488.534 0.611285 446.109C5.08584 407.377 9.69142 368.937 16.3058 330.069L27.9504 277.257C37.0663 226.128 54.3971 178.96 64.5663 128.553L72.988 121.742C65.9262 158.337 54.6992 192.736 45.7378 228.32C34.4757 273.067 24.7643 319.581 17.2767 365.675Z" fill="#8A9D4C"/>
<path d="M75.8475 154.875C75.6552 155.02 76.2435 156.279 74.5913 156.767C65.6992 159.382 61.3494 152.224 62.5562 166.766C63.221 174.767 67.0961 198.914 75.5906 201.679C85.0816 204.766 87.501 192.117 87.1905 185.103C86.9794 180.421 81.922 155.239 77.8555 154.26C77.0704 154.299 76.5159 154.365 75.8475 154.875Z" fill="#336DFD"/>
<path d="M45.3662 148.1C45.5883 147.516 41.5393 138.321 41.055 138.074C39.1117 137.103 16.0339 144.446 12.3399 146.007C8.2249 147.753 2.38894 150.357 -0.0653625 154.14C-4.10559 160.371 -3.71114 166.367 4.28665 168.28C16.8079 171.273 34.9718 154.185 45.3662 148.1Z" fill="#336DFD"/>
<path d="M26.6852 133.69C28.1143 133.786 40.6449 133.355 41.2964 133.027C42.9303 132.212 44.5034 122.562 43.6562 121.556C42.8091 120.549 22.209 113.648 19.4494 113.089C12.5667 111.702 -2.87576 109.601 -5.65647 118.118C-9.04231 128.472 10.1021 132.593 17.3911 132.977C20.1669 133.128 24.6024 133.644 26.6852 133.69Z" fill="#336DFD"/>
<path d="M23.4377 79.5174C14.9183 74.399 7.34327 80.9689 10.6834 90.0899C14.4605 100.41 33.8247 113.554 43.1437 119.225C43.8851 116.401 49.699 113.036 50.3672 111.403C51.2485 109.244 37.0819 90.9725 34.4836 88.348C32.0689 85.9187 26.2562 81.2083 23.4377 79.5174Z" fill="#336DFD"/>
<path d="M89.7044 114.439C87.2735 117.577 90.3467 125.335 92.845 125.74C97.9593 126.579 116.098 117.018 121.005 113.704C127.121 109.572 135.605 103.773 132.156 95.3439C127.632 84.2771 107.199 99.8102 101.77 104.052C99.1802 106.076 91.3275 112.324 89.7044 114.439Z" fill="#336DFD"/>
<path d="M83.3384 153.303C82.6354 155.177 93.7288 167.942 95.7749 170.028C98.7966 173.1 105.994 179.216 109.542 181.264C125.683 190.596 131.168 175.165 117.763 162.887C114.657 160.047 92.8425 146.274 89.9047 146.509C89.4299 146.542 83.4997 152.861 83.3292 153.305L83.3384 153.303Z" fill="#336DFD"/>
<path d="M30.5293 197.406C42.6349 204.189 53.5458 175.846 55.7965 167.813C56.3086 165.98 58.3372 158.589 58.2562 157.433C58.1255 155.644 50.799 151.625 49.157 152.507C48.0674 153.089 42.44 159.865 41.1685 161.44C35.6314 168.305 25.944 181.148 27.1124 190.242C27.4211 192.642 28.2949 196.163 30.5308 197.416L30.5293 197.406Z" fill="#336DFD"/>
<path d="M92.1165 130.097C93.8534 132.027 91.7253 141.006 92.1304 141.4C92.8947 142.137 110.464 145.074 113.046 145.418C120.905 146.449 144.439 149.288 141.043 135.57C138.758 126.332 125.22 126.878 118.431 126.494C109.638 126.856 100.792 128.699 92.1241 130.086L92.1165 130.097Z" fill="#336DFD"/>
<path d="M58.6048 109.419C60.0968 110.052 67.9293 107.523 70.3585 107.507C70.4003 96.753 70.394 69.7686 61.4517 62.8806C57.4585 59.813 51.7249 62.2117 49.9375 66.7236C49.3802 68.1203 48.4486 76.2138 48.5119 77.826C48.6752 82.1668 55.7829 108.219 58.614 109.417L58.6048 109.419Z" fill="#336DFD"/>
<path d="M86.2568 114.557C87.3525 109.466 92.1592 105.375 94.8211 100.857C99.0661 93.6452 108.237 76.0399 102.505 68.495C100.243 65.5208 95.5524 67.1008 92.3944 68.4392C83.8729 72.0663 77.2756 100.291 75.9974 109.291C76.4649 111.627 83.1626 112.234 84.9269 114.774L86.2645 114.547L86.2568 114.557Z" fill="#336DFD"/>
<ellipse cx="27.3711" cy="27.434" rx="27.3711" ry="27.434" transform="matrix(-0.985872 0.167506 0.165548 0.986202 89.2578 101.305)" fill="#222222"/>
<path d="M128.617 271.225C126.622 273.151 122.301 280.115 120.773 282.851C117.1 289.42 104.999 314.735 121.23 311.199C130.187 309.239 140.463 280.896 139.11 271.916C135.798 272.556 133.325 272.862 132.303 269.071C131.42 270.208 129.459 270.411 128.617 271.225Z" fill="#336DFD"/>
<path d="M143 230.783C143.212 231.186 150.264 233.979 151.34 233.45C155.327 231.456 166.123 205.314 166.642 199.903C168.187 183.678 156.225 187.498 150.558 198.592C148.249 203.109 141.258 227.446 143 230.783Z" fill="#336DFD"/>
<path d="M143.228 270.956C140.283 273.226 144.551 294.701 146.138 298.963C151.071 312.244 163.34 321.585 163.367 299.685C163.368 293.874 157.163 272.244 151.253 270.981C150.612 270.843 143.545 270.714 143.228 270.956Z" fill="#336DFD"/>
<path d="M188.905 293.637C193.937 292.564 191.297 283.363 189.054 280.142C184.511 273.618 172.051 266.532 164.811 263.797C163.275 263.211 161.148 260.941 160.148 260.909C159.039 260.878 152.808 266.847 153.889 268.765C161.324 275.713 177.718 296.024 188.895 293.636L188.905 293.637Z" fill="#336DFD"/>
<path d="M122.608 257.281C120.388 256.891 97.7205 268.014 94.6117 270.301C81.6155 279.84 84.1705 291.294 101.242 284.4C106.154 282.419 125.352 270.064 126.575 265.607C126.773 264.905 123.133 257.376 122.597 257.28L122.608 257.281Z" fill="#336DFD"/>
<path d="M161.132 247.543C161.794 249.168 160.023 255.809 160.307 256.142C160.776 256.712 172.686 259.506 174.631 259.804C179.984 260.607 211.1 262.307 205.363 251.422C199.901 241.066 170.907 246.57 161.143 247.544L161.132 247.543Z" fill="#336DFD"/>
<path d="M121.155 188.417C115.084 193.486 123.744 227.284 129.25 231.642C130.476 232.614 135.666 231.96 136.862 231.311C139.875 229.692 134.912 202.84 133.209 198.414C131.672 194.42 126.076 184.307 121.143 188.427L121.155 188.417Z" fill="#336DFD"/>
<path d="M89.834 206.026C83.8173 211.995 90.2952 218.959 95.2418 224.005C98.7182 227.553 117.162 241.38 121.328 239.436C121.625 239.301 125.285 234.677 125.244 234.192C125.176 233.192 114.3 220.275 112.65 218.607C105.701 211.587 97.4698 200.761 89.834 206.026Z" fill="#336DFD"/>
<path d="M85.7184 253.131C96.2678 255.564 108.273 253.727 118.955 254.098C117.975 251.809 121.09 245.932 120.865 245.55C120.422 244.819 106.562 241.105 104.411 240.677C98.3218 239.486 74.2767 235.558 74.957 245.973C75.2113 249.917 82.93 252.488 85.7184 253.131Z" fill="#336DFD"/>
<path d="M191.974 214.01C185.384 211.087 169.844 222.258 164.791 226.508C162.952 228.055 157.034 233.378 155.754 234.892C153.426 237.68 159.187 243.449 160.811 243.454C162.795 243.461 179.011 234.354 181.643 232.491C185.058 230.081 200.091 217.605 191.975 213.999L191.974 214.01Z" fill="#336DFD"/>
<ellipse cx="23.8479" cy="23.9165" rx="23.8479" ry="23.9165" transform="matrix(-0.995318 -0.0966591 -0.0954142 0.995438 164.863 229.691)" fill="#222222"/>
<path d="M110.343 351.146C113.597 338.037 98.7894 334.433 90.4126 328.965C77.8829 320.782 68.2 306.848 63.762 292.614C58.8254 276.789 66.226 260.825 73.0261 246.634C56.4595 242.19 39.8906 237.78 23.6172 232.527C23.2912 233.888 22.737 235.235 22.5698 236.64C21.4196 246.018 19.5349 260.019 16.3979 269.125C14.4353 274.836 10.5397 279.797 8.62285 285.541C4.85555 296.808 5.32564 310.121 1.01389 321.459L21.3554 326.983L27.54 304.041C31.4177 304.41 33.7668 306.806 36.2535 309.526C42.9732 316.89 54.5883 336.007 64.2632 338.634L110.349 351.148L110.343 351.146Z" fill="#E1D2F3"/>
<path d="M542 264.45C542.171 264.356 542.828 264.228 543.667 264.078C544.428 263.941 545.397 263.818 546.865 263.737C551.171 263.499 552.235 263.939 554.089 264.154C559.138 264.74 560.015 265.043 561.094 265.196C562.874 265.449 563.936 265.8 566.304 266.358C567.784 266.706 569.104 266.89 570.07 267.129C570.806 267.311 571.713 267.496 572.371 267.726C573.033 267.864 573.622 268.081 574.336 268.286C574.569 268.352 574.869 268.435 575.602 268.661" stroke="#222222" stroke-width="4" stroke-linecap="round"/>
<path d="M507.667 262.005C507.522 261.874 506.911 261.602 506.127 261.266C505.416 260.961 504.5 260.623 503.089 260.213C498.947 259.01 497.811 259.199 495.956 258.991C490.905 258.424 489.982 258.521 488.896 258.427C487.106 258.273 485.992 258.375 483.559 258.385C482.038 258.391 480.711 258.272 479.716 258.288C478.958 258.299 478.033 258.275 477.34 258.35C476.663 258.336 476.041 258.415 475.299 258.454C475.057 258.465 474.746 258.478 473.981 258.533" stroke="#222222" stroke-width="4" stroke-linecap="round"/>
<path d="M541.843 269.435C542.03 269.376 542.699 269.383 543.551 269.404C544.325 269.422 545.298 269.495 546.753 269.71C551.019 270.339 551.973 270.983 553.747 271.566C558.576 273.151 559.375 273.623 560.401 273.99C562.094 274.594 563.064 275.15 565.272 276.171C566.653 276.81 567.909 277.254 568.808 277.682C569.492 278.008 570.344 278.37 570.943 278.727C571.564 278.995 572.097 279.326 572.755 279.67C572.971 279.781 573.248 279.922 573.921 280.29" stroke="#222222" stroke-width="4" stroke-linecap="round"/>
<path d="M506.699 266.896C506.53 266.796 505.877 266.652 505.041 266.48C504.284 266.324 503.319 266.176 501.854 266.057C497.556 265.709 496.48 266.121 494.621 266.289C489.558 266.745 488.674 267.025 487.591 267.151C485.806 267.358 484.735 267.681 482.354 268.178C480.865 268.489 479.541 268.638 478.569 268.853C477.829 269.016 476.918 269.178 476.254 269.39C475.588 269.512 474.994 269.713 474.275 269.9C474.04 269.96 473.738 270.035 473 270.242" stroke="#222222" stroke-width="4" stroke-linecap="round"/>
</svg>
