<svg width="1440" height="835" viewBox="0 0 1440 835" fill="none" xmlns="http://www.w3.org/2000/svg">
<path d="M131.517 831.911C100.727 795.735 39.8779 735.469 69.5244 698.731C94.491 667.793 182.8 621.981 100.694 562.626C23.8109 507.046 44.8341 719.604 134.352 589.67C205.967 485.723 58.8421 346.626 -0.976562 319" stroke="#B2A3C4" stroke-width="4" stroke-linecap="round" stroke-dasharray="8 8"/>
<path d="M446.158 227.676L392.692 319.536L506.609 312.526L446.158 227.676Z" fill="#8A9D4C"/>
<path d="M984.357 200.477L930.891 292.335L1044.81 285.324L984.357 200.477Z" fill="#8A9D4C"/>
<path d="M702.234 334.354C697.884 338.757 707.961 343.427 713.544 345.212C718.764 342.762 728.113 336.897 723.74 333.031C718.274 328.199 707.672 328.851 702.234 334.354Z" fill="#222222" stroke="#222222" stroke-width="5" stroke-linecap="round" stroke-linejoin="round"/>
<path d="M679.203 360.49C691.813 365.739 716.206 368.763 712.892 338.865C712.589 351.918 719.603 373.645 750.08 356.128" stroke="#222222" stroke-width="5" stroke-linecap="round" stroke-linejoin="round"/>
<path d="M101.377 618.437C85.8955 606.711 81.5483 502.371 98.6355 493.572C119.991 482.576 156.605 484.114 170.55 496.176C184.496 508.239 180.057 581.826 176.095 617.112C177.271 632.588 115.39 629.05 101.377 618.437Z" fill="#8A9D4C"/>
<path d="M-97.31 646.303L96.0741 609.72C92.594 602.621 82.9714 549.087 91.0647 508.844L-111.932 494.004L-97.31 646.303Z" fill="#DCFC73"/>
<path d="M270.167 642.336C332.019 643.419 494.274 593.98 434.309 491.956C408.311 447.723 339.071 477.303 283.679 490.724C236.859 502.068 206.931 492.209 176.246 510.729C179.655 517.009 177.155 584.148 175.234 615.304C188.895 629.685 220.685 641.471 270.167 642.336Z" fill="white"/>
<path d="M368.617 506.758C369.182 506.12 371.685 504.363 374.237 502.562C375.387 501.751 381.82 498.927 391.493 494.598C397.225 492.033 402.714 489.382 409.655 487.248C418.205 485.734 420.918 485.273 423.941 484.821C425.181 484.592 425.824 484.362 427.713 484.007" stroke="#222222" stroke-width="5" stroke-linecap="round"/>
<path d="M383.043 528.786C383.597 528.089 385.193 526.133 387.328 524.883C391.097 522.677 396.768 520.649 402.738 518.836C407.677 517.335 411.14 516.456 418.761 515.398C422.464 514.569 428.528 513.519 435.908 512.786C439.018 512.462 440.838 512.238 442.713 512.007" stroke="#222222" stroke-width="5" stroke-linecap="round"/>
<path d="M393.569 555.039C394.203 554.527 396.725 553.198 398.879 552.224C401.034 551.25 404.897 549.972 410.504 548.873C417.572 547.487 422.8 547.155 424.258 546.838C428.545 546.316 436.767 545.19 441.918 544.391C442.823 544.266 444.074 544.146 445.766 544.134" stroke="#222222" stroke-width="5" stroke-linecap="round"/>
<path d="M1353.27 532.539C1366.23 518.082 1350.65 414.82 1332.2 409.434C1309.14 402.701 1273.49 411.176 1262.1 425.672C1250.7 440.167 1269.06 511.566 1279.66 545.454C1281.45 560.871 1341.53 545.625 1353.27 532.539Z" fill="#8A9D4C"/>
<path d="M1191.79 589.15C1131.28 601.98 962.579 584.313 1002.04 472.744C1019.15 424.373 1092.75 440.24 1149.68 442.877C1197.81 445.106 1225.31 429.734 1258.96 442.078C1256.81 448.891 1272.03 514.329 1279.85 544.55C1269.17 561.268 1240.21 578.886 1191.79 589.15Z" fill="white"/>
<path d="M1071.36 473.918C1070.68 473.399 1067.89 472.151 1065.04 470.868C1063.76 470.29 1056.91 468.742 1046.59 466.332C1040.47 464.904 1034.58 463.347 1027.36 462.572C1018.68 462.712 1015.93 462.775 1012.87 462.907C1011.61 462.918 1010.94 462.814 1009.01 462.825" stroke="#222222" stroke-width="5" stroke-linecap="round"/>
<path d="M1059.78 498.954C1059.1 498.375 1057.16 496.758 1054.83 495.937C1050.71 494.489 1044.76 493.577 1038.55 492.932C1033.42 492.399 1029.85 492.195 1022.17 492.606C1018.37 492.497 1012.22 492.62 1004.83 493.304C1001.72 493.578 999.891 493.704 998.006 493.833" stroke="#222222" stroke-width="5" stroke-linecap="round"/>
<path d="M1055.33 527.969C1054.61 527.587 1051.88 526.762 1049.58 526.215C1047.28 525.669 1043.25 525.149 1037.53 525.137C1030.33 525.121 1025.14 525.79 1023.64 525.756C1019.33 526.059 1011.05 526.518 1005.84 526.713C1004.93 526.763 1003.68 526.883 1002.01 527.194" stroke="#222222" stroke-width="5" stroke-linecap="round"/>
<path d="M-220.764 245.461C-197.037 261.861 -171.083 241.682 -103.39 287.678C-35.6969 333.674 -29.2809 317.339 29.0766 277.719C173.77 179.485 -132.907 82.4276 -124.906 142.302C-118.999 186.501 17.3897 219.054 24.089 107.367C30.7883 -4.31942 142.573 42.9725 224.5 2.5" stroke="#B2A3C4" stroke-width="4" stroke-linecap="round" stroke-dasharray="8 8"/>
<path d="M893.502 831.497C911.504 733.997 1043.61 663.385 1118 697.499C1192.39 731.612 1294.5 770.997 1358.5 757.5C1529.62 721.409 1287.5 615.5 1254 647C1221.51 677.546 1364.61 755.025 1370.5 647C1376.39 538.974 1488 533 1502 570" stroke="#B2A3C4" stroke-width="4" stroke-linecap="round" stroke-dasharray="8 8"/>
<path d="M1410.29 580.335C1395.71 566.058 1374.93 579.702 1364.78 592.429C1355 604.692 1348.74 620.959 1348.29 636.53L1380.08 659.724C1381.1 660.203 1382.35 659.182 1383.14 658.537C1400.67 644.244 1432.25 601.824 1410.29 580.335Z" fill="#B2A3C4"/>
<path d="M1323.21 660.387C1323.09 660.655 1323.24 661.364 1323.57 661.562C1326.15 663.268 1328.85 664.888 1331.36 666.67C1332.12 667.208 1332.98 668.372 1333.61 668.674C1334.19 668.957 1335.36 666.604 1336.93 668.189C1338.8 670.088 1333.7 673.759 1332.65 675.458C1332.41 674.094 1331.79 675.188 1331.53 675.076C1329.81 674.332 1332.28 671.771 1331.94 671.25C1331.8 671.035 1328.17 668.453 1327.77 668.235C1327.49 668.081 1327.09 668.614 1326.74 668.452C1324.32 667.311 1323.52 664.834 1320.89 664.303C1307.83 684.734 1335.38 706.994 1352.87 690.863C1350.25 689.097 1347.06 683.522 1344.48 682.277C1344.12 682.106 1342.14 684.321 1340.76 681.912C1339.81 680.259 1345.54 675.548 1346.55 675.957C1348.64 676.802 1348.65 678.429 1346.92 679.75L1355.24 688.824C1357.95 686.52 1360.26 683.836 1362.58 681.13C1361.18 680.335 1353.4 673.078 1352.77 673.136C1352.6 673.15 1350.81 674.98 1349.86 674.705C1349.4 674.005 1348.86 672.749 1349.23 671.943C1349.73 670.866 1353.6 666.242 1354.78 667.149C1356.92 668.799 1354.99 670.168 1355.29 670.63C1356.75 672.88 1362.71 675.693 1364.74 678.049C1365.64 678.147 1371.71 671.102 1371.73 669.719C1371.75 669.082 1371.43 668.921 1371.07 668.519C1366.86 663.783 1360.81 659.908 1355.97 655.9C1351.13 651.892 1346.5 647.435 1341.25 643.802C1339.9 643.623 1334.45 649.346 1332.74 650.197C1336.02 652.04 1339.03 657.432 1342.07 659.006C1342.8 659.387 1343.7 657.006 1345.14 659.445C1346.32 661.443 1339.9 668.345 1338.7 663.725C1338.41 662.62 1340.03 661.311 1339.93 661.219L1330.08 652.566C1328.68 654.897 1324.21 658.233 1323.21 660.381L1323.21 660.387Z" fill="#B2A3C4"/>
<path d="M1227.72 649.565C1244.72 638.26 1262.59 655.542 1270.18 669.937C1277.5 683.809 1280.62 700.96 1278.16 716.342L1242.59 733.196C1241.5 733.476 1240.46 732.241 1239.81 731.46C1225.25 714.146 1202.15 666.581 1227.72 649.565Z" fill="#B2A3C4"/>
<path d="M1298.34 744.459C1298.42 744.745 1298.13 745.413 1297.77 745.545C1294.92 746.741 1291.96 747.828 1289.16 749.111C1288.32 749.498 1287.25 750.48 1286.58 750.66C1285.95 750.829 1285.24 748.298 1283.41 749.564C1281.22 751.081 1285.55 755.64 1286.26 757.503C1286.75 756.209 1287.15 757.398 1287.43 757.337C1289.25 756.926 1287.3 753.949 1287.74 753.502C1287.92 753.318 1291.97 751.458 1292.4 751.318C1292.71 751.219 1293 751.818 1293.37 751.722C1295.96 751.053 1297.21 748.77 1299.89 748.738C1308.91 771.248 1277.69 787.976 1263.52 768.865C1266.42 767.62 1270.59 762.737 1273.36 761.996C1273.75 761.895 1275.28 764.441 1277.09 762.332C1278.33 760.885 1273.58 755.188 1272.51 755.401C1270.29 755.841 1269.98 757.438 1271.44 759.058L1261.57 766.42C1259.33 763.65 1257.56 760.582 1255.79 757.491C1257.32 756.971 1266.31 751.293 1266.93 751.469C1267.09 751.514 1268.51 753.647 1269.49 753.553C1270.07 752.95 1270.83 751.817 1270.62 750.956C1270.33 749.805 1267.39 744.54 1266.06 745.211C1263.65 746.433 1265.3 748.139 1264.92 748.537C1263.06 750.475 1256.68 752.125 1254.25 754.063C1253.34 753.99 1248.7 745.938 1248.93 744.573C1249.04 743.945 1249.38 743.846 1249.8 743.518C1254.82 739.651 1261.49 736.972 1266.99 733.938C1272.5 730.904 1277.88 727.389 1283.72 724.799C1285.07 724.874 1289.36 731.514 1290.88 732.668C1287.32 733.869 1283.35 738.603 1280.07 739.583C1279.28 739.82 1278.84 737.314 1276.97 739.441C1275.44 741.184 1280.46 749.163 1282.5 744.848C1282.99 743.816 1281.65 742.228 1281.77 742.157L1293.06 735.494C1293.99 738.044 1297.76 742.156 1298.34 744.453L1298.34 744.459Z" fill="#B2A3C4"/>
<path d="M18.0095 333.369C29.8115 316.717 52.6935 326.432 64.9466 337.143C76.757 347.463 85.8293 362.349 89.0533 377.589L61.9105 406.088C60.9903 406.741 59.5784 405.961 58.6854 405.467C38.8868 394.533 0.243874 358.433 18.0095 333.369Z" fill="#B2A3C4"/>
<path d="M117.984 396.588C118.155 396.829 118.127 397.554 117.835 397.808C115.609 399.947 113.239 402.022 111.086 404.225C110.434 404.89 109.794 406.189 109.233 406.598C108.709 406.98 107.136 404.874 105.882 406.712C104.377 408.916 110.055 411.617 111.386 413.102C111.383 411.716 112.18 412.684 112.418 412.526C113.977 411.487 111.089 409.408 111.335 408.834C111.438 408.597 114.548 405.409 114.899 405.123C115.15 404.921 115.638 405.374 115.949 405.153C118.125 403.599 118.477 401.017 120.963 400.027C137.464 417.797 114.33 444.619 94.2431 431.869C96.5057 429.664 98.6465 423.609 100.966 421.923C101.286 421.691 103.636 423.516 104.563 420.899C105.203 419.103 98.7218 415.492 97.8028 416.074C95.8915 417.28 96.1746 418.882 98.1125 419.872L91.5498 430.285C88.4657 428.503 85.7127 426.275 82.9477 424.027C84.1846 422.994 90.5416 414.465 91.1801 414.408C91.3443 414.393 93.436 415.874 94.3222 415.433C94.6449 414.663 94.9493 413.331 94.4409 412.604C93.7586 411.634 89.1241 407.775 88.1246 408.878C86.3139 410.884 88.4631 411.885 88.2524 412.393C87.2164 414.868 81.85 418.7 80.2783 421.38C79.4074 421.638 72.1806 415.79 71.9056 414.434C71.7793 413.809 72.0632 413.594 72.3424 413.135C75.6395 407.723 80.8984 402.83 84.9489 398.021C88.9994 393.213 92.7594 388.001 97.2753 383.489C98.5656 383.074 104.952 387.731 106.784 388.263C103.893 390.661 101.886 396.505 99.1833 398.595C98.5276 399.101 97.2182 396.92 96.2357 399.576C95.4298 401.754 102.983 407.397 103.339 402.638C103.422 401.499 101.599 400.5 101.686 400.39L109.833 390.118C111.617 392.163 116.613 394.647 117.984 396.581L117.984 396.588Z" fill="#B2A3C4"/>
<path d="M75.6405 167.123C58.2323 156.468 41.0287 174.412 33.9867 189.084C27.1978 203.223 24.7244 220.479 27.7658 235.757L63.9413 251.256C65.0447 251.494 66.0347 250.22 66.661 249.415C80.55 231.564 101.844 183.159 75.6405 167.123Z" fill="#B2A3C4"/>
<path d="M8.66 264.618C8.59838 264.907 8.9095 265.563 9.27767 265.681C12.1669 266.769 15.1623 267.744 18.0091 268.919C18.8705 269.274 19.9711 270.216 20.6477 270.37C21.2796 270.515 21.8953 267.96 23.7728 269.155C26.0239 270.588 21.8697 275.307 21.2315 277.196C20.6883 275.922 20.3361 277.125 20.0556 277.074C18.2134 276.733 20.0491 273.684 19.5964 273.254C19.4088 273.077 15.2933 271.372 14.8587 271.247C14.5482 271.16 14.2787 271.769 13.9052 271.688C11.293 271.117 9.95183 268.883 7.27681 268.952C-0.887769 291.787 30.9428 307.324 44.3814 287.691C41.4331 286.556 37.0798 281.834 34.2836 281.199C33.8986 281.112 32.4577 283.714 30.574 281.675C29.2786 280.276 33.8125 274.404 34.8865 274.576C37.1184 274.932 37.4894 276.516 36.0984 278.19L46.2329 285.175C48.3654 282.322 50.018 279.189 51.6735 276.033C50.1297 275.572 40.9265 270.237 40.3173 270.436C40.1605 270.487 38.8212 272.672 37.8331 272.616C37.233 272.035 36.4286 270.931 36.6096 270.063C36.8543 268.902 39.5933 263.529 40.9469 264.15C43.4013 265.28 41.8205 267.047 42.2142 267.431C44.1415 269.297 50.5835 270.705 53.0842 272.549C53.9861 272.442 58.3242 264.22 58.0427 262.865C57.9128 262.242 57.5669 262.156 57.1294 261.844C51.9669 258.169 45.2055 255.744 39.5881 252.92C33.9708 250.096 28.4614 246.788 22.5332 244.42C21.1835 244.546 17.1489 251.342 15.6749 252.554C19.2767 253.619 23.4235 258.199 26.7311 259.055C27.5332 259.262 27.8771 256.741 29.8268 258.796C31.4255 260.48 26.7073 268.643 24.5045 264.408C23.9791 263.395 25.261 261.758 25.1379 261.692L13.6032 255.459C12.7688 258.043 9.15539 262.294 8.65825 264.612L8.66 264.618Z" fill="#B2A3C4"/>
<path d="M143.135 696.077C129.71 680.704 107.927 692.681 96.8198 704.576C86.1132 716.037 78.5922 731.764 76.9254 747.252L106.81 772.861C107.792 773.418 109.117 772.499 109.956 771.917C128.548 759.038 163.343 719.216 143.135 696.077Z" fill="#B2A3C4"/>
<path d="M50.0662 769.08C49.9211 769.337 50.0217 770.056 50.3376 770.279C52.7692 772.182 55.3361 774.007 57.701 775.98C58.4169 776.577 59.1855 777.804 59.785 778.154C60.3446 778.481 61.6963 776.227 63.1303 777.929C64.85 779.97 59.4746 783.23 58.3006 784.842C58.1634 783.464 57.4675 784.507 57.2151 784.374C55.5592 783.498 58.2226 781.138 57.9194 780.591C57.7933 780.366 54.3762 777.508 53.9985 777.26C53.7283 777.084 53.289 777.584 52.9569 777.395C50.635 776.069 50.0233 773.536 47.45 772.802C32.8302 792.15 58.5573 816.495 77.2524 801.78C74.7785 799.815 72.0365 794.008 69.5583 792.565C69.217 792.367 67.0637 794.42 65.876 791.91C65.0583 790.188 71.141 785.94 72.1142 786.426C74.1376 787.433 74.0179 789.055 72.19 790.236L79.7718 799.932C82.6599 797.848 85.1736 795.353 87.6972 792.837C86.3622 791.934 79.1756 784.092 78.5346 784.099C78.3697 784.101 76.4384 785.785 75.5122 785.437C75.1132 784.703 74.6758 783.409 75.1081 782.635C75.6888 781.6 79.9094 777.292 81.0154 778.289C83.0196 780.101 80.9826 781.315 81.2435 781.799C82.5244 784.156 88.2507 787.426 90.0853 789.934C90.9778 790.102 97.5764 783.553 97.7129 782.176C97.7755 781.542 97.4712 781.357 97.147 780.928C93.3198 775.878 87.5931 771.541 83.0773 767.167C78.5615 762.792 74.2938 757.988 69.3449 753.955C68.0193 753.672 62.1368 758.951 60.368 759.666C63.4863 761.76 66.0736 767.37 68.9738 769.176C69.6773 769.614 70.7594 767.311 72.0055 769.855C73.0274 771.94 66.0838 778.318 65.2482 773.619C65.0499 772.494 66.7627 771.316 66.6652 771.215L57.5221 761.819C55.9534 764.034 51.2338 767.011 50.0663 769.074L50.0662 769.08Z" fill="#B2A3C4"/>
<path d="M1377.5 2.99999C1399.5 54 1032.09 48.1331 1057.5 113.999C1091.86 203.039 1300.5 163.499 1429.5 91.4992C1540 29.8272 1527.18 139.107 1401.5 210.001C1343 243.002 1214.72 288 1254.61 314C1294.5 340 1467.5 303.001 1452 310.5" stroke="#B2A3C4" stroke-width="4" stroke-linecap="round" stroke-dasharray="8 8"/>
<path d="M1369.06 191.913C1389.47 192.303 1394.31 216.686 1392.34 232.842C1390.45 248.412 1383.25 264.286 1372.46 275.525L1333.63 269.115C1332.58 268.722 1332.43 267.115 1332.33 266.099C1330.24 243.58 1338.34 191.323 1369.06 191.913Z" fill="#B2A3C4"/>
<path d="M1373.03 310.131C1372.93 310.408 1372.31 310.793 1371.94 310.695C1368.92 310.057 1365.87 309.266 1362.84 308.724C1361.92 308.559 1360.48 308.761 1359.83 308.526C1359.22 308.309 1360.08 305.824 1357.85 305.821C1355.18 305.816 1356.14 312.029 1355.66 313.965C1356.81 313.183 1356.46 314.387 1356.72 314.495C1358.46 315.199 1358.55 311.642 1359.16 311.523C1359.42 311.475 1363.8 312.253 1364.24 312.382C1364.55 312.476 1364.45 313.134 1364.8 313.267C1367.31 314.191 1369.65 313.031 1371.86 314.529C1366.45 338.168 1331.26 334.129 1330.51 310.349C1333.6 310.979 1339.81 309.343 1342.51 310.313C1342.88 310.447 1342.7 313.416 1345.38 312.711C1347.23 312.229 1346.57 304.84 1345.57 304.407C1343.49 303.505 1342.33 304.641 1342.6 306.8L1330.3 307.231C1330.04 303.679 1330.33 300.15 1330.64 296.599C1332.18 297.041 1342.81 297.499 1343.22 297.995C1343.32 298.122 1343.28 300.684 1344.14 301.169C1344.96 301.002 1346.23 300.505 1346.54 299.676C1346.96 298.566 1347.55 292.563 1346.07 292.358C1343.4 291.989 1343.78 294.329 1343.24 294.441C1340.61 294.976 1334.42 292.695 1331.32 292.903C1330.62 292.328 1331.39 283.063 1332.36 282.073C1332.8 281.617 1333.14 281.731 1333.67 281.704C1340 281.385 1347.01 282.981 1353.26 283.625C1359.52 284.269 1365.94 284.446 1372.21 285.641C1373.28 286.474 1373.02 294.374 1373.61 296.188C1370 295.147 1364.04 296.775 1360.79 295.716C1360.01 295.459 1361.07 293.149 1358.33 293.831C1356.07 294.39 1355.65 303.809 1359.79 301.426C1360.78 300.855 1360.58 298.785 1360.72 298.795L1373.79 299.752C1373.11 302.378 1373.86 307.906 1373.03 310.127L1373.03 310.131Z" fill="#B2A3C4"/>
<path d="M1316.82 47.2238C1302.06 61.3267 1315.01 82.5486 1327.39 93.1099C1339.32 103.29 1355.37 110.096 1370.92 111.064L1395.16 80.0581C1395.67 79.0524 1394.69 77.7694 1394.07 76.9579C1380.37 58.9643 1339.02 25.9951 1316.82 47.2238Z" fill="#B2A3C4"/>
<path d="M1393.93 136.916C1394.2 137.049 1394.91 136.916 1395.12 136.59C1396.91 134.076 1398.62 131.429 1400.48 128.978C1401.05 128.236 1402.24 127.413 1402.56 126.798C1402.86 126.225 1400.55 124.976 1402.18 123.467C1404.15 121.657 1407.65 126.88 1409.31 127.98C1407.94 128.179 1409.01 128.828 1408.89 129.086C1408.09 130.78 1405.61 128.225 1405.08 128.552C1404.86 128.689 1402.16 132.231 1401.93 132.619C1401.76 132.897 1402.28 133.313 1402.11 133.654C1400.89 136.033 1398.39 136.758 1397.77 139.362C1417.75 153.096 1440.92 126.3 1425.38 108.286C1423.52 110.846 1417.85 113.846 1416.52 116.387C1416.33 116.737 1418.48 118.795 1416.03 120.095C1414.34 120.989 1409.83 115.104 1410.27 114.11C1411.18 112.043 1412.81 112.089 1414.07 113.862L1423.42 105.852C1421.2 103.061 1418.6 100.662 1415.97 98.254C1415.13 99.6283 1407.62 107.16 1407.66 107.8C1407.67 107.965 1409.43 109.819 1409.13 110.76C1408.41 111.191 1407.14 111.686 1406.35 111.289C1405.29 110.756 1400.79 106.733 1401.74 105.583C1403.46 103.5 1404.76 105.48 1405.24 105.198C1407.53 103.812 1410.54 97.9444 1412.96 95.9988C1413.09 95.0997 1406.25 88.8024 1404.87 88.7279C1404.24 88.694 1404.06 89.0063 1403.65 89.3494C1398.78 93.4 1394.7 99.3159 1390.54 104.024C1386.37 108.732 1381.76 113.211 1377.96 118.337C1377.73 119.674 1383.27 125.313 1384.06 127.048C1386.02 123.838 1391.5 121.001 1393.18 118.023C1393.58 117.3 1391.23 116.323 1393.72 114.964C1395.76 113.849 1402.44 120.499 1397.78 121.545C1396.67 121.793 1395.41 120.135 1395.32 120.237L1386.34 129.794C1388.63 131.261 1391.81 135.842 1393.93 136.916L1393.93 136.916Z" fill="#B2A3C4"/>
<path d="M1126.38 677.656C1111.94 663.227 1091.02 676.653 1080.74 689.273C1070.84 701.433 1064.4 717.633 1063.78 733.198L1095.34 756.724C1096.35 757.214 1097.61 756.206 1098.41 755.57C1116.09 741.46 1148.11 699.374 1126.38 677.656Z" fill="#B2A3C4"/>
<path d="M1038.46 756.795C1038.33 757.061 1038.48 757.772 1038.81 757.973C1041.37 759.706 1044.05 761.354 1046.55 763.163C1047.3 763.709 1048.15 764.882 1048.77 765.19C1049.35 765.479 1050.55 763.138 1052.1 764.739C1053.95 766.658 1048.81 770.276 1047.75 771.963C1047.51 770.597 1046.89 771.685 1046.63 771.57C1044.92 770.807 1047.42 768.273 1047.08 767.748C1046.94 767.532 1043.33 764.912 1042.94 764.69C1042.66 764.532 1042.25 765.062 1041.91 764.896C1039.5 763.73 1038.72 761.244 1036.1 760.686C1022.83 780.98 1050.15 803.527 1067.8 787.579C1065.2 785.786 1062.07 780.177 1059.5 778.906C1059.15 778.731 1057.14 780.925 1055.78 778.502C1054.85 776.839 1060.63 772.189 1061.63 772.608C1063.72 773.475 1063.71 775.102 1061.97 776.404L1070.19 785.565C1072.93 783.289 1075.27 780.63 1077.62 777.948C1076.22 777.139 1068.52 769.801 1067.88 769.852C1067.72 769.865 1065.91 771.676 1064.96 771.391C1064.51 770.686 1063.99 769.424 1064.36 768.622C1064.87 767.551 1068.79 762.967 1069.96 763.887C1072.09 765.559 1070.14 766.908 1070.43 767.373C1071.87 769.638 1077.8 772.513 1079.8 774.89C1080.7 774.998 1086.84 768.017 1086.89 766.634C1086.91 765.997 1086.59 765.833 1086.24 765.427C1082.08 760.647 1076.07 756.709 1071.27 752.65C1066.47 748.592 1061.88 744.087 1056.67 740.399C1055.33 740.206 1049.82 745.871 1048.1 746.705C1051.36 748.582 1054.32 754.005 1057.33 755.611C1058.06 755.999 1058.99 753.628 1060.4 756.082C1061.56 758.093 1055.07 764.927 1053.92 760.295C1053.64 759.187 1055.27 757.895 1055.17 757.801L1045.41 749.046C1043.99 751.362 1039.49 754.652 1038.46 756.789L1038.46 756.795Z" fill="#B2A3C4"/>
<path d="M924.512 707.028C939.758 693.459 959.867 708.073 969.396 721.266C978.582 733.978 984.073 750.524 983.785 766.099L950.926 787.76C949.882 788.19 948.682 787.111 947.923 786.429C931.093 771.321 901.563 727.452 924.512 707.028Z" fill="#B2A3C4"/>
<path d="M1007.7 791.123C1007.81 791.396 1007.62 792.097 1007.28 792.279C1004.63 793.861 1001.85 795.351 999.261 797.012C998.476 797.514 997.56 798.635 996.921 798.907C996.325 799.162 995.266 796.756 993.63 798.265C991.668 800.074 996.593 803.982 997.555 805.729C997.864 804.378 998.424 805.5 998.691 805.4C1000.44 804.738 998.097 802.063 998.466 801.559C998.62 801.352 1002.37 798.945 1002.77 798.745C1003.06 798.605 1003.44 799.156 1003.79 799.01C1006.26 797.986 1007.18 795.549 1009.83 795.144C1021.91 816.171 993.333 837.1 976.63 820.158C979.331 818.518 982.779 813.1 985.418 811.98C985.782 811.826 987.661 814.132 989.154 811.792C990.181 810.185 984.679 805.208 983.652 805.568C981.519 806.314 981.434 807.938 983.099 809.339L974.362 818.009C971.758 815.578 969.577 812.788 967.389 809.975C968.826 809.248 976.939 802.367 977.574 802.456C977.737 802.478 979.442 804.391 980.405 804.161C980.893 803.483 981.489 802.254 981.157 801.432C980.711 800.333 977.063 795.53 975.841 796.38C973.626 797.927 975.494 799.386 975.175 799.834C973.609 802.012 967.518 804.538 965.383 806.796C964.477 806.851 958.751 799.527 958.788 798.144C958.805 797.507 959.131 797.361 959.506 796.976C963.936 792.445 970.161 788.861 975.19 785.087C980.218 781.313 985.054 777.081 990.47 773.701C991.82 773.586 996.995 779.561 998.66 780.492C995.304 782.178 992.034 787.42 988.93 788.849C988.177 789.194 987.392 786.774 985.837 789.141C984.562 791.082 990.651 798.28 992.069 793.723C992.407 792.632 990.855 791.248 990.965 791.161L1001.21 782.985C1002.49 785.379 1006.8 788.924 1007.7 791.117L1007.7 791.123Z" fill="#B2A3C4"/>
<path d="M1238.49 97.9236C1218.61 102.523 1218.91 127.38 1224.17 142.781C1229.24 157.625 1239.57 171.668 1252.44 180.434L1289.11 166.137C1290.06 165.534 1289.88 163.931 1289.76 162.918C1287.16 140.451 1268.42 90.9987 1238.49 97.9236Z" fill="#B2A3C4"/>
<path d="M1259.04 214.408C1259.2 214.657 1259.88 214.907 1260.22 214.733C1263.05 213.485 1265.87 212.08 1268.72 210.924C1269.58 210.573 1271.03 210.474 1271.62 210.11C1272.17 209.77 1270.82 207.516 1273 207.053C1275.61 206.497 1275.95 212.775 1276.82 214.57C1275.54 214.041 1276.13 215.147 1275.9 215.307C1274.34 216.355 1273.52 212.893 1272.89 212.903C1272.63 212.909 1268.5 214.577 1268.11 214.793C1267.82 214.948 1268.06 215.571 1267.73 215.775C1265.47 217.199 1262.95 216.545 1261.09 218.469C1271.27 240.48 1304.86 229.255 1300.69 205.832C1297.79 207.088 1291.38 206.771 1288.94 208.278C1288.6 208.485 1289.4 211.352 1286.62 211.217C1284.72 211.127 1283.84 203.761 1284.72 203.131C1286.57 201.82 1287.94 202.69 1288.12 204.859L1300.25 202.739C1299.77 199.209 1298.75 195.817 1297.72 192.405C1296.3 193.158 1285.99 195.803 1285.7 196.372C1285.62 196.518 1286.2 199.015 1285.45 199.668C1284.62 199.674 1283.27 199.45 1282.79 198.704C1282.15 197.704 1280.34 191.952 1281.74 191.446C1284.28 190.532 1284.39 192.901 1284.94 192.898C1287.63 192.879 1293.21 189.368 1296.28 188.931C1296.85 188.223 1294.19 179.318 1293.04 178.549C1292.51 178.195 1292.2 178.376 1291.67 178.46C1285.41 179.457 1278.89 182.465 1272.9 184.388C1266.91 186.311 1260.67 187.812 1254.78 190.277C1253.9 191.313 1255.79 198.989 1255.59 200.886C1258.9 199.122 1265.07 199.482 1268.03 197.775C1268.75 197.361 1267.23 195.321 1270.06 195.42C1272.38 195.501 1274.73 204.631 1270.19 203.154C1269.11 202.799 1268.87 200.733 1268.74 200.772L1256.14 204.411C1257.36 206.838 1257.76 212.403 1259.03 214.405L1259.04 214.408Z" fill="#B2A3C4"/>
<path d="M1551.87 522.454L1356.66 524.018C1358.42 515.688 1358.71 460.109 1342.18 422.218L1537.25 370.154L1551.87 522.454Z" fill="#DCFC73"/>
<path d="M1205.56 18.7977C1221.86 31.0852 1211.47 53.6711 1200.41 65.6033C1189.74 77.1044 1174.6 85.7342 1159.27 88.5078L1131.58 60.5372C1130.96 59.5981 1131.78 58.2098 1132.3 57.3318C1143.81 37.8639 1181.03 0.301357 1205.56 18.7977Z" fill="#B2A3C4"/>
<path d="M1139.43 116.864C1139.18 117.027 1138.46 116.979 1138.21 116.679C1136.14 114.391 1134.13 111.961 1132 109.744C1131.35 109.073 1130.07 108.394 1129.68 107.821C1129.31 107.287 1131.46 105.777 1129.66 104.468C1127.5 102.9 1124.64 108.495 1123.11 109.782C1124.5 109.82 1123.51 110.589 1123.66 110.831C1124.65 112.42 1126.81 109.594 1127.38 109.857C1127.61 109.967 1130.71 113.17 1130.99 113.529C1131.18 113.786 1130.71 114.26 1130.92 114.577C1132.41 116.798 1134.98 117.227 1135.9 119.741C1117.65 135.711 1091.52 111.796 1104.86 92.0938C1107 94.4204 1112.99 96.7387 1114.6 99.107C1114.83 99.4332 1112.93 101.728 1115.52 102.733C1117.3 103.425 1121.1 97.0531 1120.54 96.1173C1119.39 94.1713 1117.78 94.4071 1116.74 96.315L1106.52 89.4483C1108.39 86.4181 1110.7 83.7319 1113.03 81.0344C1114.03 82.3012 1122.37 88.9067 1122.4 89.5465C1122.41 89.7111 1120.87 91.7583 1121.29 92.6571C1122.05 93.0024 1123.37 93.3459 1124.11 92.8591C1125.1 92.2057 1129.09 87.6869 1128.02 86.6553C1126.07 84.7863 1125.01 86.9051 1124.5 86.6796C1122.06 85.5711 1118.39 80.0941 1115.76 78.4441C1115.52 77.566 1121.58 70.5146 1122.95 70.2796C1123.57 70.1718 1123.78 70.4619 1124.23 70.7546C1129.54 74.2097 1134.28 79.6105 1138.97 83.8009C1143.65 87.9913 1148.75 91.9033 1153.13 96.5501C1153.51 97.852 1148.66 104.098 1148.08 105.914C1145.77 102.953 1139.98 100.775 1137.97 98.0122C1137.49 97.3419 1139.71 96.0973 1137.08 95.037C1134.93 94.1673 1129.06 101.55 1133.81 102.047C1134.95 102.164 1136 100.371 1136.11 100.461L1146.13 108.907C1144.04 110.63 1141.41 115.551 1139.43 116.864L1139.43 116.864Z" fill="#B2A3C4"/>
</svg>
