<svg width="1440" height="844" viewBox="0 0 1440 844" fill="none" xmlns="http://www.w3.org/2000/svg">
<path d="M937.275 255.504C939.433 258.234 942.364 257.444 943.104 262.702C944.565 273.125 943.104 289.663 943.154 300.859C943.238 317.095 943.406 333.389 942.776 349.616C939.458 356.881 930.606 356.025 923.836 356.293C898.445 357.285 872.811 355.554 847.404 356.293V397.449H899.059C901.217 397.449 905.937 402.295 905.811 404.975L913.085 448.516L988.812 480.718C991.432 481.642 997.748 485.724 997.748 488.58V526.796C995.254 526.678 992.675 526.964 990.189 526.796C989.4 526.745 988.114 525.973 986.468 525.922C942.163 524.52 897.597 527.048 853.275 525.956L859.994 684.699C858.037 684.699 856.072 684.699 854.115 684.699L846.976 525.956H712.169L714.689 684.699H709.65L705.87 525.956H572.324L570.224 684.699H564.345L566.025 525.956H430.379L425.759 684.699H419.88L424.079 525.956H288.853L279.614 685.539C277.767 685.539 275.524 684.699 274.575 684.699L282.974 525.956H147.756L133.478 683.859C133.343 683.859 132.529 684.699 131.798 684.699V526.796H117.52V491.528C137.106 491.494 156.727 491.553 176.313 491.528C227.531 491.461 278.8 491.578 330.026 491.528L342.616 381.491C342.625 381.214 342.608 380.928 342.616 380.651H343.456C346.572 406.167 348.857 431.844 351.964 457.394C353.35 468.775 355.996 480.004 356.055 491.519C365.84 491.545 375.667 491.477 385.452 491.519C508.591 492.04 631.916 491.183 754.971 491.461C755.165 490.931 754.98 490.377 755.013 489.84C756.517 462.475 753.888 433.784 755.013 406.268C754.552 403.018 759.154 397.449 762.153 397.449H808.768C807.6 384.817 810.33 369.421 808.768 357.133C808.692 356.52 809.179 355.344 808.264 355.437L719.292 355.47C715.512 355.235 712.363 351.993 712.153 348.331L712.169 263.063C713.597 259.082 713.354 257.637 718.049 255.504H937.266H937.275ZM931.395 268.103H723.937V343.695H931.395V268.103Z" fill="#222222"/>
<path d="M345.76 375.735L344.904 381.245C344.912 380.968 344.895 381.539 344.904 381.245C344.904 381.245 343.493 388.468 343.341 389.694C339.091 424.45 336.37 459.424 331.389 494.07L183.153 494.221L180.289 492.483C182.17 473.501 184.993 454.712 186.983 435.772C187.235 433.403 187.789 430.027 187.008 427.81C187.353 425.231 187.588 422.837 187.848 420.25L193.728 375.727H345.752L345.76 375.735Z" fill="white"/>
<path d="M990.187 526.798C989.943 537.187 991.077 547.527 991.867 557.874C992.085 560.705 992.488 563.443 992.707 566.274C995.688 605.716 998.838 645.234 1001.11 684.701C954.096 684.55 906.968 684.718 860.001 684.701L853.281 525.958C897.595 527.05 942.169 524.522 986.475 525.924C988.112 525.975 989.398 526.747 990.195 526.798H990.187Z" fill="white"/>
<path d="M279.625 685.54L288.864 525.957H424.09L419.89 684.701C373.166 684.701 326.223 685.532 279.625 685.54Z" fill="white"/>
<path d="M425.766 684.701L430.385 525.957H566.031L564.351 684.701C518.181 684.701 471.894 684.701 425.766 684.701Z" fill="white"/>
<path d="M854.117 684.701C807.653 684.684 761.156 684.701 714.692 684.701L712.172 525.957H846.978L854.117 684.701Z" fill="white"/>
<path d="M709.652 684.701C663.188 684.701 616.691 684.701 570.227 684.701L572.326 525.957H705.873L709.652 684.701Z" fill="white"/>
<path d="M133.473 683.861L147.751 525.957H282.977L274.578 684.701C227.66 684.701 180.214 683.751 133.473 683.861Z" fill="white"/>
<path d="M931.396 268.105V343.698H723.938V268.105H931.396Z" fill="#DCFC73"/>
<path d="M1172.11 55.8948C1184.66 71.7748 1192.58 90.6348 1202.1 108.405C1213.06 109.305 1224.13 108.895 1235.11 108.895C1241.1 108.895 1247.13 108.985 1253.11 108.895C1257.38 108.825 1261.71 109.095 1265.97 108.755C1270.95 96.6048 1276.42 83.6248 1282.94 72.2148C1285.66 67.4648 1291.54 55.9048 1297.11 55.8848C1302.68 55.8648 1307.36 67.9648 1309.11 72.8848C1312.37 82.0548 1314.75 94.2448 1317.11 103.885C1323.22 128.785 1328.65 154.105 1329.11 179.885C1337.45 179.095 1346.3 176.335 1354.64 175.865C1362.26 175.435 1361.71 181.985 1357.16 183.435L1329.2 187.975L1329.1 202.885C1333.12 202.655 1354.59 204.375 1356.19 206.535C1357.16 207.845 1357.08 212.025 1355.96 212.735C1352.92 214.665 1333.27 208.545 1328.16 209.935C1326.7 220.175 1326.53 230.675 1323.32 240.595C1323.32 241.825 1335.55 255.385 1337.5 257.985C1342.6 264.785 1346.76 272.305 1352.1 278.885C1355.78 287.565 1361 295.405 1365.1 303.885C1368.46 310.835 1372.47 318.695 1375.1 325.885C1385.14 353.365 1388.53 381.425 1376.1 408.885C1372.68 416.445 1365.86 425.855 1361.1 432.885C1354.71 442.325 1341.03 457.325 1337.1 466.885C1334.81 472.445 1337.89 489.345 1338.14 496.345C1338.99 519.765 1340.82 562 1341.1 570.885C1341.31 577.705 1341.86 587.555 1342.1 594.385C1342.1 594.015 1342.15 595.695 1342.1 594.385V614.385C1342.1 616.265 1341.96 621.02 1342.1 624C1342.2 626.24 1342.64 636.425 1343.1 636.885C1344.3 638.095 1357.04 633.825 1354.1 642.885C1353.4 649.405 1353.1 661.845 1353.1 668.385V713.385C1353.1 716.555 1353.73 724.295 1354.1 727.885C1354.9 735.555 1356.67 742.605 1359.1 749.885C1361.83 771.425 1359.53 792.545 1357.1 813.885C1356.26 821.235 1356.19 829.785 1355.1 836.885C1354.97 837.735 1354.17 843.74 1354 844L1336.09 843.895C1336.04 841.565 1336.16 839.215 1336.09 836.885C1335.7 823.535 1338.43 810.255 1336.59 796.875L1322.09 836.885C1320.5 840.5 1318 843.5 1316.5 843.935C1315 844.37 1309.64 843.935 1309.64 843.935L1210.09 843.885C1209.61 841.195 1209.18 839.955 1209.09 836.885C1209.09 836.555 1209.09 836.215 1209.09 835.885C1208.8 822.915 1209.31 809.865 1209.08 796.885C1194.66 807.185 1178.5 834 1175.09 835.885C1171.67 837.77 1154.71 843.115 1142.58 843.875C1121.4 845.195 1098.99 843.385 1077.98 843.305C1077.03 841.225 1077.22 839.085 1077.09 836.885C1077.07 836.555 1077.1 836.215 1077.09 835.885C1076.77 827.875 1079.11 821.075 1079.09 814.885C1088.46 787.685 1116.11 784.205 1136.41 769.705C1167.23 747.685 1159.68 714.375 1157.09 681.885C1156.35 672.555 1154.76 663.055 1154.09 653.885C1153.94 651.885 1153.52 639.825 1153.81 639.155C1155.28 635.715 1158.98 637.055 1162.09 636.895C1158.3 599.805 1154.97 563.24 1152.5 526C1152.5 526 1152.1 523.055 1152.09 522.895C1151.34 511.375 1150.48 499.435 1150.09 487.895C1149.5 470.275 1150.2 452.435 1150.66 434.835C1128 428.825 1111.02 414.245 1095.1 397.905C1103.85 435.265 1083.39 454.546 1050.5 478C1047.4 479.61 1000.69 502.725 997 502.425C996.74 499.055 996.26 495.795 996 492.425C1033.27 481.105 1093.59 437.325 1086.22 403.275C1083.76 391.895 1082.63 391.995 1076.07 384.145C1072.71 380.125 1070.59 367.695 1069.9 367.085C1068.05 365.445 1058.31 367.135 1052.59 362.895C1045.11 357.355 1047.57 352.815 1045.86 345.625C1045.21 342.915 1042.84 340.865 1042.04 338.445C1039.75 331.595 1040.99 323.475 1045.54 317.825C1046.49 316.635 1049.05 316.025 1049.18 315.265C1049.62 312.505 1043.83 305.575 1044.08 301.905C1039.62 307.145 1033.65 311.405 1027.82 315.125C1025.8 316.415 1022.68 319.145 1020.39 318.175L984.576 282.875C982.666 278.785 985.936 277.925 988.086 275.895C1001.46 263.255 1023.4 248.675 1040.09 240.895C1048.79 236.835 1056.16 234.235 1066.15 236.335C1072.2 237.605 1079.3 245.795 1080.09 251.895C1080.69 256.485 1079.3 259.975 1077.83 264.135C1076.59 267.635 1070.21 277.315 1070.16 278.365C1070.11 279.565 1074.25 291.735 1075.09 293.895C1075.93 296.055 1078.69 303.565 1080.08 304.405C1081.74 305.415 1087.66 304.785 1090.91 305.575C1106.47 309.385 1108.94 322.735 1116.68 333.805C1126.35 347.625 1141.19 356.885 1157.09 361.885C1157.84 351.765 1158.9 341.595 1160.24 331.535C1162.83 312.075 1168.39 288.965 1169.1 269.895C1170.24 268.045 1171.6 261.365 1170.65 259.885C1169.9 258.705 1159.75 253.805 1157.37 252.125C1147.51 245.165 1139.92 234.385 1136.1 222.895C1134.15 217.045 1133.47 210.955 1131.99 205.005C1129.02 203.095 1109.89 210.055 1105.56 209.945C1101.83 209.855 1099.38 205.965 1102.08 203.365C1105.79 199.795 1131 197.955 1132 196.785C1132.71 195.945 1131.73 188.825 1132.11 186.885C1127.44 185.785 1104.24 185.465 1102.56 182.935C1099.09 177.695 1104.71 176.735 1108.64 176.835C1116.42 177.035 1125.32 178.865 1133.1 179.895C1133.04 175.795 1137.13 159.505 1134.13 157.375C1132.82 156.435 1129.79 157.255 1128.6 154.915C1123.35 144.565 1138.22 145.995 1139.16 144.245C1140.66 141.435 1142.49 127.445 1143.6 122.885C1145.56 114.795 1147.84 106.885 1150.11 98.8948C1152.65 89.9648 1159.64 62.8948 1165.11 56.8948C1167.55 54.2248 1169.25 54.8548 1172.11 55.8948ZM1170.09 64.9048C1167.55 64.4848 1168.54 65.1248 1168.01 66.2948C1164.44 74.1948 1161.17 86.3348 1158.61 94.8948C1156.81 100.925 1145.24 142.885 1147.11 144.885C1163.05 142.695 1179.43 143.785 1195.31 146.185C1200.68 146.995 1206.6 149.455 1211.55 149.945C1226.31 151.425 1242.53 146.145 1257.56 145.845C1263.6 145.725 1297.32 147.155 1300.5 148.995C1302.3 150.035 1302.55 151.935 1304.39 153.195C1305.9 154.235 1319.54 159.515 1320.1 158.885C1316.53 126.845 1308.48 95.3248 1298.1 64.8948C1296.25 64.4548 1296.16 65.5248 1295.27 66.5548C1283.92 79.7348 1280.07 100.225 1271.52 113.805C1270.88 114.825 1270.13 115.725 1269.09 116.375L1198.1 116.395L1170.09 64.8948V64.9048ZM1198.97 155.035C1184.81 152.885 1169.96 150.795 1155.57 151.855C1146.58 152.515 1144.21 152.385 1144.21 162.285C1144.21 186.195 1159.41 194.275 1181.61 191.895C1199.19 190.015 1202.18 169.345 1198.96 155.035H1198.97ZM1288.98 157.025C1270.16 152.205 1250.2 154.295 1231.17 156.945C1231.56 165.175 1232.65 183.045 1238.75 188.745C1245.53 195.085 1265.63 195.765 1274.33 193.615C1290.76 189.555 1288.58 170.635 1288.97 157.025H1288.98ZM1168.11 636.895H1222.11C1222.11 636.895 1222.11 635.695 1222.11 635.395V535.395C1222.11 535.055 1223.34 532.115 1223.76 531.815C1225.54 530.545 1253.63 530.375 1257.67 530.845C1259.37 531.035 1259.95 530.925 1261.04 532.475C1263.69 536.265 1266.07 558.395 1266.97 564.545C1270.49 588.535 1273.07 612.745 1275.11 636.905H1334.61C1334.03 608.075 1334.48 580.185 1332.07 551.445L1331.1 494.905L1327.01 511.305C1323.51 518.765 1317.9 518.905 1310.56 518.945C1308.49 518.955 1306.54 517.885 1304.67 517.965C1301.33 518.115 1296.95 520.895 1292.6 520.975C1288.66 521.055 1286.29 519.085 1283.54 518.955C1281.73 518.865 1280.13 519.965 1277.87 519.725C1261.54 517.985 1255.43 492.965 1256.24 479.525C1259.26 429.145 1307.5 411.795 1311.09 371.385C1312.74 352.805 1309.68 339.305 1301.62 322.885C1300.55 320.705 1291.85 308.345 1301.4 311.065C1307.86 312.905 1317.46 344.365 1318.09 351.415C1323.53 412.285 1277.62 418.495 1265.61 465.905C1262.24 479.205 1261.12 499.085 1272.2 509.295C1273.11 510.135 1279.96 515.115 1279.05 511.455C1276.89 502.735 1275.45 497.905 1277.21 488.505C1277.94 484.595 1279.31 476.775 1284.69 480.825C1287.4 482.865 1284.64 485.205 1284.33 487.625C1283.33 495.345 1281.23 514.955 1293.48 513.835C1302.34 513.025 1297.48 508.855 1297.12 503.385C1296.81 498.705 1296.98 486.385 1299.27 482.555C1300.77 480.035 1305.28 480.145 1306.03 482.535C1306.6 484.345 1304.31 490.415 1304.08 493.355C1303.78 497.125 1303.63 505.865 1305.66 508.845C1307.88 512.105 1316.66 513.295 1319.17 510.185C1322.65 505.865 1323.1 489.375 1324.6 482.885C1336.81 430.415 1390.63 414.715 1374.04 347.465C1364.67 309.485 1340.94 272.165 1315.59 242.995C1318.14 232.195 1320.22 221.075 1320.12 209.885C1300.74 211.215 1307.15 200.585 1322.12 201.895V189.885C1317.07 189.525 1309.65 194.305 1305.21 191.335C1296.32 185.375 1320.64 183.415 1321.68 181.955C1322.66 180.595 1321.66 168.855 1320.98 168.025C1320.56 167.515 1310.16 165.055 1308.15 164.345C1306.67 163.825 1297.52 159.455 1297.11 159.895C1296.86 178.655 1295.47 198.985 1273.16 202.445C1264.86 203.735 1249.47 202.865 1241.56 199.945C1225.56 194.025 1224.69 175.415 1223.1 160.905C1218.21 160.905 1213.38 161.275 1208.62 159.875C1207.5 178.065 1204.4 197.725 1182.6 199.885C1167.35 201.385 1147.49 198.745 1141.1 182.905C1139.5 183.065 1139.22 187.205 1139.12 188.415C1136.81 216.415 1145.89 236.615 1169.44 251.075C1172.33 252.845 1178.59 254.135 1178.89 257.585C1173.09 293.725 1166.87 329.955 1163.12 366.405C1155.25 442.905 1157.69 509.115 1164.12 585.395C1165.56 602.525 1168.73 619.645 1168.11 636.905V636.895ZM1021.1 308.895C1020.4 295.685 1010.34 288.205 998.106 285.905L1021.1 308.895ZM1156.01 368.985C1138.02 364.205 1121.64 352.925 1110.7 337.805C1105.09 330.055 1102.38 319.915 1093.8 314.705C1087.65 310.965 1078.44 309.275 1072.18 313.465C1066.83 317.045 1064.89 320.905 1067.61 326.905C1070.53 333.355 1076.04 334.735 1082.65 333.925C1085.18 333.615 1091.06 329.725 1091.97 334.545C1092.31 336.325 1089.76 338.035 1089.33 339.655C1088.25 343.735 1091.67 351.575 1092.1 356.415C1092.89 365.265 1090.05 376.515 1094.3 384.215C1102.72 399.465 1133.09 423.445 1150.08 427.465C1151.37 427.775 1151.55 427.195 1151.97 426.255L1156.02 368.995L1156.01 368.985ZM1064.11 343.885C1063.21 340.715 1054.29 321.905 1052.61 321.905C1042.73 332.055 1050.79 344.525 1064.11 343.885ZM1066.1 350.905C1065.64 350.445 1055.06 350.365 1053.11 349.905C1055.03 357.745 1059.13 359.885 1067.11 358.885C1066.51 357.555 1066.39 351.185 1066.11 350.895L1066.1 350.905ZM1229.11 541.895C1228.8 547.085 1229.14 552.645 1229.11 557.895C1229.11 559.225 1229.11 560.565 1229.11 561.895C1229.11 563.225 1229.11 564.565 1229.11 565.895C1229.05 589.545 1229.16 613.245 1229.11 636.905C1231.83 637.345 1240.3 635.855 1241.68 637.835C1242.63 639.205 1241.5 665 1241.5 666C1241.5 667 1241.15 671.895 1241.12 673.895C1241.03 680.715 1240.93 687.67 1241.12 694C1241.34 701.31 1242.12 710.04 1242.12 717L1243.12 731.395C1243.42 735.575 1244.5 747.5 1244.5 747.5C1244.5 747.5 1245.86 780.315 1246.13 795.895C1255.66 789.645 1261.53 776.745 1264.62 765.895C1270.71 744.465 1270.07 730.225 1268.12 708.895C1266.72 693.485 1264.71 678.245 1263.12 662.895C1262.84 660.235 1262.31 657.055 1262.12 654.895C1261.82 651.495 1260.51 640.865 1261.27 638.545C1262.44 634.995 1267.67 638.405 1268.11 637.895C1265.9 604.415 1260.29 571.185 1256.11 537.905H1229.11C1229.04 539.215 1229.2 540.565 1229.11 541.895ZM1175.11 647.885H1167.1C1169.1 675.555 1175.41 703.615 1174.15 731.435C1173.88 737.435 1171.83 743.825 1172.62 749.905C1175.32 749.355 1177.12 745.695 1178.13 743.415C1183.4 731.585 1182.18 716.955 1181.1 704.395C1179.49 685.585 1175.7 666.825 1175.11 647.885ZM1283 648.005L1274.11 647.905C1275.81 652.205 1276.39 656.965 1276.98 661.525C1279.37 679.835 1282.96 701.345 1284.1 719.405C1284.82 730.815 1283.18 742.525 1284.61 753.905C1290.57 740.575 1290.25 725.705 1290.15 711.355L1283 648.005ZM1135.11 790.905C1132.16 787.955 1109.64 801.735 1106.2 804.485C1101.22 808.465 1095.78 814.215 1095.13 820.905C1105.17 813.445 1119.41 809.015 1129.03 801.315C1132.33 798.675 1135.74 795.535 1135.11 790.905ZM1253.12 822.895C1261.47 816.635 1281.17 808.595 1282.89 797.145C1283.89 790.505 1281.3 791.395 1277.2 794.495C1272.87 797.765 1249.07 817.395 1253.12 822.895Z" fill="#222222"/>
<path d="M1168.1 636.893C1168.71 619.633 1165.55 602.523 1164.11 585.383C1157.68 509.103 1155.24 442.893 1163.11 366.393C1166.86 329.943 1173.08 293.713 1178.88 257.573C1178.58 254.123 1172.32 252.833 1169.43 251.063C1145.89 236.603 1136.8 216.403 1139.11 188.403C1139.21 187.193 1139.49 183.053 1141.09 182.893C1147.48 198.733 1167.35 201.383 1182.59 199.873C1204.39 197.723 1207.49 178.053 1208.61 159.863C1213.36 161.253 1218.19 160.883 1223.09 160.893C1224.68 175.403 1225.55 194.013 1241.55 199.933C1249.46 202.863 1264.85 203.723 1273.15 202.433C1295.46 198.983 1296.86 178.643 1297.1 159.883C1297.5 159.443 1306.65 163.813 1308.14 164.333C1310.15 165.043 1320.54 167.493 1320.97 168.013C1321.65 168.843 1322.64 180.583 1321.67 181.943C1320.62 183.403 1296.3 185.363 1305.2 191.323C1309.65 194.303 1317.06 189.513 1322.1 189.873V201.883C1307.14 200.573 1300.73 211.203 1320.11 209.873C1320.21 221.063 1318.13 232.183 1315.58 242.983C1340.93 272.153 1364.66 309.473 1374.03 347.453C1390.63 414.703 1336.8 430.403 1324.59 482.873C1323.08 489.363 1322.64 505.853 1319.16 510.173C1316.65 513.283 1307.86 512.093 1305.65 508.833C1303.62 505.843 1303.77 497.113 1304.07 493.343C1304.31 490.403 1306.59 484.333 1306.02 482.523C1305.27 480.133 1300.76 480.013 1299.26 482.543C1296.98 486.373 1296.8 498.693 1297.11 503.373C1297.47 508.843 1302.33 513.013 1293.47 513.823C1281.23 514.953 1283.32 495.333 1284.32 487.613C1284.63 485.193 1287.39 482.853 1284.68 480.813C1279.3 476.763 1277.93 484.583 1277.2 488.493C1275.45 497.893 1276.88 502.723 1279.04 511.443C1279.95 515.113 1273.09 510.123 1272.19 509.283C1261.11 499.073 1262.23 479.183 1265.6 465.893C1277.61 418.473 1323.52 412.263 1318.08 351.403C1317.45 344.353 1307.86 312.893 1301.39 311.053C1291.84 308.333 1300.54 320.693 1301.61 322.873C1309.66 339.293 1312.73 352.793 1311.08 371.373C1307.49 411.783 1259.25 429.143 1256.23 479.513C1255.43 492.953 1261.54 517.983 1277.86 519.713C1280.12 519.953 1281.72 518.853 1283.53 518.943C1286.28 519.083 1288.65 521.043 1292.59 520.963C1296.95 520.873 1301.32 518.093 1304.66 517.953C1306.53 517.873 1308.47 518.943 1310.55 518.933C1317.88 518.893 1323.49 518.753 1327 511.293L1331.09 494.893L1332.06 551.433C1334.47 580.173 1334.02 608.063 1334.6 636.893H1275.1C1273.06 612.743 1270.48 588.523 1266.96 564.533C1266.06 558.393 1263.67 536.263 1261.03 532.463C1259.95 530.913 1259.36 531.023 1257.66 530.833C1253.63 530.373 1225.53 530.543 1223.75 531.803C1223.33 532.103 1222.1 535.043 1222.1 535.383V635.383C1222.1 635.683 1222.1 636.883 1222.1 636.883H1168.1V636.893ZM1236.95 224.033C1235.05 222.823 1221.38 225.173 1218.55 218.453C1214.82 209.593 1223.82 211.933 1227.65 206.943C1229.02 205.153 1231.15 200.843 1229.69 198.833C1228.97 197.843 1208.02 194.673 1205.6 194.803C1197.57 195.213 1200.49 203.253 1204.12 207.393C1207.12 210.813 1216.86 215.173 1207.81 220.093C1201.33 223.623 1196.76 220.063 1193.79 220.993C1190.82 221.923 1190.2 225.993 1193.88 227.633C1204.02 232.153 1209.69 224.773 1214.62 224.933C1217.84 225.033 1224.28 231.833 1232.64 230.973C1236.44 230.583 1239.9 225.903 1236.96 224.033H1236.95Z" fill="#DCFC73"/>
<path d="M1170.09 64.9044L1198.1 116.404L1269.09 116.384C1270.12 115.734 1270.87 114.834 1271.52 113.814C1280.08 100.244 1283.92 79.7444 1295.27 66.5644C1296.16 65.5344 1296.24 64.4644 1298.1 64.9044C1308.48 95.3344 1316.53 126.854 1320.1 158.894C1319.55 159.524 1305.91 154.244 1304.39 153.204C1302.56 151.934 1302.3 150.044 1300.5 149.004C1297.32 147.164 1263.6 145.744 1257.56 145.854C1242.53 146.154 1226.3 151.424 1211.55 149.954C1206.6 149.464 1200.68 147.004 1195.31 146.194C1179.43 143.794 1163.05 142.714 1147.11 144.894C1145.24 142.884 1156.81 100.924 1158.61 94.9044C1161.17 86.3444 1164.44 74.1944 1168.01 66.3044C1168.54 65.1344 1167.54 64.4944 1170.09 64.9144V64.9044Z" fill="#DCFC73"/>
<path d="M1156.01 368.982L1151.96 426.242C1151.54 427.182 1151.36 427.762 1150.07 427.452C1133.07 423.432 1102.71 399.452 1094.29 384.202C1090.04 376.502 1092.88 365.242 1092.09 356.402C1091.66 351.562 1088.24 343.722 1089.32 339.642C1089.75 338.022 1092.3 336.312 1091.96 334.532C1091.04 329.712 1085.17 333.602 1082.64 333.912C1076.04 334.732 1070.53 333.342 1067.6 326.892C1064.88 320.882 1066.82 317.032 1072.17 313.452C1078.44 309.262 1087.64 310.952 1093.79 314.692C1102.37 319.912 1105.08 330.052 1110.69 337.792C1121.64 352.912 1138.02 364.192 1156 368.972L1156.01 368.982Z" fill="#DCFC73"/>
<path d="M1288.98 157.023C1288.58 170.633 1290.77 189.553 1274.34 193.613C1265.63 195.763 1245.54 195.083 1238.76 188.743C1232.66 183.043 1231.56 165.173 1231.18 156.943C1250.21 154.293 1270.17 152.203 1288.99 157.023H1288.98ZM1256.85 160.063C1245.43 162.403 1246.26 188.713 1260.53 186.873C1273.46 185.203 1271.38 157.093 1256.85 160.063Z" fill="white"/>
<path d="M1198.96 155.035C1202.18 169.345 1199.19 190.015 1181.61 191.895C1159.41 194.275 1144.21 186.195 1144.21 162.285C1144.21 152.375 1146.57 152.505 1155.57 151.855C1169.96 150.805 1184.81 152.885 1198.97 155.035H1198.96ZM1175.87 159.075C1159.93 161.115 1165.83 192.725 1181.17 184.465C1191.38 178.965 1188.19 157.495 1175.87 159.075Z" fill="white"/>
<path d="M1175.1 647.883C1175.69 666.823 1179.48 685.583 1181.09 704.393C1182.16 716.953 1183.39 731.583 1178.12 743.413C1177.11 745.683 1175.3 749.353 1172.61 749.903C1171.82 743.833 1173.87 737.443 1174.14 731.433C1175.4 703.623 1169.09 675.553 1167.09 647.893H1175.1V647.883Z" fill="white"/>
<path d="M1283 648.006L1290.15 711.356C1290.25 725.706 1290.56 740.576 1284.61 753.906C1283.18 742.526 1284.82 730.816 1284.1 719.406C1282.96 701.336 1279.37 679.836 1276.98 661.526C1276.39 656.976 1275.81 652.216 1274.11 647.906L1283 648.006Z" fill="white"/>
<path d="M1135.1 790.904C1135.72 795.524 1132.32 798.674 1129.03 801.314C1119.41 809.014 1105.16 813.444 1095.12 820.904C1095.79 814.214 1101.21 808.464 1106.19 804.484C1109.63 801.734 1132.15 787.954 1135.1 790.904Z" fill="white"/>
<path d="M1253.12 822.895C1249.08 817.395 1272.88 797.765 1277.2 794.495C1281.3 791.395 1283.89 790.505 1282.89 797.145C1281.17 808.595 1261.46 816.635 1253.12 822.895Z" fill="white"/>
<path d="M1064.11 343.886C1050.8 344.536 1042.73 332.066 1052.61 321.906C1054.28 321.906 1063.2 340.716 1064.11 343.886Z" fill="#DCFC73"/>
<path d="M1021.1 308.896L998.105 285.906C1010.34 288.206 1020.4 295.686 1021.1 308.896Z" fill="white"/>
<path d="M1066.09 350.904C1066.37 351.194 1066.49 357.564 1067.09 358.894C1059.12 359.894 1055.02 357.754 1053.09 349.914C1055.04 350.364 1065.63 350.444 1066.08 350.914L1066.09 350.904Z" fill="#DCFC73"/>
<path d="M1236.95 224.038C1239.89 225.908 1236.43 230.588 1232.63 230.978C1224.27 231.848 1217.84 225.048 1214.61 224.938C1209.68 224.778 1204 232.148 1193.87 227.638C1190.19 225.998 1190.93 221.898 1193.78 220.998C1196.63 220.098 1201.31 223.618 1207.8 220.098C1216.85 215.178 1207.11 210.818 1204.11 207.398C1200.48 203.258 1197.57 195.218 1205.59 194.808C1208.01 194.688 1228.96 197.848 1229.68 198.838C1231.14 200.838 1229.02 205.158 1227.64 206.948C1223.81 211.938 1214.81 209.598 1218.54 218.458C1221.37 225.188 1235.04 222.828 1236.94 224.038H1236.95Z" fill="#222222"/>
<path d="M1256.84 160.063C1271.37 157.093 1273.45 185.203 1260.53 186.873C1246.27 188.713 1245.43 162.403 1256.84 160.063Z" fill="#222222"/>
<path d="M1175.88 159.075C1188.2 157.495 1191.4 178.965 1181.18 184.465C1165.84 192.725 1159.94 161.115 1175.88 159.075Z" fill="#222222"/>
</svg>
