<svg width="1440" height="862" viewBox="0 0 1440 862" fill="none" xmlns="http://www.w3.org/2000/svg">
<path d="M1282.77 710.789C1283.55 710.008 1283.55 708.742 1282.77 707.961L1270.04 695.233C1269.26 694.452 1267.99 694.452 1267.21 695.233C1266.43 696.014 1266.43 697.28 1267.21 698.061L1278.53 709.375L1267.21 720.689C1266.43 721.47 1266.43 722.736 1267.21 723.517C1267.99 724.298 1269.26 724.298 1270.04 723.517L1282.77 710.789ZM119.355 709.375L119.355 711.375L1281.36 711.375L1281.36 709.375L1281.36 707.375L119.355 707.375L119.355 709.375Z" fill="#222222"/>
<path d="M826 2C825.5 25 875.3 59.8726 885.5 66C895.7 72.1274 984.205 112.982 1054.61 108.623C1229.16 97.8151 1062.98 -5.41964 1039.36 50.1778C1021.92 91.2191 1180.4 171.674 1254.61 92.9536C1328.82 14.2329 1393.88 196.584 1485 203.5" stroke="#B2A3C4" stroke-width="4" stroke-linecap="round" stroke-dasharray="8 8"/>
<path d="M1446.24 281.385C1432.89 371.784 1328.79 428.909 1402.07 508.505C1475.34 588.101 1379.5 689.055 1339.79 668.757C1286.01 641.261 1400.74 482.799 1399.17 657.681C1398.53 728.214 1336.33 804.151 1329.49 813.893C1322.66 823.634 1266.5 863.517 1194.5 829.516C1182 821.85 1142.4 811.118 1084 829.516C1011 852.514 1008 794.516 916.001 808.016C842.4 818.816 782.334 845.349 758 859.016" stroke="#B2A3C4" stroke-width="4" stroke-linecap="round" stroke-dasharray="8 8"/>
<path d="M1034.03 185.926C1027.1 184.068 1020.24 181.981 1013.33 180.058C1010.76 179.346 1003.19 179.187 1003.36 175.85L1017.67 123.27C1018.95 121.122 1023.56 116.525 1025.82 115.254C1024.56 115.917 1026.61 114.805 1025.82 115.254C1028.46 113.863 1039.33 105.798 1041.95 106.445C1041.42 105.941 1042.36 106.549 1041.95 106.445C1041.41 106.1 1042.69 107.151 1041.95 106.445C1043.82 107.656 1048.01 112.515 1049.92 114.701C1048.6 116.202 1047.67 117.041 1046.04 118.213C1044.71 119.172 1040.86 119.95 1042.5 122.393C1043.91 124.503 1050.54 118.52 1051.56 117.435C1054.31 120.459 1054.93 120.958 1056.5 123.182C1057.48 124.585 1059.48 126.585 1060.33 127.845C1063.59 132.726 1065.09 133.828 1064.01 140.024L1050.21 189.218C1049.95 189.662 1049.53 189.7 1049.09 189.783C1046.94 190.177 1036.97 186.709 1034.03 185.92V185.926Z" fill="#DCFC73"/>
<path d="M1051.57 117.442C1050.55 118.521 1043.91 124.504 1042.5 122.4C1040.87 119.957 1044.71 119.179 1046.04 118.22C1047.67 117.047 1048.6 116.204 1049.93 114.708C1052.83 111.432 1056.03 105.482 1052.37 101.586C1047.84 96.7759 1045.3 105.947 1045 109.229C1044.46 108.884 1043.55 108.84 1042.81 108.133C1042.53 105.065 1043.67 101.257 1045.55 98.8194C1045.86 98.414 1047.03 98.0688 1047.19 97.1758C1050.95 98.1127 1053.42 97.0607 1055.71 101.526C1058.67 107.279 1055.62 113.152 1051.57 117.447L1051.57 117.442Z" fill="#222222"/>
<path d="M754.268 105.927C747.318 109.746 740.254 113.322 733.277 117.067C730.684 118.462 724.53 124.116 722.112 121.33L693.355 68.4693C692.728 65.7859 692.892 58.5981 693.725 55.8559C693.227 57.3472 694.015 54.8908 693.725 55.8559C694.767 52.7288 697.271 37.9965 699.853 36.5112C699.048 36.5112 700.264 36.2761 699.853 36.5112C699.161 36.6462 700.987 36.5055 699.853 36.5112C702.276 36.0409 709.324 36.7196 712.521 36.9999C712.611 39.2097 712.509 40.5897 712.107 42.7677C711.778 44.5493 709.306 48.108 712.479 48.8048C715.217 49.4067 715.932 39.5716 715.916 37.9281C720.417 38.2401 721.294 38.1627 724.243 38.7392C726.101 39.104 729.223 39.1707 730.858 39.5308C737.191 40.9283 739.225 40.6636 743.099 46.4288L769.679 96.1963C769.812 96.7469 769.51 97.0956 769.219 97.5001C767.803 99.4597 757.203 104.313 754.264 105.923L754.268 105.927Z" fill="#336DFD"/>
<path d="M715.921 37.9303C715.933 39.5694 715.214 49.4086 712.484 48.8069C709.311 48.1102 711.783 44.5515 712.112 42.7698C712.51 40.596 712.612 39.2075 712.526 37.002C712.334 32.1755 710.344 24.9828 704.445 24.6771C697.158 24.3033 702.147 33.5498 704.409 36.4008C703.717 36.5358 702.959 37.1957 701.825 37.2015C699.258 34.9687 697.262 31.0578 696.893 27.6824C696.832 27.1205 697.503 25.9496 696.948 25.1161C700.66 22.9917 701.831 20.261 707.068 22.0716C713.822 24.398 715.876 31.4124 715.93 37.9305L715.921 37.9303Z" fill="#222222"/>
<path d="M688.34 328.854C680.472 327.872 672.653 326.627 664.805 325.569C661.886 325.179 653.586 326.15 653.261 322.476L660.962 262.795C662.028 260.253 666.375 254.527 668.658 252.794C667.38 253.71 669.459 252.182 668.658 252.794C671.336 250.872 682.002 240.406 684.965 240.717C684.313 240.245 685.436 240.768 684.965 240.717C684.325 240.421 685.887 241.377 684.965 240.717C687.203 241.757 692.515 246.439 694.94 248.541C693.717 250.384 692.825 251.442 691.222 252.97C689.911 254.221 685.822 255.654 687.984 258.079C689.849 260.172 696.195 252.624 697.146 251.284C700.609 254.176 701.364 254.627 703.415 256.823C704.706 258.208 707.196 260.093 708.31 261.343C712.62 266.189 714.423 267.167 714.18 274.108L706.53 330.008C706.315 330.532 705.866 330.637 705.393 330.795C703.097 331.552 691.665 329.267 688.339 328.848L688.34 328.854Z" fill="#DCFC73"/>
<path d="M697.151 251.287C696.199 252.622 689.847 260.17 687.989 258.082C685.827 255.657 689.916 254.224 691.228 252.974C692.824 251.446 693.721 250.381 694.945 248.544C697.619 244.522 700.225 237.528 695.626 233.822C689.942 229.246 688.561 239.661 688.722 243.298C688.083 243.001 687.081 243.091 686.159 242.431C685.389 239.117 686.065 234.778 687.746 231.828C688.026 231.337 689.256 230.782 689.295 229.781C693.548 230.237 696.098 228.712 699.279 233.249C703.385 239.094 700.936 245.981 697.158 251.292L697.151 251.287Z" fill="#222222"/>
<path d="M918.909 282.696C911.36 285.121 903.744 287.287 896.181 289.635C893.37 290.511 886.252 294.889 884.408 291.694L866.242 234.326C866.138 231.572 867.667 224.547 869.007 222.013C868.234 223.382 869.475 221.121 869.007 222.013C870.626 219.142 875.888 205.156 878.706 204.189C877.916 204.036 879.154 204.037 878.706 204.189C878.001 204.19 879.82 204.399 878.706 204.189C881.174 204.189 887.964 206.197 891.049 207.081C890.717 209.267 890.353 210.603 889.545 212.664C888.882 214.351 885.778 217.374 888.76 218.662C891.334 219.774 893.908 210.255 894.205 208.638C898.565 209.802 899.44 209.893 902.225 211.02C903.98 211.732 907.032 212.392 908.569 213.057C914.52 215.634 916.567 215.762 919.272 222.159L935.891 276.077C935.917 276.643 935.554 276.927 935.191 277.269C933.428 278.923 922.098 281.669 918.905 282.69L918.909 282.696Z" fill="#336DFD"/>
<path d="M894.21 208.643C893.91 210.255 891.33 219.777 888.765 218.667C885.783 217.378 888.887 214.355 889.549 212.669C890.353 210.611 890.718 209.267 891.054 207.086C891.784 202.311 891.2 194.871 885.467 193.448C878.384 191.693 881.521 201.72 883.2 204.95C882.495 204.951 881.624 205.454 880.51 205.244C878.415 202.563 877.2 198.344 877.481 194.96C877.528 194.397 878.41 193.375 878.023 192.451C882.072 191.072 883.742 188.614 888.538 191.389C894.726 194.959 895.407 202.236 894.218 208.645L894.21 208.643Z" fill="#222222"/>
<path d="M1337.47 159.665C1329.84 163.198 1322.12 166.467 1314.47 169.92C1311.62 171.207 1304.71 176.738 1302.35 173.617L1275.78 115.636C1275.32 112.753 1276.01 105.165 1277.09 102.326C1276.46 103.867 1277.47 101.327 1277.09 102.326C1278.42 99.0955 1282.14 83.7 1284.97 82.3169C1284.12 82.2585 1285.43 82.0982 1284.97 82.3169C1284.23 82.4095 1286.17 82.3932 1284.97 82.3169C1287.57 81.9956 1294.97 83.2249 1298.33 83.7534C1298.27 86.0966 1298.06 87.5483 1297.48 89.822C1297 91.6819 1294.13 95.2653 1297.43 96.2324C1300.28 97.0676 1301.75 86.7204 1301.86 84.9814C1306.59 85.6381 1307.53 85.62 1310.6 86.4436C1312.54 86.9643 1315.84 87.2615 1317.54 87.761C1324.13 89.6985 1326.3 89.5663 1329.98 95.9434L1354.47 150.495C1354.57 151.087 1354.23 151.434 1353.89 151.841C1352.25 153.81 1340.69 158.171 1337.47 159.661L1337.47 159.665Z" fill="#336DFD"/>
<path d="M1301.86 84.9816C1301.76 86.7156 1300.28 97.067 1297.44 96.2325C1294.13 95.2654 1297.01 91.6821 1297.48 89.8222C1298.06 87.5526 1298.27 86.0919 1298.34 83.7536C1298.49 78.6363 1296.91 70.8865 1290.69 70.1351C1283.01 69.2107 1287.62 79.3497 1289.8 82.5286C1289.06 82.6211 1288.21 83.2637 1287.01 83.1875C1284.46 80.6402 1282.63 76.3601 1282.49 72.7643C1282.46 72.1658 1283.26 70.9764 1282.73 70.0549C1286.81 68.0781 1288.25 65.2758 1293.65 67.5705C1300.63 70.5208 1302.29 78.0866 1301.87 84.9824L1301.86 84.9816Z" fill="#222222"/>
<path d="M1381.8 756.728C1373.44 757.515 1365.06 758.018 1356.7 758.722C1353.59 758.987 1345.22 761.894 1344.04 758.166L1338.34 694.645C1338.86 691.771 1342.04 684.849 1344.01 682.533C1342.9 683.773 1344.7 681.716 1344.01 682.533C1346.34 679.93 1354.98 666.656 1358.11 666.299C1357.33 665.96 1358.61 666.244 1358.11 666.299C1357.39 666.139 1359.22 666.771 1358.11 666.299C1360.67 666.862 1367.24 670.49 1370.23 672.109C1369.39 674.296 1368.71 675.596 1367.4 677.545C1366.33 679.139 1362.42 681.559 1365.22 683.573C1367.63 685.311 1372.46 676.047 1373.14 674.442C1377.39 676.641 1378.27 676.935 1380.9 678.737C1382.55 679.875 1385.56 681.254 1387 682.293C1392.57 686.32 1394.66 686.919 1396 694.157L1400.89 753.754C1400.79 754.346 1400.35 754.558 1399.89 754.828C1397.69 756.138 1385.34 756.394 1381.8 756.722L1381.8 756.728Z" fill="#336DFD"/>
<path d="M1373.15 674.445C1372.47 676.045 1367.63 685.311 1365.23 683.576C1362.43 681.562 1366.34 679.142 1367.41 677.548C1368.71 675.601 1369.39 674.294 1370.24 672.113C1372.09 667.338 1373.18 659.504 1367.57 656.723C1360.64 653.29 1361.6 664.384 1362.6 668.11C1361.87 667.95 1360.85 668.272 1359.75 667.8C1358.19 664.547 1357.9 659.903 1358.96 656.465C1359.14 655.893 1360.28 655.037 1360.09 653.992C1364.6 653.489 1366.89 651.327 1371.22 655.293C1376.81 660.4 1375.85 668.087 1373.16 674.449L1373.15 674.445Z" fill="#222222"/>
<path d="M1337.26 490.226C1344.88 493.773 1352.6 497.055 1360.25 500.522C1363.09 501.814 1370 507.358 1372.36 504.241L1399.03 446.309C1399.5 443.427 1398.82 435.837 1397.75 432.996C1398.38 434.538 1397.37 431.996 1397.75 432.996C1396.42 429.763 1392.73 414.361 1389.9 412.973C1390.75 412.916 1389.45 412.753 1389.9 412.973C1390.64 413.067 1388.7 413.047 1389.9 412.973C1387.3 412.647 1379.9 413.863 1376.54 414.385C1376.6 416.728 1376.8 418.18 1377.38 420.455C1377.86 422.316 1380.72 425.904 1377.42 426.866C1374.56 427.696 1373.11 417.346 1373.01 415.607C1368.27 416.255 1367.34 416.235 1364.26 417.053C1362.32 417.57 1359.03 417.861 1357.32 418.358C1350.73 420.283 1348.56 420.147 1344.87 426.518L1320.28 481.025C1320.18 481.617 1320.52 481.964 1320.86 482.371C1322.49 484.343 1334.04 488.726 1337.27 490.221L1337.26 490.226Z" fill="#DCFC73"/>
<path d="M1373.01 415.607C1373.11 417.341 1374.57 427.695 1377.41 426.866C1380.72 425.904 1377.85 422.316 1377.38 420.455C1376.8 418.184 1376.6 416.723 1376.53 414.385C1376.39 409.267 1377.99 401.521 1384.21 400.78C1391.89 399.87 1387.26 410.001 1385.07 413.175C1385.81 413.269 1386.66 413.913 1387.86 413.839C1390.42 411.297 1392.25 407.02 1392.41 403.424C1392.43 402.826 1391.64 401.635 1392.17 400.715C1388.09 398.73 1386.66 395.926 1381.25 398.21C1374.27 401.148 1372.59 408.711 1373 415.607L1373.01 415.607Z" fill="#222222"/>
<path d="M738 3.5C582.205 90.9987 770.988 206.962 833.355 215.679C879.855 222.179 928.357 193.678 852.855 166.678C792.124 144.959 738.357 287.178 636.357 217.178" stroke="#B2A3C4" stroke-width="4" stroke-linecap="round" stroke-dasharray="8 8"/>
<path d="M250.949 595.211C250.007 603.997 248.845 612.895 248.278 621.719C246.773 645.181 249.889 656.622 273.967 663.481C280.129 665.237 288.942 665.446 293.525 670.157C295.287 671.962 299.886 680.293 298.526 682.413C297.166 684.533 267.162 688.581 262.969 688.399C243.288 687.553 232.483 672.968 214.547 667.753C202.838 664.354 190.716 665.082 178.669 664.814C178.551 658.876 180.516 653.661 181.876 647.949C182.487 630.28 179.762 612.794 178.669 595.216H250.949V595.211Z" fill="#336DFD"/>
<path d="M209.19 664.812V688.37H179.227L178.672 664.812H209.19Z" fill="#336DFD"/>
<path d="M248.544 616.226C250.948 616.344 253.013 616.399 252.84 618.724C252.695 620.734 250.391 621.17 247.986 621.339C245.381 621.524 236.718 621.623 234.436 621.257C230.888 620.682 230.827 616.698 234.33 616.238C237.108 615.872 245.387 616.073 248.539 616.226H248.544Z" fill="#222222"/>
<path d="M248.544 626.39C250.948 626.508 253.013 626.563 252.84 628.888C252.695 630.898 250.391 631.334 247.986 631.503C245.381 631.688 236.718 631.787 234.436 631.421C230.888 630.847 230.827 626.862 234.33 626.402C237.108 626.036 245.387 626.237 248.539 626.39H248.544Z" fill="#222222"/>
<path d="M248.544 636.554C250.948 636.672 253.013 636.727 252.84 639.052C252.695 641.062 250.391 641.498 247.986 641.667C245.381 641.852 236.718 641.951 234.436 641.585C230.888 641.011 230.827 637.026 234.33 636.566C237.108 636.2 245.387 636.401 248.539 636.554H248.544Z" fill="#222222"/>
<path d="M284.139 537.559C282.696 537.698 280.986 537.527 279.484 537.559C247.635 538.228 214.435 538.061 182.56 537.559C181.16 537.535 179.729 537.622 178.328 537.559C174.688 537.391 172.851 536.925 172.403 532.979C172.123 530.541 172.098 519.831 173.071 518.071C173.558 517.191 175.2 515.801 176.398 516.024L285.109 516.135C286.573 516.442 287.703 518.131 287.923 519.461C288.355 522.094 288.308 531.055 287.961 533.783C287.674 536.017 286.48 537.328 284.144 537.559H284.139Z" fill="#336DFD"/>
<path d="M182.862 537.008C182.57 539.553 182.257 542.301 181.387 544.747C176.989 557.054 161.95 557.625 160.48 573.299L160.459 673.135C161.532 684.175 169.96 693.392 183.081 694.298C214.305 693.108 247.104 695.9 278.146 694.32C292.551 693.587 301.228 685.059 302.437 672.77L302.36 573.708C300.92 558.159 289.007 558.347 282.822 547.646C280.875 544.276 280.127 540.721 279.603 537.008C281.103 536.978 282.809 537.137 284.25 537.008C284.123 541.325 286.007 545.852 289.104 549.168C291.356 551.58 294.655 553.297 297.147 555.415C302.255 559.766 305.259 565.262 306.213 571.454L306.234 675.71C304.49 686.934 294.883 696.199 281.884 697.945L181.788 698C167.391 696.725 157.244 685.766 156.234 673.5L156.306 572.6C158.059 555.15 174.725 554.759 178.029 541.074C178.346 539.756 178.405 538.337 178.641 537.004C180.04 537.063 181.467 536.982 182.866 537.004L182.862 537.008Z" fill="#252327"/>
<path d="M431.428 554.506C432.589 573.841 430.43 594.356 431.85 613.321C432.461 621.508 437.134 628.093 444.632 631.343C453.068 634.998 464.004 634.783 465.67 623.825C466.399 600.852 464.857 577.422 465.718 554.506C465.81 552.062 465.366 549.759 468.602 549.248C470.672 548.917 478.791 548.917 480.856 549.248C482.267 549.472 482.852 550.265 483.485 551.463C483.634 558.519 482.997 565.684 483.309 572.78C484.799 606.961 498.092 628.934 530.878 640.068C548.148 645.934 565.801 645.26 571.77 666.039C572.843 669.779 574.526 678.843 573.841 682.441C573.748 682.925 573.08 683.996 572.755 683.996H499.788C490.711 683.996 479.806 673.39 472.632 668.484C465.041 663.291 456.58 658.935 447.485 657.125L447.723 682.481C447.819 682.93 447.406 684 447.041 684H410.997C410.514 684 410.369 682.925 410.316 682.481C409.701 677.226 410.549 670.347 410.356 664.824C409.824 649.735 406.127 633.792 409.222 618.804C412.066 605.036 414.844 596.88 414.747 582.024C414.681 571.626 411.991 561.086 411.639 551.19C411.622 550.639 411.718 549.23 412.316 549.23H429.019C431.186 549.23 431.349 553.075 431.437 554.515L431.428 554.506Z" fill="#336DFD"/>
<path d="M465.857 557C465.563 580.92 467.604 605.718 466.819 629.866C465.026 641.385 453.254 641.612 444.174 637.769C436.107 634.352 431.077 627.431 430.415 618.824C428.886 598.889 432.168 577.324 430.919 557H465.857Z" fill="#222222"/>
<path d="M561.622 509.499C559.643 509.657 557.299 509.462 555.24 509.499C511.585 510.259 466.078 510.069 422.388 509.499C420.468 509.471 418.507 509.571 416.587 509.499C411.598 509.308 409.08 508.779 408.465 504.294C408.082 501.524 408.047 489.354 409.382 487.353C410.049 486.353 412.3 484.774 413.941 485.027L562.95 485.154C564.957 485.502 566.506 487.421 566.808 488.933C567.4 491.925 567.336 502.108 566.86 505.208C566.466 507.747 564.83 509.236 561.627 509.499H561.622Z" fill="#336DFD"/>
<path d="M422.625 509.009C422.226 511.997 421.799 515.223 420.61 518.094C414.6 532.542 394.046 533.212 392.037 551.612L392.008 668.811C393.474 681.771 404.993 692.59 422.925 693.654C465.597 692.257 510.423 695.535 552.846 693.68C572.534 692.819 584.393 682.809 586.044 668.383L585.94 552.092C583.971 533.839 567.69 534.06 559.238 521.498C556.576 517.541 555.554 513.368 554.838 509.009C556.888 508.974 559.22 509.16 561.189 509.009C561.016 514.077 563.591 519.392 567.823 523.284C570.9 526.116 575.409 528.131 578.816 530.618C585.796 535.725 589.901 542.177 591.206 549.446L591.234 671.833C588.85 685.01 575.721 695.885 557.956 697.935L421.158 698C401.482 696.504 387.614 683.639 386.234 669.239L386.333 550.791C388.729 530.306 411.505 529.848 416.02 513.783C416.453 512.235 416.534 510.57 416.857 509.005C418.768 509.074 420.72 508.979 422.631 509.005L422.625 509.009Z" fill="#252327"/>
<path d="M782.582 511.005C782.658 511.734 783.073 512.387 783.068 513.14C782.963 522.088 781.037 531.898 780.632 540.797C778.949 577.702 785.147 630.18 824.885 645.796C841.768 652.431 857.52 650.715 862.831 672.209C863.313 674.163 864.819 679.955 863.417 681.213C862.454 682.076 853 683.268 850.936 683.511C832.375 685.684 808.079 686.681 789.471 685.494C771.578 684.354 766.667 672.294 756.126 660.678C747.84 651.549 737.704 641.806 726.324 636.853C726.242 637.749 726.781 638.526 726.757 639.418C726.428 650.944 727.739 662.603 728.25 674.249C728.355 676.685 728.617 682.152 728.231 684.278C728.159 684.674 727.849 685.47 727.515 685.47H690.804C689.155 685.47 690.547 676.575 690.585 675.24C690.866 666.036 691.3 656.745 691.539 647.593C691.973 630.995 690.39 612.719 694.514 596.702C696.182 590.234 699.11 584.204 700.917 577.84C706.7 557.491 700.163 533.833 700.054 513.14C700.054 512.554 700.178 511 700.812 511H782.577L782.582 511.005Z" fill="#336DFD"/>
<path d="M703.041 603.931C701.886 601.159 708.911 595.655 712.568 593.249L736.532 592.094C740.959 594.788 748.024 601.909 740.864 608.838C731.914 617.5 728.738 613.458 726.428 613.169C724.118 612.88 727.004 603.931 717.188 610.283C707.372 616.634 704.485 607.395 703.041 603.931Z" fill="#336DFD"/>
<path d="M745.489 551.098C745.951 555.487 743.949 555.814 742.891 555.429L743.468 522.805L763.389 522.805C765.121 524.537 764.255 528.001 762.812 531.177C761.368 534.353 755.883 534.064 755.594 534.064C755.305 534.064 753.863 534.642 754.151 539.261C754.44 543.881 752.708 546.19 752.419 546.768C752.13 547.345 750.687 548.788 748.666 548.788C746.645 548.788 744.912 545.613 745.489 551.098Z" fill="#336DFD"/>
<path d="M757.582 569.79C758.993 565.309 760.13 528.8 760.522 510.966L723.729 510.965C722.063 526.651 719.418 560.154 722.006 569.79C725.24 581.836 730.826 582.676 742.881 582.676C754.936 582.676 755.818 575.393 757.582 569.79Z" fill="#222222"/>
<path d="M754.93 515.445C754.65 530.712 753.839 562.204 752.834 566.041C751.576 570.837 750.947 577.071 742.353 577.071C733.759 577.071 729.776 576.352 727.47 566.041C727.117 555.618 726.939 530.908 729.056 515.445" stroke="#336DFD" stroke-width="2" stroke-dasharray="12 12"/>
<path d="M851.246 456.338C849.218 456.547 846.815 456.29 844.704 456.338C799.95 457.342 753.299 457.091 708.51 456.338C706.541 456.302 704.531 456.434 702.563 456.338C697.448 456.087 694.867 455.388 694.236 449.468C693.844 445.812 693.808 429.747 695.176 427.107C695.86 425.786 698.168 423.701 699.851 424.036L852.608 424.203C854.666 424.663 856.254 427.196 856.563 429.192C857.169 433.14 857.104 446.582 856.616 450.675C856.212 454.026 854.535 455.992 851.252 456.338H851.246Z" fill="#336DFD"/>
<path d="M708.69 456.012C708.28 459.885 707.84 464.067 706.616 467.789C700.43 486.517 679.275 487.386 677.207 511.238L677.177 663.162C678.686 679.962 690.542 693.987 708.999 695.366C752.92 693.556 799.057 697.805 842.723 695.4C862.987 694.284 875.193 681.307 876.892 662.607L876.785 511.86C874.759 488.199 858.001 488.485 849.301 472.201C846.562 467.071 845.51 461.662 844.773 456.012C846.883 455.967 849.283 456.208 851.31 456.012C851.131 462.581 853.782 469.471 858.138 474.516C861.305 478.187 865.946 480.8 869.452 484.023C876.637 490.643 880.862 499.007 882.205 508.43L882.234 667.08C879.78 684.161 866.267 698.259 847.982 700.916L707.18 701C686.928 699.06 672.655 682.384 671.234 663.717L671.335 510.173C673.802 483.619 697.245 483.025 701.892 462.2C702.337 460.193 702.421 458.035 702.753 456.006C704.72 456.096 706.729 455.972 708.696 456.006L708.69 456.012Z" fill="#252327"/>
<path d="M1085.37 568.575C1084.79 584.641 1086.06 599.872 1092.63 614.624C1099.81 630.727 1111.14 642.638 1127.78 648.798C1138.01 652.585 1147.11 652.202 1153.02 662.947C1156.09 668.509 1160.34 680.651 1150.26 680.987C1131.85 681.601 1112.53 682.306 1094.54 680.987C1079.81 679.905 1074.44 669.144 1064.9 660.216C1058.81 654.512 1051.93 649.439 1044.14 646.309C1043.32 646.645 1044.41 647.517 1044.41 647.617V680.179C1044.41 680.236 1043.68 680.966 1043.62 680.966H1009.22C1007.94 678.157 1009.19 675.489 1009.24 672.847C1009.56 658.903 1009.41 645.248 1009.2 631.357C1008.89 610.407 1021.04 595.786 1020.28 573.013C1019.41 547.19 1014.07 520.195 1011.85 494.256C1010.15 474.314 1009.43 454.22 1008.51 434.242C1008.99 432.394 1010.89 430.487 1012.75 430.035C1018.72 428.57 1028.35 428.659 1034.69 428.344C1048.31 427.677 1062.51 427.236 1076.2 427.803C1079.85 427.956 1086.95 428.218 1090.26 428.98C1092.63 429.526 1094.09 431.59 1094.29 433.864C1094.72 438.769 1093.17 444.835 1092.71 449.646C1092.54 451.468 1093.7 454.042 1092.2 456.185C1092.11 456.185 1091.38 456.757 1090.43 456.747C1086.9 456.705 1080.35 456.143 1077.25 456.726C1074.15 457.309 1074.01 462.398 1077.25 463.002C1079.52 463.422 1089.75 463.343 1092.2 463.017L1090.63 482.449C1087.62 482.187 1080.06 482.024 1077.27 482.481C1073.21 483.143 1073.52 488.368 1076.29 489.167C1078.14 489.697 1087.68 489.471 1090.1 489.277L1089.05 509.234C1086.08 509.029 1078.29 508.762 1075.67 509.25C1072.38 509.864 1072.43 515.185 1075.77 515.951C1077.92 516.445 1086.08 516.314 1088.53 516.062L1087.48 535.494C1084.81 535.257 1077 535.063 1074.63 535.509C1071.47 536.098 1071.08 541.407 1074.73 542.211C1077.05 542.72 1084.33 542.537 1086.96 542.321L1085.91 561.228C1083.5 560.981 1075.82 560.866 1073.68 561.338C1069.94 562.173 1069.53 567.336 1073.79 568.35C1076.04 568.885 1082.95 568.849 1085.39 568.575H1085.37Z" fill="#336DFD"/>
<path d="M1090.63 482.442C1095.86 482.894 1096.15 488.792 1090.1 489.269C1087.67 489.464 1078.14 489.69 1076.29 489.159C1073.52 488.361 1073.21 483.135 1077.27 482.473C1080.06 482.017 1087.62 482.185 1090.63 482.442Z" fill="#222222"/>
<path d="M1085.9 561.223C1090.99 561.743 1091.35 567.909 1085.37 568.576C1082.94 568.844 1076.03 568.88 1073.78 568.35C1069.52 567.336 1069.93 562.168 1073.67 561.339C1075.8 560.861 1083.49 560.982 1085.9 561.228V561.223Z" fill="#222222"/>
<path d="M1089.05 509.229C1091.32 509.386 1093.26 509.46 1093.1 512.564C1092.96 515.248 1090.79 515.831 1088.53 516.056C1086.07 516.303 1077.92 516.435 1075.77 515.946C1072.43 515.179 1072.37 509.859 1075.67 509.245C1078.29 508.756 1086.08 509.024 1089.05 509.229H1089.05Z" fill="#222222"/>
<path d="M1092.2 463.012C1089.75 463.343 1079.52 463.422 1077.25 462.997C1074.01 462.393 1074 457.325 1077.25 456.721C1080.49 456.117 1086.9 456.705 1090.43 456.742C1091.38 456.752 1092.11 456.18 1092.2 456.18C1096.25 456.216 1097.43 462.303 1092.2 463.007V463.012Z" fill="#222222"/>
<path d="M1087.47 535.488C1092.54 535.935 1092.84 541.838 1086.95 542.316C1084.32 542.531 1077.03 542.715 1074.72 542.206C1071.08 541.402 1071.46 536.092 1074.62 535.504C1077 535.063 1084.8 535.252 1087.47 535.488H1087.47Z" fill="#222222"/>
<path d="M1168.98 398.178C1166.5 398.437 1163.57 398.118 1160.99 398.178C1106.35 399.425 1049.4 399.113 994.715 398.178C992.311 398.133 989.857 398.296 987.454 398.178C981.209 397.866 978.058 396.997 977.289 389.642C976.809 385.099 976.766 365.14 978.436 361.86C979.271 360.219 982.088 357.629 984.143 358.045L1170.64 358.252C1173.15 358.824 1175.09 361.971 1175.47 364.45C1176.21 369.356 1176.13 386.057 1175.53 391.141C1175.04 395.305 1172.99 397.747 1168.98 398.178H1168.98Z" fill="#336DFD"/>
<path d="M995.033 398.014C994.532 402.757 993.994 407.878 992.497 412.436C984.933 435.368 959.065 436.432 956.537 465.639L956.501 651.668C958.346 672.239 972.842 689.413 995.411 691.102C1049.12 688.885 1105.53 694.088 1158.92 691.143C1183.7 689.777 1198.62 673.887 1200.7 650.988L1200.57 466.401C1198.09 437.427 1177.6 437.778 1166.97 417.838C1163.62 411.557 1162.33 404.933 1161.43 398.014C1164.01 397.959 1166.94 398.254 1169.42 398.014C1169.2 406.059 1172.44 414.495 1177.77 420.672C1181.64 425.168 1187.32 428.367 1191.6 432.314C1200.39 440.42 1205.56 450.661 1207.2 462.2L1207.23 656.466C1204.23 677.38 1187.71 694.644 1165.35 697.897L993.187 698C968.424 695.625 950.971 675.205 949.234 652.347L949.358 464.334C952.373 431.82 981.038 431.092 986.721 405.592C987.266 403.135 987.367 400.492 987.774 398.007C990.179 398.117 992.635 397.966 995.04 398.007L995.033 398.014Z" fill="#252327"/>
</svg>
