<svg width="1440" height="800" viewBox="0 0 1440 800" fill="none" xmlns="http://www.w3.org/2000/svg">
<path d="M138.387 702.683C135.756 708.291 133.295 716.4 131.024 721.568L122.872 743.673C121.375 750.934 117.467 759.786 115.438 767.376C106.43 801.023 102.55 835.413 99.2132 869.949L107.604 872.632L107.78 871.033C111.195 832.23 115.693 793.33 127.49 755.946C138.372 721.446 153.483 688.099 172.47 657.354L165.829 653.188C160.239 663.079 152.48 674.238 147.91 683.14C144.66 689.471 141.395 696.28 138.387 702.683Z" fill="#222222"/>
<path d="M90.2768 776.711C88.5104 782.648 84.9521 790.339 83.2091 795.708L74.5874 817.635C70.8743 824.051 67.9016 833.259 64.367 840.276C48.7049 871.388 28.7205 899.644 8.23357 927.646L0.184587 924.066L1.11683 922.755C24.3847 891.515 46.9082 859.482 62.9746 823.724C77.805 790.728 88.7104 755.779 94.9918 720.194L102.721 721.503C100.314 732.607 98.6814 746.099 96.1709 755.785C94.3842 762.674 92.2916 769.93 90.2768 776.711Z" fill="#222222"/>
<path d="M58.1497 686.728C59.2261 692.828 59.4844 701.299 60.3272 706.88L62.4258 730.347C61.9752 737.747 63.4361 747.312 63.4139 755.169C63.3249 790.001 58.0923 824.211 52.2968 858.42L43.4967 858.819L43.7442 857.23C50.578 818.881 56.3915 780.156 54.764 740.989C53.2662 704.844 47.3846 668.708 37.0828 634.072L44.5812 631.786C47.3957 642.793 51.9716 655.59 54.0596 665.376C55.5435 672.337 56.918 679.762 58.1497 686.728Z" fill="#222222"/>
<path d="M816.999 2.99964C839.328 17.2633 896.272 45.6374 950 35.4989C1003.73 25.3603 1048.26 13.9129 1110.12 53.6047C1263.51 152.018 1030.07 151.917 1077.28 118.959C1124.5 86.0007 1278.93 135.355 1322.14 201.503C1365.36 267.65 1551 86.3933 1322.5 2.49725" stroke="#B2A3C4" stroke-width="4" stroke-linecap="round" stroke-dasharray="8 8"/>
<path d="M533 823.999C481.306 780.03 316.001 654.505 218.962 754.987C164.693 811.182 280.073 880.981 312.488 789.876C339.215 714.761 91.8513 620.362 -19.0001 585.999" stroke="#B2A3C4" stroke-width="4" stroke-linecap="round" stroke-dasharray="8 8"/>
<path d="M37.0556 659.83C37.1589 660.021 36.2093 660.83 37.3814 661.842C43.6942 667.281 49.9168 663.052 43.5257 674.479C40.0086 680.766 27.8637 699.044 19.8779 698.146C10.9566 697.14 13.6736 685.912 16.5338 680.3C18.446 676.555 31.9441 657.871 35.639 658.582C36.2677 658.906 36.6974 659.165 37.0556 659.83Z" fill="#336DFD"/>
<path d="M64.5365 665.653C64.5718 665.093 71.3086 659.086 71.7977 659.064C73.7516 658.993 89.9388 673.574 92.3864 676.222C95.1106 679.179 98.9264 683.476 99.5319 687.48C100.527 694.074 97.9752 698.826 90.7081 697.416C79.3318 695.206 70.7951 674.49 64.5365 665.653Z" fill="#336DFD"/>
<path d="M85.186 660.836C83.9786 660.383 73.8678 655.372 73.4556 654.862C72.4192 653.589 74.7168 645.119 75.7854 644.612C76.8539 644.104 96.3048 646.124 98.7746 646.694C104.932 648.12 118.37 652.145 117.484 660.137C116.411 669.856 99.1863 666.105 93.069 663.709C90.7377 662.8 86.9101 661.573 85.186 660.836Z" fill="#336DFD"/>
<path d="M107.961 617.791C116.844 616.777 120.61 624.958 114.484 631.166C107.554 638.191 86.8026 641.728 77.0592 642.897C77.501 640.315 73.9872 635.405 74.0462 633.824C74.1262 631.733 92.5239 622.075 95.6282 620.897C98.5095 619.811 105.023 618.124 107.961 617.791Z" fill="#336DFD"/>
<path d="M40.677 621.637C41.5029 625.104 36.1004 630.3 33.902 629.702C29.3985 628.486 18.0846 613.931 15.2942 609.399C11.8166 603.749 7.01789 595.858 12.9787 590.253C20.7999 582.894 31.7743 603.181 34.6479 608.665C36.0181 611.282 40.1326 619.305 40.677 621.637Z" fill="#336DFD"/>
<path d="M31.4896 655.737C31.3693 657.529 17.5353 663.832 15.0834 664.775C11.4659 666.16 3.29481 668.48 -0.373043 668.834C-17.0685 670.456 -15.8289 655.815 -0.281724 650.769C3.31839 649.604 26.3132 646.463 28.6333 647.747C29.01 647.951 31.5219 655.316 31.4965 655.742L31.4896 655.737Z" fill="#336DFD"/>
<path d="M58.3933 711.428C45.9531 712.468 47.5436 685.264 48.6841 677.866C48.9452 676.179 50.0293 669.389 50.5252 668.474C51.2971 667.062 58.7942 666.503 59.8118 667.834C60.4886 668.714 62.582 676.34 63.0389 678.099C65.0256 685.764 68.1917 699.854 63.8553 706.847C62.7105 708.693 60.6861 711.244 58.3886 711.435L58.3933 711.428Z" fill="#336DFD"/>
<path d="M32.9036 633.52C30.7623 634.452 29.1685 642.58 28.6903 642.751C27.7896 643.07 12.2958 638.937 10.0514 638.258C3.22566 636.179 -17.1207 629.747 -9.23773 619.801C-3.92956 613.102 6.96444 618.581 12.6725 620.792C19.7456 624.358 26.3119 629.152 32.9013 633.509L32.9036 633.52Z" fill="#336DFD"/>
<path d="M68.0231 629.119C66.5657 629.082 61.0894 624.107 59.1058 623.191C63.0666 614.394 73.0962 592.362 82.9798 590.06C87.3903 589.038 91.1956 593.127 90.9836 597.476C90.9211 598.823 88.6775 605.778 88.0268 607.071C86.2804 610.555 70.7804 629.188 68.0162 629.114L68.0231 629.119Z" fill="#336DFD"/>
<path d="M43.4462 623.021C44.4402 618.455 42.0214 613.328 41.519 608.648C40.7202 601.181 39.7464 583.394 47.2472 579.362C50.2052 577.774 53.462 580.808 55.5524 583.074C61.1873 589.204 56.1062 614.707 53.8096 622.533C52.5587 624.266 46.8449 622.273 44.4555 623.692L43.4439 623.009L43.4462 623.021Z" fill="#336DFD"/>
<circle cx="52.5763" cy="645.28" r="24.6243" transform="rotate(34.0165 52.5763 645.28)" fill="#222222"/>
<path d="M151.052 659.826C151.155 660.017 150.205 660.826 151.377 661.839C157.69 667.277 163.913 663.048 157.522 674.475C154.005 680.762 141.86 699.04 133.874 698.142C124.953 697.136 127.67 685.908 130.53 680.296C132.442 676.551 145.94 657.867 149.635 658.578C150.264 658.902 150.693 659.161 151.052 659.826Z" fill="#336DFD"/>
<path d="M178.537 665.65C178.572 665.089 185.309 659.082 185.798 659.06C187.752 658.989 203.939 673.57 206.386 676.219C209.111 679.175 212.926 683.472 213.532 687.476C214.527 694.07 211.975 698.822 204.708 697.412C193.332 695.202 184.795 674.486 178.537 665.65Z" fill="#336DFD"/>
<path d="M199.182 660.832C197.975 660.379 187.864 655.368 187.452 654.858C186.415 653.585 188.713 645.115 189.781 644.608C190.85 644.1 210.301 646.121 212.771 646.69C218.928 648.116 232.366 652.141 231.48 660.133C230.407 669.852 213.182 666.102 207.065 663.705C204.734 662.796 200.906 661.569 199.182 660.832Z" fill="#336DFD"/>
<path d="M221.957 617.787C230.84 616.773 234.606 624.955 228.48 631.162C221.55 638.187 200.799 641.725 191.055 642.893C191.497 640.311 187.983 635.401 188.042 633.82C188.122 631.729 206.52 622.071 209.624 620.894C212.506 619.807 219.019 618.12 221.957 617.787Z" fill="#336DFD"/>
<path d="M154.677 621.633C155.503 625.101 150.1 630.296 147.902 629.699C143.399 628.482 132.085 613.927 129.294 609.395C125.817 603.745 121.018 595.854 126.979 590.25C134.8 582.89 145.774 603.177 148.648 608.661C150.018 611.278 154.133 619.302 154.677 621.633Z" fill="#336DFD"/>
<path d="M145.486 655.733C145.365 657.525 131.531 663.828 129.079 664.771C125.462 666.156 117.291 668.476 113.623 668.831C96.9276 670.453 98.1672 655.811 113.714 650.765C117.314 649.6 140.309 646.459 142.629 647.743C143.006 647.947 145.518 655.312 145.493 655.738L145.486 655.733Z" fill="#336DFD"/>
<path d="M172.389 711.424C159.949 712.464 161.54 685.26 162.68 677.862C162.941 676.176 164.025 669.385 164.521 668.471C165.293 667.058 172.79 666.499 173.808 667.83C174.485 668.71 176.578 676.336 177.035 678.095C179.022 685.76 182.188 699.85 177.851 706.843C176.707 708.689 174.682 711.24 172.385 711.431L172.389 711.424Z" fill="#336DFD"/>
<path d="M146.9 633.516C144.758 634.448 143.165 642.577 142.686 642.747C141.786 643.066 126.292 638.933 124.047 638.254C117.222 636.175 96.8754 629.744 104.758 619.797C110.067 613.098 120.961 618.577 126.669 620.788C133.742 624.354 140.308 629.148 146.897 633.505L146.9 633.516Z" fill="#336DFD"/>
<path d="M182.019 629.115C180.562 629.078 175.086 624.103 173.102 623.187C177.063 614.39 187.092 592.358 196.976 590.056C201.386 589.034 205.192 593.123 204.98 597.472C204.917 598.819 202.674 605.774 202.023 607.067C200.277 610.551 184.777 629.184 182.012 629.111L182.019 629.115Z" fill="#336DFD"/>
<path d="M157.446 623.017C158.44 618.451 156.021 613.324 155.519 608.644C154.72 601.177 153.746 583.39 161.247 579.358C164.205 577.77 167.462 580.804 169.552 583.071C175.187 589.2 170.106 614.703 167.81 622.529C166.559 624.263 160.845 622.269 158.455 623.688L157.444 623.005L157.446 623.017Z" fill="#336DFD"/>
<circle cx="166.576" cy="645.276" r="24.6243" transform="rotate(34.0165 166.576 645.276)" fill="#222222"/>
<path d="M81.9345 740.074C82.043 740.274 81.0454 741.124 82.2767 742.188C88.9083 747.902 95.4452 743.459 88.7314 755.463C85.0367 762.067 72.2783 781.268 63.8893 780.325C54.5174 779.268 57.3717 767.473 60.3763 761.577C62.3851 757.643 76.5648 738.015 80.4463 738.763C81.1068 739.103 81.5582 739.376 81.9345 740.074Z" fill="#DCFC73"/>
<path d="M110.808 746.196C110.845 745.608 117.922 739.297 118.436 739.274C120.489 739.199 137.493 754.517 140.064 757.299C142.926 760.405 146.935 764.919 147.571 769.125C148.617 776.052 145.935 781.045 138.301 779.563C126.351 777.242 117.383 755.479 110.808 746.196Z" fill="#DCFC73"/>
<path d="M132.503 741.136C131.234 740.661 120.613 735.397 120.18 734.861C119.091 733.523 121.505 724.626 122.627 724.093C123.75 723.56 144.183 725.682 146.777 726.28C153.245 727.779 167.363 732.007 166.432 740.402C165.304 750.612 147.21 746.672 140.784 744.155C138.335 743.2 134.314 741.911 132.503 741.136Z" fill="#DCFC73"/>
<path d="M156.423 695.915C165.755 694.85 169.711 703.444 163.276 709.966C155.996 717.345 134.197 721.061 123.961 722.288C124.425 719.576 120.734 714.419 120.796 712.757C120.88 710.561 140.207 700.415 143.468 699.178C146.495 698.037 153.337 696.265 156.423 695.915Z" fill="#DCFC73"/>
<path d="M85.7441 699.952C86.6118 703.595 80.9364 709.053 78.6269 708.426C73.8961 707.147 62.0108 691.858 59.0795 687.097C55.4262 681.162 50.3851 672.872 56.6469 666.984C64.8631 659.253 76.3918 680.564 79.4105 686.326C80.85 689.075 85.1722 697.503 85.7441 699.952Z" fill="#DCFC73"/>
<path d="M76.0893 735.775C75.9629 737.658 61.4302 744.278 58.8545 745.269C55.0544 746.725 46.4706 749.162 42.6175 749.534C25.0788 751.238 26.3811 735.857 42.7134 730.556C46.4953 729.332 70.6514 726.033 73.0887 727.381C73.4845 727.596 76.1232 735.333 76.0966 735.78L76.0893 735.775Z" fill="#DCFC73"/>
<path d="M104.35 794.277C91.282 795.369 92.9528 766.791 94.1509 759.02C94.4252 757.248 95.5641 750.114 96.085 749.154C96.8958 747.67 104.772 747.082 105.841 748.481C106.552 749.405 108.751 757.416 109.231 759.264C111.318 767.316 114.644 782.118 110.088 789.464C108.886 791.403 106.759 794.083 104.346 794.284L104.35 794.277Z" fill="#DCFC73"/>
<path d="M77.5749 712.436C75.3255 713.415 73.6513 721.954 73.1489 722.133C72.2026 722.468 55.9263 718.126 53.5686 717.413C46.3982 715.229 25.0243 708.473 33.3054 698.024C38.8816 690.986 50.3258 696.743 56.3221 699.065C63.7524 702.811 70.6504 707.847 77.5725 712.424L77.5749 712.436Z" fill="#DCFC73"/>
<path d="M114.471 707.818C112.94 707.779 107.187 702.552 105.103 701.59C109.264 692.349 119.8 669.204 130.183 666.785C134.816 665.713 138.814 670.008 138.591 674.576C138.525 675.992 136.168 683.298 135.485 684.656C133.65 688.316 117.368 707.889 114.464 707.813L114.471 707.818Z" fill="#DCFC73"/>
<path d="M88.6503 701.408C89.6946 696.611 87.1535 691.225 86.6258 686.309C85.7866 678.465 84.7637 659.779 92.6433 655.545C95.7507 653.876 99.1719 657.063 101.368 659.444C107.287 665.883 101.95 692.674 99.5371 700.895C98.223 702.716 92.2207 700.622 89.7106 702.113L88.6479 701.395L88.6503 701.408Z" fill="#DCFC73"/>
<circle cx="98.2434" cy="724.788" r="25.8679" transform="rotate(34.0165 98.2434 724.788)" fill="#222222"/>
<path d="M1259.83 402.189C1261.48 446.415 1250.67 489.758 1247.24 533.648C1248.13 533.534 1249.01 533.441 1249.89 533.368L1241 535L1254.07 417.121L1253.52 405.885C1254.27 380.412 1248.52 355.349 1242.84 330.601L1248.47 328C1253.88 349.497 1258.23 371.28 1259.82 393.336L1259.83 402.189Z" fill="#222222"/>
<path d="M605.977 431.786L614.259 427C618.02 435.764 623.698 446.276 626.731 454.224C637.023 481.188 644.879 509.303 648.977 538.052V539L639.557 537.977L639.497 537.594L634.719 512.786L627.193 483.978C625.239 476.144 620.385 464.916 617.269 457.16C613.814 448.585 610.018 440.088 605.977 431.786Z" fill="#222222"/>
<path d="M766.446 355.113C767.13 361.705 766.528 370.774 766.976 376.795L767.044 402.015C765.669 409.893 766.457 420.213 765.57 428.608C761.65 465.827 751.339 502.039 740.321 538.211L729.229 538.051L729.713 536.369C742.487 495.841 754.021 454.843 756.261 412.876C758.333 374.148 754.9 335.137 745.754 297.433L755.418 295.49C757.748 307.441 762.094 321.423 763.645 332.021C764.747 339.559 765.661 347.586 766.446 355.113Z" fill="#222222"/>
<path d="M977.676 416.474L978.887 434.735L988.741 548H980.217C978.068 521.258 974.88 494.644 972.536 467.902C970.397 443.487 968.487 419.24 969.101 394.531L973.389 360.695C974.735 328.15 987.573 297.247 990.437 265.046L999.984 260C998.322 283.346 990.795 305.744 986.456 328.652C981.009 357.459 977.941 387.206 977.676 416.474Z" fill="#222222"/>
<path d="M957.381 636.934L934.413 738.684L933.701 739.869L793.999 739.879L770.328 636.934H957.381Z" fill="#336DFD"/>
<path d="M1368.92 636.934L1345.95 738.684L1345.24 739.869L1205.54 739.879L1181.87 636.934H1368.92Z" fill="#336DFD"/>
<path d="M1149.81 635.984L1126.13 738.92L1012.68 739.394L990.289 635.984H1149.81Z" fill="#DCFC73"/>
<path d="M734.677 636.934C727.698 671.04 721.27 705.289 713.123 739.129L711.452 740.343L599.941 740.191L578.008 636.934H734.677Z" fill="#DCFC73"/>
<path d="M652.761 357.156C648.735 339.462 668.791 335.03 680.231 327.917C697.343 317.273 710.775 298.827 717.147 279.835C724.235 258.719 714.698 237.078 705.922 217.833C728.372 212.321 750.824 206.855 772.901 200.248C773.303 202.085 774.013 203.91 774.2 205.801C775.493 218.427 777.649 237.281 781.627 249.595C784.116 257.319 789.23 264.088 791.656 271.854C796.424 287.088 795.426 304.954 800.926 320.298L773.359 327.156L765.653 296.178C760.416 296.566 757.185 299.719 753.758 303.303C744.5 313.008 728.321 338.36 715.21 341.621L652.753 357.158L652.761 357.156Z" fill="#336DFD"/>
<path d="M1264.3 369.025C1263.64 368.943 1262.69 367.891 1262.61 367.107L1258.51 338.055C1255.65 338.673 1252.69 338.607 1250.01 340.019C1242.97 343.736 1229.78 361.819 1221.5 368.395C1203.78 382.466 1194.05 380.167 1173.45 383.762C1167.88 384.732 1161.13 386.73 1155.5 387.771C1151.34 388.541 1147.15 389.184 1142.99 389.927C1140.02 372.178 1160.39 369.102 1172.17 363.157C1186.69 355.816 1199.66 343.123 1206.95 328.603C1217.76 307.068 1213.72 294.873 1208.11 272.635C1206.43 265.992 1203.36 259.632 1202.91 252.67C1224.29 247.548 1245.57 242.219 1266.91 237.2C1267.89 257.306 1267.84 278.159 1272.93 297.842C1275.11 306.29 1280.56 315.151 1282.73 323.655C1285.24 333.546 1286.5 347.887 1287.8 358.36C1287.95 359.552 1288.62 364.833 1287.6 365.009C1281.55 364.906 1269.48 369.676 1264.29 369.027L1264.3 369.025Z" fill="#336DFD"/>
<path d="M971.848 363.675C942.527 356.98 916.388 333.778 912.988 303C944.208 307.419 968.411 332.498 971.848 363.675Z" fill="#DCFC73"/>
<path d="M1067.8 370.01C1067.8 370.01 1056.13 392.706 1053.48 395.872C1037.59 414.916 1014.7 428.101 992.188 436.078C973.172 442.82 976.437 437.678 983.691 424.019C998.013 397.02 1026.26 373.165 1057.54 370.396C1060.57 370.131 1067.8 370.01 1067.8 370.01C1068.27 371.146 1067.7 369.877 1067.81 370.01H1067.8Z" fill="#DCFC73"/>
<path d="M822.394 395.982C807.078 411.267 786.351 422.086 764.996 425.897C778.887 389.117 805.891 360.871 844.745 351C844.451 368.485 834.405 383.997 822.394 395.982Z" fill="#DCFC73"/>
<path d="M629.448 494.125C607.131 496.748 580.093 491.206 561.094 479.054C560.233 478.507 556.812 476.505 557.548 475.35C574.858 467.563 594.82 467.65 611.444 477.129C614.199 478.702 631.487 491.318 629.448 494.125Z" fill="#DCFC73"/>
<path d="M1185.52 408.191C1213.31 410.998 1244.62 438.306 1249.6 466.031C1221.26 458.474 1196.86 442.658 1176.96 421.475L1167 408.191C1172.96 408.627 1179.65 407.594 1185.52 408.191Z" fill="#DCFC73"/>
<path d="M1344.34 381.009C1345.05 381.626 1341.21 386.291 1340.52 387.144C1325.33 406.137 1298.97 425.707 1275.28 431.984C1272.96 432.6 1268.75 433.862 1267.73 434.089C1265.63 434.563 1257.58 435.606 1258.01 432.79C1258.16 431.908 1266.28 419.544 1267.6 417.685C1280.3 399.784 1301.38 381 1324.87 381H1344.33L1344.34 381.009Z" fill="#DCFC73"/>
<path d="M984.069 260.427C984.216 260.624 983.28 261.689 984.763 262.636C992.746 267.722 999.052 261.953 993.73 275.841C990.801 283.481 980.126 306.009 971.002 306.3C960.809 306.623 962.034 293.559 964.335 286.783C965.874 282.262 978.003 259.057 982.273 259.255C983.032 259.516 983.558 259.738 984.069 260.427Z" fill="#DCFC73"/>
<path d="M1015.91 262.496C1015.86 261.86 1022.46 254.009 1023 253.905C1025.19 253.506 1045.76 267.26 1048.94 269.839C1052.49 272.718 1057.48 276.928 1058.81 281.33C1061.01 288.58 1058.91 294.339 1050.51 293.938C1037.36 293.307 1024.39 271.41 1015.91 262.496Z" fill="#DCFC73"/>
<path d="M1038.34 253.715C1036.91 253.403 1024.73 249.418 1024.18 248.912C1022.81 247.649 1024.01 237.753 1025.13 237.009C1026.25 236.264 1048.45 235.365 1051.31 235.603C1058.47 236.203 1074.23 238.537 1074.54 247.666C1074.92 258.767 1054.94 257.358 1047.67 255.661C1044.9 255.019 1040.4 254.263 1038.34 253.715Z" fill="#DCFC73"/>
<path d="M1056.93 201.612C1066.75 199.024 1072.32 207.608 1066.44 215.585C1059.8 224.612 1037.05 231.97 1026.28 234.871C1026.36 231.896 1021.61 226.95 1021.42 225.162C1021.17 222.799 1040.28 208.944 1043.57 207.114C1046.64 205.423 1053.68 202.465 1056.93 201.612Z" fill="#DCFC73"/>
<path d="M981.919 216.898C983.413 220.662 978.186 227.383 975.617 227.069C970.356 226.435 955.265 211.917 951.39 207.277C946.56 201.492 939.879 193.403 945.666 186.131C953.259 176.583 968.903 197.601 973.027 203.298C974.994 206.016 980.927 214.366 981.919 216.898Z" fill="#DCFC73"/>
<path d="M977.146 256.733C977.303 258.767 962.778 268.107 960.175 269.567C956.334 271.714 947.526 275.654 943.461 276.65C924.956 281.194 923.964 264.532 940.619 256.326C944.477 254.429 969.815 247.151 972.633 248.216C973.089 248.384 977.113 256.254 977.154 256.737L977.146 256.733Z" fill="#DCFC73"/>
<path d="M1016.46 314.955C1002.65 318.152 1000 287.31 1000.08 278.808C1000.1 276.869 1000.21 269.058 1000.62 267.949C1001.26 266.236 1009.59 264.385 1010.95 265.716C1011.86 266.595 1015.46 274.827 1016.26 276.729C1019.74 285.023 1025.59 300.347 1021.86 308.915C1020.87 311.176 1019.01 314.374 1016.46 314.964L1016.46 314.955Z" fill="#DCFC73"/>
<path d="M975.114 231.525C972.859 232.921 972.392 242.319 971.882 242.589C970.921 243.094 952.83 240.973 950.196 240.575C942.184 239.35 918.263 235.436 925.504 222.97C930.379 214.574 943.519 218.958 950.296 220.514C958.829 223.369 966.992 227.689 975.11 231.512L975.114 231.525Z" fill="#DCFC73"/>
<path d="M1013.88 220.859C1012.24 221.055 1005.27 216.354 1002.89 215.648C1005.91 205.113 1013.59 178.71 1024.33 174.511C1029.12 172.644 1034.06 176.621 1034.54 181.544C1034.68 183.069 1033.3 191.253 1032.78 192.813C1031.38 197.014 1016.99 220.486 1013.87 220.855L1013.88 220.859Z" fill="#DCFC73"/>
<path d="M985.255 218.004C985.628 212.709 982.073 207.339 980.746 202.161C978.631 193.896 974.637 174.059 982.413 168.304C985.479 166.036 989.635 168.916 992.354 171.124C999.688 177.096 998.132 206.595 996.826 215.766C995.702 217.919 988.954 216.61 986.499 218.594L985.25 217.991L985.255 218.004Z" fill="#DCFC73"/>
<circle cx="999.151" cy="241.538" r="27.9716" transform="rotate(25.7679 999.151 241.538)" fill="#222222"/>
<path d="M609.114 432.29C610.356 434.37 612.405 441.226 613.067 443.879C614.66 450.253 619.068 474.34 606.184 467.624C599.076 463.912 596.903 437.697 600.103 430.454C602.751 431.755 604.766 432.583 606.498 429.628C606.982 430.789 608.59 431.411 609.114 432.29Z" fill="#DCFC73"/>
<path d="M606.258 394.969C605.987 395.259 599.398 395.984 598.611 395.291C595.705 392.694 592.588 368.213 593.391 363.54C595.807 349.534 605.022 355.504 607.26 366.144C608.173 370.476 608.492 392.563 606.258 394.969Z" fill="#DCFC73"/>
<path d="M596.84 428.702C598.803 431.291 590.281 448.375 587.965 451.595C580.758 461.633 568.266 466.664 573.262 448.232C574.594 443.343 584.787 426.574 590.063 426.874C590.636 426.905 596.627 428.425 596.84 428.702Z" fill="#DCFC73"/>
<path d="M553.089 437.266C549.089 435.203 553.426 428.069 556.057 425.875C561.387 421.432 573.527 418.342 580.264 417.71C581.695 417.57 584.01 416.15 584.861 416.354C585.805 416.583 589.695 423.043 588.343 424.408C580.475 428.54 561.983 441.854 553.098 437.268L553.089 437.266Z" fill="#DCFC73"/>
<path d="M617.392 421.943C619.355 422.126 635.935 436.711 638.034 439.352C646.815 450.376 642.033 459.425 629.207 449.689C625.516 446.89 612.146 432.067 612.136 428.034C612.13 427.398 616.927 421.901 617.402 421.944L617.392 421.943Z" fill="#DCFC73"/>
<path d="M587.099 404.891C586.168 406.107 586.139 412.105 585.823 412.32C585.297 412.692 574.603 412.298 572.893 412.1C568.191 411.543 541.537 405.8 548.876 397.959C555.861 390.5 579.072 401.819 587.09 404.889L587.099 404.891Z" fill="#DCFC73"/>
<path d="M634.408 364.357C638.368 370.021 623.315 396.461 617.672 398.859C616.414 399.393 612.186 397.647 611.325 396.826C609.155 394.769 619.496 373.321 621.947 369.99C624.159 366.984 631.199 359.765 634.416 364.368L634.408 364.357Z" fill="#DCFC73"/>
<path d="M656.811 386.378C660.52 392.789 653.457 397.156 648.126 400.261C644.378 402.446 625.643 409.83 622.573 407.234C622.354 407.052 620.325 402.316 620.47 401.918C620.757 401.092 632.897 392.729 634.672 391.706C642.146 387.4 651.574 380.188 656.811 386.378Z" fill="#DCFC73"/>
<path d="M649.484 426.963C640.021 426.578 630.309 422.264 621.208 420.114C622.561 418.412 621.279 412.747 621.557 412.477C622.098 411.964 634.649 412.032 636.562 412.168C641.975 412.569 663.172 414.806 660.209 423.417C659.089 426.679 651.985 427.064 649.484 426.963Z" fill="#DCFC73"/>
<path d="M568.762 369.569C574.993 368.628 585.547 381.611 588.837 386.352C590.034 388.077 593.809 393.921 594.541 395.49C595.867 398.373 589.683 401.9 588.311 401.529C586.635 401.078 575.038 389.677 573.244 387.502C570.915 384.687 561.088 370.723 568.764 369.559L568.762 369.569Z" fill="#DCFC73"/>
<circle cx="605.082" cy="413.091" r="20.8602" transform="rotate(9.74739 605.082 413.091)" fill="#222222"/>
<path d="M-7.64961 232.09C-7.40976 232.135 -7.37893 233.54 -5.66125 233.237C3.57689 231.596 4.31211 223.156 9.73935 236.863C12.7248 244.405 20.0394 268.009 13.5744 274.34C6.3497 281.411 -1.51741 271.053 -4.3815 264.564C-6.2897 260.231 -12.9961 235.157 -9.74674 232.438C-9.01704 232.12 -8.48455 231.929 -7.64961 232.09Z" fill="#DCFC73"/>
<path d="M16.9846 212.244C16.5207 211.814 16.0699 201.661 16.3983 201.218C17.7263 199.462 41.9682 195.705 46.0216 195.453C50.54 195.179 57.0055 194.905 60.9309 197.225C67.3942 201.047 69.727 206.655 63.3264 211.995C53.3046 220.353 29.1496 213.067 16.9846 212.244Z" fill="#DCFC73"/>
<path d="M27.4663 190.797C26.2125 191.529 14.6458 196.789 13.9075 196.786C12.0587 196.785 6.30068 188.754 6.61793 187.461C6.93518 186.167 22.5355 170.626 24.7893 168.876C30.4142 164.516 43.4875 155.649 49.8328 162.108C57.5521 169.959 42.0256 182.325 35.5821 185.96C33.1304 187.348 29.3362 189.816 27.4663 190.797Z" fill="#DCFC73"/>
<path d="M6.0964 140.296C11.5307 131.822 21.3508 134.354 22.4113 144.118C23.6134 155.164 11.9388 175.793 6.02711 185.128C4.08768 182.906 -2.69703 182.48 -4.03552 181.304C-5.80363 179.746 -1.14543 156.818 0.0348672 153.27C1.13621 149.983 4.29756 143.098 6.0964 140.296Z" fill="#DCFC73"/>
<path d="M52.564 250.172C44.6219 261.77 22.008 241.029 16.3625 234.771C15.0759 233.343 9.91961 227.566 9.47456 226.483C8.79069 224.804 13.6358 217.863 15.5217 217.921C16.7711 217.957 24.917 221.555 26.7769 222.407C34.8806 226.126 49.4319 233.386 52.4506 242.145C53.2472 244.457 54.0338 248.039 52.5667 250.181L52.564 250.172Z" fill="#DCFC73"/>
<circle cx="-9.30807" cy="208.188" r="27.7274" transform="rotate(-16.8031 -9.30807 208.188)" fill="#222222"/>
<path d="M971.625 610.387L967.827 636.946L759.515 636.993L753.238 610.387H971.625Z" fill="#2E5ED6"/>
<path d="M1383.16 610.387L1379.36 636.946L1171.05 636.993L1164.77 610.387H1383.16Z" fill="#2E5ED6"/>
<path d="M1165 610.387L1160.2 635.94L1154.92 636.822L979.447 636.993L974.148 610.387H1165Z" fill="#8A9D4C"/>
<path d="M750.88 610.861C750.88 610.861 750.354 616.218 750.107 617.726C749.613 620.608 747.819 636.652 746.404 636.974C702.461 637.277 658.48 636.462 614.536 636.889C599.658 637.031 584.446 638.719 569.425 637.467L563.785 610.387L750.88 610.861Z" fill="#8A9D4C"/>
</svg>
