<svg width="1440" height="224" viewBox="0 0 1440 224" fill="none" xmlns="http://www.w3.org/2000/svg">
<g clip-path="url(#clip0_2340_54297)">
<path d="M1053.78 56.5156V78.2721H1048.2V56.5156H1040V110.84H1048.2V86.9614H1053.78V110.84H1061.98V56.5156H1053.78Z" fill="#336DFD"/>
<mask id="mask0_2340_54297" style="mask-type:luminance" maskUnits="userSpaceOnUse" x="1040" y="56" width="279" height="111">
<path d="M1319 56H1040V167H1319V56Z" fill="white"/>
</mask>
<g mask="url(#mask0_2340_54297)">
<path d="M1075.99 111.429H1074.39C1067.85 111.429 1064.38 107.85 1064.38 101.131V90.2527H1072.5V99.7509C1072.5 102.235 1073.29 103.548 1075.18 103.548C1077.07 103.548 1077.87 102.235 1077.87 98.8753V97.6381C1077.87 93.7646 1077.51 92.3845 1074.53 88.511L1069.31 81.7918C1065.83 77.2616 1064.81 73.7592 1064.81 68.3534V66.6022C1064.81 59.3596 1068.44 56 1074.89 56H1076.41C1083.16 56 1085.77 58.9979 1085.77 65.4221V74.3303H1077.87V66.5166C1077.87 64.6893 1077.51 63.2998 1075.54 63.2998C1073.57 63.2998 1073.15 64.5465 1073.15 67.0971V68.1155C1073.15 71.1801 1073.73 72.8646 1076.49 76.4431L1081.71 83.2384C1085.41 88.0542 1086.57 90.8332 1086.57 96.9719V98.7231C1086.57 106.679 1083.16 111.429 1075.99 111.429Z" fill="#336DFD"/>
</g>
<path d="M1088.89 56.5156V110.84H1107.97V102.589H1097.09V86.8948H1105.28V78.6433H1097.09V64.3959H1107.53V56.5156H1088.89Z" fill="#336DFD"/>
<path d="M1127.05 72.4285L1129.22 92.51H1124.94L1127.05 72.4285ZM1122.33 56.5156L1115.73 110.84H1123.06L1124.14 100.619H1130.09L1131.18 110.84H1139.08L1132.06 56.5156H1122.34H1122.33Z" fill="#336DFD"/>
<mask id="mask1_2340_54297" style="mask-type:luminance" maskUnits="userSpaceOnUse" x="1040" y="56" width="279" height="111">
<path d="M1319 56H1040V167H1319V56Z" fill="white"/>
</mask>
<g mask="url(#mask1_2340_54297)">
<path d="M1148.6 78.8622H1150.77C1153.02 78.8622 1153.75 77.406 1153.75 74.9887V67.3939C1153.75 65.0526 1153.24 63.8915 1150.77 63.8915H1148.6V78.8622ZM1148.6 110.85H1140.4V56.5156H1153.67C1159.12 56.5156 1161.87 58.8569 1161.87 64.9099V74.5509C1161.87 79.0811 1159.77 80.8323 1158.31 81.489C1160.13 82.2884 1161.87 83.7541 1161.87 87.3992V106.462C1161.87 108.651 1162.3 109.679 1162.66 110.479V110.84H1154.54C1154.18 110.26 1153.75 109.308 1153.75 106.386V90.026C1153.75 87.6181 1153.31 86.5902 1150.7 86.5902H1148.6V110.831V110.85Z" fill="#336DFD"/>
</g>
<path d="M1163.39 56.5156V64.3959H1170.28V110.84H1178.41V64.3959H1185.31V56.5156H1163.39Z" fill="#336DFD"/>
<path d="M1204.31 72.4285L1206.48 92.51H1202.2L1204.3 72.4285H1204.31ZM1199.59 56.5156L1192.99 110.84H1200.32L1201.41 100.619H1207.35L1208.44 110.84H1216.34L1209.31 56.5156H1199.59Z" fill="#336DFD"/>
<path d="M1232.09 56.5156V85.648L1225.05 56.5156H1217.66V110.84H1225.05V79.5855L1232.89 110.84H1239.56V56.5156H1232.09Z" fill="#336DFD"/>
<mask id="mask2_2340_54297" style="mask-type:luminance" maskUnits="userSpaceOnUse" x="1040" y="56" width="279" height="111">
<path d="M1319 56H1040V167H1319V56Z" fill="white"/>
</mask>
<g mask="url(#mask2_2340_54297)">
<path d="M1250.81 102.96H1252.76C1255.23 102.96 1255.96 101.647 1255.96 98.7247V68.1267C1255.96 64.986 1255.16 63.8915 1253.13 63.8915H1250.81V102.96ZM1242.61 56.5156H1255.16C1262.19 56.5156 1264.37 60.5319 1264.37 66.9561V100.038C1264.37 106.681 1261.91 110.84 1255.16 110.84H1242.61V56.5156Z" fill="#336DFD"/>
<path d="M1048.2 158.39H1050.15C1052.62 158.39 1053.35 157.076 1053.35 154.154V123.556C1053.35 120.416 1052.55 119.321 1050.52 119.321H1048.2V158.39ZM1040 111.945H1052.55C1059.58 111.945 1061.75 115.962 1061.75 122.386V155.468C1061.75 162.111 1059.29 166.27 1052.55 166.27H1040V111.945Z" fill="#336DFD"/>
</g>
<path d="M1064.67 111.941V166.276H1083.75V158.024H1072.86V142.321H1081.06V134.069H1072.86V119.831H1083.31V111.941H1064.67Z" fill="#336DFD"/>
<mask id="mask3_2340_54297" style="mask-type:luminance" maskUnits="userSpaceOnUse" x="1040" y="56" width="279" height="111">
<path d="M1319 56H1040V167H1319V56Z" fill="white"/>
</mask>
<g mask="url(#mask3_2340_54297)">
<path d="M1096.8 166.857H1095.2C1088.67 166.857 1085.19 163.278 1085.19 156.559V145.681H1093.31V155.169C1093.31 157.653 1094.11 158.967 1096 158.967C1097.89 158.967 1098.68 157.653 1098.68 154.294V153.057C1098.68 149.183 1098.32 147.803 1095.35 143.929L1090.12 137.21C1086.64 132.68 1085.62 129.178 1085.62 123.772V122.021C1085.62 114.788 1089.24 111.438 1095.7 111.438H1097.22C1103.97 111.438 1106.58 114.435 1106.58 120.86V129.768H1098.67V121.954C1098.67 120.127 1098.31 118.737 1096.35 118.737C1094.38 118.737 1093.96 119.984 1093.96 122.535V123.553C1093.96 126.618 1094.53 128.302 1097.29 131.881L1102.51 138.666C1106.21 143.482 1107.37 146.261 1107.37 152.39V154.142C1107.37 162.098 1103.96 166.847 1096.78 166.847" fill="#336DFD"/>
</g>
<path d="M1117.92 111.941H1109.72V166.276H1117.92V111.941Z" fill="#336DFD"/>
<mask id="mask4_2340_54297" style="mask-type:luminance" maskUnits="userSpaceOnUse" x="1040" y="56" width="279" height="111">
<path d="M1319 56H1040V167H1319V56Z" fill="white"/>
</mask>
<g mask="url(#mask4_2340_54297)">
<path d="M1128.58 166.999C1123.8 166.999 1120.74 162.688 1120.74 157.063V123.105C1120.74 117.043 1123.07 111.418 1130.83 111.418H1132.43C1141.2 111.418 1142.22 117.185 1142.22 123.61V129.158H1134.24V123.029C1134.24 120.621 1133.67 119.308 1131.63 119.308C1129.89 119.308 1129.1 120.621 1129.1 123.029V154.798C1129.1 157.358 1130.12 158.671 1131.78 158.671C1133.89 158.671 1134.83 157.215 1134.83 155.169V141.588H1131.13V133.26H1142.59V166.266H1137.95C1137.87 165.971 1137.22 163.268 1136.57 160.936C1135.99 162.764 1133.23 166.999 1129.1 166.999H1128.59H1128.58Z" fill="#336DFD"/>
</g>
<path d="M1159.84 111.941V141.083L1152.8 111.941H1145.41V166.276H1152.8V135.021L1160.64 166.276H1167.31V111.941H1159.84Z" fill="#336DFD"/>
<mask id="mask5_2340_54297" style="mask-type:luminance" maskUnits="userSpaceOnUse" x="1040" y="56" width="279" height="111">
<path d="M1319 56H1040V167H1319V56Z" fill="white"/>
</mask>
<g mask="url(#mask5_2340_54297)">
<path d="M1188.71 166.857H1187.11C1180.58 166.857 1177.1 163.278 1177.1 156.559V145.681H1185.22V155.169C1185.22 157.653 1186.01 158.967 1187.9 158.967C1189.79 158.967 1190.59 157.653 1190.59 154.294V153.057C1190.59 149.183 1190.23 147.803 1187.25 143.929L1182.02 137.21C1178.54 132.68 1177.52 129.178 1177.52 123.772V122.021C1177.52 114.788 1181.15 111.438 1187.6 111.438H1189.12C1195.86 111.438 1198.48 114.435 1198.48 120.86V129.768H1190.58V121.954C1190.58 120.127 1190.22 118.737 1188.25 118.737C1186.29 118.737 1185.86 119.984 1185.86 122.535V123.553C1185.86 126.618 1186.44 128.302 1189.2 131.881L1194.42 138.666C1198.11 143.482 1199.28 146.261 1199.28 152.39V154.142C1199.28 162.098 1195.87 166.847 1188.69 166.847" fill="#336DFD"/>
<path d="M1215.05 155.246V142.616H1223.1V155.179C1223.1 161.023 1221.21 166.933 1213.31 166.933H1211.49C1203.22 166.933 1201.41 160.946 1201.41 155.464V122.316C1201.41 116.767 1203.81 111.438 1211.21 111.438H1213.09C1222.08 111.438 1223.1 117.424 1223.1 122.754V132.471H1215.05V122.906C1215.05 120.574 1214.32 119.327 1212.29 119.327C1210.25 119.327 1209.74 120.498 1209.74 122.906V155.179C1209.74 157.587 1210.54 158.9 1212.35 158.9C1214.31 158.9 1215.04 157.444 1215.04 155.246" fill="#336DFD"/>
</g>
<path d="M1239.49 111.941V133.707H1233.9V111.941H1225.7V166.276H1233.9V142.397H1239.49V166.276H1247.68V111.941H1239.49Z" fill="#336DFD"/>
<mask id="mask6_2340_54297" style="mask-type:luminance" maskUnits="userSpaceOnUse" x="1040" y="56" width="279" height="111">
<path d="M1319 56H1040V167H1319V56Z" fill="white"/>
</mask>
<g mask="url(#mask6_2340_54297)">
<path d="M1264.59 123.477C1264.59 120.631 1263.64 119.318 1261.76 119.318C1259.65 119.318 1258.86 120.707 1258.86 123.477V154.732C1258.86 157.063 1259.51 158.891 1261.84 158.891C1264.01 158.891 1264.6 157.063 1264.6 154.732V123.477H1264.59ZM1272.93 154.151C1272.93 161.746 1270.38 166.933 1262.48 166.933H1261.1C1253.26 166.933 1250.51 161.746 1250.51 154.151V123.924C1250.51 116.406 1253.34 111.438 1261.03 111.438H1262.41C1270.38 111.438 1272.92 116.406 1272.92 123.848V154.151H1272.93Z" fill="#336DFD"/>
<path d="M1289.62 123.477C1289.62 120.631 1288.67 119.318 1286.79 119.318C1284.68 119.318 1283.89 120.707 1283.89 123.477V154.732C1283.89 157.063 1284.54 158.891 1286.86 158.891C1289.03 158.891 1289.62 157.063 1289.62 154.732V123.477ZM1297.96 154.151C1297.96 161.746 1295.41 166.933 1287.51 166.933H1286.13C1278.29 166.933 1275.54 161.746 1275.54 154.151V123.924C1275.54 116.406 1278.37 111.438 1286.06 111.438H1287.44C1295.42 111.438 1297.96 116.406 1297.96 123.848V154.151Z" fill="#336DFD"/>
</g>
<path d="M1300.79 111.941V166.276H1318.99V157.872H1308.99V111.941H1300.79Z" fill="#336DFD"/>
</g>
<path d="M857.856 213.823C862.312 215.666 862.476 221.778 862.001 223.969C852.754 224.243 833.692 224.03 831.42 224.215C828.58 224.447 818.533 222.377 815.258 218.919C812.638 216.153 802.557 209.815 798.335 206.704C798.073 207.626 800.623 218.696 801.931 224.115L780.524 224.126C779.217 216.631 779.553 199.679 779.663 198.526C779.773 197.372 782.85 160.353 784.27 160.353C785.406 160.352 808.99 160.032 820.64 159.873C821.836 169.559 824.669 182.935 831.434 195.962C838.199 208.99 852.287 211.52 857.856 213.823Z" fill="#E1D2F3"/>
<path d="M789.239 174.068C785.357 174.345 783.138 171.509 782.514 170.056C781.985 170.056 780.151 190.556 779.3 200.807L784.814 200.804C784.815 199.542 785.566 197.086 788.566 197.36C792.315 197.702 791.103 195.064 790.662 194.949C790.221 194.835 788.567 193.918 789.23 192.885C789.892 191.852 790.113 190.245 789.231 189.557C788.35 188.869 785.816 183.249 788.573 183.133C791.33 183.016 794.091 173.721 789.239 174.068Z" fill="#E1D2F3"/>
<path d="M833.04 213.691C835.609 216.157 836.108 220.045 836.037 221.681L836.037 222.48C834.716 222.442 831.712 222.343 830.256 222.252C828.437 222.138 821.051 218.485 820.516 218.371C819.98 218.257 805.423 205.587 805.423 205.473C805.423 205.359 806.065 203.304 807.885 202.277C809.705 201.25 811.417 202.505 812.274 203.533C813.13 204.56 812.702 205.245 816.341 202.734C819.98 200.223 821.907 206.272 820.516 207.185C819.402 207.916 819.41 209.392 819.552 210.039C822.121 215.86 825.225 213.234 825.653 213.349C826.082 213.463 829.828 210.609 833.04 213.691Z" fill="#E1D2F3"/>
<path d="M862.11 220.52C862.285 220.889 862.109 222.978 861.999 223.977C840.37 224.909 827.153 224.456 824.422 223.535C821.692 222.615 814.265 220.66 811.536 217.781C809.352 215.478 801.163 208.992 798.324 207.073C798.061 207.995 800.612 218.747 801.92 224.008L780.291 224.019C779.313 214.572 779.43 199.249 779.867 199.018C780.304 198.787 787.841 199.705 794.722 201.775C801.602 203.846 807.388 210.64 813.94 215.706C820.491 220.772 823.659 220.54 830.541 221.573C836.046 222.4 853.881 221.216 862.11 220.52Z" fill="#222222" stroke="#222222"/>
<path d="M814.252 163.67C815.84 163.854 819.324 162.433 820.867 161.699C821.197 163.203 822.076 168.294 823.506 174.774C824.65 179.958 826.917 185.958 827.908 188.311C827.026 190.047 825.373 188.196 824.491 188.313C823.609 188.429 823.059 185.999 821.295 186.578C819.531 187.158 820.193 187.505 816.225 186.928C812.256 186.352 812.147 184.153 812.81 181.491C813.34 179.362 814.869 178.674 815.567 178.597C817.552 176.744 817.222 176.86 816.231 174.778C815.24 172.695 810.28 171.772 811.493 170.614C812.463 169.688 811.898 168.917 811.494 168.647C806.866 164.599 809.513 161.705 811.497 161.704C813.482 161.703 812.268 163.439 814.252 163.67Z" fill="#E1D2F3"/>
<path d="M813.867 192.833C814.294 191.725 811.696 189.525 810.344 188.563L801.481 188.102C799.843 189.179 797.231 192.025 799.879 194.795C803.189 198.257 804.363 196.641 805.218 196.526C806.072 196.41 805.004 192.833 808.635 195.372C812.265 197.911 813.333 194.218 813.867 192.833Z" fill="#E1D2F3"/>
<path d="M798.172 171.712C798.001 173.466 798.741 173.597 799.133 173.443L798.919 160.402L791.552 160.402C790.911 161.095 791.231 162.48 791.765 163.749C792.299 165.018 794.328 164.903 794.435 164.903C794.541 164.903 795.075 165.134 794.968 166.98C794.861 168.827 795.502 169.75 795.609 169.981C795.716 170.211 796.249 170.788 796.997 170.788C797.744 170.788 798.385 169.519 798.172 171.712Z" fill="#E1D2F3"/>
<path d="M794.172 184.588C793.649 182.742 793.234 167.701 793.092 160.353L806.75 160.231C807.366 166.694 808.356 180.611 807.393 184.582C806.188 189.545 804.112 189.892 799.632 189.894C795.153 189.897 794.826 186.896 794.172 184.588Z" fill="#222222"/>
<path d="M795.164 162.197C795.265 168.486 795.56 181.461 795.933 183.042C796.399 185.017 796.631 187.586 799.825 187.584C803.019 187.582 804.499 187.285 805.358 183.037C805.492 178.743 805.563 168.562 804.779 162.192" stroke="#E1D2F3" stroke-width="2" stroke-dasharray="12 12"/>
<path d="M827.314 195.743C826.379 192.47 822.816 191.885 821.151 192.002C818.813 192.586 817.963 195.743 819.344 196.678C820.726 197.613 822.639 199.951 822.851 200.419C823.093 200.952 823.808 205.796 826.145 204.16C828.483 202.523 828.483 199.834 827.314 195.743Z" fill="#E1D2F3"/>
<path d="M429.79 214.897C425.916 216.499 425.773 221.814 426.186 223.72C434.227 223.958 450.803 223.772 452.778 223.934C455.248 224.135 463.985 222.335 466.832 219.328C469.11 216.922 477.877 211.412 481.548 208.706C481.776 209.508 479.559 219.134 478.421 223.846L497.036 223.856C498.172 217.338 497.88 202.597 497.784 201.595C497.689 200.592 495.013 168.401 493.779 168.4C492.791 168.4 472.283 168.122 462.152 167.983C461.112 176.406 458.648 188.037 452.766 199.365C446.883 210.694 434.633 212.894 429.79 214.897Z" fill="#E1D2F3"/>
<path d="M489.461 180.325C492.836 180.566 494.766 178.1 495.309 176.836C495.769 176.836 497.364 194.663 498.103 203.576L493.309 203.574C493.308 202.477 492.655 200.341 490.047 200.579C486.786 200.877 487.84 198.583 488.224 198.483C488.607 198.383 490.045 197.586 489.469 196.688C488.893 195.79 488.701 194.393 489.468 193.794C490.234 193.196 492.438 188.308 490.04 188.207C487.643 188.106 485.242 180.024 489.461 180.325Z" fill="#E1D2F3"/>
<path d="M451.373 214.781C449.139 216.925 448.705 220.306 448.767 221.729V222.424C449.915 222.391 452.528 222.305 453.794 222.225C455.376 222.126 461.798 218.95 462.264 218.851C462.729 218.752 475.388 207.734 475.388 207.635C475.388 207.536 474.829 205.749 473.247 204.856C471.665 203.963 470.175 205.055 469.431 205.948C468.686 206.841 469.058 207.437 465.894 205.253C462.729 203.07 461.054 208.33 462.264 209.124C463.232 209.759 463.226 211.043 463.102 211.605C460.868 216.667 458.168 214.384 457.796 214.484C457.424 214.583 454.166 212.101 451.373 214.781Z" fill="#E1D2F3"/>
<path d="M426.094 220.722C425.942 221.042 426.095 222.859 426.19 223.727C444.998 224.538 456.491 224.143 458.866 223.343C461.24 222.543 467.698 220.843 470.072 218.34C471.97 216.337 479.091 210.697 481.56 209.028C481.789 209.83 479.571 219.179 478.433 223.754L497.241 223.763C498.091 215.549 497.989 202.224 497.609 202.024C497.229 201.823 490.676 202.621 484.692 204.421C478.709 206.222 473.678 212.13 467.981 216.535C462.284 220.94 459.529 220.739 453.545 221.637C448.758 222.356 433.25 221.326 426.094 220.722Z" fill="#222222" stroke="#222222"/>
<path d="M467.707 171.283C466.327 171.443 463.297 170.208 461.955 169.57C461.668 170.878 460.903 175.305 459.66 180.939C458.666 185.447 456.694 190.665 455.832 192.71C456.6 194.22 458.037 192.611 458.804 192.712C459.57 192.813 460.049 190.7 461.583 191.204C463.116 191.708 462.542 192.009 465.992 191.508C469.442 191.007 469.537 189.095 468.961 186.78C468.5 184.928 467.17 184.331 466.563 184.263C464.837 182.652 465.125 182.753 465.987 180.942C466.848 179.131 471.161 178.329 470.106 177.322C469.262 176.516 469.754 175.846 470.106 175.611C474.13 172.091 471.828 169.575 470.102 169.574C468.377 169.573 469.432 171.083 467.707 171.283Z" fill="#E1D2F3"/>
<path d="M468.049 196.646C467.677 195.682 469.936 193.769 471.113 192.933L478.819 192.531C480.243 193.468 482.515 195.943 480.212 198.351C477.334 201.362 476.313 199.957 475.57 199.857C474.827 199.756 475.755 196.646 472.598 198.853C469.442 201.061 468.513 197.85 468.049 196.646Z" fill="#E1D2F3"/>
<path d="M481.695 178.28C481.843 179.805 481.2 179.919 480.859 179.785L481.045 168.445H487.452C488.009 169.047 487.73 170.252 487.266 171.355C486.802 172.459 485.038 172.359 484.945 172.359C484.852 172.359 484.388 172.56 484.481 174.165C484.574 175.771 484.017 176.574 483.924 176.774C483.831 176.975 483.367 177.477 482.717 177.477C482.067 177.477 481.509 176.373 481.695 178.28Z" fill="#E1D2F3"/>
<path d="M485.179 189.474C485.634 187.868 485.995 174.789 486.118 168.4L474.242 168.293C473.706 173.913 472.845 186.015 473.682 189.468C474.73 193.784 476.535 194.086 480.431 194.088C484.326 194.09 484.61 191.481 485.179 189.474Z" fill="#222222"/>
<path d="M484.311 170.008C484.223 175.478 483.967 186.76 483.642 188.135C483.237 189.852 483.035 192.086 480.258 192.085C477.48 192.083 476.193 191.825 475.446 188.13C475.33 184.396 475.268 175.543 475.95 170.004" stroke="#E1D2F3" stroke-width="2" stroke-dasharray="12 12"/>
<path d="M456.347 199.175C457.16 196.329 460.259 195.82 461.707 195.922C463.739 196.43 464.479 199.175 463.278 199.988C462.076 200.802 460.413 202.835 460.228 203.241C460.018 203.705 459.397 207.917 457.364 206.494C455.331 205.071 455.331 202.733 456.347 199.175Z" fill="#E1D2F3"/>
<path d="M599.796 213.823C595.341 215.666 595.176 221.778 595.651 223.969C604.898 224.243 623.961 224.03 626.233 224.215C629.072 224.447 639.12 222.377 642.394 218.919C645.014 216.153 655.095 209.815 659.317 206.704C659.58 207.626 657.03 218.696 655.722 224.115L677.129 224.126C678.435 216.631 678.099 199.679 677.989 198.526C677.879 197.372 674.802 160.353 673.383 160.353C672.247 160.352 648.663 160.032 637.012 159.873C635.816 169.559 632.983 182.935 626.218 195.962C619.453 208.99 605.365 211.52 599.796 213.823Z" fill="#336DFD"/>
<path d="M668.417 174.068C672.299 174.345 674.518 171.509 675.142 170.056C675.671 170.056 677.505 190.556 678.356 200.807L672.842 200.804C672.841 199.542 672.09 197.086 669.091 197.36C665.341 197.702 666.553 195.064 666.994 194.949C667.435 194.835 669.089 193.918 668.427 192.885C667.765 191.852 667.543 190.245 668.425 189.557C669.307 188.869 671.84 183.249 669.083 183.133C666.326 183.016 663.565 173.721 668.417 174.068Z" fill="#336DFD"/>
<path d="M624.617 213.691C622.048 216.157 621.548 220.045 621.62 221.681V222.48C622.94 222.442 625.944 222.343 627.4 222.252C629.22 222.138 636.605 218.485 637.141 218.371C637.676 218.257 652.233 205.587 652.233 205.473C652.233 205.359 651.591 203.304 649.771 202.277C647.952 201.25 646.239 202.505 645.383 203.533C644.526 204.56 644.954 205.245 641.315 202.734C637.676 200.223 635.749 206.272 637.141 207.185C638.254 207.916 638.247 209.392 638.104 210.039C635.535 215.86 632.431 213.234 632.003 213.349C631.575 213.463 627.828 210.609 624.617 213.691Z" fill="#336DFD"/>
<path d="M595.546 220.52C595.371 220.889 595.547 222.978 595.657 223.977C617.286 224.909 630.503 224.456 633.234 223.535C635.964 222.615 643.391 220.66 646.121 217.781C648.304 215.478 656.493 208.992 659.332 207.073C659.595 207.995 657.045 218.747 655.736 224.008L677.365 224.019C678.343 214.572 678.226 199.249 677.789 199.018C677.352 198.787 669.815 199.705 662.935 201.775C656.054 203.846 650.268 210.64 643.716 215.706C637.165 220.772 633.997 220.54 627.116 221.573C621.611 222.4 603.776 221.216 595.546 220.52Z" fill="#222222" stroke="#222222"/>
<path d="M643.4 163.67C641.813 163.854 638.329 162.433 636.785 161.699C636.455 163.203 635.576 168.294 634.146 174.774C633.003 179.958 630.735 185.958 629.744 188.311C630.627 190.047 632.279 188.196 633.161 188.313C634.043 188.429 634.593 185.999 636.357 186.578C638.121 187.158 637.46 187.505 641.428 186.928C645.396 186.352 645.505 184.153 644.842 181.491C644.312 179.362 642.783 178.674 642.085 178.597C640.1 176.744 640.431 176.86 641.422 174.778C642.413 172.695 647.373 171.772 646.159 170.614C645.189 169.688 645.754 168.917 646.158 168.647C650.786 164.599 648.139 161.705 646.155 161.704C644.171 161.703 645.384 163.439 643.4 163.67Z" fill="#336DFD"/>
<path d="M643.785 192.833C643.358 191.725 645.956 189.525 647.309 188.563L656.172 188.102C657.809 189.179 660.422 192.025 657.774 194.795C654.464 198.257 653.289 196.641 652.435 196.526C651.581 196.41 652.648 192.833 649.017 195.372C645.387 197.911 644.319 194.218 643.785 192.833Z" fill="#336DFD"/>
<path d="M659.484 171.712C659.655 173.466 658.915 173.597 658.523 173.443L658.737 160.402H666.105C666.745 161.095 666.425 162.48 665.891 163.749C665.357 165.018 663.328 164.903 663.222 164.903C663.115 164.903 662.581 165.134 662.688 166.98C662.795 168.827 662.154 169.75 662.047 169.981C661.941 170.211 661.407 170.788 660.659 170.788C659.912 170.788 659.271 169.519 659.484 171.712Z" fill="#336DFD"/>
<path d="M663.484 184.585C664.008 182.738 664.423 167.697 664.565 160.349L650.907 160.227C650.291 166.69 649.3 180.607 650.263 184.578C651.468 189.541 653.544 189.888 658.024 189.891C662.504 189.893 662.83 186.892 663.484 184.585Z" fill="#222222"/>
<path d="M662.492 162.197C662.391 168.486 662.097 181.461 661.724 183.042C661.257 185.017 661.025 187.586 657.831 187.584C654.637 187.582 653.157 187.285 652.298 183.037C652.165 178.743 652.093 168.562 652.877 162.192" stroke="#336DFD" stroke-width="2" stroke-dasharray="12 12"/>
<path d="M630.338 195.743C631.273 192.47 634.836 191.885 636.501 192.002C638.839 192.586 639.689 195.743 638.308 196.678C636.927 197.613 635.014 199.951 634.801 200.419C634.559 200.952 633.845 205.796 631.507 204.16C629.169 202.523 629.169 199.834 630.338 195.743Z" fill="#336DFD"/>
<path d="M549.682 18.3028C549.89 18.411 549.529 19.7096 551.191 19.908C560.131 20.9631 563.147 13.4149 564.33 27.5103C564.98 35.2658 565.152 58.9745 557.458 62.9966C548.861 67.4876 544.508 55.7911 543.677 49.0365C543.126 44.5275 543.921 19.6374 547.66 18.0412C548.418 17.9511 548.96 17.924 549.682 18.3028Z" fill="#336DFD"/>
<path d="M577.816 6.91219C577.509 6.38914 579.911 -3.06185 580.336 -3.37749C582.042 -4.62199 605.351 -1.34841 609.143 -0.455612C613.37 0.545399 619.384 2.0875 622.346 5.30697C627.223 10.6096 627.81 16.4083 620.45 19.5376C608.927 24.4344 588.761 11.0425 577.816 6.91219Z" fill="#336DFD"/>
<path d="M542.227 18.0034C543.202 19.6808 534.623 33.6859 532.998 36.0126C530.596 39.4395 524.68 46.4556 521.61 48.9897C507.64 60.5329 499.9 46.672 510.773 32.7571C513.293 29.5376 531.986 12.827 534.84 12.5745C535.301 12.5294 542.001 17.6066 542.236 18.0034H542.227Z" fill="#336DFD"/>
<path d="M599.979 51.6139C589.467 60.0638 574.449 34.741 570.999 27.4273C570.214 25.7589 567.08 19.0224 566.972 17.9041C566.809 16.1727 573.185 11.1405 574.901 11.7177C576.039 12.0965 582.523 17.6606 583.995 18.9593C590.406 24.6226 601.758 35.3271 602.101 44.21C602.191 46.5547 601.92 50.0628 599.979 51.6229V51.6139Z" fill="#336DFD"/>
<path d="M530.065 -2.74879C528.711 -0.62051 532.197 7.62204 531.871 8.06393C531.257 8.8936 514.885 14.557 512.465 15.3055C505.096 17.569 482.988 24.1072 484.036 10.4357C484.74 1.2282 497.808 -0.449167 504.256 -1.91912C512.744 -3.00129 521.522 -2.67665 530.056 -2.75781L530.065 -2.74879Z" fill="#336DFD"/>
<circle cx="554.791" cy="-4.10748" r="26.6035" fill="#222222"/>
<path d="M333.963 227.936C333.035 228.158 324.755 229.271 324.291 229.128C323.127 228.776 321.03 222.627 321.475 221.874C321.921 221.12 334.693 214.304 336.444 213.63C340.813 211.955 350.727 208.859 353.493 214.131C356.859 220.539 344.736 225.371 339.99 226.434C338.183 226.842 335.326 227.674 333.963 227.936Z" fill="#336DFD"/>
<path d="M330.11 192.087C335.141 187.786 340.84 191.247 339.652 197.593C338.309 204.774 327.04 215.539 321.545 220.291C320.747 218.524 316.557 216.966 315.939 215.971C315.122 214.655 322.411 201.11 323.829 199.101C325.147 197.241 328.445 193.509 330.11 192.087Z" fill="#336DFD"/>
<path d="M290.417 222.314C292.36 224.1 291.197 229.525 289.6 230.069C286.333 231.188 273.362 226.942 269.773 225.317C265.299 223.29 259.086 220.435 260.423 214.527C262.174 206.772 277.31 214.676 281.345 216.851C283.27 217.889 289.117 221.109 290.417 222.314Z" fill="#336DFD"/>
<path d="M310.298 215.581C309.389 216.162 303.968 215.377 302.371 215.637C301.158 208.598 298.188 190.925 303.299 185.419C305.583 182.965 309.611 183.898 311.282 186.654C311.802 187.507 313.306 192.704 313.442 193.767C313.813 196.628 312.019 214.481 310.292 215.581H310.298Z" fill="#336DFD"/>
<path d="M292.686 222.017C291.405 218.804 287.797 216.66 285.551 213.996C281.968 209.745 274.004 199.233 276.937 193.653C278.094 191.453 281.349 191.966 283.57 192.491C289.567 193.919 297.011 211.673 298.843 217.426C298.793 219.008 294.462 220.151 293.583 222.011H292.679L292.686 222.017Z" fill="#336DFD"/>
<circle cx="307.507" cy="231.89" r="18.2297" fill="#222222"/>
<path d="M961.478 229.997C960.472 230.239 951.499 231.444 950.996 231.29C949.736 230.908 947.462 224.245 947.945 223.428C948.428 222.611 962.269 215.224 964.167 214.494C968.902 212.679 979.645 209.324 982.643 215.037C986.291 221.981 973.154 227.218 968.01 228.37C966.052 228.812 962.956 229.714 961.478 229.997Z" fill="#E1D2F3"/>
<path d="M957.301 191.146C962.753 186.485 968.93 190.235 967.642 197.112C966.187 204.894 953.975 216.56 948.02 221.71C947.155 219.795 942.615 218.107 941.944 217.029C941.059 215.602 948.959 200.923 950.494 198.746C951.923 196.731 955.497 192.686 957.301 191.146Z" fill="#E1D2F3"/>
<path d="M914.287 223.905C916.392 225.84 915.132 231.72 913.401 232.309C909.861 233.521 895.805 228.921 891.915 227.159C887.066 224.963 880.333 221.869 881.782 215.467C883.68 207.062 900.083 215.628 904.455 217.985C906.541 219.11 912.878 222.599 914.287 223.905Z" fill="#E1D2F3"/>
<path d="M935.829 216.611C934.844 217.241 928.969 216.39 927.239 216.672C925.924 209.044 922.705 189.891 928.245 183.924C930.719 181.265 935.085 182.277 936.896 185.263C937.459 186.188 939.089 191.82 939.236 192.971C939.638 196.072 937.694 215.419 935.823 216.611H935.829Z" fill="#E1D2F3"/>
<path d="M916.748 223.582C915.36 220.099 911.451 217.776 909.016 214.889C905.133 210.282 896.503 198.89 899.681 192.843C900.935 190.459 904.463 191.015 906.87 191.584C913.369 193.131 921.436 212.371 923.421 218.606C923.367 220.32 918.673 221.559 917.721 223.575H916.742L916.748 223.582Z" fill="#E1D2F3"/>
<circle cx="932.81" cy="234.287" r="19.7557" fill="#222222"/>
<path d="M932.181 13.3029C932.33 13.3807 932.07 14.3135 933.264 14.456C939.686 15.2139 941.853 9.79196 942.702 19.9167C943.169 25.4876 943.293 42.5177 937.766 45.4068C931.59 48.6327 928.464 40.2311 927.867 35.3792C927.471 32.1403 928.042 14.2616 930.728 13.1151C931.273 13.0503 931.662 13.0309 932.181 13.3029Z" fill="#336DFD"/>
<path d="M952.391 5.11873C952.17 4.74302 953.895 -2.0457 954.2 -2.27242C955.426 -3.16635 972.169 -0.814915 974.893 -0.173614C977.929 0.54542 982.249 1.65312 984.377 3.96569C987.88 7.77462 988.301 11.9398 983.015 14.1876C974.737 17.7051 960.252 8.08556 952.391 5.11873Z" fill="#336DFD"/>
<path d="M926.824 13.0873C927.525 14.2922 921.362 24.3522 920.195 26.0235C918.469 28.485 914.221 33.5247 912.015 35.345C901.98 43.6366 896.421 33.6802 904.231 23.685C906.041 21.3724 919.468 9.36909 921.518 9.18771C921.849 9.15533 926.662 12.8023 926.831 13.0873H926.824Z" fill="#336DFD"/>
<path d="M968.305 37.2297C960.755 43.2994 949.967 25.1098 947.489 19.8563C946.925 18.6579 944.674 13.819 944.596 13.0157C944.479 11.772 949.059 8.15741 950.291 8.57199C951.109 8.84405 955.766 12.8408 956.824 13.7736C961.429 17.8417 969.583 25.5308 969.83 31.9114C969.894 33.5957 969.7 36.1155 968.305 37.2362V37.2297Z" fill="#336DFD"/>
<path d="M918.089 -1.81773C917.116 -0.288978 919.62 5.63171 919.386 5.94912C918.945 6.54508 907.185 10.6131 905.446 11.1508C900.153 12.7767 884.273 17.4731 885.026 7.65278C885.532 1.03896 894.918 -0.165901 899.55 -1.22178C905.647 -1.99911 911.953 -1.76592 918.083 -1.82422L918.089 -1.81773Z" fill="#336DFD"/>
<circle cx="935.852" cy="-2.79679" r="19.1095" fill="#222222"/>
<path d="M648.121 19.0514C648.292 19.1406 647.994 20.2105 649.363 20.374C656.73 21.2434 659.215 15.0241 660.19 26.6379C660.725 33.028 660.867 52.5626 654.527 55.8766C647.444 59.5769 643.857 49.9397 643.173 44.3743C642.719 40.6591 643.374 20.1511 646.454 18.8359C647.079 18.7616 647.526 18.7393 648.121 19.0514Z" fill="#E1D2F3"/>
<path d="M671.3 9.66483C671.047 9.23387 673.026 1.44678 673.376 1.18672C674.782 0.161318 693.986 2.85857 697.112 3.59418C700.594 4.41895 705.549 5.68956 707.99 8.34222C712.008 12.7113 712.492 17.4891 706.427 20.0674C696.933 24.1021 680.318 13.068 671.3 9.66483Z" fill="#E1D2F3"/>
<path d="M641.974 18.8054C642.778 20.1875 635.709 31.7269 634.37 33.644C632.39 36.4675 627.517 42.2484 624.987 44.3363C613.476 53.8473 607.099 42.4267 616.058 30.9616C618.134 28.3089 633.536 14.5403 635.887 14.3323C636.267 14.2951 641.788 18.4785 641.981 18.8054H641.974Z" fill="#E1D2F3"/>
<path d="M689.558 46.4998C680.897 53.4621 668.523 32.5975 665.68 26.5714C665.033 25.1968 662.451 19.6463 662.362 18.7249C662.228 17.2982 667.481 13.1521 668.895 13.6276C669.832 13.9397 675.175 18.5243 676.388 19.5942C681.671 24.2605 691.024 33.0805 691.306 40.3994C691.381 42.3313 691.158 45.2218 689.558 46.5072V46.4998Z" fill="#E1D2F3"/>
<path d="M631.955 1.70666C630.839 3.46024 633.711 10.2516 633.443 10.6157C632.937 11.2993 619.447 15.9656 617.453 16.5824C611.382 18.4474 593.167 23.8345 594.03 12.5699C594.61 4.98347 605.377 3.60141 610.69 2.39025C617.684 1.4986 624.916 1.76609 631.948 1.69922L631.955 1.70666Z" fill="#E1D2F3"/>
<circle cx="652.33" cy="0.587719" r="21.9198" fill="#222222"/>
<path d="M1434.68 92.3028C1434.89 92.411 1434.53 93.7096 1436.19 93.908C1445.13 94.9631 1448.15 87.4149 1449.33 101.51C1449.98 109.266 1450.15 132.974 1442.46 136.997C1433.86 141.488 1429.51 129.791 1428.68 123.037C1428.13 118.527 1428.92 93.6374 1432.66 92.0412C1433.42 91.9511 1433.96 91.924 1434.68 92.3028Z" fill="#336DFD"/>
<path d="M1414.85 55.9109C1417.68 58.5171 1415.98 66.435 1413.65 67.2286C1408.89 68.8609 1389.96 62.6655 1384.72 60.2937C1378.19 57.3358 1369.12 53.1694 1371.07 44.5481C1373.63 33.2303 1395.72 44.7645 1401.61 47.9389C1404.42 49.4539 1412.95 54.1524 1414.85 55.9109Z" fill="#336DFD"/>
<path d="M1427.23 92.0034C1428.2 93.6808 1419.62 107.686 1418 110.013C1415.6 113.439 1409.68 120.456 1406.61 122.99C1392.64 134.533 1384.9 120.672 1395.77 106.757C1398.29 103.538 1416.99 86.827 1419.84 86.5745C1420.3 86.5294 1427 91.6066 1427.24 92.0034H1427.23Z" fill="#336DFD"/>
<path d="M1415.07 71.2512C1413.71 73.3795 1417.2 81.622 1416.87 82.0639C1416.26 82.8936 1399.88 88.557 1397.46 89.3055C1390.1 91.569 1367.99 98.1072 1369.04 84.4357C1369.74 75.2282 1382.81 73.5508 1389.26 72.0809C1397.74 70.9987 1406.52 71.3234 1415.06 71.2422L1415.07 71.2512Z" fill="#336DFD"/>
<path d="M1443.86 46.0876C1442.53 46.9353 1434.62 45.79 1432.29 46.1687C1430.52 35.8971 1426.18 10.1053 1433.64 2.07014C1436.98 -1.51005 1442.86 -0.148317 1445.29 3.87376C1446.05 5.11826 1448.25 12.7025 1448.45 14.2536C1448.99 18.429 1446.37 44.4824 1443.85 46.0876H1443.86Z" fill="#336DFD"/>
<path d="M1418.16 55.477C1416.29 50.7875 1411.03 47.6582 1407.75 43.7714C1402.52 37.567 1390.9 22.2271 1395.18 14.0838C1396.87 10.8733 1401.62 11.6218 1404.86 12.3884C1413.61 14.4716 1424.47 40.3806 1427.15 48.7765C1427.07 51.0851 1420.75 52.7535 1419.47 55.4679H1418.15L1418.16 55.477Z" fill="#336DFD"/>
<circle cx="1439.79" cy="69.8925" r="26.6035" fill="#222222"/>
<path d="M6.84847 104.02C6.84227 103.567 11.8828 98.3276 12.2743 98.2795C13.8392 98.1021 27.7388 108.815 29.8679 110.792C32.2381 112.999 35.5677 116.215 36.3007 119.393C37.5067 124.628 35.7497 128.602 29.8261 127.917C20.5528 126.844 12.4197 110.731 6.84847 104.02Z" fill="#E1D2F3"/>
<path d="M23.1352 98.8765C22.1376 98.5876 13.7081 95.1857 13.3456 94.8016C12.4347 93.8427 13.7581 86.8987 14.585 86.4253C15.412 85.9519 31.1589 86.3757 33.1776 86.6807C38.2105 87.4469 49.2522 89.8514 49.033 96.3249C48.7698 104.197 34.7045 102.246 29.6436 100.698C27.7152 100.112 24.5653 99.3623 23.1352 98.8765Z" fill="#E1D2F3"/>
<path d="M38.773 62.899C45.845 61.5373 49.374 67.8762 44.8363 73.2396C39.7036 79.3089 23.2549 83.4287 15.5012 84.9674C15.6969 82.8664 12.5722 79.1399 12.5221 77.8661C12.4576 76.1817 26.6388 67.2913 29.0594 66.1541C31.3067 65.1038 36.434 63.3478 38.773 62.899Z" fill="#E1D2F3"/>
<path d="M4.72992 141.16C-5.19755 142.762 -5.59669 120.814 -5.1366 114.802C-5.03084 113.432 -4.57864 107.91 -4.23669 107.146C-3.7038 105.964 2.2832 105.052 3.1825 106.059C3.78035 106.724 5.93172 112.72 6.40707 114.104C8.47505 120.138 11.8863 131.26 8.83447 137.144C8.02872 138.697 6.56004 140.87 4.7266 141.166L4.72992 141.16Z" fill="#E1D2F3"/>
<path d="M7.39513 74.4606C6.22229 74.5206 1.51733 70.8624 -0.132323 70.249C2.50671 62.9394 9.20438 44.6256 17.0007 42.1675C20.4801 41.0755 23.7884 44.1251 23.8861 47.6306C23.919 48.7168 22.5456 54.4411 22.1026 55.5196C20.9147 58.4255 9.61394 74.3456 7.38929 74.4572L7.39513 74.4606Z" fill="#E1D2F3"/>
<path d="M-12.7209 71.0738C-12.2039 67.3455 -14.4627 63.3767 -15.1546 59.6493C-16.2564 53.7007 -18.1347 39.4747 -12.3587 35.7747C-10.0808 34.3164 -7.27811 36.5525 -5.45948 38.2443C-0.555918 42.82 -3.06517 63.6165 -4.4275 70.0433C-5.3253 71.5129 -10.0373 70.2641 -11.869 71.5506L-12.7235 71.0646L-12.7209 71.0738Z" fill="#E1D2F3"/>
<circle cx="-4.01344" cy="88.3881" r="19.8355" transform="rotate(29.6286 -4.01344 88.3881)" fill="#222222"/>
<defs>
<clipPath id="clip0_2340_54297">
<rect width="279" height="111" fill="white" transform="translate(1040 56)"/>
</clipPath>
</defs>
</svg>
