<svg width="1440" height="743" viewBox="0 0 1440 743" fill="none" xmlns="http://www.w3.org/2000/svg">
<path d="M1152.87 364.926C1155.02 368.546 1156.07 371.188 1155.32 375.532C1152.29 393.222 1113.01 391.637 1099.76 395.661C1062.48 425.308 1036.85 468.457 990.136 484.307C970.652 490.915 948.983 493.022 928.482 492.781L982.752 628.319L1123.52 647.36C1126.32 628.13 1126.65 607.505 1134.49 589.521C1137.13 583.468 1144.58 573.338 1146.05 568.465C1146.95 565.511 1146.56 558.844 1147.08 555.146C1149.24 539.928 1156.65 513.23 1173.22 508.227C1182.2 505.52 1187.88 508.448 1196.32 509.662C1200.28 510.229 1207.67 508.161 1207.73 514.613C1207.73 515.48 1207.08 519.987 1206.82 520.646C1206.67 521.025 1203.32 523.249 1203.13 523.842C1202.68 525.251 1207.99 531.579 1203.36 537.058C1202.65 537.899 1200.77 538.506 1200.57 539.491C1200.28 540.959 1202.63 542.309 1202.96 543.457C1203.31 544.677 1203.32 548.486 1202.96 549.706C1202.09 552.68 1196.92 552.217 1199.27 556.274C1200.99 559.268 1202.79 559.105 1201.77 564.18C1201.28 566.652 1198.19 566.437 1197.84 568.792C1197.48 571.322 1199.46 571.551 1199.81 573.332C1200.04 574.46 1200.02 578.002 1199.7 579.065C1199.06 581.185 1195.31 580.905 1195.38 583.214C1195.43 585.053 1198.32 584.877 1197.79 590.213C1197.37 594.374 1196.12 592.698 1194.59 594.166C1192.21 596.436 1195.56 598.392 1195.9 600.075C1197.13 606.226 1192.16 606.279 1191.96 608.575C1191.77 610.701 1195.72 611.79 1194.59 617.661C1194.11 620.127 1191.11 620.492 1190.75 621.692C1190.28 623.238 1192.32 624.641 1192.62 626.186C1193.59 631.222 1191.47 632.442 1188.1 635.292C1190.93 637.132 1191.31 640.595 1190.68 643.759C1190.19 646.277 1186.17 646.433 1186.85 648.86C1187.36 650.66 1189.43 650.36 1188.7 654.815C1188.23 657.692 1184.83 658.807 1184.84 659.42C1184.84 659.714 1187.53 661.006 1186.79 664.639C1186.43 666.465 1184.35 666.504 1184.18 667.287C1184.13 667.509 1185.62 671.488 1185.84 671.527C1187.25 671.794 1193.55 670.972 1195.5 670.751C1198.65 670.398 1217.25 667.418 1218 665.2C1218.7 663.112 1217.92 656.381 1218.06 653.517C1219.17 631.62 1220.25 615.085 1215.81 593.2C1214.95 589.006 1210.83 576.449 1211.7 573.449C1211.91 572.718 1212.59 572.138 1213.15 571.649L1257.91 568.139C1259.2 567.311 1261.13 542.472 1263.05 538.017C1263.2 537.645 1265.33 535.218 1265.51 535.179C1267.13 534.853 1273.29 534.951 1274.86 535.447C1278.57 536.614 1279.64 543.998 1282.97 546.255C1285.86 548.212 1292.75 547.755 1293.61 550.612C1294.98 555.159 1292.59 566.652 1292.41 571.981C1291.91 586.736 1296.22 599.691 1305.14 611.386C1306.51 611.503 1314.47 604.759 1315.95 603.35C1323.99 595.718 1330.3 584.975 1334.02 574.453C1338.98 560.377 1338.8 539.223 1356.47 534.292C1374.22 529.348 1383.18 541.833 1383.16 558.309C1383.13 584.362 1365.74 615.28 1345.95 632.051C1344.45 633.329 1341.37 633.623 1341.36 636.258C1367.47 636.558 1401.02 638.717 1410.53 667.868C1414.18 679.054 1412.81 687.286 1412.43 698.525C1412.34 701.428 1413.01 713.789 1412.15 715.198C1411.71 715.909 1406.71 718.361 1405.61 718.361C1401.78 718.361 1399.39 714.115 1398.34 713.932C1396.84 713.671 1395.11 718.948 1389.44 717.663C1387.07 717.128 1385.12 713.567 1384.09 713.417C1382.81 713.228 1380.17 719.02 1374.82 717.298C1373.39 716.835 1369.51 713.776 1369.1 713.88C1368.68 713.984 1367.88 715.765 1367.03 716.398C1361.24 720.775 1358.88 713.88 1356.02 713.874C1354.63 713.874 1352.16 717.97 1348.91 717.787C1345.97 717.624 1342.74 713.241 1342.34 713.241C1341.91 713.241 1338.33 717.826 1335.16 717.833C1331.8 717.839 1330.36 713.867 1328.65 713.874C1326.93 713.88 1324.39 717.859 1320.79 717.82C1317.64 717.781 1314.68 713.991 1314.29 713.991C1314.06 713.991 1311.41 716.17 1310.49 716.607C1304.32 719.535 1302.52 713.821 1300.7 713.978C1298.43 714.174 1297.42 718.276 1292.76 717.852C1289.99 717.598 1287.58 714.095 1286.9 714.043C1285.15 713.9 1282.79 719.333 1278.75 717.474C1277.61 716.946 1276.67 714.519 1275.15 714.519C1273.84 714.519 1272.75 716.717 1271.4 717.311C1266.15 719.588 1264.66 714.519 1262.75 714.519C1260.71 714.519 1259.96 719.294 1253.75 717.018C1252.55 716.581 1251.32 715.263 1250.31 715.172C1248.55 715.015 1246.38 717.826 1243.35 717.657C1241 717.52 1236.6 714.571 1236.13 714.65C1233.56 715.048 1233 718.309 1227.15 716.881C1216.72 714.337 1204.65 716.411 1193.64 716.535C1093.78 717.663 994.18 720.599 894.185 721.049C869.894 721.16 827.971 725.51 807.307 711.44C790.745 700.162 787.829 683.483 784.503 665.102C774.549 610.114 766.676 551.565 769.917 495.683C770.974 477.478 774.001 459.436 775.742 441.309C757.883 437.16 742.41 426.958 730.187 413.554C728.895 413.071 710.096 416.919 706.339 417.096C700.025 417.389 696.3 415.171 700.181 408.981L723.631 405.361C724.44 404.461 720.194 400.364 719.776 399.627C718.902 398.081 714.949 388.206 714.401 387.86C704.728 387.808 694.996 389.406 685.459 391.03C680.417 390.939 679.197 384.083 683.972 382.329C691.408 379.596 702.693 380.241 710.598 378.617L705.347 358.435L683.594 360.347C680.339 360.014 678.845 356.107 680.554 353.465C682.785 350.014 699.027 350.947 703.423 349.916C701.46 338.599 699.973 327.112 698.864 315.671C697.011 296.585 696.228 277.395 695.628 258.244C695.283 247.227 693.939 235.394 694.924 224.325C695.348 219.537 697.84 215.376 703.104 215.493C713.749 215.741 727.558 235.179 736.468 240.56L768.326 273.005L769.35 273.318L800.027 264.193L821.363 197.47C825.858 190.419 834.044 192.063 838.473 198.24C846.522 209.472 854.336 224.468 861.401 236.627C874.094 258.479 886.788 280.559 897.172 303.598C898.712 304.752 916.93 285.125 919.748 283.461C924.118 280.865 928.352 285.379 925.892 289.606L902.025 312.097C901.047 314.275 904.778 319.879 905.013 322.494C905.822 323.081 909.044 321.144 909.99 320.668C919.774 315.737 936.296 303.656 945.611 300.845C949.479 299.677 952.643 300.473 952.414 305.124C952.219 309.155 945.468 310.805 942.382 312.619C935.266 316.793 928.267 321.17 921.079 325.234C919.324 326.225 908.705 331.118 908.32 331.724C907.635 332.807 909.924 338.358 909.553 340.126C917.334 338.808 925.031 336.871 932.657 334.855C936.368 333.87 949.44 328.88 951.932 330.015C952.343 330.204 954.045 331.907 954.215 332.311C956.563 337.83 949.629 339.036 945.924 340.302C934.757 344.118 923.048 346.642 911.568 349.323C913.44 377.156 904.445 404.996 884.107 424.264C913.127 425.132 941.965 417.22 964.345 398.512C982.824 383.072 994.774 357.594 1021.73 355.754L1014.05 253.182C1015.01 251.108 1017.32 250.286 1019.46 250.11L1053.7 249.451C1047.83 244.976 1042.69 240.965 1042.57 232.831C1042.36 219.765 1053.85 216.674 1063.48 223.366C1062.98 213.595 1066.38 189.904 1080.63 192.859C1090.65 194.939 1093.53 214.215 1093.5 222.707C1096.27 221.716 1098.19 219.687 1101.29 219.094C1115.55 216.361 1123.12 231.8 1115.3 242.889C1113.79 245.042 1111.16 246.483 1109.8 248.792C1136.41 247.781 1163.38 247.931 1190.02 248.486C1193.23 250.717 1192.74 254.102 1192.63 257.605C1188.29 290.93 1188.66 326.238 1184.16 359.368C1183.98 360.712 1182.63 364.913 1181.22 364.913H1152.85L1152.87 364.926ZM890.558 311.334C891.073 310.453 885.542 299.54 884.596 297.596C868.661 265.028 848.642 233.764 830.306 202.506L828.636 204.091L806.348 272.138L768.274 283.357L765.051 282.77C745.698 263.86 726.906 244.311 706.411 226.615C706 226.054 704.421 225.727 704.108 225.988C702.471 227.371 704.082 237.625 704.128 239.986C704.623 265.08 704.956 290.036 707.363 315.026C708.446 326.258 710.292 337.458 711.557 348.664C712.731 350.393 722.209 348.651 724.616 348.592C741.425 348.175 760.133 348.018 776.825 349.284C781.783 349.662 797.307 350.914 800.875 353.282C804.202 355.487 802.904 360.757 799.016 361.077C771.092 355.748 742.156 357.718 713.873 358.742C715.38 365.278 717.076 371.768 719.496 378.017C740.362 377.039 761.399 375.427 781.724 370.483C786.068 369.426 794.952 365.787 798.351 365.539C802.18 365.258 804.241 367.965 803.112 371.651C802.499 373.653 793.374 376.399 790.98 377.13C773.538 382.453 752.006 384.931 733.761 386.445C730.434 386.719 726.566 385.636 723.638 387.449C723.657 388.46 731.413 401.832 732.476 402.758C732.861 403.091 733.115 403.476 733.709 403.384C751.105 399.432 768.45 394.487 784.757 387.214C788.338 385.616 797.092 380.033 799.779 379.406C803.588 378.526 806.152 380.091 805.806 384.109C805.598 386.569 800.679 389.217 798.448 390.469C781.078 400.254 759.859 406.339 740.61 411.238C748.079 419.32 758.013 425.66 768.319 429.509C771.659 430.755 782.187 432.907 783.87 434.009C784.6 434.486 784.855 435.81 785.246 436.586C778.749 479.18 776.016 521.122 779.089 564.2C780.811 588.373 784.522 612.541 788.318 636.506C793.615 669.961 792.532 705.648 833.646 711.199C869.183 716 915.736 712.301 952.251 711.904C1019.77 711.166 1087.06 709.386 1154.46 707.99C1172.55 707.618 1192.05 708.505 1209.96 707.39C1211.98 707.266 1213.96 706.542 1216.03 706.62L1218.08 675.402C1206.27 677.913 1194.63 679.817 1182.53 680.613C1139.87 683.431 1096.65 680.111 1054.06 678.637C1029.93 677.802 1005.71 678.004 981.604 676.732C979.83 676.641 973.777 676.256 972.635 675.917C968.546 674.717 968.565 668.696 973.125 667.868C1011.6 668.416 1050.19 671.279 1088.59 672.166C1099.22 672.414 1109.89 671.899 1120.52 672.179C1121.47 672.016 1122.59 657.627 1122.2 655.833C1079.18 650.843 1036.19 644.542 993.293 638.306C989.882 637.81 979.778 637.647 977.41 635.925C976.366 635.168 975.825 633.936 975.323 632.794C955.461 585.092 936.499 537.045 917.497 489.004C917.041 486.31 919.128 484.066 921.659 483.668C930.158 482.337 942.806 483.812 952.271 482.97C1014.28 477.458 1033.97 444.576 1074.89 405.987C1078.78 402.321 1094.19 387.69 1097.91 386.608C1110.61 382.916 1126.73 383.49 1139.5 379.276C1150.38 375.682 1149.26 369.192 1138.96 366.093C1122.41 361.116 1090.23 366.915 1077.52 379.269C1072.34 384.292 1069.65 391.461 1065.14 396.248C1057.47 404.382 1044.67 414.362 1035.75 421.649C1008.27 444.113 980.946 464.673 943.824 466.702C932.5 467.322 912.318 464.856 901.921 460.284C897.883 458.509 890.343 449.58 895.215 446.142C898.966 443.5 899.886 446.351 902.214 446.964C906.082 447.981 929.213 441.348 934.313 439.573C964.749 428.993 987.99 406.966 1007.88 382.511C1016.83 378.611 1045.67 379.589 1050.36 370.379C1051.29 368.546 1051.18 366.928 1051.1 364.913C1033.74 363.81 1014.36 362.558 1000.21 374.364C988.016 384.533 978.454 398.838 964.925 409.529C943.622 426.365 904.191 437.617 877.31 433.351C873.677 432.777 868.263 430.226 869.58 425.784C870.461 422.803 880.878 414.617 883.787 411.238C893.904 399.497 900.336 383.803 902.273 368.409C902.632 365.591 903.832 353.471 902.73 351.834C901.314 349.734 893.337 354.854 890.584 350.282C885.79 342.311 899.86 343.407 901.047 342.063C901.301 341.776 900.995 335.233 898.438 335.847C894.68 336.753 890.193 341.58 886.677 337.875C880.735 331.607 893.245 329.043 897.107 327.028L895.189 319.898C894.022 318.907 885.601 326.995 882.985 327.595C878.282 328.671 874.877 323.734 878.458 320.12L890.538 311.314L890.558 311.334ZM1080.46 244.905C1080.85 244.52 1083.94 235.805 1084.2 234.618C1085.95 226.856 1084.77 216.015 1081.95 208.533C1080.48 204.619 1079 200.51 1075.77 205.963C1069.39 216.739 1073.78 233.516 1079.11 243.985C1079.36 244.487 1079.33 246.033 1080.47 244.911L1080.46 244.905ZM1069.37 244.905C1067.91 240.176 1063.32 234.54 1059.16 231.963C1050.55 226.634 1049.32 233.724 1056.02 239.015C1059.92 242.093 1064.86 243.078 1069.38 244.898L1069.37 244.905ZM1107.77 229.993C1107.01 229.524 1103.13 229.909 1101.97 230.209C1096.47 231.644 1090.79 240.874 1089.6 246.203C1095.32 245.687 1107.2 240.9 1108.38 234.631C1108.58 233.594 1108.51 230.45 1107.77 229.993ZM1082.42 364.273H1059.59C1061.34 387.984 1029.53 386.503 1013.44 390.195C990.815 417.493 964.397 440.337 929.78 450.695C926.297 451.739 918.619 452.704 916.076 453.95C915.789 454.087 915.26 454.759 915.436 454.928C943.185 461.79 971.65 454.72 995.609 440.206C1013.66 429.274 1041.1 407.39 1056.34 392.654C1061.43 387.723 1064.2 380.763 1069.04 375.349C1072.97 370.959 1077.73 367.757 1082.42 364.267L1082.42 364.273ZM1188.09 582.137L1194.62 519.179L1194.33 518.174C1193.63 517.176 1181.89 515.487 1179.97 515.591C1166.32 516.315 1159.4 536.262 1156.98 547.442C1155.99 552.06 1154.02 562.504 1154.84 566.789C1155.48 570.161 1167.24 577.689 1170.69 578.987C1176.27 581.087 1182.24 581.4 1188.09 582.137ZM1361.42 541.852C1348.5 544.057 1347.82 557.611 1345.1 567.272C1339.36 587.695 1329.58 607.237 1310.73 618.333C1314.31 622.025 1327.66 632.761 1332.4 631.574C1335.57 630.779 1347.2 619.383 1349.83 616.356C1362.49 601.85 1373.84 579.078 1374.63 559.62C1374.99 550.834 1372.64 539.928 1361.42 541.846V541.852ZM1285.29 556.046C1277.92 556.62 1274.04 550.136 1270.29 544.957L1267.02 567.787C1272.9 567.891 1278.83 567.376 1284.63 568.439L1285.29 556.039V556.046ZM1129.39 671.501H1176.35L1186.79 590.617C1173.01 590.676 1161.07 585.197 1150.92 576.267C1146.1 586.221 1139.95 595.275 1137.51 606.246C1132.86 627.263 1132.56 650.256 1129.38 671.494L1129.39 671.501ZM1287.23 596.488C1284.57 591.393 1286.01 583.683 1282.05 579.835C1276.8 574.74 1268.63 577.389 1262.16 577.604C1253.91 577.878 1245.6 577.852 1237.35 578.237C1232.1 578.485 1226.72 579.385 1221.37 578.883C1224.59 592.75 1227.07 606.696 1227.88 620.962L1227.24 685.205L1348.57 683.249C1348.56 676.674 1349.25 670.092 1350.52 663.68C1338.82 664.919 1329.87 666.263 1332.41 651.11C1332.93 647.999 1335.1 646.16 1336.17 643.466L1330.3 641.509C1334.45 652.8 1319.7 664.528 1310.06 656.198C1302.41 649.59 1306.07 634.183 1317.25 634.979C1317.6 633.427 1316.98 633.923 1316.4 633.525C1315.24 632.742 1310.66 629.637 1309.88 629.833C1307.75 630.368 1305.41 638.123 1303.45 640.426C1296.46 648.632 1283.65 645.853 1281.67 635.012C1280.2 626.969 1287.63 616.52 1296.41 618.307C1298.45 618.724 1299.75 620.538 1301.59 620.309C1299.22 618.522 1296.46 612.084 1293.44 612.084C1291.36 612.084 1290.25 614.928 1288.56 616.402C1276.38 627.008 1262.75 613.389 1270.03 599.175C1273.57 592.267 1281.64 591.387 1287.24 596.501L1287.23 596.488ZM1278.57 600.539C1272.52 602.345 1274.02 616.33 1282.27 612.051C1288.89 608.62 1285.46 598.477 1278.57 600.539ZM1292.26 625.978C1287.21 627.484 1286.72 638.306 1294.02 637.575C1302.19 636.76 1301.43 623.245 1292.26 625.978ZM1317.07 640.974C1311.14 642.265 1311.2 653.022 1319.39 651.143C1325.95 649.636 1324.82 639.284 1317.07 640.974ZM1357.04 645.416H1352.48C1352.29 646.655 1353.36 647.36 1353.64 648.482C1353.96 649.754 1353.53 654.176 1355.14 651.006C1355.55 650.197 1357.47 645.827 1357.04 645.416ZM1357.04 683.242L1404.48 681.637C1402.34 662.688 1389.19 649.643 1370.23 647.542C1364.48 646.903 1365.08 648.253 1362.79 653.446C1358.59 662.949 1356.67 672.792 1357.04 683.242ZM1342.45 648.182C1337.94 648.658 1336.91 658.325 1342.33 658.494C1350.36 658.736 1348.41 647.549 1342.45 648.182ZM1404.65 691.07L1224.62 693.679V707.377C1224.62 707.683 1229.71 710.058 1230.13 710.018C1231.85 709.862 1232.58 707.605 1233.77 707.057C1237.75 705.211 1240.83 710.716 1243.11 710.508C1245.38 710.299 1247.16 706.229 1249.11 706.04C1251.38 705.818 1253.3 710.038 1256.26 710.051C1258.61 710.064 1260.72 705.974 1263.33 706.209C1265.26 706.385 1268.12 710.612 1268.64 710.612C1269.09 710.612 1273.2 706.163 1274.55 706.033C1276.65 705.831 1278.45 709.249 1280.38 709.308C1282.45 709.366 1284.83 705.583 1288.06 706.17C1290.01 706.529 1292.84 709.992 1294.07 709.992C1296.14 709.992 1298.98 705.348 1301.15 705.55C1303.33 705.752 1305.33 710.038 1307.79 709.973C1309.71 709.921 1311.63 705.57 1313.68 705.387C1316.23 705.159 1318.62 709.647 1321.45 709.353C1323.64 709.125 1325.51 704.252 1328.48 704.885C1330.53 705.315 1332.96 709.386 1335.18 709.327C1337.06 709.275 1338.96 704.813 1341.69 704.82C1343.93 704.82 1347.07 709.047 1348.31 709.268C1350.02 709.568 1353.1 704.487 1356 704.774C1358.37 705.009 1360.63 708.857 1362.05 709.249C1365.43 710.182 1366.98 705.629 1369.11 705.407C1371.97 705.113 1374.69 709.581 1376.88 709.379C1379.06 709.177 1380.63 704.559 1384.04 704.781C1386.51 704.944 1389.72 709.36 1391.26 709.366C1392.8 709.373 1395.66 704.5 1398.4 704.741C1400.32 704.911 1402.7 709.223 1404.63 709.992V691.076L1404.65 691.07Z" fill="#222222"/>
<path d="M488.839 703.463C488.832 703.457 479.381 704.553 478.37 699.256C478.37 699.256 477.538 537.821 478.37 537.13C479.201 536.439 507.103 537.13 507.103 537.13C501.643 533.144 498.101 527.548 498.343 520.497C498.636 511.775 506.072 508.344 512.967 513.648C512.165 505.664 508.381 490.459 518.485 486.871C525.693 484.314 530.213 489.311 533.116 495.142C533.631 496.179 533.971 499.545 535.19 497.608C535.64 496.89 535.634 495.475 536.436 494.379C537.767 492.559 544.088 487.908 546.358 487.347C560.975 483.721 561.504 504.47 557.988 513.641C571.81 508.11 573.506 525.884 566.474 534.201C565.333 535.551 563.271 536.311 563.852 536.791C564.433 537.27 581.47 536.471 581.47 536.471C582.096 530.092 581.803 523.628 582.129 517.235C582.625 507.496 582.886 497.653 583.434 487.882C583.557 485.697 583.818 480.642 584.216 478.881C585.306 474.054 590.504 476.428 593.505 476.487C624.189 477.067 654.807 478.163 685.477 479.096C691.074 479.265 702.933 478.059 707.512 479.892C710.754 481.196 713.317 488.789 715 491.946C731.601 522.988 747.999 555.257 765.422 586.325C767.02 589.176 773.491 600.5 773.843 602.717C774.534 607.055 772.597 611.086 771.286 615.085C764.326 636.349 755.083 657.568 747.425 678.631C745.742 686.236 750.667 699.85 739.663 700.874C713.624 703.287 683.853 699.041 657.416 700.815C642.133 700.861 623.575 703.039 608.488 701.539C607.281 701.422 604.287 700.469 604.287 699.217V604.309C602.148 604.629 598.254 603.161 597.764 605.94C597.419 623.552 597.562 641.196 597.138 658.801C597.138 658.801 597.171 699.837 595.005 702.002C594.535 702.472 591.829 702.759 590.941 702.831C567.622 704.735 538.289 703.235 514.278 703.457C514.278 703.457 488.839 703.463 488.832 703.457C488.839 703.463 487.73 703.47 488.832 703.457L488.839 703.463ZM632.994 485.599L591.894 484.288C591.365 501.704 589.637 519.048 589.937 536.478C592.585 536.615 599.239 535.519 600.25 538.885C601.261 542.25 599.004 558.499 599.76 559.275L632.994 561.265V485.599ZM653.215 561.917V552.459C653.215 549.719 656.346 542.14 658.166 539.798C663.978 532.31 670.664 536.373 670.181 544.957C684.982 534.866 686.188 554.174 679.307 563.215L697.564 564.526C700.447 538.93 700.793 513.191 702.137 487.556L640.822 485.599L641.448 560.834C641.872 562.641 651.363 561.689 653.215 561.923V561.917ZM524.532 496.225C520.592 492.996 519.398 498.221 519.477 501.548C519.692 510.556 524.056 523.321 529.274 530.607C528.146 524.319 528.987 499.878 524.532 496.225ZM550.095 496.088C548.125 495.729 546.86 497.106 545.575 498.299C537.089 506.153 537.108 521.201 537.121 531.905L541.302 525.982C543.559 521.932 546.286 518.142 548.053 513.817C550.167 508.645 552.913 501.215 550.102 496.088H550.095ZM748.443 653.883L765.918 606.051C746.473 571.766 728.268 536.771 710.747 501.45L709.325 499.943C709.084 506.988 709.071 514.13 708.692 521.168C708.236 529.616 707.923 538.187 707.388 546.608C706.964 553.222 704.289 563.756 705.548 569.914C706.625 575.171 713.963 583.951 715.28 589.854C716.578 590.989 741.659 588.661 746.205 589.274C748.456 589.574 749.271 590.741 749.741 592.927C748.906 612.437 747.079 632.057 747.81 651.606C747.843 652.396 747.321 654.033 748.456 653.876L748.443 653.883ZM522.105 534.514C522.712 534.045 514.513 525.813 513.632 525.056C512.915 524.443 506.888 519.714 506.451 520.177C508.401 527.202 514.663 533.666 522.105 534.514ZM561.888 522.127C559.318 519.538 547.838 532.74 546.905 535.506C553.05 534.364 561.967 529.061 561.888 522.127ZM659.092 561.917C660.39 561.689 660.136 560.508 660.41 559.653C661.467 556.379 663.763 550.104 664.18 547.077C664.598 544.051 662.85 543.196 661.362 546.255C659.314 550.469 659.086 557.273 659.092 561.917ZM676.691 549.523C672.797 548.206 668.27 562.634 668.87 563.215C670.781 565.048 676.352 554.84 676.652 553.065C676.848 551.911 676.652 550.684 676.691 549.523ZM604.626 572.36C602.898 572.875 603.302 577.043 605.918 576.261C607.646 575.745 607.242 571.577 604.626 572.36ZM624.508 573.658C623.641 573.762 622.466 573.241 621.853 574.049C619.74 576.835 625.447 580.161 624.508 573.658ZM681.701 574.408C678.648 575.23 680.598 578.87 682.875 578.224C684.486 577.767 684.408 573.684 681.701 574.408ZM642.837 575.674C641.481 576.646 642.694 580.174 645.042 579.522C647.573 578.818 645.316 573.899 642.837 575.674ZM660.814 594.303C662.908 592.418 664.898 587.676 665.439 584.903C665.935 582.36 666.796 577.291 664.611 575.615C661.91 574.989 661.78 585.236 661.01 587.65C660.404 589.548 657.605 594.844 655.211 593.181C654.546 592.724 655.759 583.384 652.537 587.656C648.936 592.431 654.735 599.763 660.814 594.303ZM696.664 578.283C694.133 579.066 696.345 582.966 698.901 581.179C700.604 579.985 699.091 577.539 696.664 578.283ZM634.645 586.71C633.034 587.167 633.112 591.25 635.819 590.526C638.871 589.704 636.921 586.065 634.645 586.71ZM676.626 587.428C676.554 587.31 674.526 586.482 674.069 586.991C670.964 593.161 678.589 590.585 676.626 587.428ZM611.149 588.667C609.838 589.032 609.838 591.55 611.149 591.916C614.15 592.757 614.15 587.826 611.149 588.667ZM741.281 597.134L717.505 597.825L704.466 598.399L670.827 599.743L670.788 692.087L738.671 691.722L741.281 597.134ZM612.121 602.359V693.027L661.702 692.381L662.38 684.906L662.341 599.75L612.121 602.359Z" fill="#222222"/>
<path d="M890.554 311.332L878.473 320.137C874.886 323.751 878.297 328.682 883 327.613C885.616 327.013 894.037 318.924 895.205 319.916L897.122 327.045C893.261 329.061 880.75 331.624 886.692 337.893C890.208 341.598 894.689 336.771 898.453 335.864C901.01 335.251 901.316 341.793 901.062 342.08C899.881 343.424 885.812 342.328 890.599 350.299C893.352 354.872 901.33 349.751 902.745 351.852C903.847 353.489 902.647 365.608 902.288 368.426C900.351 383.814 893.913 399.514 883.803 411.256C880.893 414.634 870.476 422.821 869.596 425.802C868.278 430.25 873.692 432.794 877.325 433.368C904.2 437.634 943.63 426.376 964.941 409.547C978.469 398.856 988.032 384.551 1000.22 374.382C1014.38 362.575 1033.76 363.828 1051.11 364.93C1051.19 366.939 1051.31 368.557 1050.38 370.396C1045.68 379.607 1016.84 378.628 1007.89 382.529C988.006 406.983 964.764 429.011 934.329 439.591C929.228 441.365 906.104 447.999 902.23 446.981C899.901 446.368 898.988 443.518 895.231 446.159C890.352 449.59 897.898 458.527 901.936 460.301C912.34 464.874 932.515 467.339 943.839 466.72C980.961 464.691 1008.29 444.131 1035.77 421.666C1044.68 414.38 1057.48 404.4 1065.16 396.266C1069.67 391.485 1072.37 384.316 1077.53 379.287C1090.25 366.939 1122.42 361.14 1138.97 366.111C1149.27 369.209 1150.39 375.706 1139.51 379.293C1126.74 383.507 1110.64 382.94 1097.92 386.625C1094.2 387.701 1078.79 402.339 1074.9 406.005C1033.99 444.594 1014.3 477.476 952.286 482.988C942.822 483.829 930.174 482.355 921.674 483.686C919.137 484.083 917.05 486.327 917.513 489.021C936.514 537.069 955.476 585.116 975.338 632.812C975.847 633.953 976.382 635.186 977.425 635.943C979.793 637.658 989.897 637.828 993.309 638.323C1036.21 644.559 1079.2 650.86 1122.22 655.85C1122.61 657.644 1121.48 672.034 1120.54 672.197C1109.91 671.916 1099.23 672.432 1088.6 672.184C1050.2 671.297 1011.62 668.433 973.14 667.885C968.58 668.714 968.567 674.734 972.651 675.934C973.792 676.267 979.845 676.652 981.62 676.75C1005.73 678.022 1029.94 677.813 1054.08 678.654C1096.67 680.128 1139.88 683.449 1182.54 680.631C1194.64 679.828 1206.29 677.93 1218.1 675.419L1216.05 706.637C1213.98 706.559 1211.99 707.283 1209.97 707.407C1192.06 708.523 1172.57 707.629 1154.48 708.007C1087.07 709.403 1019.78 711.184 952.267 711.921C915.752 712.319 869.198 716.017 833.661 711.217C792.548 705.666 793.63 669.979 788.334 636.523C784.537 612.558 780.826 588.384 779.104 564.217C776.032 521.146 778.765 479.204 785.261 436.603C784.87 435.821 784.616 434.503 783.885 434.027C782.202 432.925 771.674 430.772 768.335 429.526C758.028 425.678 748.094 419.344 740.625 411.256C759.874 406.357 781.093 400.264 798.464 390.487C800.695 389.228 805.606 386.586 805.822 384.127C806.167 380.109 803.604 378.55 799.794 379.424C797.1 380.044 788.353 385.634 784.772 387.232C768.465 394.498 751.121 399.449 733.724 403.402C733.131 403.5 732.87 403.115 732.491 402.776C731.428 401.85 723.672 388.478 723.653 387.467C726.575 385.647 730.45 386.736 733.776 386.462C752.014 384.949 773.546 382.464 790.995 377.147C793.389 376.417 802.514 373.677 803.128 371.668C804.256 367.983 802.201 365.276 798.366 365.556C794.968 365.804 786.083 369.444 781.739 370.501C761.407 375.445 740.378 377.056 719.511 378.034C717.091 371.786 715.395 365.295 713.888 358.759C742.171 357.729 771.107 355.765 799.031 361.095C802.912 360.775 804.217 355.504 800.89 353.3C797.322 350.938 781.798 349.68 776.84 349.301C760.148 348.036 741.441 348.192 724.631 348.61C722.224 348.668 712.753 350.417 711.573 348.682C710.307 337.469 708.461 326.269 707.378 315.043C704.965 290.054 704.632 265.097 704.143 240.004C704.097 237.643 702.486 227.389 704.123 226.006C704.436 225.745 706.015 226.071 706.426 226.632C726.921 244.329 745.72 263.878 765.067 282.787L768.289 283.374L806.363 272.155L828.652 204.108L830.322 202.523C848.657 233.781 868.669 265.045 884.611 297.614C885.564 299.558 891.095 310.471 890.573 311.351L890.554 311.332ZM866.732 311.866C870.339 315.369 875.101 311.834 874.214 307.359C873.751 305.024 869.902 299.525 868.154 297.725C855.115 284.288 837.184 291.085 839.114 310.451C839.512 314.404 841.358 321.853 846.55 321.22C855.826 320.085 841.893 304.019 852.467 300.282C859.348 297.849 863.562 308.794 866.726 311.866H866.732ZM803.656 324.064C806.735 326.993 809.109 335.479 814.314 333.275C819.839 330.933 815.038 323.627 812.644 320.627C800.108 304.933 778.015 308.807 781.119 331.279C781.7 335.486 784.916 342.061 790.043 339.66C795.281 337.201 787.329 329.472 790.721 323.379C793.598 318.207 800.225 320.796 803.663 324.071L803.656 324.064ZM857.828 327.3C857.372 326.876 855.539 325.995 854.952 325.923C853.223 325.714 832.892 332.113 830.002 333.301C824.594 335.531 823.733 340.371 827.999 344.409C831.424 347.651 843.028 351.682 845.011 354.311C851.854 363.397 842.872 382.144 828.489 374.577C824.425 372.438 816.989 360.977 813.186 368.681C811.275 372.542 816.734 377.291 819.611 379.548C832.559 389.71 848.729 386.273 854.834 370.833C857.091 371.277 858.5 372.803 860.796 373.592C870.835 377.037 880.352 370.657 883.013 360.873C883.913 357.553 885.609 350.13 881.063 348.76C873.568 346.503 875.434 355.146 873.842 359.529C870.463 368.837 861.501 366.385 857.268 358.851C853.034 351.317 856.067 351.343 858.22 344.559C859.55 340.365 861.37 330.594 857.835 327.3H857.828Z" fill="#DCFC73"/>
<path d="M1287.23 596.486C1281.64 591.372 1273.56 592.253 1270.02 599.161C1262.74 613.374 1276.37 626.994 1288.55 616.388C1290.24 614.914 1291.35 612.07 1293.43 612.07C1296.46 612.07 1299.21 618.508 1301.58 620.295C1299.74 620.53 1298.44 618.71 1296.41 618.292C1287.63 616.505 1280.2 626.955 1281.66 634.997C1283.65 645.838 1296.46 648.617 1303.44 640.411C1305.41 638.109 1307.74 630.353 1309.87 629.818C1310.65 629.623 1315.24 632.721 1316.39 633.51C1316.98 633.908 1317.6 633.412 1317.24 634.965C1306.06 634.169 1302.4 649.576 1310.05 656.184C1319.69 664.514 1334.45 652.785 1330.29 641.494L1336.16 643.451C1335.09 646.145 1332.93 647.985 1332.4 651.096C1329.86 666.249 1338.8 664.905 1350.51 663.666C1349.24 670.077 1348.55 676.659 1348.56 683.234L1227.23 685.191L1227.88 620.947C1227.06 606.682 1224.58 592.742 1221.36 578.868C1226.71 579.37 1232.1 578.464 1237.35 578.222C1245.59 577.837 1253.9 577.864 1262.15 577.59C1268.62 577.374 1276.8 574.726 1282.04 579.82C1286.01 583.675 1284.56 591.385 1287.23 596.473L1287.23 596.486Z" fill="#E1D2F3"/>
<path d="M1129.39 671.501C1132.57 650.262 1132.87 627.269 1137.52 606.253C1139.95 595.281 1146.11 586.227 1150.93 576.273C1161.08 585.203 1173.02 590.689 1186.79 590.624L1176.36 671.507H1129.39L1129.39 671.501Z" fill="#E1D2F3"/>
<path d="M1105.25 257.297L1183.53 256.645C1182.69 273.402 1181 290.159 1179.61 306.877L1105.25 306.218V257.297Z" fill="#E1D2F3"/>
<path d="M1096.77 259.25C1096.77 259.25 1097.85 302.36 1096.77 304.855C1095.69 307.35 1051.93 305.504 1034.24 305.686C1033.14 305.7 1029.25 305.686 1028.42 305.686C1027.59 305.686 1026.76 305.686 1026.34 305.562C1025.93 305.438 1025.79 305.308 1025.64 304.506L1022.41 259.25L1075.24 258.598V286.972C1075.24 289.979 1080.39 291.966 1082.42 288.603C1083.72 286.972 1083.72 272.426 1083.72 272.426V259.25C1086.43 259.178 1096.77 259.25 1096.77 259.25Z" fill="#E1D2F3"/>
<path d="M1105.25 314.699C1105.75 311.928 1177.33 313.441 1178.96 316.011C1180.59 318.58 1176.43 353.504 1175.71 356.452C1174.98 359.401 1107 358.078 1105.25 355.794C1103.5 353.51 1104.75 317.471 1105.25 314.699Z" fill="#E1D2F3"/>
<path d="M1034.24 312.755C1049.63 313.171 1065.04 313.521 1080.81 313.587C1085.8 313.606 1095.8 312.755 1096.77 314.694C1097.75 316.634 1098.27 354.746 1097.02 356.441C1095.78 358.135 1029.59 356.441 1029.59 356.441L1026.34 315.249C1026.34 312.34 1031.75 312.755 1034.24 312.755Z" fill="#E1D2F3"/>
<path d="M1404.65 691.069V709.985C1402.72 709.216 1400.34 704.904 1398.42 704.734C1395.68 704.493 1392.87 709.366 1391.28 709.359C1389.7 709.353 1386.53 704.937 1384.06 704.774C1380.64 704.552 1379.07 709.163 1376.9 709.372C1374.73 709.581 1371.99 705.113 1369.13 705.4C1367 705.615 1365.45 710.175 1362.07 709.242C1360.65 708.85 1358.39 705.002 1356.02 704.767C1353.12 704.48 1350.03 709.561 1348.33 709.261C1347.09 709.046 1343.96 704.813 1341.71 704.813C1338.98 704.813 1337.08 709.274 1335.2 709.32C1332.97 709.379 1330.55 705.315 1328.5 704.878C1325.53 704.252 1323.66 709.118 1321.47 709.346C1318.63 709.646 1316.25 705.152 1313.7 705.38C1311.65 705.563 1309.73 709.914 1307.81 709.966C1305.35 710.031 1303.35 705.752 1301.17 705.543C1298.99 705.335 1296.16 709.985 1294.09 709.985C1292.86 709.985 1290.03 706.515 1288.08 706.163C1284.85 705.576 1282.47 709.366 1280.4 709.3C1278.46 709.242 1276.67 705.824 1274.57 706.026C1273.22 706.156 1269.11 710.599 1268.66 710.605C1268.14 710.605 1265.28 706.385 1263.35 706.202C1260.74 705.961 1258.62 710.051 1256.28 710.044C1253.32 710.031 1251.4 705.811 1249.13 706.033C1247.18 706.222 1245.36 710.292 1243.13 710.501C1240.89 710.709 1237.76 705.204 1233.79 707.05C1232.6 707.598 1231.87 709.861 1230.15 710.011C1229.73 710.051 1224.64 707.676 1224.64 707.37V693.672L1404.67 691.062L1404.65 691.069Z" fill="#E1D2F3"/>
<path d="M1361.43 541.851C1372.65 539.933 1374.99 550.839 1374.64 559.626C1373.85 579.083 1362.5 601.855 1349.84 616.362C1347.2 619.382 1335.57 630.784 1332.4 631.579C1327.66 632.767 1314.31 622.03 1310.73 618.338C1329.58 607.243 1339.36 587.693 1345.11 567.277C1347.83 557.616 1348.5 544.062 1361.43 541.857V541.851Z" fill="#DCFC73"/>
<path d="M1188.09 582.137C1182.25 581.4 1176.27 581.087 1170.69 578.986C1167.24 577.688 1155.48 570.161 1154.84 566.789C1154.02 562.503 1155.99 552.06 1156.98 547.442C1159.4 536.262 1166.31 516.315 1179.96 515.591C1181.89 515.486 1193.63 517.176 1194.33 518.174L1194.62 519.178L1188.09 582.137Z" fill="#E1D2F3"/>
<path d="M1357.04 683.239C1356.67 672.796 1358.59 662.947 1362.8 653.443C1365.09 648.251 1364.49 646.907 1370.23 647.54C1389.19 649.633 1402.34 662.686 1404.48 681.635L1357.04 683.239Z" fill="#E1D2F3"/>
<path d="M1080.46 244.902C1079.33 246.024 1079.36 244.479 1079.1 243.976C1073.78 233.514 1069.38 216.73 1075.76 205.954C1078.99 200.501 1080.47 204.611 1081.95 208.524C1084.76 216.006 1085.94 226.854 1084.2 234.609C1083.93 235.803 1080.84 244.511 1080.45 244.896L1080.46 244.902Z" fill="#DCFC73"/>
<path d="M1285.29 556.043L1284.63 568.443C1278.83 567.38 1272.9 567.895 1267.02 567.791L1270.29 544.961C1274.04 550.134 1277.91 556.624 1285.29 556.05V556.043Z" fill="#E1D2F3"/>
<path d="M1107.77 229.993C1108.5 230.45 1108.58 233.594 1108.38 234.631C1107.19 240.899 1095.32 245.687 1089.6 246.202C1090.79 240.873 1096.46 231.643 1101.97 230.208C1103.12 229.908 1107.01 229.523 1107.77 229.993Z" fill="#DCFC73"/>
<path d="M1069.37 244.903C1064.85 243.084 1059.92 242.099 1056.02 239.02C1049.32 233.73 1050.55 226.639 1059.16 231.969C1063.32 234.545 1067.9 240.181 1069.36 244.91L1069.37 244.903Z" fill="#DCFC73"/>
<path d="M1278.57 600.538C1285.46 598.483 1288.89 608.62 1282.27 612.051C1274.02 616.323 1272.53 602.338 1278.57 600.538Z" fill="#336DFD"/>
<path d="M1292.26 625.974C1301.42 623.241 1302.18 636.756 1294.02 637.571C1286.72 638.302 1287.21 627.48 1292.26 625.974Z" fill="#336DFD"/>
<path d="M1317.07 640.971C1324.82 639.281 1325.96 649.633 1319.39 651.14C1311.2 653.019 1311.14 642.262 1317.07 640.971Z" fill="#336DFD"/>
<path d="M1342.45 648.178C1348.4 647.545 1350.35 658.732 1342.33 658.491C1336.91 658.328 1337.93 648.661 1342.45 648.178Z" fill="#336DFD"/>
<path d="M1357.03 645.41C1357.46 645.821 1355.55 650.191 1355.14 651C1353.52 654.17 1353.96 649.748 1353.64 648.476C1353.36 647.354 1352.29 646.65 1352.47 645.41H1357.03Z" fill="#E1D2F3"/>
<path d="M591.894 545.606L589.792 694.327H538.413L537.406 564.291L543.07 579.759C544.622 584.573 549.012 587.163 550.858 581.168C548.256 569.134 541.869 557.395 538.654 545.582C538.654 545.582 539.808 545.606 540.037 545.606H591.894Z" fill="#DCFC73"/>
<path d="M741.282 597.133L738.673 691.721L670.789 692.086L670.828 599.742L704.467 598.398L717.506 597.824L741.282 597.133Z" fill="white"/>
<path d="M486.883 546.262H526.02L514.409 580.024C513.555 584.89 518.29 587.382 521.363 583.025C522.928 580.807 525.761 575.125 527.013 571.779L529.94 564.711C530.044 569.277 529.784 578.224 529.94 582.79C530.318 598.947 530.39 615.476 530.625 631.359C530.932 652.35 530.866 673.353 531.245 694.331H486.883C486.38 681.279 486.341 668.292 486.23 655.194L486.876 654.222L486.23 653.889C486.224 653.022 486.23 652.148 486.23 651.28C487.248 651.013 487.209 648.88 486.23 648.671C486.23 647.582 486.23 646.499 486.23 645.409C487.209 645.318 487.209 643.544 486.23 643.453C486.23 641.718 486.23 639.969 486.23 638.234L486.87 637.908L486.23 637.582C486.23 636.93 486.23 636.277 486.23 635.625C487.378 630.916 486.948 625.221 486.896 620.29C486.883 619.187 487.313 617.387 486.23 616.709C486.243 614.758 486.217 612.789 486.23 610.838C486.23 610.721 486.922 609.827 486.928 608.633C487.111 587.845 486.693 567.037 486.883 546.262Z" fill="#DCFC73"/>
<path d="M612.121 602.355L662.341 599.746L662.38 684.902L661.701 692.377L612.121 693.023V602.355Z" fill="white"/>
<path d="M653.218 561.918C651.365 561.683 641.874 562.642 641.45 560.829L640.824 485.594L702.139 487.551C700.796 513.186 700.45 538.925 697.567 564.521L679.309 563.209C686.191 554.169 684.984 534.861 670.184 544.952C670.666 536.368 663.98 532.304 658.169 539.792C656.349 542.134 653.218 549.714 653.218 552.453V561.911V561.918Z" fill="#E1D2F3"/>
<path d="M632.995 485.596V561.262L599.761 559.272C599.004 558.496 601.28 542.3 600.25 538.882C599.219 535.464 592.585 536.612 589.937 536.475C589.637 519.046 591.366 501.701 591.894 484.285L632.995 485.596Z" fill="#E1D2F3"/>
<path d="M748.445 653.883C747.31 654.039 747.832 652.402 747.799 651.613C747.068 632.064 748.895 612.443 749.73 592.933C749.267 590.748 748.445 589.587 746.194 589.28C741.654 588.667 716.574 591.002 715.269 589.861C713.952 583.957 706.613 575.178 705.537 569.92C704.278 563.763 706.953 553.228 707.377 546.614C707.912 538.193 708.225 529.622 708.681 521.175C709.06 514.136 709.066 506.994 709.314 499.949L710.736 501.456C728.256 536.777 746.462 571.773 765.906 606.057L748.432 653.889L748.445 653.883Z" fill="#E1D2F3"/>
<path d="M550.098 496.085C552.903 501.212 550.163 508.642 548.05 513.814C546.282 518.139 543.556 521.929 541.299 525.98L537.118 531.902C537.111 521.192 537.085 506.15 545.571 498.297C546.856 497.103 548.122 495.727 550.092 496.085H550.098Z" fill="#DCFC73"/>
<path d="M524.531 496.225C528.987 499.872 528.145 524.319 529.274 530.607C524.055 523.321 519.691 510.556 519.476 501.548C519.398 498.228 520.585 493.003 524.531 496.225Z" fill="#DCFC73"/>
<path d="M660.817 594.301C654.737 599.761 648.939 592.429 652.539 587.655C655.762 583.382 654.548 592.723 655.214 593.18C657.608 594.843 660.406 589.546 661.013 587.648C661.776 585.241 661.913 574.987 664.613 575.613C666.798 577.29 665.937 582.358 665.442 584.902C664.9 587.674 662.911 592.416 660.817 594.301Z" fill="#E1D2F3"/>
<path d="M522.104 534.51C514.668 533.662 508.4 527.191 506.449 520.172C506.88 519.709 512.913 524.438 513.631 525.052C514.511 525.808 522.711 534.04 522.104 534.51Z" fill="#DCFC73"/>
<path d="M676.691 549.522C676.659 550.684 676.848 551.91 676.652 553.064C676.352 554.839 670.782 565.047 668.87 563.214C668.27 562.633 672.797 548.205 676.691 549.522Z" fill="#DCFC73"/>
<path d="M486.23 610.838L486.883 546.262C486.694 567.037 487.111 587.845 486.928 608.633C486.915 609.827 486.23 610.721 486.23 610.838Z" fill="#DCFC73"/>
<path d="M659.09 561.911C659.083 557.267 659.312 550.464 661.36 546.25C662.847 543.184 664.602 543.98 664.178 547.072C663.754 550.164 661.464 556.374 660.408 559.648C660.134 560.503 660.395 561.683 659.09 561.911Z" fill="#DCFC73"/>
<path d="M589.946 608.881C588.876 607.844 589.17 605.345 589.268 603.956L590.599 586.051C590.507 593.709 590.129 601.256 589.946 608.881Z" fill="#DCFC73"/>
<path d="M486.23 635.619C486.257 629.325 486.185 622.998 486.23 616.703C487.313 617.382 486.883 619.175 486.896 620.284C486.948 625.215 487.378 630.91 486.23 635.619Z" fill="#DCFC73"/>
<path d="M642.839 575.67C645.311 573.902 647.575 578.821 645.044 579.519C642.702 580.171 641.483 576.642 642.839 575.67Z" fill="#E1D2F3"/>
<path d="M681.703 574.407C684.417 573.677 684.489 577.767 682.878 578.223C680.601 578.869 678.651 575.229 681.703 574.407Z" fill="#E1D2F3"/>
<path d="M634.647 586.709C636.923 586.063 638.874 589.703 635.821 590.525C633.107 591.256 633.036 587.166 634.647 586.709Z" fill="#E1D2F3"/>
<path d="M604.627 572.359C607.243 571.577 607.648 575.745 605.919 576.26C603.303 577.043 602.899 572.875 604.627 572.359Z" fill="#E1D2F3"/>
<path d="M696.667 578.283C699.087 577.539 700.607 579.985 698.904 581.179C696.354 582.966 694.136 579.065 696.667 578.283Z" fill="#E1D2F3"/>
<path d="M676.629 587.425C678.592 590.582 670.961 593.159 674.072 586.988C674.535 586.479 676.557 587.308 676.629 587.425Z" fill="#E1D2F3"/>
<path d="M624.511 573.657C625.45 580.16 619.742 576.833 621.856 574.048C622.469 573.239 623.643 573.761 624.511 573.657Z" fill="#E1D2F3"/>
<path d="M611.151 588.663C614.152 587.822 614.152 592.753 611.151 591.912C609.84 591.547 609.84 589.029 611.151 588.663Z" fill="#E1D2F3"/>
<path d="M590.597 574.305C589.964 577.051 589.971 575.283 590.597 573C590.669 573.404 590.493 573.972 590.597 574.305Z" fill="#DCFC73"/>
<path d="M486.23 651.281C486.23 650.413 486.23 649.539 486.23 648.672C487.209 648.881 487.248 651.014 486.23 651.281Z" fill="#DCFC73"/>
<path d="M486.23 645.406C486.23 644.754 486.23 644.102 486.23 643.449C487.209 643.541 487.209 645.315 486.23 645.406Z" fill="#DCFC73"/>
<path d="M486.23 655.191C486.23 654.754 486.23 654.324 486.23 653.887L486.876 654.219L486.23 655.191Z" fill="#DCFC73"/>
<path d="M486.23 638.235C486.23 638.02 486.23 637.798 486.23 637.582L486.87 637.909L486.23 638.235Z" fill="#DCFC73"/>
<path d="M561.885 522.124C561.957 529.057 553.047 534.354 546.902 535.502C547.835 532.743 559.322 519.534 561.885 522.124Z" fill="#DCFC73"/>
<path d="M857.831 327.303C861.366 330.591 859.547 340.369 858.216 344.563C856.063 351.347 852.913 351.112 857.264 358.854C861.614 366.597 870.459 368.841 873.838 359.533C875.43 355.149 873.564 346.507 881.059 348.763C885.606 350.133 883.91 357.556 883.009 360.876C880.342 370.661 870.825 377.04 860.792 373.596C858.496 372.807 857.088 371.28 854.831 370.837C848.725 386.277 832.555 389.714 819.607 379.551C816.73 377.295 811.271 372.546 813.182 368.684C816.991 360.981 824.421 372.442 828.485 374.581C842.874 382.148 851.856 363.401 845.007 354.314C843.024 351.679 831.42 347.655 827.995 344.413C823.736 340.382 824.591 335.535 829.998 333.304C832.888 332.111 853.219 325.718 854.948 325.927C855.535 325.999 857.368 326.879 857.825 327.303H857.831Z" fill="#222222"/>
<path d="M866.736 311.863C863.573 308.791 859.353 297.845 852.477 300.278C841.91 304.016 855.837 320.082 846.561 321.217C841.362 321.856 839.516 314.4 839.125 310.447C837.188 291.081 855.126 284.278 868.165 297.721C869.913 299.528 873.762 305.02 874.225 307.356C875.112 311.83 870.35 315.366 866.743 311.863H866.736Z" fill="#222222"/>
<path d="M803.663 324.061C800.219 320.786 793.598 318.197 790.722 323.37C787.33 329.468 795.281 337.198 790.043 339.651C784.923 342.051 781.7 335.476 781.12 331.269C778.015 308.797 800.108 304.923 812.645 320.617C815.039 323.617 819.84 330.923 814.315 333.265C809.11 335.469 806.742 326.983 803.656 324.054L803.663 324.061Z" fill="#222222"/>
<path d="M533 23.9129C481.306 -20.0562 316.001 -145.581 218.962 -45.0988C164.693 11.0958 280.073 80.8948 312.488 -10.2097C339.215 -85.3251 91.8513 -179.724 -19.0001 -214.087" stroke="#2E5ED6" stroke-width="4" stroke-linecap="round" stroke-dasharray="8 8"/>
</svg>
