<svg width="1380" height="869" viewBox="0 0 1380 869" fill="none" xmlns="http://www.w3.org/2000/svg">
<path d="M1300.95 60.0723L1301.8 220.241C1293.57 218.362 1270.86 212.127 1273.36 201.025C1278.51 178.199 1300.84 192.177 1300.84 192.177C1298.53 188.894 1283.34 172.579 1280.78 165.407C1268.85 161.246 1240.05 155.787 1231.05 122.45C1222.05 89.1121 1208.52 67.3986 1204.88 58.8153L1257.43 88.7671L1268.8 79.8531L1250.84 22.7879L1300.95 60.0723Z" fill="#336DFD" stroke="#222222" stroke-width="5" stroke-linecap="round"/>
<path d="M78.0902 60.0723L77.2428 220.241C85.4702 218.362 108.184 212.127 105.68 201.025C100.53 178.199 78.1955 192.177 78.1955 192.177C80.5137 188.894 95.696 172.579 98.2577 165.407C110.189 161.246 138.993 155.787 147.991 122.45C156.988 89.1121 170.517 67.3986 174.158 58.8153L121.611 88.7671L110.239 79.8531L128.197 22.7879L78.0902 60.0723Z" fill="#336DFD" stroke="#222222" stroke-width="5" stroke-linecap="round"/>
<path d="M559.993 757L498.992 818H880.993L819.993 757H559.993Z" fill="#8A9D4C"/>
<path d="M820.008 757V0H880.004L880.008 816.998L820.008 757Z" fill="#90879A"/>
<path d="M559.996 757V0H500L499.996 816.998L559.996 757Z" fill="#90879A"/>
<circle cx="680.008" cy="308" r="6" fill="#222222"/>
<path d="M442.828 234.732C448.021 236.672 448.216 243.097 447.665 245.401C436.889 245.683 414.675 245.449 412.028 245.643C408.719 245.885 397.01 243.703 393.191 240.066C390.137 237.157 378.385 230.489 373.464 227.216C373.159 228.186 376.137 239.824 377.664 245.522H352.718C351.191 237.642 351.573 219.821 351.7 218.609C351.828 217.396 355.391 178.481 357.046 178.481C358.369 178.481 385.852 178.158 399.428 177.996C400.828 188.18 404.137 202.242 412.028 215.941C419.919 229.641 436.337 232.308 442.828 234.732Z" fill="#336DFD"/>
<path d="M362.841 192.901C358.318 193.191 355.73 190.208 355.002 188.68C354.385 188.68 352.261 210.23 351.275 221.006H357.701C357.701 219.679 358.574 217.098 362.07 217.387C366.439 217.749 365.025 214.975 364.511 214.854C363.997 214.733 362.07 213.768 362.841 212.683C363.612 211.597 363.869 209.909 362.841 209.185C361.813 208.461 358.857 202.551 362.07 202.43C365.283 202.31 368.495 192.539 362.841 192.901Z" fill="#336DFD"/>
<path d="M447.789 241.775C447.992 242.163 447.789 244.359 447.661 245.409C422.458 246.377 407.055 245.893 403.873 244.924C400.691 243.955 392.035 241.896 388.853 238.868C386.307 236.446 376.76 229.623 373.45 227.604C373.145 228.573 376.123 239.878 377.651 245.409H352.447C351.301 235.477 351.429 219.368 351.938 219.126C352.447 218.884 361.23 219.853 369.25 222.033C377.269 224.213 384.015 231.359 391.653 236.688C399.29 242.017 402.982 241.775 411.001 242.865C417.417 243.737 438.199 242.502 447.789 241.775Z" fill="#222222" stroke="#222222"/>
<path d="M391.982 181.982C393.832 182.177 397.891 180.685 399.689 179.914C400.075 181.496 401.102 186.848 402.772 193.661C404.108 199.111 406.754 205.42 407.91 207.894C406.883 209.719 404.956 207.772 403.928 207.894C402.901 208.016 402.258 205.461 400.203 206.069C398.148 206.677 398.919 207.042 394.294 206.434C389.67 205.826 389.541 203.515 390.312 200.717C390.929 198.478 392.71 197.756 393.524 197.675C395.836 195.729 395.45 195.85 394.294 193.661C393.138 191.471 387.358 190.498 388.771 189.281C389.901 188.308 389.242 187.497 388.771 187.213C383.376 182.955 386.459 179.914 388.771 179.914C391.083 179.914 389.67 181.739 391.982 181.982Z" fill="#336DFD"/>
<path d="M368.593 203.959C367.982 202.018 367.49 186.205 367.32 178.481L383.235 178.359C383.957 185.154 385.12 199.785 383.999 203.959C382.599 209.176 380.18 209.54 374.959 209.54C369.739 209.54 369.357 206.385 368.593 203.959Z" fill="#222222"/>
<path d="M369.742 180.426C369.863 187.038 370.214 200.678 370.649 202.34C371.194 204.417 371.466 207.117 375.188 207.117C378.91 207.117 380.634 206.806 381.633 202.34C381.786 197.825 381.863 187.123 380.946 180.426" stroke="#336DFD" stroke-width="2" stroke-dasharray="12 12"/>
<path d="M394.369 222.179C393.273 218.628 389.095 217.993 387.143 218.12C384.402 218.754 383.405 222.179 385.024 223.193C386.644 224.208 388.887 226.745 389.136 227.252C389.42 227.83 390.258 233.086 392.999 231.31C395.74 229.535 395.74 226.618 394.369 222.179Z" fill="#336DFD"/>
<path d="M411.537 236.689C416.146 238.986 419.386 237.73 420.43 236.814C411.111 233.019 404.941 224.081 403.021 220.086C402.82 220.186 401.768 221.459 401.267 222.083C398.637 226.453 402.144 227.451 402.394 227.451C402.645 227.451 403.772 228.076 402.144 228.7C400.516 229.324 396.884 236.44 402.645 238.312C408.406 240.185 407.529 237.813 407.78 237.563C408.03 237.314 405.776 233.818 411.537 236.689Z" fill="#336DFD"/>
<path d="M255.648 234.521C250.456 236.461 250.26 242.886 250.812 245.19C261.588 245.473 283.802 245.238 286.449 245.432C289.758 245.675 301.467 243.492 305.285 239.855C308.34 236.946 320.091 230.278 325.013 227.005C325.318 227.975 322.34 239.613 320.813 245.311L345.758 245.311C347.285 237.431 346.904 219.61 346.776 218.398C346.649 217.185 343.085 178.27 341.431 178.27C340.107 178.27 312.625 177.947 299.049 177.785C297.649 187.969 294.34 202.031 286.449 215.73C278.558 229.43 262.14 232.097 255.648 234.521Z" fill="#336DFD"/>
<path d="M335.636 192.69C340.159 192.98 342.746 189.997 343.474 188.469C344.091 188.469 346.216 210.019 347.201 220.795L340.776 220.795C340.776 219.468 339.902 216.887 336.407 217.176C332.037 217.538 333.451 214.764 333.965 214.643C334.479 214.522 336.407 213.558 335.636 212.472C334.865 211.386 334.608 209.698 335.636 208.974C336.663 208.25 339.619 202.34 336.407 202.219C333.194 202.099 329.981 192.329 335.636 192.69Z" fill="#336DFD"/>
<path d="M250.688 241.564C250.484 241.952 250.688 244.148 250.815 245.198C276.019 246.167 291.421 245.682 294.604 244.713C297.786 243.744 306.442 241.685 309.624 238.657C312.17 236.235 321.717 229.412 325.026 227.394C325.332 228.362 322.353 239.667 320.826 245.198L346.029 245.198C347.175 235.266 347.048 219.157 346.539 218.915C346.029 218.673 337.246 219.642 329.227 221.822C321.208 224.002 314.461 231.148 306.824 236.477C299.186 241.806 295.495 241.564 287.475 242.654C281.06 243.526 260.277 242.291 250.688 241.564Z" fill="#222222" stroke="#222222"/>
<path d="M306.494 181.771C304.645 181.966 300.586 180.474 298.787 179.703C298.402 181.285 297.374 186.637 295.704 193.45C294.369 198.9 291.722 205.209 290.566 207.683C291.594 209.508 293.521 207.561 294.548 207.683C295.576 207.805 296.218 205.25 298.274 205.858C300.329 206.467 299.558 206.831 304.182 206.223C308.807 205.615 308.935 203.304 308.164 200.506C307.548 198.267 305.767 197.545 304.953 197.464C302.641 195.518 303.026 195.64 304.182 193.45C305.338 191.26 311.119 190.287 309.706 189.07C308.575 188.097 309.235 187.286 309.706 187.002C315.101 182.744 312.018 179.703 309.706 179.703C307.394 179.703 308.807 181.528 306.494 181.771Z" fill="#336DFD"/>
<path d="M306.731 218.801C306.23 217.599 309.276 215.212 310.862 214.169L321.254 213.668C323.174 214.836 326.238 217.925 323.133 220.929C319.251 224.685 317.874 222.932 316.873 222.807C315.871 222.682 317.123 218.801 312.866 221.556C308.609 224.31 307.357 220.303 306.731 218.801Z" fill="#336DFD"/>
<path d="M325.135 195.891C325.335 197.794 324.467 197.935 324.008 197.769L324.258 183.621L332.897 183.621C333.648 184.372 333.273 185.875 332.647 187.252C332.021 188.629 329.642 188.504 329.517 188.504C329.391 188.504 328.766 188.754 328.891 190.757C329.016 192.761 328.265 193.762 328.14 194.013C328.015 194.263 327.389 194.889 326.512 194.889C325.636 194.889 324.884 193.512 325.135 195.891Z" fill="#336DFD"/>
<path d="M329.883 203.752C330.494 201.811 330.987 185.998 331.157 178.274L315.241 178.152C314.52 184.946 313.357 199.578 314.477 203.752C315.878 208.969 318.297 209.333 323.517 209.333C328.738 209.333 329.12 206.178 329.883 203.752Z" fill="#222222"/>
<path d="M328.739 180.215C328.618 186.827 328.267 200.467 327.831 202.129C327.287 204.206 327.014 206.906 323.292 206.906C319.571 206.906 317.846 206.595 316.848 202.129C316.695 197.615 316.618 186.912 317.534 180.215" stroke="#336DFD" stroke-width="2" stroke-dasharray="12 12"/>
<path d="M290.959 221.964C292.055 218.413 296.233 217.779 298.185 217.905C300.926 218.539 301.924 221.964 300.304 222.979C298.684 223.993 296.441 226.53 296.192 227.037C295.908 227.615 295.07 232.871 292.329 231.096C289.588 229.32 289.588 226.403 290.959 221.964Z" fill="#336DFD"/>
<path d="M957.305 234.732C952.112 236.672 951.917 243.097 952.468 245.401C963.244 245.683 985.458 245.449 988.105 245.643C991.414 245.885 1003.12 243.703 1006.94 240.066C1010 237.157 1021.75 230.489 1026.67 227.216C1026.97 228.186 1024 239.824 1022.47 245.522H1047.41C1048.94 237.642 1048.56 219.821 1048.43 218.609C1048.31 217.396 1044.74 178.481 1043.09 178.481C1041.76 178.481 1014.28 178.158 1000.71 177.996C999.305 188.18 995.996 202.242 988.105 215.941C980.214 229.641 963.796 232.308 957.305 234.732Z" fill="#336DFD"/>
<path d="M1037.29 192.901C1041.82 193.191 1044.4 190.208 1045.13 188.68C1045.75 188.68 1047.87 210.23 1048.86 221.006H1042.43C1042.43 219.679 1041.56 217.098 1038.06 217.387C1033.69 217.749 1035.11 214.975 1035.62 214.854C1036.14 214.733 1038.06 213.768 1037.29 212.683C1036.52 211.597 1036.26 209.909 1037.29 209.185C1038.32 208.461 1041.28 202.551 1038.06 202.43C1034.85 202.31 1031.64 192.539 1037.29 192.901Z" fill="#336DFD"/>
<path d="M952.348 241.771C952.144 242.159 952.348 244.355 952.475 245.405C977.679 246.374 993.082 245.889 996.264 244.92C999.446 243.951 1008.1 241.893 1011.28 238.864C1013.83 236.442 1023.38 229.619 1026.69 227.601C1026.99 228.57 1024.01 239.874 1022.49 245.405H1047.69C1048.84 235.473 1048.71 219.365 1048.2 219.122C1047.69 218.88 1038.91 219.849 1030.89 222.029C1022.87 224.209 1016.12 231.355 1008.48 236.684C1000.85 242.013 997.155 241.771 989.135 242.861C982.72 243.733 961.938 242.498 952.348 241.771Z" fill="#222222" stroke="#222222"/>
<path d="M1008.15 181.982C1006.3 182.177 1002.24 180.685 1000.44 179.914C1000.06 181.496 999.031 186.848 997.361 193.661C996.025 199.111 993.379 205.42 992.223 207.894C993.25 209.719 995.177 207.772 996.205 207.894C997.232 208.016 997.875 205.461 999.93 206.069C1001.99 206.677 1001.21 207.042 1005.84 206.434C1010.46 205.826 1010.59 203.515 1009.82 200.717C1009.2 198.478 1007.42 197.756 1006.61 197.675C1004.3 195.729 1004.68 195.85 1005.84 193.661C1006.99 191.471 1012.78 190.498 1011.36 189.281C1010.23 188.308 1010.89 187.497 1011.36 187.213C1016.76 182.955 1013.67 179.914 1011.36 179.914C1009.05 179.914 1010.46 181.739 1008.15 181.982Z" fill="#336DFD"/>
<path d="M997.063 219.02C996.562 217.818 999.608 215.431 1001.19 214.388L1011.59 213.887C1013.51 215.055 1016.57 218.143 1013.46 221.148C1009.58 224.904 1008.21 223.151 1007.2 223.026C1006.2 222.901 1007.45 219.02 1003.2 221.774C998.941 224.529 997.689 220.522 997.063 219.02Z" fill="#336DFD"/>
<path d="M1015.46 196.109C1015.66 198.012 1014.79 198.154 1014.34 197.987L1014.59 183.84H1023.23C1023.98 184.591 1023.6 186.093 1022.97 187.471C1022.35 188.848 1019.97 188.723 1019.84 188.723C1019.72 188.723 1019.09 188.973 1019.22 190.976C1019.34 192.979 1018.59 193.981 1018.47 194.231C1018.34 194.482 1017.72 195.108 1016.84 195.108C1015.96 195.108 1015.21 193.73 1015.46 196.109Z" fill="#336DFD"/>
<path d="M1031.54 203.963C1032.15 202.022 1032.64 186.209 1032.81 178.485L1016.9 178.363C1016.18 185.157 1015.01 199.789 1016.13 203.963C1017.53 209.18 1019.95 209.544 1025.17 209.544C1030.39 209.544 1030.78 206.389 1031.54 203.963Z" fill="#222222"/>
<path d="M1030.39 180.426C1030.27 187.038 1029.92 200.678 1029.48 202.34C1028.94 204.417 1028.67 207.117 1024.94 207.117C1021.22 207.117 1019.5 206.806 1018.5 202.34C1018.35 197.825 1018.27 187.123 1019.19 180.426" stroke="#336DFD" stroke-width="2" stroke-dasharray="12 12"/>
<path d="M1144.48 234.521C1149.68 236.461 1149.87 242.886 1149.32 245.19C1138.54 245.473 1116.33 245.238 1113.68 245.432C1110.37 245.675 1098.67 243.492 1094.85 239.855C1091.79 236.946 1080.04 230.278 1075.12 227.005C1074.81 227.975 1077.79 239.613 1079.32 245.311L1054.37 245.311C1052.85 237.431 1053.23 219.61 1053.36 218.398C1053.48 217.185 1057.05 178.27 1058.7 178.27C1060.03 178.27 1087.51 177.947 1101.08 177.785C1102.48 187.969 1105.79 202.031 1113.68 215.73C1121.57 229.43 1137.99 232.097 1144.48 234.521Z" fill="#336DFD"/>
<path d="M1064.5 192.69C1059.97 192.98 1057.39 189.997 1056.66 188.469C1056.04 188.469 1053.92 210.019 1052.93 220.795L1059.36 220.795C1059.36 219.468 1060.23 216.887 1063.73 217.176C1068.1 217.538 1066.68 214.764 1066.17 214.643C1065.65 214.522 1063.73 213.558 1064.5 212.472C1065.27 211.386 1065.53 209.698 1064.5 208.974C1063.47 208.25 1060.51 202.34 1063.73 202.219C1066.94 202.099 1070.15 192.329 1064.5 192.69Z" fill="#336DFD"/>
<path d="M1149.44 241.564C1149.65 241.952 1149.44 244.148 1149.32 245.198C1124.11 246.167 1108.71 245.682 1105.53 244.713C1102.35 243.744 1093.69 241.685 1090.51 238.657C1087.96 236.235 1078.42 229.412 1075.11 227.394C1074.8 228.362 1077.78 239.667 1079.31 245.198L1054.1 245.198C1052.96 235.266 1053.09 219.157 1053.59 218.915C1054.1 218.673 1062.89 219.642 1070.91 221.822C1078.93 224.002 1085.67 231.148 1093.31 236.477C1100.95 241.806 1104.64 241.564 1112.66 242.654C1119.07 243.526 1139.86 242.291 1149.44 241.564Z" fill="#222222" stroke="#222222"/>
<path d="M1093.64 181.771C1095.49 181.966 1099.55 180.474 1101.35 179.703C1101.73 181.285 1102.76 186.637 1104.43 193.45C1105.76 198.9 1108.41 205.209 1109.57 207.683C1108.54 209.508 1106.61 207.561 1105.58 207.683C1104.56 207.805 1103.91 205.25 1101.86 205.858C1099.8 206.467 1100.57 206.831 1095.95 206.223C1091.33 205.615 1091.2 203.304 1091.97 200.506C1092.59 198.267 1094.37 197.545 1095.18 197.464C1097.49 195.518 1097.11 195.64 1095.95 193.45C1094.79 191.26 1089.01 190.287 1090.43 189.07C1091.56 188.097 1090.9 187.286 1090.43 187.002C1085.03 182.744 1088.11 179.703 1090.43 179.703C1092.74 179.703 1091.33 181.528 1093.64 181.771Z" fill="#336DFD"/>
<path d="M1070.25 203.752C1069.64 201.811 1069.15 185.998 1068.98 178.274L1084.89 178.152C1085.61 184.946 1086.78 199.578 1085.66 203.752C1084.26 208.969 1081.84 209.333 1076.62 209.333C1071.4 209.333 1071.01 206.178 1070.25 203.752Z" fill="#222222"/>
<path d="M1071.4 180.219C1071.52 186.831 1071.87 200.471 1072.31 202.133C1072.85 204.21 1073.12 206.91 1076.84 206.91C1080.57 206.91 1082.29 206.599 1083.29 202.133C1083.44 197.618 1083.52 186.916 1082.6 180.219" stroke="#336DFD" stroke-width="2" stroke-dasharray="12 12"/>
<path d="M328.98 335.611C334.173 337.551 334.368 343.976 333.817 346.279C323.041 346.562 300.827 346.328 298.18 346.522C294.871 346.764 283.162 344.582 279.344 340.945C276.289 338.036 264.538 331.368 259.616 328.095C259.311 329.065 262.289 340.703 263.816 346.401H238.871C237.344 338.521 237.725 320.7 237.853 319.487C237.98 318.275 241.544 279.36 243.198 279.36C244.522 279.36 272.004 279.037 285.58 278.875C286.98 289.058 290.289 303.121 298.18 316.82C306.071 330.519 322.489 333.186 328.98 335.611Z" fill="#DCFC73"/>
<path d="M248.993 293.78C244.47 294.07 241.883 291.086 241.154 289.559C240.538 289.559 238.413 311.109 237.428 321.885H243.853C243.853 320.558 244.727 317.976 248.222 318.266C252.592 318.628 251.178 315.854 250.664 315.733C250.15 315.612 248.222 314.647 248.993 313.562C249.764 312.476 250.021 310.788 248.993 310.064C247.966 309.34 245.01 303.43 248.222 303.309C251.435 303.189 254.647 293.418 248.993 293.78Z" fill="#DCFC73"/>
<path d="M333.941 342.654C334.145 343.042 333.941 345.238 333.814 346.288C308.61 347.256 293.208 346.772 290.025 345.803C286.843 344.834 278.187 342.775 275.005 339.747C272.459 337.325 262.912 330.502 259.603 328.483C259.297 329.452 262.276 340.757 263.803 346.288H238.599C237.454 336.356 237.581 320.247 238.09 320.005C238.599 319.763 247.383 320.732 255.402 322.912C263.421 325.092 270.168 332.238 277.805 337.567C285.443 342.896 289.134 342.654 297.154 343.744C303.569 344.616 324.352 343.381 333.941 342.654Z" fill="#222222" stroke="#222222"/>
<path d="M278.134 282.861C279.984 283.056 284.043 281.563 285.842 280.793C286.227 282.374 287.255 287.727 288.924 294.54C290.26 299.99 292.906 306.299 294.062 308.773C293.035 310.598 291.108 308.651 290.08 308.773C289.053 308.895 288.411 306.34 286.355 306.948C284.3 307.556 285.071 307.921 280.447 307.313C275.822 306.705 275.694 304.393 276.465 301.595C277.081 299.357 278.862 298.635 279.676 298.554C281.988 296.608 281.603 296.729 280.447 294.54C279.29 292.35 273.51 291.377 274.923 290.16C276.054 289.187 275.394 288.376 274.923 288.092C269.528 283.834 272.611 280.793 274.923 280.793C277.235 280.793 275.822 282.618 278.134 282.861Z" fill="#DCFC73"/>
<path d="M254.745 304.838C254.134 302.897 253.642 287.084 253.472 279.36L269.388 279.238C270.109 286.032 271.272 300.664 270.152 304.838C268.751 310.055 266.332 310.419 261.112 310.419C255.891 310.419 255.509 307.264 254.745 304.838Z" fill="#222222"/>
<path d="M255.894 281.305C256.015 287.917 256.366 301.557 256.802 303.219C257.346 305.296 257.619 307.996 261.34 307.996C265.062 307.996 266.787 307.684 267.785 303.219C267.938 298.704 268.015 288.002 267.098 281.305" stroke="#DCFC73" stroke-width="2" stroke-dasharray="12 12"/>
<path d="M282.975 326.19C281.878 322.639 277.7 322.005 275.748 322.132C273.007 322.766 272.01 326.19 273.63 327.205C275.25 328.22 277.492 330.756 277.741 331.264C278.026 331.842 278.863 337.098 281.604 335.322C284.345 333.547 284.345 330.629 282.975 326.19Z" fill="#DCFC73"/>
<path d="M300.143 340.697C304.752 342.994 307.992 341.738 309.035 340.822C299.717 337.027 293.547 328.089 291.626 324.094C291.426 324.194 290.374 325.467 289.873 326.091C287.243 330.461 290.749 331.459 291 331.459C291.25 331.459 292.378 332.083 290.749 332.708C289.121 333.332 285.489 340.448 291.25 342.32C297.012 344.193 296.135 341.821 296.385 341.571C296.636 341.321 294.381 337.826 300.143 340.697Z" fill="#DCFC73"/>
<path d="M141.801 335.4C136.608 337.34 136.413 343.765 136.964 346.069C147.74 346.351 169.954 346.117 172.601 346.311C175.91 346.553 187.619 344.371 191.438 340.734C194.492 337.825 206.244 331.157 211.165 327.884C211.47 328.854 208.492 340.492 206.965 346.19L231.91 346.19C233.438 338.31 233.056 320.489 232.929 319.276C232.801 318.064 229.238 279.149 227.583 279.149C226.26 279.149 198.777 278.826 185.201 278.664C183.801 288.847 180.492 302.91 172.601 316.609C164.71 330.308 148.292 332.976 141.801 335.4Z" fill="#DCFC73"/>
<path d="M221.788 293.569C226.311 293.859 228.899 290.876 229.627 289.348C230.243 289.348 232.368 310.898 233.354 321.674L226.928 321.674C226.928 320.347 226.055 317.766 222.559 318.055C218.189 318.417 219.604 315.643 220.118 315.522C220.632 315.401 222.559 314.436 221.788 313.351C221.017 312.265 220.76 310.577 221.788 309.853C222.816 309.129 225.772 303.219 222.559 303.098C219.346 302.978 216.134 293.207 221.788 293.569Z" fill="#DCFC73"/>
<path d="M136.84 342.443C136.637 342.831 136.84 345.027 136.968 346.077C162.171 347.045 177.574 346.561 180.756 345.592C183.938 344.623 192.594 342.564 195.776 339.536C198.322 337.114 207.869 330.291 211.179 328.272C211.484 329.241 208.506 340.546 206.978 346.077L232.182 346.077C233.327 336.145 233.2 320.036 232.691 319.794C232.182 319.552 223.399 320.521 215.379 322.701C207.36 324.881 200.613 332.027 192.976 337.356C185.338 342.685 181.647 342.443 173.628 343.533C167.212 344.405 146.43 343.17 136.84 342.443Z" fill="#222222" stroke="#222222"/>
<path d="M192.647 282.65C190.797 282.845 186.738 281.353 184.94 280.582C184.554 282.164 183.527 287.516 181.857 294.329C180.521 299.779 177.875 306.088 176.719 308.562C177.746 310.387 179.673 308.44 180.701 308.562C181.728 308.684 182.371 306.129 184.426 306.737C186.481 307.345 185.71 307.71 190.335 307.102C194.959 306.494 195.087 304.182 194.317 301.385C193.7 299.146 191.919 298.424 191.105 298.343C188.793 296.397 189.179 296.518 190.335 294.329C191.491 292.139 197.271 291.166 195.858 289.949C194.728 288.976 195.387 288.165 195.858 287.881C201.253 283.623 198.17 280.582 195.858 280.582C193.546 280.582 194.959 282.407 192.647 282.65Z" fill="#DCFC73"/>
<path d="M213.74 299.902C213.94 301.805 213.072 301.947 212.613 301.78L212.864 287.633L221.502 287.633C222.254 288.384 221.878 289.886 221.252 291.264C220.626 292.641 218.247 292.516 218.122 292.516C217.997 292.516 217.371 292.766 217.497 294.769C217.622 296.772 216.871 297.774 216.745 298.024C216.62 298.275 215.994 298.901 215.118 298.901C214.241 298.901 213.49 297.523 213.74 299.902Z" fill="#DCFC73"/>
<path d="M216.036 304.631C216.647 302.69 217.139 286.877 217.309 279.153L201.393 279.031C200.672 285.825 199.509 300.457 200.63 304.631C202.03 309.848 204.449 310.212 209.67 310.212C214.89 310.212 215.272 307.057 216.036 304.631Z" fill="#222222"/>
<path d="M214.891 281.098C214.77 287.71 214.419 301.35 213.983 303.012C213.439 305.089 213.167 307.789 209.445 307.789C205.723 307.789 203.998 307.477 203 303.012C202.847 298.497 202.77 287.795 203.687 281.098" stroke="#DCFC73" stroke-width="2" stroke-dasharray="12 12"/>
<path d="M179.564 325.972C180.661 322.421 184.839 321.786 186.791 321.913C189.532 322.547 190.529 325.972 188.909 326.986C187.29 328.001 185.047 330.538 184.798 331.045C184.513 331.623 183.676 336.879 180.935 335.103C178.194 333.328 178.194 330.411 179.564 325.972Z" fill="#DCFC73"/>
<path d="M1067.54 335.611C1062.35 337.551 1062.15 343.976 1062.7 346.279C1073.48 346.562 1095.69 346.328 1098.34 346.522C1101.65 346.764 1113.36 344.582 1117.18 340.945C1120.23 338.036 1131.98 331.368 1136.9 328.095C1137.21 329.065 1134.23 340.703 1132.7 346.401H1157.65C1159.18 338.521 1158.79 320.7 1158.67 319.487C1158.54 318.275 1154.98 279.36 1153.32 279.36C1152 279.36 1124.52 279.037 1110.94 278.875C1109.54 289.058 1106.23 303.121 1098.34 316.82C1090.45 330.519 1074.03 333.186 1067.54 335.611Z" fill="#DCFC73"/>
<path d="M1147.53 293.78C1152.05 294.07 1154.64 291.086 1155.37 289.559C1155.98 289.559 1158.11 311.109 1159.09 321.885H1152.67C1152.67 320.558 1151.79 317.976 1148.3 318.266C1143.93 318.628 1145.34 315.854 1145.86 315.733C1146.37 315.612 1148.3 314.647 1147.53 313.562C1146.76 312.476 1146.5 310.788 1147.53 310.064C1148.55 309.34 1151.51 303.43 1148.3 303.309C1145.08 303.189 1141.87 293.418 1147.53 293.78Z" fill="#DCFC73"/>
<path d="M1062.58 342.654C1062.37 343.042 1062.58 345.238 1062.71 346.288C1087.91 347.256 1103.31 346.772 1106.49 345.803C1109.68 344.834 1118.33 342.775 1121.51 339.747C1124.06 337.325 1133.61 330.502 1136.92 328.483C1137.22 329.452 1134.24 340.757 1132.72 346.288H1157.92C1159.07 336.356 1158.94 320.247 1158.43 320.005C1157.92 319.763 1149.14 320.732 1141.12 322.912C1133.1 325.092 1126.35 332.238 1118.71 337.567C1111.08 342.896 1107.39 342.654 1099.37 343.744C1092.95 344.616 1072.17 343.381 1062.58 342.654Z" fill="#222222" stroke="#222222"/>
<path d="M1118.39 282.861C1116.54 283.056 1112.48 281.563 1110.68 280.793C1110.29 282.374 1109.26 287.727 1107.6 294.54C1106.26 299.99 1103.61 306.299 1102.46 308.773C1103.48 310.598 1105.41 308.651 1106.44 308.773C1107.47 308.895 1108.11 306.34 1110.16 306.948C1112.22 307.556 1111.45 307.921 1116.07 307.313C1120.7 306.705 1120.83 304.393 1120.05 301.595C1119.44 299.357 1117.66 298.635 1116.84 298.554C1114.53 296.608 1114.92 296.729 1116.07 294.54C1117.23 292.35 1123.01 291.377 1121.6 290.16C1120.47 289.187 1121.13 288.376 1121.6 288.092C1126.99 283.834 1123.91 280.793 1121.6 280.793C1119.28 280.793 1120.7 282.618 1118.39 282.861Z" fill="#DCFC73"/>
<path d="M1104.84 323.028C1104.34 321.826 1107.38 319.439 1108.97 318.395L1119.36 317.895C1121.28 319.063 1124.34 322.151 1121.24 325.156C1117.36 328.912 1115.98 327.159 1114.98 327.034C1113.98 326.909 1115.23 323.028 1110.97 325.782C1106.71 328.536 1105.46 324.53 1104.84 323.028Z" fill="#DCFC73"/>
<path d="M1123.24 300.117C1123.44 302.02 1122.57 302.162 1122.11 301.995L1122.36 287.848H1131C1131.75 288.599 1131.38 290.101 1130.75 291.478C1130.13 292.856 1127.75 292.73 1127.62 292.73C1127.5 292.73 1126.87 292.981 1127 294.984C1127.12 296.987 1126.37 297.989 1126.25 298.239C1126.12 298.49 1125.49 299.116 1124.62 299.116C1123.74 299.116 1122.99 297.738 1123.24 300.117Z" fill="#DCFC73"/>
<path d="M1141.77 304.842C1142.39 302.9 1142.88 287.088 1143.05 279.364L1127.13 279.242C1126.41 286.036 1125.25 300.668 1126.37 304.842C1127.77 310.059 1130.19 310.423 1135.41 310.423C1140.63 310.423 1141.01 307.268 1141.77 304.842Z" fill="#222222"/>
<path d="M1140.63 281.305C1140.5 287.917 1140.15 301.557 1139.72 303.219C1139.17 305.296 1138.9 307.996 1135.18 307.996C1131.46 307.996 1129.73 307.684 1128.73 303.219C1128.58 298.704 1128.5 288.002 1129.42 281.305" stroke="#DCFC73" stroke-width="2" stroke-dasharray="12 12"/>
<path d="M1254.72 335.4C1259.91 337.34 1260.11 343.765 1259.56 346.069C1248.78 346.351 1226.57 346.117 1223.92 346.311C1220.61 346.553 1208.9 344.371 1205.08 340.734C1202.03 337.825 1190.28 331.157 1185.35 327.884C1185.05 328.854 1188.03 340.492 1189.55 346.19L1164.61 346.19C1163.08 338.31 1163.46 320.489 1163.59 319.276C1163.72 318.064 1167.28 279.149 1168.94 279.149C1170.26 279.149 1197.74 278.826 1211.32 278.664C1212.72 288.847 1216.03 302.91 1223.92 316.609C1231.81 330.308 1248.23 332.976 1254.72 335.4Z" fill="#DCFC73"/>
<path d="M1174.73 293.569C1170.21 293.859 1167.62 290.876 1166.89 289.348C1166.28 289.348 1164.15 310.898 1163.17 321.674L1169.59 321.674C1169.59 320.347 1170.47 317.766 1173.96 318.055C1178.33 318.417 1176.92 315.643 1176.4 315.522C1175.89 315.401 1173.96 314.436 1174.73 313.351C1175.5 312.265 1175.76 310.577 1174.73 309.853C1173.7 309.129 1170.75 303.219 1173.96 303.098C1177.17 302.978 1180.39 293.207 1174.73 293.569Z" fill="#DCFC73"/>
<path d="M1259.68 342.443C1259.88 342.831 1259.68 345.027 1259.55 346.077C1234.34 347.045 1218.94 346.561 1215.76 345.592C1212.58 344.623 1203.92 342.564 1200.74 339.536C1198.19 337.114 1188.65 330.291 1185.34 328.272C1185.03 329.241 1188.01 340.546 1189.54 346.077L1164.33 346.077C1163.19 336.145 1163.32 320.036 1163.82 319.794C1164.33 319.552 1173.12 320.521 1181.14 322.701C1189.16 324.881 1195.9 332.027 1203.54 337.356C1211.18 342.685 1214.87 342.443 1222.89 343.533C1229.3 344.405 1250.09 343.17 1259.68 342.443Z" fill="#222222" stroke="#222222"/>
<path d="M1203.87 282.65C1205.72 282.845 1209.78 281.353 1211.58 280.582C1211.97 282.164 1212.99 287.516 1214.66 294.329C1216 299.779 1218.64 306.088 1219.8 308.562C1218.77 310.387 1216.85 308.44 1215.82 308.562C1214.79 308.684 1214.15 306.129 1212.09 306.737C1210.04 307.345 1210.81 307.71 1206.18 307.102C1201.56 306.494 1201.43 304.182 1202.2 301.385C1202.82 299.146 1204.6 298.424 1205.41 298.343C1207.73 296.397 1207.34 296.518 1206.18 294.329C1205.03 292.139 1199.25 291.166 1200.66 289.949C1201.79 288.976 1201.13 288.165 1200.66 287.881C1195.27 283.623 1198.35 280.582 1200.66 280.582C1202.97 280.582 1201.56 282.407 1203.87 282.65Z" fill="#DCFC73"/>
<path d="M1180.48 304.631C1179.87 302.69 1179.38 286.877 1179.21 279.153L1195.13 279.031C1195.85 285.825 1197.01 300.457 1195.89 304.631C1194.49 309.848 1192.07 310.212 1186.85 310.212C1181.63 310.212 1181.25 307.057 1180.48 304.631Z" fill="#222222"/>
<path d="M1181.63 281.098C1181.75 287.71 1182.1 301.35 1182.54 303.012C1183.08 305.089 1183.36 307.789 1187.08 307.789C1190.8 307.789 1192.53 307.477 1193.52 303.012C1193.68 298.497 1193.75 287.795 1192.84 281.098" stroke="#DCFC73" stroke-width="2" stroke-dasharray="12 12"/>
<path d="M442.828 437.49C448.021 439.43 448.216 445.855 447.665 448.158C436.889 448.441 414.675 448.207 412.028 448.401C408.719 448.643 397.01 446.461 393.191 442.824C390.137 439.915 378.385 433.247 373.464 429.974C373.159 430.944 376.137 442.582 377.664 448.28H352.718C351.191 440.4 351.573 422.579 351.7 421.366C351.828 420.154 355.391 381.239 357.046 381.239C358.369 381.239 385.852 380.916 399.428 380.754C400.828 390.937 404.137 405 412.028 418.699C419.919 432.398 436.337 435.065 442.828 437.49Z" fill="#E1D2F3"/>
<path d="M362.841 395.659C358.318 395.949 355.73 392.965 355.002 391.438C354.385 391.438 352.261 412.988 351.275 423.763H357.701C357.701 422.437 358.574 419.855 362.07 420.145C366.439 420.507 365.025 417.732 364.511 417.612C363.997 417.491 362.07 416.526 362.841 415.441C363.612 414.355 363.869 412.666 362.841 411.943C361.813 411.219 358.857 405.309 362.07 405.188C365.283 405.067 368.495 395.297 362.841 395.659Z" fill="#E1D2F3"/>
<path d="M447.789 444.529C447.992 444.917 447.789 447.113 447.661 448.163C422.458 449.131 407.055 448.647 403.873 447.678C400.691 446.709 392.035 444.65 388.853 441.622C386.307 439.2 376.76 432.377 373.45 430.358C373.145 431.327 376.123 442.632 377.651 448.163H352.447C351.301 438.231 351.429 422.122 351.938 421.88C352.447 421.638 361.23 422.607 369.25 424.787C377.269 426.967 384.015 434.113 391.653 439.442C399.29 444.771 402.982 444.529 411.001 445.619C417.417 446.491 438.199 445.256 447.789 444.529Z" fill="#222222" stroke="#222222"/>
<path d="M391.982 384.74C393.832 384.935 397.891 383.442 399.689 382.672C400.075 384.253 401.102 389.606 402.772 396.419C404.108 401.869 406.754 408.178 407.91 410.652C406.883 412.477 404.956 410.53 403.928 410.652C402.901 410.773 402.258 408.219 400.203 408.827C398.148 409.435 398.919 409.8 394.294 409.192C389.67 408.584 389.541 406.272 390.312 403.474C390.929 401.236 392.71 400.514 393.524 400.433C395.836 398.487 395.45 398.608 394.294 396.419C393.138 394.229 387.358 393.256 388.771 392.039C389.901 391.066 389.242 390.255 388.771 389.971C383.376 385.713 386.459 382.672 388.771 382.672C391.083 382.672 389.67 384.497 391.982 384.74Z" fill="#E1D2F3"/>
<path d="M368.593 406.717C367.982 404.775 367.49 388.963 367.32 381.239L383.235 381.117C383.957 387.911 385.12 402.543 383.999 406.717C382.599 411.934 380.18 412.298 374.959 412.298C369.739 412.298 369.357 409.143 368.593 406.717Z" fill="#222222"/>
<path d="M369.742 383.184C369.863 389.796 370.214 403.436 370.649 405.097C371.194 407.175 371.466 409.875 375.188 409.875C378.91 409.875 380.634 409.563 381.633 405.097C381.786 400.583 381.863 389.881 380.946 383.184" stroke="#E1D2F3" stroke-width="2" stroke-dasharray="12 12"/>
<path d="M255.648 437.279C250.456 439.219 250.26 445.644 250.812 447.947C261.588 448.23 283.802 447.996 286.449 448.19C289.758 448.432 301.467 446.25 305.285 442.613C308.34 439.704 320.091 433.036 325.013 429.763C325.318 430.733 322.34 442.371 320.813 448.069L345.758 448.069C347.285 440.189 346.904 422.368 346.776 421.155C346.649 419.943 343.085 381.028 341.431 381.028C340.107 381.028 312.625 380.705 299.049 380.543C297.649 390.726 294.34 404.789 286.449 418.488C278.558 432.187 262.14 434.854 255.648 437.279Z" fill="#E1D2F3"/>
<path d="M335.636 395.448C340.159 395.738 342.746 392.754 343.474 391.227C344.091 391.227 346.216 412.777 347.201 423.552L340.776 423.552C340.776 422.226 339.902 419.644 336.407 419.934C332.037 420.296 333.451 417.522 333.965 417.401C334.479 417.28 336.407 416.315 335.636 415.23C334.865 414.144 334.608 412.456 335.636 411.732C336.663 411.008 339.619 405.098 336.407 404.977C333.194 404.857 329.981 395.086 335.636 395.448Z" fill="#E1D2F3"/>
<path d="M250.692 444.322C250.488 444.71 250.692 446.906 250.819 447.956C276.023 448.924 291.425 448.44 294.608 447.471C297.79 446.502 306.446 444.443 309.628 441.415C312.174 438.993 321.721 432.17 325.03 430.151C325.336 431.12 322.357 442.425 320.83 447.956L346.033 447.956C347.179 438.024 347.052 421.915 346.543 421.673C346.033 421.431 337.25 422.4 329.231 424.58C321.211 426.76 314.465 433.906 306.828 439.235C299.19 444.564 295.499 444.322 287.479 445.412C281.064 446.284 260.281 445.049 250.692 444.322Z" fill="#222222" stroke="#222222"/>
<path d="M306.494 384.529C304.645 384.724 300.586 383.231 298.787 382.461C298.402 384.042 297.374 389.395 295.704 396.208C294.369 401.658 291.722 407.967 290.566 410.441C291.594 412.266 293.521 410.319 294.548 410.441C295.576 410.563 296.218 408.008 298.274 408.616C300.329 409.224 299.558 409.589 304.182 408.981C308.807 408.373 308.935 406.061 308.164 403.263C307.548 401.025 305.767 400.303 304.953 400.222C302.641 398.276 303.026 398.397 304.182 396.208C305.338 394.018 311.119 393.045 309.706 391.828C308.575 390.855 309.235 390.044 309.706 389.76C315.101 385.502 312.018 382.461 309.706 382.461C307.394 382.461 308.807 384.286 306.494 384.529Z" fill="#E1D2F3"/>
<path d="M325.135 404.941C325.335 406.844 324.467 406.986 324.008 406.819L324.258 392.672L332.897 392.672C333.648 393.423 333.273 394.925 332.647 396.303C332.021 397.68 329.642 397.555 329.517 397.555C329.391 397.555 328.766 397.805 328.891 399.808C329.016 401.811 328.265 402.813 328.14 403.063C328.015 403.314 327.389 403.94 326.512 403.94C325.636 403.94 324.884 402.562 325.135 404.941Z" fill="#E1D2F3"/>
<path d="M329.883 406.51C330.494 404.568 330.987 388.756 331.157 381.031L315.241 380.91C314.52 387.704 313.357 402.336 314.477 406.51C315.878 411.726 318.297 412.09 323.517 412.09C328.738 412.09 329.12 408.936 329.883 406.51Z" fill="#222222"/>
<path d="M328.739 382.977C328.618 389.589 328.267 403.229 327.831 404.89C327.287 406.968 327.014 409.668 323.292 409.668C319.571 409.668 317.846 409.356 316.848 404.89C316.695 400.376 316.618 389.674 317.534 382.977" stroke="#E1D2F3" stroke-width="2" stroke-dasharray="12 12"/>
<path d="M290.959 431.011C292.055 427.46 296.233 426.825 298.185 426.952C300.926 427.586 301.924 431.011 300.304 432.025C298.684 433.04 296.441 435.577 296.192 436.084C295.908 436.662 295.07 441.918 292.329 440.142C289.588 438.367 289.588 435.45 290.959 431.011Z" fill="#E1D2F3"/>
<path d="M948.707 437.486C943.514 439.426 943.319 445.851 943.871 448.154C954.647 448.437 976.86 448.203 979.507 448.397C982.817 448.639 994.526 446.457 998.344 442.82C1001.4 439.911 1013.15 433.243 1018.07 429.97C1018.38 430.94 1015.4 442.578 1013.87 448.276H1038.82C1040.34 440.396 1039.96 422.575 1039.83 421.362C1039.71 420.15 1036.14 381.235 1034.49 381.235C1033.17 381.235 1005.68 380.912 992.107 380.75C990.707 390.933 987.398 404.996 979.507 418.695C971.616 432.394 955.198 435.061 948.707 437.486Z" fill="#E1D2F3"/>
<path d="M1028.69 395.655C1033.22 395.945 1035.8 392.961 1036.53 391.434C1037.15 391.434 1039.27 412.984 1040.26 423.76H1033.83C1033.83 422.433 1032.96 419.851 1029.47 420.141C1025.1 420.503 1026.51 417.729 1027.02 417.608C1027.54 417.487 1029.47 416.522 1028.69 415.437C1027.92 414.351 1027.67 412.663 1028.69 411.939C1029.72 411.215 1032.68 405.305 1029.47 405.184C1026.25 405.064 1023.04 395.293 1028.69 395.655Z" fill="#E1D2F3"/>
<path d="M943.747 444.525C943.543 444.913 943.747 447.109 943.874 448.159C969.078 449.127 984.48 448.643 987.662 447.674C990.845 446.705 999.5 444.646 1002.68 441.618C1005.23 439.196 1014.78 432.373 1018.08 430.354C1018.39 431.323 1015.41 442.628 1013.88 448.159H1039.09C1040.23 438.227 1040.11 422.118 1039.6 421.876C1039.09 421.634 1030.3 422.603 1022.29 424.783C1014.27 426.963 1007.52 434.109 999.882 439.438C992.245 444.767 988.553 444.525 980.534 445.615C974.118 446.487 953.336 445.252 943.747 444.525Z" fill="#222222" stroke="#222222"/>
<path d="M999.553 384.736C997.703 384.931 993.644 383.438 991.846 382.668C991.461 384.249 990.433 389.602 988.763 396.415C987.427 401.865 984.781 408.174 983.625 410.648C984.653 412.473 986.579 410.526 987.607 410.648C988.635 410.77 989.277 408.215 991.332 408.823C993.387 409.431 992.617 409.796 997.241 409.188C1001.87 408.58 1001.99 406.268 1001.22 403.47C1000.61 401.232 998.825 400.51 998.012 400.429C995.7 398.483 996.085 398.604 997.241 396.415C998.397 394.225 1004.18 393.252 1002.76 392.035C1001.63 391.062 1002.29 390.251 1002.76 389.967C1008.16 385.709 1005.08 382.668 1002.76 382.668C1000.45 382.668 1001.87 384.493 999.553 384.736Z" fill="#E1D2F3"/>
<path d="M988.453 428.063C987.952 426.861 990.999 424.474 992.585 423.43L1002.98 422.93C1004.9 424.098 1007.96 427.186 1004.86 430.191C1000.97 433.947 999.597 432.194 998.595 432.069C997.594 431.944 998.845 428.063 994.588 430.817C990.332 433.572 989.08 429.565 988.453 428.063Z" fill="#E1D2F3"/>
<path d="M1006.85 405.152C1007.05 407.055 1006.19 407.197 1005.73 407.03L1005.98 392.883H1014.62C1015.37 393.634 1014.99 395.136 1014.37 396.514C1013.74 397.891 1011.36 397.766 1011.24 397.766C1011.11 397.766 1010.48 398.016 1010.61 400.019C1010.74 402.022 1009.98 403.024 1009.86 403.274C1009.73 403.525 1009.11 404.151 1008.23 404.151C1007.35 404.151 1006.6 402.773 1006.85 405.152Z" fill="#E1D2F3"/>
<path d="M1022.94 406.713C1023.55 404.772 1024.05 388.959 1024.22 381.235L1008.3 381.113C1007.58 387.907 1006.42 402.539 1007.54 406.713C1008.94 411.93 1011.36 412.294 1016.58 412.294C1021.8 412.294 1022.18 409.139 1022.94 406.713Z" fill="#222222"/>
<path d="M1021.79 383.18C1021.67 389.792 1021.32 403.432 1020.89 405.094C1020.34 407.171 1020.07 409.871 1016.35 409.871C1012.63 409.871 1010.9 409.559 1009.9 405.094C1009.75 400.579 1009.67 389.877 1010.59 383.18" stroke="#E1D2F3" stroke-width="2" stroke-dasharray="12 12"/>
<path d="M1135.89 437.275C1141.08 439.215 1141.27 445.64 1140.72 447.944C1129.95 448.226 1107.73 447.992 1105.09 448.186C1101.78 448.428 1090.07 446.246 1086.25 442.609C1083.2 439.7 1071.44 433.032 1066.52 429.759C1066.22 430.729 1069.2 442.367 1070.72 448.065L1045.78 448.065C1044.25 440.185 1044.63 422.364 1044.76 421.151C1044.89 419.939 1048.45 381.024 1050.1 381.024C1051.43 381.024 1078.91 380.701 1092.49 380.539C1093.89 390.722 1097.2 404.785 1105.09 418.484C1112.98 432.183 1129.4 434.851 1135.89 437.275Z" fill="#E1D2F3"/>
<path d="M1055.9 395.444C1051.38 395.734 1048.79 392.751 1048.06 391.223C1047.44 391.223 1045.32 412.773 1044.33 423.549L1050.76 423.549C1050.76 422.222 1051.63 419.641 1055.13 419.93C1059.5 420.292 1058.08 417.518 1057.57 417.397C1057.06 417.276 1055.13 416.311 1055.9 415.226C1056.67 414.14 1056.93 412.452 1055.9 411.728C1054.87 411.004 1051.92 405.094 1055.13 404.973C1058.34 404.853 1061.55 395.082 1055.9 395.444Z" fill="#E1D2F3"/>
<path d="M1140.85 444.318C1141.05 444.706 1140.85 446.902 1140.72 447.952C1115.52 448.92 1100.11 448.436 1096.93 447.467C1093.75 446.498 1085.09 444.439 1081.91 441.411C1079.37 438.989 1069.82 432.166 1066.51 430.147C1066.2 431.116 1069.18 442.421 1070.71 447.952L1045.51 447.952C1044.36 438.02 1044.49 421.911 1045 421.669C1045.51 421.427 1054.29 422.396 1062.31 424.576C1070.33 426.756 1077.07 433.902 1084.71 439.231C1092.35 444.56 1096.04 444.318 1104.06 445.408C1110.48 446.28 1131.26 445.045 1140.85 444.318Z" fill="#222222" stroke="#222222"/>
<path d="M1085.04 384.525C1086.89 384.72 1090.95 383.228 1092.75 382.457C1093.13 384.039 1094.16 389.391 1095.83 396.204C1097.17 401.654 1099.81 407.963 1100.97 410.437C1099.94 412.262 1098.01 410.315 1096.99 410.437C1095.96 410.559 1095.32 408.004 1093.26 408.612C1091.21 409.22 1091.98 409.585 1087.35 408.977C1082.73 408.369 1082.6 406.057 1083.37 403.26C1083.99 401.021 1085.77 400.299 1086.58 400.218C1088.89 398.272 1088.51 398.393 1087.35 396.204C1086.2 394.014 1080.42 393.041 1081.83 391.824C1082.96 390.851 1082.3 390.04 1081.83 389.756C1076.43 385.498 1079.52 382.457 1081.83 382.457C1084.14 382.457 1082.73 384.282 1085.04 384.525Z" fill="#E1D2F3"/>
<path d="M1061.65 406.506C1061.04 404.565 1060.55 388.752 1060.38 381.028L1076.29 380.906C1077.02 387.7 1078.18 402.332 1077.06 406.506C1075.66 411.723 1073.24 412.087 1068.02 412.087C1062.8 412.087 1062.42 408.932 1061.65 406.506Z" fill="#222222"/>
<path d="M1062.8 382.973C1062.92 389.585 1063.27 403.225 1063.71 404.887C1064.25 406.964 1064.52 409.664 1068.25 409.664C1071.97 409.664 1073.69 409.352 1074.69 404.887C1074.84 400.372 1074.92 389.67 1074 382.973" stroke="#E1D2F3" stroke-width="2" stroke-dasharray="12 12"/>
<path d="M1091.63 678.242C1090.31 711.847 1105.05 753.022 1112.59 769.408L1206.63 739.231C1207.56 735.316 1206.85 729.138 1205.09 721.752C1204.3 718.477 1203.32 714.964 1202.18 711.306C1196.08 691.697 1185.6 667.914 1178.92 654.145C1204.54 642.254 1211.43 549.423 1203.48 529.338C1195.53 509.254 1186.46 506.94 1183.5 507.153C1180.55 507.366 1170.52 505.92 1181.1 535.517C1191.68 565.114 1166.24 636.569 1164.54 630.414L1159.14 610.831C1175.8 587.442 1165.43 555.098 1158.16 541.851L1124.38 484.936L1119.16 542.379L1105.73 546.087L1070.1 499.92C1071.14 509.877 1074.13 533.254 1069.75 566.257C1065.37 599.261 1082.42 623.78 1091.49 631.914C1091.11 639.247 1092.7 648.643 1093.54 652.425C1071.06 642.975 1049.17 590.995 1050.23 588.293C1051.29 585.592 1039.07 552.233 1025.5 561.999C1014.65 569.812 1023.7 588.189 1029.58 596.401C1040.2 657.542 1079.54 675.158 1091.63 678.242Z" fill="#DCFC73" stroke="#222222" stroke-width="5" stroke-linecap="round"/>
<path d="M1112.04 596.183C1117.31 580.61 1133.05 554.839 1153.83 576.343C1179.82 603.222 1098.63 639.056 1112.04 596.183Z" fill="#BFD966"/>
<path d="M1106.86 596.33C1114.33 578.303 1134.24 548.48 1154.09 573.394" stroke="#DCFC73" stroke-width="2" stroke-linecap="round"/>
<path d="M977.599 572.381C973.503 572.483 971.303 567.911 970.93 566.092C978.041 562.776 992.965 556.528 994.672 555.624C996.805 554.493 1005.33 552.683 1009.06 554.2C1012.04 555.414 1022.04 556.823 1026.38 557.76C1026.28 556.973 1020.54 549.449 1017.68 545.785L1034.35 538.58C1037.91 543.815 1043.4 556.764 1043.7 557.674C1044.01 558.584 1054.16 587.647 1053.06 588.125C1052.17 588.508 1033.91 596.679 1024.89 600.717C1020.67 593.785 1013.93 584.61 1004.24 577.021C994.553 569.431 982.719 572.253 977.599 572.381Z" fill="#336DFD"/>
<path d="M1044.54 579.412C1047.47 577.897 1050.16 579.299 1051.14 580.189C1051.55 580.011 1046.03 563.872 1043.22 555.825L1038.92 557.681C1039.35 558.637 1039.6 560.749 1037.17 561.55C1034.13 562.551 1035.97 564.141 1036.35 564.08C1036.74 564.018 1038.33 564.157 1038.17 565.161C1038 566.166 1038.38 567.457 1039.3 567.681C1040.22 567.906 1044.1 571.31 1041.99 572.325C1039.88 573.34 1040.88 581.306 1044.54 579.412Z" fill="#336DFD"/>
<path d="M972.019 568.742C971.758 568.522 971.187 566.881 970.934 566.088C987.468 558.11 997.919 554.01 1000.36 553.788C1002.8 553.567 1009.25 552.55 1012.35 553.812C1014.83 554.822 1023.41 556.98 1026.27 557.478C1026.16 556.691 1020.53 549.408 1017.73 545.865L1034.58 538.585C1038.54 545.409 1043.65 557.05 1043.38 557.372C1043.12 557.693 1036.94 559.532 1030.88 560.278C1024.81 561.024 1018 557.825 1011.18 556.192C1004.36 554.559 1001.97 555.8 996.257 557.331C991.688 558.556 978.195 565.449 972.019 568.742Z" fill="#222222" stroke="#222222"/>
<path d="M1028.58 595.694C1027.28 596.089 1025.05 598.336 1024.09 599.411C1023.33 598.383 1020.91 594.823 1017.6 590.398C1014.95 586.858 1011.15 583.077 1009.58 581.629C1009.68 580.017 1011.6 580.863 1012.25 580.478C1012.89 580.094 1014.15 581.749 1015.32 580.717C1016.5 579.685 1015.87 579.645 1019.16 578.747C1022.44 577.85 1023.27 579.478 1023.66 581.716C1023.97 583.507 1023.01 584.541 1022.49 584.835C1021.57 586.905 1021.79 586.706 1023.27 587.949C1024.75 589.193 1028.93 588.224 1028.37 589.509C1027.93 590.536 1028.63 590.93 1029.04 590.998C1034.02 592.507 1032.94 595.589 1031.39 596.257C1029.85 596.925 1030.2 595.202 1028.58 595.694Z" fill="#336DFD"/>
<path d="M1023.26 590.66C1023.31 591.674 1026.1 592.502 1027.49 592.789L1034.58 590.102C1035.49 588.695 1036.56 585.569 1033.53 584.312C1029.75 582.741 1029.39 584.41 1028.76 584.794C1028.13 585.178 1030.2 587.611 1026.48 586.873C1022.77 586.134 1023.2 589.392 1023.26 590.66Z" fill="#336DFD"/>
<path d="M1037.13 573.103C1038.17 574.325 1043.59 585.574 1046.19 591.089L1035.59 595.774C1032.92 591.088 1027.43 580.883 1026.83 577.553C1026.09 573.39 1027.59 572.429 1031.08 570.921C1034.57 569.413 1035.84 571.575 1037.13 573.103Z" fill="#222222"/>
<path d="M1043.95 590.39C1041.74 585.661 1037.11 575.937 1036.28 574.865C1035.25 573.526 1034.2 571.66 1031.71 572.735C1029.22 573.81 1028.17 574.532 1028.94 578.038C1030.29 581.334 1033.69 589.066 1036.46 593.626" stroke="#336DFD" stroke-width="2" stroke-dasharray="12 12"/>
<path d="M1220.41 472.686C1223.5 470.075 1221.99 465.227 1221.02 463.628C1213.49 465.824 1198.18 470.962 1196.3 471.408C1193.95 471.966 1186.41 476.214 1184.7 479.786C1183.33 482.644 1176.91 490.255 1174.35 493.802C1173.89 493.145 1172.96 483.778 1172.56 479.176L1155.3 484.749C1156.26 490.982 1161.1 504.222 1161.5 505.1C1161.89 505.978 1174.34 534.279 1175.48 533.91C1176.4 533.614 1195.49 527.716 1204.93 524.804C1203.29 516.877 1201.97 505.623 1203.92 493.617C1205.86 481.611 1216.54 475.949 1220.41 472.686Z" fill="#336DFD"/>
<path d="M1175.79 521.832C1172.59 522.626 1171.57 525.435 1171.45 526.74C1171.03 526.878 1164.03 511.239 1160.59 503.402L1165.03 501.967C1165.37 502.959 1166.64 504.693 1168.98 503.696C1171.91 502.449 1171.65 504.84 1171.32 505.045C1171 505.25 1169.91 506.402 1170.72 507.041C1171.53 507.681 1172.15 508.886 1171.62 509.657C1171.09 510.427 1170.56 515.507 1172.82 514.879C1175.07 514.252 1179.8 520.839 1175.79 521.832Z" fill="#336DFD"/>
<path d="M1202.68 493.921C1204.1 491.228 1203.46 487.939 1202.96 486.631L1202.74 485.983C1201.68 486.37 1199.27 487.261 1198.12 487.728C1196.67 488.312 1191.66 493.269 1191.26 493.506C1190.86 493.743 1182.47 507.95 1182.5 508.042C1182.53 508.135 1183.61 509.628 1185.36 509.97C1187.11 510.313 1188.16 508.832 1188.58 507.767C1189 506.703 1188.47 506.263 1192.1 507.317C1195.73 508.372 1195.66 502.945 1194.28 502.579C1193.18 502.287 1192.79 501.088 1192.73 500.525C1193.24 495.109 1196.47 496.401 1196.78 496.193C1197.1 495.985 1200.91 497.288 1202.68 493.921Z" fill="#336DFD"/>
<path d="M1222.03 466.315C1222.07 465.98 1221.37 464.383 1221.01 463.627C1203.32 468.533 1192.79 472.336 1190.84 473.771C1188.89 475.207 1183.43 478.68 1182 481.655C1180.86 484.035 1176.01 491.269 1174.23 493.518C1173.77 492.862 1172.94 483.744 1172.57 479.267L1155.14 484.898C1156.89 492.58 1161.11 504.596 1161.52 504.663C1161.94 504.731 1167.77 502.044 1172.76 498.622C1177.75 495.201 1180.58 488.351 1184.5 482.66C1188.42 476.969 1191.03 476.325 1196.3 473.718C1200.51 471.633 1215.21 467.914 1222.03 466.315Z" fill="#222222" stroke="#222222"/>
<path d="M1198.75 523.485C1199.98 522.926 1203.18 523.135 1204.62 523.309C1204.48 522.041 1203.82 517.809 1203.23 512.342C1202.75 507.968 1202.96 502.659 1203.13 500.552C1201.95 499.417 1201.12 501.303 1200.38 501.441C1199.63 501.58 1199.84 503.634 1198.27 503.638C1196.69 503.642 1197.13 503.197 1194.08 504.685C1191.04 506.173 1191.55 507.93 1192.8 509.85C1193.8 511.386 1195.21 511.528 1195.8 511.406C1197.9 512.345 1197.6 512.34 1197.36 514.236C1197.12 516.132 1193.37 518.151 1194.66 518.745C1195.69 519.22 1195.44 519.973 1195.19 520.291C1192.55 524.68 1195.46 526.265 1197.06 525.748C1198.66 525.232 1197.22 524.183 1198.75 523.485Z" fill="#336DFD"/>
<path d="M1192.76 516.014C1193.41 516.798 1191.89 519.284 1191.06 520.429L1183.99 523.196C1182.37 522.764 1179.49 521.161 1180.89 518.199C1182.64 514.497 1184.03 515.491 1184.75 515.354C1185.47 515.217 1185.57 518.407 1187.83 515.367C1190.09 512.328 1191.96 515.035 1192.76 516.014Z" fill="#336DFD"/>
<path d="M1176.94 512.276C1177.01 513.864 1180.73 525.797 1182.59 531.611L1193.63 528.146C1192.39 522.904 1189.44 511.704 1187.6 508.834C1185.29 505.246 1183.52 505.514 1179.91 506.681C1176.3 507.847 1176.85 510.291 1176.94 512.276Z" fill="#222222"/>
<path d="M1183.77 529.619C1182.16 524.648 1178.9 514.371 1178.78 513.031C1178.62 511.356 1178.12 509.276 1180.69 508.445C1183.27 507.613 1184.54 507.461 1186.37 510.577C1187.64 513.918 1190.44 521.903 1191.52 527.116" stroke="#336DFD" stroke-width="2" stroke-dasharray="12 12"/>
<path d="M1202.89 510.021C1203.01 512.929 1200.28 514.365 1198.9 514.719C1196.84 514.876 1195.3 512.545 1196.17 511.414C1197.04 510.282 1197.96 507.869 1198 507.433C1198.06 506.935 1197.33 502.812 1199.67 503.509C1202.01 504.205 1202.73 506.386 1202.89 510.021Z" fill="#336DFD"/>
<path d="M1164.58 673.052C1127.3 632.277 1112.86 666.051 1110.3 688.036C1110.64 700.185 1114.19 726.105 1125.61 732.586C1139.89 740.687 1211.16 724.02 1164.58 673.052Z" fill="#BFD966"/>
<path d="M1185.71 596.542C1184.69 607.659 1177.93 626.796 1174.68 634.975C1174.09 637.863 1173.6 643.497 1176.32 642.934C1179.74 642.23 1182.54 635.723 1185.48 632.744C1188.42 629.765 1199.49 597.252 1198.53 589.745C1197.57 582.237 1186.99 582.645 1185.71 596.542Z" fill="#BFD966"/>
<path d="M1061.69 627.908C1066.65 637.91 1079.85 653.327 1085.83 659.786C1087.42 662.268 1089.91 667.345 1087.16 667.803C1083.72 668.375 1078.76 663.316 1074.95 661.597C1071.13 659.877 1049.09 633.535 1047.28 626.186C1045.47 618.838 1055.49 615.405 1061.69 627.908Z" fill="#BFD966"/>
<path d="M1097.89 579.682C1099.94 578.99 1104.67 578.502 1107.22 582.084C1110.4 586.562 1100.01 589.271 1099.71 589.17C1099.56 589.793 1099.33 590.481 1099.04 591.168C1099.24 590.457 1099.47 589.778 1099.71 589.17C1099.42 589.068 1095.22 584.656 1097.89 579.682Z" fill="#222222"/>
<path d="M1099.71 589.17C1100.01 589.271 1110.4 586.562 1107.22 582.084C1104.67 578.502 1099.94 578.99 1097.89 579.682C1095.22 584.656 1099.42 589.068 1099.71 589.17ZM1099.71 589.17C1098.76 592.913 1095.43 598.978 1089.75 593.292M1099.71 589.17C1097.93 593.607 1096.76 601.798 1106.36 599.068" stroke="#222222" stroke-width="3" stroke-linecap="round"/>
<path d="M1251.65 612.142C1257.31 652.527 1241.82 669.194 1199.29 698.964L1191.99 676.532C1225.01 653.42 1224.55 635.995 1223.89 622.98C1222.85 602.203 1205.95 541.992 1231.27 508.007C1268.93 457.483 1288.43 483.165 1278.14 496.951C1247.72 537.695 1240.9 535.427 1251.65 612.142Z" fill="#DCFC73" stroke="#222222" stroke-width="5"/>
<path d="M1197.55 699.545C1244.56 676.907 1255.01 648.464 1251.65 612.142C1244.51 535.007 1247.72 537.695 1278.14 496.951C1288.43 483.165 1268.93 457.483 1231.27 508.007C1205.95 541.992 1222.85 602.203 1223.89 622.98C1224.55 635.995 1223.6 653.794 1190.58 676.907" stroke="#222222" stroke-width="5"/>
<circle cx="610.008" cy="482.004" r="14" fill="#222222"/>
<path d="M1273.54 134.533C1273.44 134.696 1272.91 135.114 1272.24 135.637C1271.63 136.111 1270.83 136.669 1269.56 137.422C1265.86 139.629 1264.71 139.733 1262.97 140.402C1258.22 142.224 1257.31 142.363 1256.28 142.727C1254.59 143.328 1253.48 143.51 1251.13 144.114C1249.65 144.492 1248.4 144.941 1247.43 145.177C1246.7 145.357 1245.81 145.613 1245.12 145.715C1244.47 145.9 1243.84 145.981 1243.12 146.13C1242.88 146.18 1242.57 146.246 1241.82 146.385" stroke="#222222" stroke-width="4" stroke-linecap="round"/>
<path d="M105.496 134.533C105.603 134.696 106.126 135.114 106.8 135.637C107.411 136.111 108.212 136.669 109.475 137.422C113.179 139.629 114.326 139.733 116.069 140.402C120.814 142.224 121.731 142.363 122.759 142.727C124.452 143.328 125.556 143.51 127.913 144.114C129.386 144.492 130.641 144.941 131.607 145.177C132.344 145.357 133.233 145.613 133.922 145.715C134.574 145.9 135.196 145.981 135.923 146.13C136.16 146.18 136.465 146.246 137.219 146.385" stroke="#222222" stroke-width="4" stroke-linecap="round"/>
<path d="M1118.14 584.976C1118.29 585.064 1118.86 585.168 1119.59 585.288C1120.24 585.397 1121.08 585.486 1122.34 585.514C1126.04 585.597 1126.94 585.12 1128.53 584.838C1132.84 584.071 1133.59 583.737 1134.51 583.544C1136.03 583.228 1136.93 582.839 1138.94 582.197C1140.2 581.795 1141.33 581.564 1142.15 581.29C1142.78 581.082 1143.55 580.864 1144.11 580.611C1144.67 580.449 1145.17 580.211 1145.78 579.98C1145.98 579.907 1146.23 579.813 1146.85 579.56" stroke="#222222" stroke-width="3.5" stroke-linecap="round"/>
<path d="M1086.75 586.474C1086.62 586.59 1086.08 586.801 1085.4 587.059C1084.77 587.292 1083.97 587.54 1082.74 587.811C1079.12 588.606 1078.14 588.311 1076.53 588.34C1072.15 588.418 1071.36 588.234 1070.42 588.223C1068.87 588.204 1067.91 587.997 1065.81 587.754C1064.49 587.603 1063.34 587.594 1062.48 587.483C1061.83 587.399 1061.03 587.335 1060.43 587.194C1059.85 587.143 1059.31 587.006 1058.67 586.896C1058.46 586.862 1058.2 586.82 1057.54 586.692" stroke="#222222" stroke-width="3.5" stroke-linecap="round"/>
<path d="M1271.37 130.045C1271.23 130.183 1270.64 130.488 1269.87 130.865C1269.18 131.207 1268.28 131.593 1266.89 132.078C1262.82 133.499 1261.68 133.37 1259.83 133.677C1254.82 134.512 1253.89 134.464 1252.81 134.615C1251.04 134.864 1249.92 134.822 1247.49 134.941C1245.97 135.016 1244.65 135.205 1243.65 135.243C1242.9 135.271 1241.97 135.345 1241.28 135.306C1240.6 135.357 1239.98 135.311 1239.24 135.312C1238.99 135.313 1238.68 135.317 1237.92 135.302" stroke="#222222" stroke-width="4" stroke-linecap="round"/>
<path d="M107.67 130.045C107.808 130.183 108.404 130.488 109.169 130.865C109.862 131.207 110.759 131.593 112.147 132.078C116.218 133.499 117.363 133.37 119.204 133.677C124.218 134.512 125.145 134.464 126.224 134.615C128.004 134.864 129.122 134.822 131.551 134.941C133.071 135.016 134.39 135.205 135.384 135.243C136.142 135.271 137.064 135.345 137.76 135.306C138.435 135.357 139.061 135.311 139.803 135.312C140.046 135.313 140.357 135.317 141.124 135.302" stroke="#222222" stroke-width="4" stroke-linecap="round"/>
<path d="M1117.86 579.997C1118.02 580.049 1118.6 580.018 1119.33 579.967C1119.99 579.921 1120.82 579.813 1122.07 579.546C1125.71 578.764 1126.51 578.086 1128.01 577.44C1132.11 575.682 1132.78 575.181 1133.65 574.778C1135.08 574.113 1135.9 573.523 1137.76 572.423C1138.93 571.736 1139.99 571.246 1140.75 570.787C1141.33 570.436 1142.05 570.043 1142.55 569.665C1143.07 569.375 1143.52 569.025 1144.08 568.658C1144.26 568.539 1144.49 568.388 1145.06 567.996" stroke="#222222" stroke-width="3.5" stroke-linecap="round"/>
<path d="M1086.07 581.532C1085.92 581.614 1085.35 581.694 1084.62 581.785C1083.96 581.867 1083.12 581.922 1081.85 581.899C1078.13 581.833 1077.21 581.322 1075.61 580.978C1071.26 580.042 1070.5 579.68 1069.57 579.452C1068.04 579.076 1067.12 578.654 1065.08 577.934C1063.8 577.484 1062.67 577.209 1061.83 576.904C1061.2 576.671 1060.42 576.424 1059.85 576.15C1059.28 575.966 1058.77 575.709 1058.16 575.456C1057.96 575.374 1057.7 575.271 1057.07 574.995" stroke="#222222" stroke-width="3.5" stroke-linecap="round"/>
<path d="M1286.5 83.8572C1295.89 83.0921 1303.34 91.5809 1299.65 100.352C1294.44 112.727 1274.23 108.286 1275.49 95.4208C1276.07 89.5549 1280.19 84.3689 1286.49 83.8551L1286.5 83.8572Z" fill="#222222"/>
<path d="M1287.21 86.4631C1301.41 85.2232 1301.65 105.607 1287.46 104.409C1275.04 103.361 1276.84 87.3709 1287.21 86.4631Z" fill="white"/>
<path d="M1283.7 92.8039C1288.53 91.9614 1288.34 99.4561 1284.65 99.8085C1280.52 100.204 1280.49 93.365 1283.7 92.8039Z" fill="#222222"/>
<path d="M92.5435 83.8572C83.1443 83.0921 75.6952 91.5809 79.3904 100.352C84.6036 112.727 104.808 108.286 103.546 95.4208C102.971 89.5549 98.851 84.3689 92.5455 83.8551L92.5435 83.8572Z" fill="#222222"/>
<path d="M91.829 86.4631C77.6249 85.2232 77.3922 105.607 91.5804 104.409C103.995 103.361 102.202 87.3709 91.829 86.4631Z" fill="white"/>
<path d="M95.3373 92.8039C90.5123 91.9614 90.7021 99.4561 94.386 99.8085C98.5141 100.204 98.5478 93.365 95.3373 92.8039Z" fill="#222222"/>
<path d="M1258.53 100.334C1267.93 99.5687 1275.38 108.057 1271.69 116.829C1266.47 129.204 1246.27 124.762 1247.53 111.897C1248.11 106.032 1252.23 100.845 1258.53 100.332L1258.53 100.334Z" fill="#222222"/>
<path d="M1259.25 102.94C1273.45 101.7 1273.68 122.083 1259.49 120.885C1247.08 119.837 1248.87 103.847 1259.25 102.94Z" fill="white"/>
<path d="M1255.74 109.28C1260.57 108.438 1260.38 115.933 1256.69 116.285C1252.56 116.681 1252.53 109.842 1255.74 109.28Z" fill="#222222"/>
<path d="M120.504 100.334C111.105 99.5687 103.656 108.057 107.351 116.829C112.565 129.204 132.769 124.762 131.507 111.897C130.932 106.032 126.812 100.845 120.506 100.332L120.504 100.334Z" fill="#222222"/>
<path d="M119.79 102.94C105.586 101.7 105.353 122.083 119.541 120.885C131.956 119.837 130.163 103.847 119.79 102.94Z" fill="white"/>
<path d="M123.298 109.28C118.473 108.438 118.663 115.933 122.347 116.285C126.475 116.681 126.509 109.842 123.298 109.28Z" fill="#222222"/>
<path d="M1090.02 570.281C1090.34 570.031 1083.44 564.497 1083.44 564.497C1082.56 563.024 1083.45 561.85 1085.27 562.544C1085.72 562.711 1087.94 564.047 1088.44 564.497C1089.42 565.393 1094.04 569.421 1094.43 570.281C1095.14 571.871 1093.35 573.22 1091.93 573.486C1088.87 574.054 1085.04 573.918 1081.95 574.483C1080.12 574.395 1079.54 572.038 1081.04 571.326C1082.21 570.773 1087.82 570.517 1088.3 570.479L1090.02 570.281Z" fill="#222222"/>
<path d="M1107.98 566.935C1107.59 566.825 1111.89 559.096 1111.89 559.096C1112.15 557.401 1110.89 556.647 1109.46 557.979C1109.11 558.3 1107.55 560.379 1107.26 560.981C1106.69 562.18 1103.93 567.656 1103.9 568.599C1103.83 570.342 1106 570.915 1107.42 570.624C1110.47 569.996 1113.97 568.422 1117.04 567.779C1118.7 567.008 1118.35 564.607 1116.69 564.515C1115.4 564.444 1110.11 566.323 1109.65 566.468L1107.98 566.935Z" fill="#222222"/>
<path d="M1088.4 521.733C1091.18 519.655 1094.54 518.411 1098.27 517.704C1105.29 516.377 1113.21 516.99 1120.51 517.252L1117.65 539.321C1105.11 539.724 1092.52 540.535 1080.04 542.3C1080.05 542.201 1080.05 542.096 1080.06 541.985C1080.12 540.891 1080.3 539.42 1080.54 537.875C1080.78 536.339 1081.07 534.768 1081.33 533.488C1081.6 532.165 1081.81 531.259 1081.91 530.984C1083.37 526.742 1085.64 523.798 1088.4 521.733Z" fill="#336DFD" stroke="#222222" stroke-width="3"/>
<path d="M1059.21 558.528C1060.12 552.958 1064.73 549.594 1070.89 547.444C1075.5 545.84 1080.68 545.018 1085.18 544.433L1089.4 543.907C1098.16 542.813 1106.96 542.394 1115.84 541.839C1105.71 549.167 1087.85 558.634 1077.28 562.536L1077.28 562.535C1074.23 563.66 1068.95 565.159 1064.77 564.973C1062.67 564.88 1061.12 564.373 1060.21 563.479C1059.36 562.658 1058.76 561.222 1059.21 558.528Z" fill="#336DFD" stroke="#222222" stroke-width="3"/>
<path d="M1232.76 71.1567C1234.75 68.31 1237.55 66.0726 1240.87 64.2298C1247.11 60.7666 1254.83 58.8584 1261.84 56.8142L1266.06 78.6635C1254.28 82.9868 1242.59 87.7114 1231.29 93.3078C1231.26 93.2133 1231.24 93.112 1231.21 93.0045C1230.92 91.9464 1230.63 90.4915 1230.38 88.9499C1230.12 87.417 1229.9 85.8345 1229.74 84.538C1229.58 83.1983 1229.51 82.2705 1229.51 81.9793C1229.56 77.4921 1230.79 73.9854 1232.76 71.1567Z" fill="#DCFC73" stroke="#222222" stroke-width="3"/>
<path d="M1216.6 115.256C1215.72 109.681 1219.04 105.04 1224.22 101.061C1228.09 98.0915 1232.75 95.684 1236.83 93.7152L1240.68 91.8886C1248.65 88.0964 1256.87 84.934 1265.13 81.6178C1257.81 91.7581 1243.83 106.359 1235.02 113.383C1232.48 115.409 1227.94 118.491 1223.91 119.628C1221.89 120.198 1220.26 120.203 1219.11 119.643C1218.05 119.129 1217.03 117.953 1216.6 115.256Z" fill="#DCFC73" stroke="#222222" stroke-width="3"/>
<path d="M146.279 71.1527C144.291 68.3061 141.488 66.0687 138.169 64.2259C131.929 60.7627 124.213 58.8545 117.202 56.8103L112.981 78.6596C124.759 82.9828 136.458 87.7075 147.752 93.3039C147.779 93.2094 147.807 93.1081 147.836 93.0006C148.121 91.9425 148.409 90.4876 148.667 88.946C148.923 87.4131 149.144 85.8306 149.3 84.5341C149.46 83.1944 149.538 82.2666 149.534 81.9754C149.478 77.4882 148.253 73.9815 146.279 71.1527Z" fill="#DCFC73" stroke="#222222" stroke-width="3"/>
<path d="M162.435 115.256C163.315 109.681 159.998 105.04 154.819 101.061C150.952 98.0915 146.294 95.684 142.206 93.7152L138.36 91.8886C130.385 88.0964 122.165 84.934 113.909 81.6178C121.226 91.7581 135.211 106.359 144.019 113.383C146.559 115.409 151.102 118.491 155.131 119.628C157.152 120.198 158.777 120.203 159.929 119.643C160.987 119.129 162.008 117.953 162.435 115.256Z" fill="#DCFC73" stroke="#222222" stroke-width="3"/>
<path d="M1276.94 123.578C1277.81 121.508 1280.68 117.487 1285.21 117.966C1290.88 118.564 1285.85 128.508 1285.57 128.665C1285.95 129.216 1286.33 129.863 1286.67 130.56C1286.25 129.92 1285.88 129.273 1285.57 128.665C1285.3 128.822 1278.98 129.065 1276.94 123.578Z" fill="#222222"/>
<path d="M1285.57 128.665C1285.85 128.508 1290.88 118.564 1285.21 117.966C1280.68 117.487 1277.81 121.508 1276.94 123.578C1278.98 129.065 1285.3 128.822 1285.57 128.665ZM1285.57 128.665C1287.83 131.975 1290.27 138.725 1281.94 139.246M1285.57 128.665C1287.8 133.099 1293.37 139.631 1297.84 130.286" stroke="#222222" stroke-width="3" stroke-linecap="round"/>
<path d="M102.099 123.574C101.23 121.504 98.3583 117.483 93.8255 117.962C88.1595 118.56 93.1855 128.504 93.4644 128.661C93.0885 129.212 92.7077 129.859 92.3725 130.556C92.7916 129.916 93.1594 129.269 93.4644 128.661C93.7432 128.818 100.06 129.061 102.099 123.574Z" fill="#222222"/>
<path d="M93.4644 128.661C93.1855 128.504 88.1595 118.56 93.8255 117.962C98.3583 117.483 101.23 121.504 102.099 123.574C100.06 129.061 93.7432 128.818 93.4644 128.661ZM93.4644 128.661C91.2071 131.971 88.7734 138.721 97.0973 139.242M93.4644 128.661C91.2391 133.095 85.6716 139.627 81.2035 130.282" stroke="#222222" stroke-width="3" stroke-linecap="round"/>
<path d="M1300.22 120.371C1300.41 120.371 1301.05 120.162 1301.85 119.885C1302.59 119.634 1303.49 119.271 1304.81 118.628C1308.69 116.74 1309.41 115.838 1310.92 114.748C1315.05 111.779 1315.67 111.088 1316.54 110.429C1317.97 109.342 1318.72 108.519 1320.52 106.879C1321.65 105.854 1322.71 105.052 1323.44 104.373C1323.99 103.855 1324.69 103.253 1325.16 102.732C1325.67 102.289 1326.08 101.813 1326.6 101.286C1326.77 101.115 1326.99 100.897 1327.52 100.343" stroke="#222222" stroke-width="4" stroke-linecap="round"/>
<path d="M78.8221 120.371C78.6268 120.371 77.9907 120.162 77.1842 119.885C76.4528 119.634 75.5466 119.271 74.2247 118.628C70.3472 116.74 69.6316 115.838 68.1161 114.748C63.9902 111.779 63.3716 111.088 62.5033 110.429C61.072 109.342 60.3145 108.519 58.5174 106.879C57.3935 105.854 56.3299 105.052 55.6023 104.373C55.0482 103.855 54.3459 103.253 53.8826 102.732C53.3712 102.289 52.9625 101.813 52.4389 101.286C52.2669 101.115 52.0449 100.897 51.5151 100.343" stroke="#222222" stroke-width="4" stroke-linecap="round"/>
<path d="M1297.66 116.094C1297.85 116.055 1298.43 115.723 1299.17 115.29C1299.83 114.898 1300.65 114.36 1301.81 113.465C1305.23 110.839 1305.75 109.812 1307.02 108.44C1310.47 104.705 1310.94 103.904 1311.65 103.084C1312.84 101.733 1313.42 100.775 1314.85 98.8086C1315.74 97.579 1316.63 96.5797 1317.2 95.7687C1317.64 95.151 1318.21 94.4199 1318.56 93.8171C1318.97 93.28 1319.28 92.732 1319.68 92.1112C1319.82 91.9095 1319.99 91.6511 1320.4 91.0019" stroke="#222222" stroke-width="4" stroke-linecap="round"/>
<path d="M81.3811 116.094C81.1897 116.055 80.6083 115.723 79.8736 115.29C79.2073 114.898 78.3923 114.36 77.226 113.465C73.8051 110.839 73.2847 109.812 72.0184 108.44C68.5707 104.705 68.103 103.904 67.3844 103.084C66.1999 101.733 65.6226 100.775 64.1903 98.8086C63.2946 97.579 62.4132 96.5797 61.8364 95.7687C61.3971 95.151 60.8298 94.4199 60.4801 93.8171C60.0679 93.28 59.7628 92.732 59.3553 92.1112C59.221 91.9095 59.0473 91.6511 58.6392 91.0019" stroke="#222222" stroke-width="4" stroke-linecap="round"/>
<path d="M296.781 554.935C297.819 552.723 299.08 549.234 303.106 542.838C315.055 523.902 329.353 530.87 328.478 548.113C328.171 554.202 327.849 563.509 326.054 568.866C326.054 568.866 323.264 574.089 320.314 574.192C313.44 574.445 293.241 570.182 293.525 566.43L296.781 554.935Z" fill="#336DFD"/>
<path d="M374.385 709.389C385.826 744.608 381.717 796.167 378.467 815.733L269.168 815.733C266.99 811.859 265.184 797.014 264.884 788.674C264.751 784.975 264.769 780.965 264.908 776.756C265.654 754.194 269.879 725.93 272.98 709.389C241.778 704.285 206.676 607.945 209.276 584.338C211.876 560.731 220.977 555.627 224.227 554.989C227.477 554.351 237.878 549.885 235.277 584.338C232.677 618.791 281.43 687.058 281.43 680.04L281.43 657.71C256.469 637.804 258.029 600.501 261.929 584.338L281.43 514.156L304.181 573.492L319.782 573.492L344.484 514.156C345.825 524.551 350.074 550.651 364.635 584.338C379.196 618.025 368.102 648.99 360.735 660.262C363.335 667.918 364.418 678.339 364.635 682.592C386.086 666.004 379.586 604.117 377.636 601.565C375.686 599.013 378.935 560.094 396.486 566.474C410.527 571.578 406.237 593.696 402.337 604.117C409.097 672.002 386.519 702.584 374.385 709.389Z" fill="#DCFC73" stroke="#222222" stroke-width="5" stroke-linecap="round"/>
<path d="M295.711 694.431C308.402 668.053 340.32 659.666 354.698 705.851C372.671 763.584 248.074 778.119 295.711 694.431Z" fill="#BFD966" stroke="#DCFC73"/>
<path d="M452.121 567.723C456.642 566.954 458.058 561.552 458.071 559.512C449.535 557.464 431.778 553.935 429.705 553.326C427.115 552.566 417.351 552.447 413.593 554.882C410.587 556.83 399.909 560.497 395.343 562.44C395.289 561.568 399.948 552.225 402.284 547.662L382.395 543.476C379.631 549.884 376.438 565.021 376.302 566.067C376.165 567.114 371.37 600.625 372.689 600.902C373.745 601.124 395.593 606.01 406.385 608.425C409.499 600.047 414.897 588.709 423.877 578.447C432.857 568.185 446.47 568.684 452.121 567.723Z" fill="#336DFD"/>
<path d="M380.141 589.679C376.591 588.675 373.943 590.764 373.063 591.934C372.571 591.831 375.106 573.248 376.434 563.969L381.557 565.047C381.297 566.17 381.487 568.499 384.331 568.841C387.886 569.268 386.214 571.377 385.78 571.393C385.347 571.409 383.621 571.902 384.023 572.949C384.424 573.997 384.298 575.468 383.336 575.907C382.375 576.347 378.858 580.85 381.396 581.491C383.934 582.132 384.578 590.934 380.141 589.679Z" fill="#336DFD"/>
<path d="M457.457 562.6C457.695 562.306 457.964 560.415 458.068 559.506C438.164 554.457 425.788 552.282 423.061 552.567C420.334 552.853 413.029 553.141 409.897 555.168C407.392 556.79 398.441 560.958 395.407 562.11C395.353 561.239 399.946 552.179 402.25 547.757L382.155 543.528C379.292 551.735 376.233 565.38 376.591 565.671C376.95 565.961 384.143 566.615 390.964 566.117C397.786 565.619 404.567 560.708 411.702 557.482C418.837 554.257 421.733 555.081 428.34 555.505C433.627 555.844 449.954 560.376 457.457 562.6Z" fill="#222222" stroke="#222222"/>
<path d="M401.23 603.805C402.743 603.95 405.686 605.894 406.969 606.847C407.587 605.574 409.456 601.22 412.124 595.738C414.259 591.353 417.607 586.46 419.014 584.562C418.553 582.847 416.635 584.169 415.839 583.894C415.044 583.619 414.03 585.672 412.511 584.812C410.992 583.953 411.678 583.774 407.872 583.512C404.065 583.251 403.509 585.184 403.575 587.68C403.627 589.676 404.906 590.586 405.538 590.791C407 592.825 406.716 592.657 405.365 594.315C404.014 595.973 399.214 595.826 400.102 597.092C400.812 598.105 400.127 598.68 399.696 598.841C394.559 601.537 396.42 604.627 398.264 605.015C400.107 605.403 399.339 603.622 401.23 603.805Z" fill="#336DFD"/>
<path d="M408.02 595.637C408.19 596.74 405.307 598.233 403.843 598.841L395.463 597.467C394.154 596.147 392.3 593.005 395.348 591.001C399.157 588.496 399.922 590.216 400.696 590.495C401.471 590.774 399.734 593.84 403.653 592.247C407.571 590.653 407.806 594.258 408.02 595.637Z" fill="#336DFD"/>
<path d="M386.896 581.295C386.028 582.834 382.533 596.125 380.882 602.63L393.547 605.403C395.456 599.778 399.254 587.598 399.18 583.88C399.087 579.233 397.229 578.519 393.067 577.643C388.905 576.767 387.981 579.371 386.896 581.295Z" fill="#222222"/>
<path d="M383.191 601.391C384.585 595.819 387.541 584.342 388.214 583.01C389.056 581.344 389.803 579.106 392.771 579.731C395.738 580.355 397.052 580.908 396.972 584.853C396.208 588.696 394.169 597.761 392.124 603.271" stroke="#336DFD" stroke-width="2" stroke-dasharray="12 12"/>
<path d="M162.067 543.571C157.566 542.385 156.658 536.77 156.844 534.695C165.684 533.38 184.002 531.384 186.159 530.952C188.855 530.411 198.751 531.164 202.318 533.975C205.171 536.224 215.623 540.907 220.056 543.289C220.195 542.409 216.389 532.498 214.468 527.653L235.008 525.181C237.182 531.94 238.941 547.605 238.977 548.681C239.014 549.756 240.606 584.235 239.244 584.399C238.154 584.53 215.563 587.537 204.403 589.024C202.066 580.232 197.705 568.228 189.614 556.997C181.523 545.766 167.694 545.054 162.067 543.571Z" fill="#336DFD"/>
<path d="M232.797 572.327C236.488 571.625 238.965 573.985 239.742 575.252C240.25 575.191 239.493 556.083 239.051 546.536L233.76 547.173C233.915 548.336 233.495 550.686 230.583 550.779C226.943 550.894 228.43 553.187 228.868 553.242C229.305 553.297 231.004 553.952 230.496 554.98C229.987 556.009 229.972 557.515 230.903 558.048C231.833 558.581 234.954 563.471 232.323 563.895C229.692 564.319 228.183 573.205 232.797 572.327Z" fill="#336DFD"/>
<path d="M157.167 537.887C156.954 537.568 156.866 535.622 156.849 534.689C177.489 531.342 190.227 530.24 192.96 530.774C195.693 531.309 203.06 532.256 206.033 534.596C208.411 536.468 217.065 541.506 220.025 542.948C220.164 542.068 216.396 532.45 214.495 527.751L235.248 525.254C237.347 533.849 239.116 547.988 238.725 548.251C238.333 548.514 230.989 548.534 224.132 547.417C217.275 546.3 210.889 540.702 203.98 536.786C197.072 532.869 194.06 533.448 187.33 533.286C181.946 533.157 164.978 536.3 157.167 537.887Z" fill="#222222" stroke="#222222"/>
<path d="M210.07 584.788C208.524 584.8 205.355 586.511 203.964 587.365C203.463 586.016 201.994 581.424 199.827 575.616C198.093 570.969 195.18 565.698 193.94 563.644C194.574 561.942 196.387 563.458 197.219 563.249C198.051 563.041 198.877 565.217 200.499 564.48C202.12 563.743 201.443 563.499 205.322 563.575C209.2 563.65 209.575 565.664 209.265 568.194C209.018 570.218 207.636 571.027 206.975 571.179C205.298 573.115 205.601 572.97 206.808 574.776C208.014 576.582 212.887 576.862 211.865 578.069C211.047 579.034 211.685 579.68 212.106 579.882C217.043 583.082 214.858 586.054 212.955 586.283C211.051 586.512 212.002 584.772 210.07 584.788Z" fill="#336DFD"/>
<path d="M206.653 575.204C206.376 576.309 209.155 578.091 210.578 578.844L219.191 578.222C220.64 577.002 222.814 573.981 219.918 571.663C216.299 568.766 215.362 570.443 214.552 570.655C213.741 570.867 215.21 574.143 211.394 572.162C207.578 570.181 206.999 573.823 206.653 575.204Z" fill="#336DFD"/>
<path d="M226.778 563.198C227.507 564.839 229.752 578.657 230.791 585.413L217.7 587.097C216.315 581.211 213.656 568.495 214.093 564.724C214.639 560.011 216.589 559.452 220.887 558.934C225.186 558.417 225.867 561.145 226.778 563.198Z" fill="#222222"/>
<path d="M228.572 583.953C227.703 578.167 225.827 566.24 225.275 564.826C224.585 563.059 224.046 560.718 220.982 561.087C217.918 561.455 216.534 561.9 216.231 565.915C216.63 569.888 217.812 579.281 219.346 585.063" stroke="#336DFD" stroke-width="2" stroke-dasharray="12 12"/>
<path d="M215.668 745.42C224.831 763.058 257.104 793.689 320.579 793.689V767.667C271.299 767.667 259.544 750.218 251.07 736.974C237.542 715.831 212.262 644.998 163.062 629.017C89.9177 605.257 88.3901 643.929 108.367 650.399C167.407 669.521 172.646 662.599 215.668 745.42Z" fill="#DCFC73"/>
<path d="M320.579 793.689C257.104 793.689 224.831 763.058 215.668 745.42C172.646 662.599 167.407 669.521 108.367 650.399C88.3901 643.929 89.9177 605.257 163.062 629.017C212.262 644.998 237.542 715.831 251.07 736.974C259.544 750.218 271.299 768.363 320.579 768.363" stroke="#222222" stroke-width="5"/>
</svg>
