<svg width="1440" height="874" viewBox="0 0 1440 874" fill="none" xmlns="http://www.w3.org/2000/svg">
<rect x="960.434" y="474.051" width="232.667" height="80.5922" transform="rotate(-20.5518 960.434 474.051)" fill="#E1D2F3"/>
<rect x="943" y="445.25" width="245.705" height="33.5801" transform="rotate(-20.5518 943 445.25)" fill="#B2A3C4"/>
<rect x="893.193" y="587.537" width="223.667" height="71.5922" transform="rotate(-0.567032 893.193 587.537)" fill="#E1D2F3" stroke="#222222" stroke-width="9"/>
<rect x="886.341" y="554.026" width="236.705" height="24.5801" transform="rotate(-0.567032 886.341 554.026)" fill="#E1D2F3" stroke="#222222" stroke-width="9"/>
<path d="M630.332 374.055L688.102 373.874L688.261 424.741L630.491 424.922L630.332 374.055Z" fill="#336DFD"/>
<path d="M688.035 383.906L688.13 414.426L716.471 414.338L859.774 694.751L860.019 773.232L1196.47 772.182L1196.38 743.842L890.814 744.795L890.658 694.655L1196.22 693.701L1261.94 446.063L1261.84 412.636L747.354 414.242L731.999 383.769L688.035 383.906Z" fill="#222222"/>
<path d="M890.265 450.092L764.551 450.484L794.807 508.97L805.26 529.174L837.9 592.268L847.802 611.409L876.041 665.996L890.938 665.949L908.015 665.896L974.142 665.69L994.125 665.627L1060.25 665.421L1078.42 665.364L1145.64 665.154L1161.26 665.106L1176.88 665.057L1191.62 610.336L1196.79 591.148L1214.97 523.635L1219.28 507.646L1235.07 449.016L1160.59 449.249L1144.96 449.297L1077.75 449.507L1059.58 449.564L993.452 449.77L973.468 449.832L907.341 450.039L890.265 450.092Z" fill="#DCFC73"/>
<rect x="888.539" y="585.789" width="232.667" height="80.5922" transform="rotate(-0.0517294 888.539 585.789)" fill="#336DFD"/>
<rect x="881.996" y="552.215" width="245.705" height="33.5801" transform="rotate(-0.0517294 881.996 552.215)" fill="#2E5ED6"/>
<mask id="mask0_2171_54067" style="mask-type:alpha" maskUnits="userSpaceOnUse" x="761" y="448" width="649" height="310">
<path d="M939.814 455.775L771.309 456.301L811.87 536.532L825.882 564.248L869.639 650.8L882.913 677.057L920.771 751.939L940.738 751.877L963.627 751.806L1052.26 751.529L1079.05 751.445L1167.68 751.169L1192.04 751.093L1282.13 750.812L1303.07 750.746L1324.01 750.681L1343.76 675.619L1350.69 649.299L1375.06 556.69L1380.83 534.756L1401.99 454.333L1302.15 454.644L1281.21 454.71L1191.11 454.991L1166.76 455.067L1078.12 455.343L1051.34 455.427L962.703 455.704L939.814 455.775Z" fill="white" stroke="black" stroke-width="12"/>
</mask>
<g mask="url(#mask0_2171_54067)">
<rect x="959.996" y="477.672" width="232.667" height="80.5922" transform="rotate(-20.5518 959.996 477.672)" fill="#E1D2F3"/>
<rect x="947.996" y="447.246" width="245.705" height="33.5801" transform="rotate(-20.5518 947.996 447.246)" fill="#B2A3C4"/>
</g>
<path d="M1133.57 487.392L1227.56 487.099L1220.82 505.772L1133.63 505.935L1133.77 549.882L1211.04 549.641L1204.28 568.314L1133.82 568.262L1133.97 613.829L1194.52 613.64L1187.28 632.314L1134.02 632.481L1134.13 667.362L1115.48 667.42L1115.37 632.539L1056.27 632.723L1056.38 667.606L1037.73 667.664L1037.62 632.781L978.515 632.966L978.624 667.851L959.973 667.91L959.864 633.024L900.762 633.209L900.871 668.091L882.22 668.149L882.111 633.267L858.551 633.34L845.722 614.729L882.053 614.615L881.908 568.082L824.363 568.041L813.547 550.882L881.853 550.668L881.715 506.408L791.575 506.578L778.403 488.501L881.658 488.179L881.517 442.882L900.168 442.824L900.31 488.12L959.411 487.936L959.27 442.642L977.921 442.584L978.062 487.878L1037.17 487.693L1037.02 442.397L1055.68 442.338L1055.82 487.635L1114.92 487.451L1114.78 442.153L1133.43 442.095L1133.57 487.392ZM900.704 614.557L959.806 614.373L959.661 568.138L900.559 568.096L900.704 614.557ZM978.457 614.315L1037.56 614.13L1037.42 568.193L978.313 568.151L978.457 614.315ZM1056.21 614.072L1115.31 613.888L1115.17 568.248L1056.07 568.206L1056.21 614.072ZM900.505 550.61L959.606 550.426L959.468 506.262L900.367 506.373L900.505 550.61ZM978.257 550.368L1037.36 550.183L1037.22 506.116L978.12 506.227L978.257 550.368ZM1056.01 550.125L1115.11 549.941L1114.98 505.97L1055.87 506.081L1056.01 550.125Z" fill="#222222"/>
<path d="M1315.5 871.496C1239 834.996 1374.29 784.443 1340.87 700.674C1322.18 653.826 1253.4 707.756 1297.55 749.622C1333.95 784.141 1449.75 655.193 1497.1 595.491" stroke="#8A9D4C" stroke-width="4" stroke-linecap="round" stroke-dasharray="8 8"/>
<path d="M-34.5 420.996C-22.2183 452.108 47.5001 453.496 92.0001 494.996C136.5 536.496 165.704 580.521 247.5 579.995C450.31 578.692 255.499 396.995 255.5 498.995C255.501 516.496 452.001 604.995 532.001 568.495C612.001 531.995 705.501 584.994 711.501 640.495C717.5 695.996 746.7 825.896 811.5 871.496" stroke="#8A9D4C" stroke-width="4" stroke-linecap="round" stroke-dasharray="8 8"/>
<path d="M116.951 699.021C109.85 701.958 109.588 711.699 110.344 715.192C125.083 715.629 155.467 715.289 159.088 715.585C163.614 715.954 179.628 712.654 184.848 707.143C189.023 702.733 205.092 692.632 211.82 687.673C212.239 689.144 208.174 706.787 206.09 715.425L240.21 715.442C242.293 703.496 241.757 676.476 241.582 674.638C241.407 672.8 236.502 613.796 234.239 613.795C232.429 613.794 194.838 613.284 176.269 613.03C174.362 628.469 169.847 649.788 159.065 670.552C148.282 691.317 125.827 695.349 116.951 699.021Z" fill="#E1D2F3"/>
<path d="M226.325 635.657C232.512 636.099 236.048 631.577 237.043 629.262C237.887 629.262 240.81 661.938 242.166 678.275L233.377 678.271C233.376 676.259 232.179 672.345 227.398 672.781C221.422 673.327 223.354 669.122 224.057 668.939C224.76 668.757 227.395 667.295 226.34 665.649C225.284 664.002 224.932 661.442 226.337 660.345C227.742 659.249 231.781 650.29 227.387 650.105C222.992 649.92 218.591 635.104 226.325 635.657Z" fill="#E1D2F3"/>
<path d="M156.51 698.806C152.415 702.736 151.619 708.933 151.733 711.541L151.733 712.815C153.837 712.754 158.626 712.596 160.946 712.451C163.846 712.269 175.618 706.447 176.471 706.265C177.324 706.083 200.527 685.89 200.527 685.708C200.527 685.526 199.503 682.251 196.603 680.614C193.703 678.976 190.973 680.977 189.608 682.615C188.243 684.252 188.926 685.344 183.125 681.341C177.324 677.339 174.254 686.981 176.471 688.436C178.246 689.601 178.234 691.954 178.007 692.985C173.912 702.263 168.965 698.078 168.282 698.26C167.6 698.442 161.628 693.894 156.51 698.806Z" fill="#E1D2F3"/>
<path d="M110.175 709.691C109.896 710.279 110.177 713.609 110.352 715.201C144.826 716.687 165.893 715.963 170.245 714.497C174.596 713.03 186.434 709.914 190.785 705.325C194.265 701.654 207.318 691.316 211.843 688.258C212.261 689.728 208.196 706.865 206.111 715.249L240.584 715.267C242.144 700.21 241.957 675.786 241.26 675.419C240.564 675.051 228.551 676.514 217.584 679.814C206.617 683.114 197.395 693.943 186.952 702.018C176.51 710.092 171.461 709.723 160.493 711.37C151.719 712.687 123.292 710.8 110.175 709.691Z" fill="#222222" stroke="#222222"/>
<path d="M186.456 619.08C183.926 619.374 178.373 617.109 175.912 615.939C175.387 618.337 173.985 626.452 171.706 636.779C169.883 645.041 166.269 654.606 164.69 658.356C166.097 661.123 168.731 658.173 170.136 658.358C171.542 658.544 172.418 654.671 175.23 655.594C178.042 656.518 176.988 657.071 183.312 656.152C189.637 655.233 189.811 651.728 188.754 647.486C187.909 644.092 185.472 642.996 184.36 642.872C181.196 639.92 181.723 640.104 183.302 636.785C184.882 633.466 192.787 631.994 190.854 630.149C189.307 628.673 190.208 627.444 190.852 627.014C198.228 620.562 194.009 615.949 190.847 615.947C187.684 615.945 189.618 618.713 186.456 619.08Z" fill="#E1D2F3"/>
<path d="M187.063 665.561C186.382 663.795 190.523 660.288 192.679 658.755L206.805 658.02C209.415 659.736 213.58 664.273 209.359 668.688C204.083 674.206 202.211 671.63 200.849 671.447C199.488 671.263 201.189 665.561 195.403 669.608C189.616 673.654 187.914 667.768 187.063 665.561Z" fill="#E1D2F3"/>
<path d="M212.082 631.901C212.355 634.697 211.175 634.905 210.551 634.66L210.891 613.875L222.634 613.875C223.655 614.979 223.145 617.186 222.294 619.209C221.443 621.232 218.209 621.049 218.039 621.049C217.869 621.049 217.019 621.416 217.189 624.359C217.359 627.302 216.338 628.774 216.168 629.142C215.998 629.51 215.147 630.429 213.955 630.429C212.764 630.429 211.742 628.406 212.082 631.901Z" fill="#E1D2F3"/>
<path d="M218.463 652.421C219.298 649.479 219.959 625.505 220.185 613.794L198.416 613.599C197.434 623.899 195.855 646.082 197.391 652.411C199.311 660.321 202.62 660.875 209.76 660.879C216.9 660.882 217.421 656.1 218.463 652.421Z" fill="#222222"/>
<path d="M216.877 616.735C216.717 626.76 216.247 647.44 215.653 649.959C214.909 653.108 214.539 657.202 209.448 657.199C204.358 657.197 201.999 656.723 200.629 649.952C200.417 643.107 200.303 626.88 201.552 616.727" stroke="#E1D2F3" stroke-width="2" stroke-dasharray="12 12"/>
<path d="M165.63 670.207C167.12 664.99 172.8 664.058 175.453 664.244C179.179 665.176 180.535 670.207 178.333 671.698C176.131 673.188 173.083 676.915 172.744 677.66C172.358 678.51 171.219 686.231 167.493 683.623C163.767 681.014 163.767 676.728 165.63 670.207Z" fill="#E1D2F3"/>
<path d="M520.951 735.021C513.85 737.958 513.588 747.699 514.344 751.192C529.083 751.629 559.467 751.289 563.088 751.585C567.614 751.954 583.628 748.654 588.848 743.143C593.023 738.733 609.092 728.632 615.82 723.673C616.239 725.144 612.174 742.787 610.09 751.425L644.21 751.442C646.293 739.496 645.757 712.476 645.582 710.638C645.407 708.8 640.502 649.796 638.239 649.795C636.429 649.794 598.838 649.284 580.269 649.03C578.362 664.469 573.847 685.788 563.065 706.552C552.282 727.317 529.827 731.349 520.951 735.021Z" fill="#336DFD"/>
<path d="M630.325 671.657C636.512 672.099 640.048 667.577 641.043 665.262C641.887 665.262 644.81 697.938 646.166 714.275L637.377 714.271C637.376 712.259 636.179 708.345 631.398 708.781C625.422 709.327 627.354 705.122 628.057 704.939C628.76 704.757 631.395 703.295 630.34 701.649C629.284 700.002 628.932 697.442 630.337 696.345C631.742 695.249 635.781 686.29 631.387 686.105C626.992 685.92 622.591 671.104 630.325 671.657Z" fill="#336DFD"/>
<path d="M560.51 734.806C556.415 738.736 555.619 744.933 555.733 747.541L555.733 748.815C557.837 748.754 562.626 748.596 564.946 748.451C567.846 748.269 579.618 742.447 580.471 742.265C581.324 742.083 604.527 721.89 604.527 721.708C604.527 721.526 603.503 718.251 600.603 716.614C597.703 714.976 594.973 716.977 593.608 718.615C592.243 720.252 592.926 721.344 587.125 717.341C581.324 713.339 578.254 722.981 580.471 724.436C582.246 725.601 582.234 727.954 582.007 728.985C577.912 738.263 572.965 734.078 572.282 734.26C571.6 734.442 565.628 729.894 560.51 734.806Z" fill="#336DFD"/>
<path d="M514.175 745.691C513.896 746.279 514.177 749.609 514.352 751.201C548.826 752.687 569.893 751.963 574.245 750.497C578.596 749.03 590.434 745.914 594.785 741.325C598.265 737.654 611.318 727.316 615.843 724.258C616.261 725.728 612.196 742.865 610.111 751.249L644.584 751.267C646.144 736.21 645.957 711.786 645.26 711.419C644.564 711.051 632.551 712.514 621.584 715.814C610.617 719.114 601.395 729.943 590.952 738.018C580.51 746.092 575.461 745.723 564.493 747.37C555.719 748.687 527.292 746.8 514.175 745.691Z" fill="#222222" stroke="#222222"/>
<path d="M590.456 655.08C587.926 655.374 582.373 653.109 579.912 651.939C579.387 654.337 577.985 662.452 575.706 672.779C573.883 681.041 570.269 690.606 568.69 694.356C570.097 697.123 572.731 694.173 574.136 694.358C575.542 694.544 576.418 690.671 579.23 691.594C582.042 692.518 580.988 693.071 587.312 692.152C593.637 691.233 593.811 687.728 592.754 683.486C591.909 680.092 589.472 678.996 588.36 678.872C585.196 675.92 585.723 676.104 587.302 672.785C588.882 669.466 596.787 667.994 594.854 666.149C593.307 664.673 594.208 663.444 594.852 663.014C602.228 656.562 598.009 651.949 594.847 651.947C591.684 651.945 593.618 654.713 590.456 655.08Z" fill="#336DFD"/>
<path d="M591.063 701.561C590.382 699.795 594.523 696.288 596.679 694.755L610.805 694.02C613.415 695.736 617.58 700.273 613.359 704.688C608.083 710.206 606.211 707.63 604.849 707.447C603.488 707.263 605.189 701.561 599.403 705.608C593.616 709.654 591.914 703.768 591.063 701.561Z" fill="#336DFD"/>
<path d="M616.082 667.901C616.355 670.697 615.175 670.905 614.551 670.66L614.891 649.875L626.634 649.875C627.655 650.979 627.145 653.186 626.294 655.209C625.443 657.232 622.209 657.049 622.039 657.049C621.869 657.049 621.019 657.416 621.189 660.359C621.359 663.302 620.338 664.774 620.168 665.142C619.998 665.51 619.147 666.429 617.955 666.429C616.764 666.429 615.742 664.406 616.082 667.901Z" fill="#336DFD"/>
<path d="M622.463 688.421C623.298 685.479 623.959 661.505 624.185 649.794L602.416 649.599C601.434 659.899 599.855 682.082 601.391 688.411C603.311 696.321 606.62 696.875 613.76 696.879C620.9 696.882 621.421 692.1 622.463 688.421Z" fill="#222222"/>
<path d="M620.877 652.735C620.717 662.76 620.247 683.44 619.653 685.959C618.909 689.108 618.539 693.202 613.448 693.199C608.358 693.197 605.999 692.723 604.629 685.952C604.417 679.107 604.303 662.88 605.552 652.727" stroke="#336DFD" stroke-width="2" stroke-dasharray="12 12"/>
<path d="M569.63 706.207C571.12 700.99 576.8 700.058 579.453 700.244C583.179 701.176 584.535 706.207 582.333 707.698C580.131 709.188 577.083 712.915 576.744 713.66C576.358 714.51 575.219 722.231 571.493 719.623C567.767 717.014 567.767 712.728 569.63 706.207Z" fill="#336DFD"/>
<path d="M290.85 855.495C283.884 860.083 285.69 870.009 287.247 873.374C303.103 870.466 335.524 863.217 339.46 862.694C344.38 862.04 360.8 855.058 365.202 848.29C368.724 842.876 383.745 828.994 389.88 822.442C390.642 823.837 390.073 842.628 389.693 851.85L426.187 844.113C425.857 831.541 419.498 804.299 418.917 802.478C418.336 800.656 400.457 742.014 398.036 742.528C396.1 742.938 355.789 750.965 335.876 754.928C337.142 770.996 336.878 793.613 329.793 817.093C322.708 840.572 299.557 849.759 290.85 855.495Z" fill="white"/>
<path d="M394.252 766.466C400.963 765.508 403.777 760.125 404.346 757.554C405.248 757.363 415.371 789.79 420.319 806.028L410.919 808.021C410.488 805.984 408.369 802.292 403.349 803.82C397.075 805.731 398.241 801.033 398.953 800.688C399.666 800.344 402.172 798.265 400.69 796.837C399.209 795.41 398.284 792.897 399.552 791.467C400.82 790.037 403.22 780.046 398.481 780.857C393.742 781.668 385.862 767.664 394.252 766.466Z" fill="#336DFD"/>
<path d="M340.788 844.543C337.15 849.473 337.609 855.934 338.293 858.548L338.567 859.838C340.857 859.288 346.064 858.017 348.573 857.332C351.708 856.474 363.342 847.847 364.237 847.465C365.131 847.083 386.191 821.25 386.152 821.065C386.112 820.881 384.289 817.802 380.763 816.817C377.237 815.832 374.679 818.492 373.537 820.467C372.395 822.442 373.376 823.389 366.168 820.681C358.96 817.974 357.669 828.451 360.409 829.41C362.601 830.178 363.094 832.563 363.066 833.66C360.576 844.006 354.263 840.916 353.555 841.259C352.847 841.602 345.335 838.381 340.788 844.543Z" fill="#336DFD"/>
<path d="M285.759 867.873C285.269 865.258 285.392 859.328 289.796 856.53C294.201 853.732 297.636 851.761 298.802 851.126C300.275 853.467 303.993 857.56 307.084 855.196C310.123 852.871 310.344 852.508 310.067 852.618C310.062 852.62 310.057 852.622 310.053 852.624C310.057 852.622 310.062 852.62 310.067 852.618C311.99 851.824 316.691 850.562 320.23 851.826C320.706 851.92 321.689 851.711 321.823 850.129C321.989 848.152 327.761 844.986 329.905 845.891C332.049 846.796 332.73 854.614 325.159 857.578C319.102 859.95 324.636 861.249 328.16 861.603L285.995 868.988L285.759 867.873Z" fill="#336DFD"/>
<path d="M285.889 867.845C285.717 868.503 286.73 871.812 287.258 873.384C324.445 867.055 346.82 861.534 351.16 859.06C355.5 856.585 367.493 850.739 371.163 845.104C374.099 840.595 385.845 827.159 390.03 823.033C390.792 824.426 390.114 842.705 389.679 851.671L426.551 843.854C424.995 828.251 419.565 803.559 418.742 803.345C417.918 803.131 405.384 807.342 394.362 813.177C383.339 819.011 375.796 832.074 366.357 842.625C356.918 853.175 351.439 853.948 340.062 858.109C330.96 861.438 300.154 865.987 285.889 867.845Z" fill="#222222" stroke="#222222"/>
<path d="M348.065 758.739C345.422 759.612 338.998 758.579 336.117 757.954C336.068 760.502 336.306 769.038 336.081 780.016C335.9 788.797 334.083 799.305 333.197 803.461C335.294 805.944 337.479 802.358 339.022 802.226C340.565 802.095 340.673 797.973 343.878 798.27C347.083 798.566 346.074 799.365 352.641 796.997C359.208 794.629 358.644 791.041 356.606 786.984C354.975 783.739 352.134 783.183 350.918 783.311C346.902 781.039 347.505 781.107 348.484 777.386C349.462 773.666 357.602 770.379 355.139 768.949C353.168 767.806 353.869 766.356 354.465 765.774C360.972 757.564 355.472 753.851 352.09 754.568C348.707 755.285 351.369 757.648 348.065 758.739Z" fill="#336DFD"/>
<path d="M367.099 803.788C365.975 802.158 369.755 797.645 371.785 795.593L387.088 791.57C390.313 792.703 395.845 796.331 392.173 801.781C387.583 808.593 384.981 806.419 383.452 806.549C381.922 806.679 382.56 800.51 377.096 805.951C371.631 811.391 368.505 805.825 367.099 803.788Z" fill="#336DFD"/>
<path d="M387.253 763.899C388.151 766.667 386.905 767.152 386.169 767.048L382.08 745.921L394.932 743.196C396.287 744.077 396.202 746.431 395.705 748.677C395.208 750.923 391.629 751.487 391.443 751.527C391.257 751.566 390.405 752.136 391.223 755.077C392.041 758.018 391.239 759.745 391.132 760.157C391.025 760.569 390.291 761.698 388.987 761.974C387.683 762.251 386.131 760.439 387.253 763.899Z" fill="#336DFD"/>
<path d="M389.438 785.232C389.7 782.062 385.274 757.632 383.008 745.72L359.685 750.47C360.841 761.125 363.902 783.95 366.9 790.01C370.647 797.585 374.304 797.394 381.941 795.775C389.578 794.156 389.111 789.194 389.438 785.232Z" fill="#222222"/>
<path d="M380.1 749.451C382.075 759.64 386.001 780.691 385.904 783.377C385.784 786.735 386.264 790.965 380.819 792.119C375.375 793.274 372.75 793.33 369.836 786.783C368.143 779.9 364.547 763.492 363.708 752.926" stroke="#336DFD" stroke-width="2" stroke-dasharray="12 12"/>
<path d="M344.628 813.464C345.139 807.835 351.155 805.573 354.1 805.146C358.377 805.225 360.941 810.005 358.851 812.026C356.761 814.046 354.225 818.527 354.014 819.361C353.774 820.311 354.185 828.394 349.547 826.617C344.909 824.84 343.989 820.5 344.628 813.464Z" fill="#336DFD"/>
<path d="M323.658 840.464C317.525 845.335 312.309 844.487 310.468 843.454C323.134 834.869 329.495 819.625 331.092 813.075C331.422 813.161 333.389 814.723 334.331 815.494C339.622 821.165 334.72 823.757 334.347 823.836C333.974 823.915 332.494 825.199 335.113 825.614C337.733 826.03 345.381 835.471 337.4 840.074C329.419 844.677 329.975 840.871 329.524 840.579C329.072 840.287 331.324 834.375 323.658 840.464Z" fill="#336DFD"/>
<path d="M-6.28633 483.765C-6.04648 483.811 -6.01564 485.215 -4.29797 484.913C4.94017 483.272 5.67539 474.832 11.1026 488.539C14.0881 496.081 21.4026 519.685 14.9377 526.016C7.71298 533.087 -0.15413 522.729 -3.01822 516.239C-4.92641 511.907 -11.6328 486.833 -8.38345 484.114C-7.65376 483.796 -7.12127 483.605 -6.28633 483.765Z" fill="#336DFD"/>
<path d="M18.3518 463.919C17.8879 463.49 17.4371 453.336 17.7655 452.894C19.0935 451.138 43.3354 447.381 47.3888 447.129C51.9072 446.855 58.3727 446.581 62.2981 448.901C68.7614 452.722 71.0942 458.331 64.6936 463.671C54.6718 472.029 30.5168 464.743 18.3518 463.919Z" fill="#336DFD"/>
<path d="M28.8335 442.472C27.5797 443.204 16.013 448.465 15.2747 448.462C13.4259 448.46 7.66786 440.43 7.98512 439.136C8.30237 437.843 23.9027 422.302 26.1564 420.551C31.7814 416.192 44.8546 407.325 51.2 413.784C58.9193 421.635 43.3928 434.001 36.9493 437.636C34.4976 439.024 30.7034 441.492 28.8335 442.472Z" fill="#336DFD"/>
<path d="M7.45968 391.972C12.8939 383.497 22.7141 386.03 23.7746 395.793C24.9767 406.839 13.3021 427.468 7.39039 436.804C5.45096 434.581 -1.33375 434.156 -2.67224 432.979C-4.44035 431.422 0.217852 408.494 1.39815 404.946C2.49949 401.658 5.66084 394.773 7.45968 391.972Z" fill="#336DFD"/>
<path d="M53.9311 501.848C45.9891 513.446 23.3752 492.705 17.7296 486.447C16.4431 485.019 11.2868 479.242 10.8417 478.159C10.1579 476.48 15.003 469.538 16.8889 469.597C18.1383 469.632 26.2842 473.23 28.1441 474.083C36.2478 477.801 50.799 485.062 53.8178 493.821C54.6144 496.133 55.401 499.715 53.9339 501.857L53.9311 501.848Z" fill="#336DFD"/>
<circle cx="-7.94479" cy="459.864" r="27.7274" transform="rotate(-16.8031 -7.94479 459.864)" fill="#222222"/>
<path d="M-9.07163 157.398C-9.323 156.97 -7.35638 149.233 -7.0089 148.974C-5.61157 147.955 13.4705 150.635 16.5757 151.366C20.0357 152.186 24.9596 153.448 27.3846 156.084C31.377 160.425 31.8576 165.173 25.832 167.735C16.3982 171.744 -0.110972 160.78 -9.07163 157.398Z" fill="#336DFD"/>
<path d="M3.68015 143.65C2.57116 143.916 -7.32105 145.244 -7.87555 145.075C-9.26549 144.654 -11.7718 137.308 -11.2395 136.407C-10.7072 135.506 4.55256 127.363 6.64486 126.558C11.8645 124.557 23.7085 120.858 27.0133 127.156C31.0353 134.812 16.5518 140.586 10.8812 141.856C8.72236 142.343 5.3089 143.337 3.68015 143.65Z" fill="#336DFD"/>
<path d="M-0.919134 100.822C5.0916 95.6836 11.9008 99.8181 10.4813 107.4C8.87697 115.98 -4.5862 128.841 -11.1514 134.518C-12.1052 132.407 -17.1104 130.546 -17.8497 129.358C-18.8257 127.785 -10.1164 111.601 -8.42331 109.202C-6.84854 106.98 -2.90793 102.52 -0.919134 100.822Z" fill="#336DFD"/>
<path d="M9.0718 193.997C0.466024 200.915 -11.829 180.183 -14.6532 174.196C-15.2964 172.83 -17.8619 167.315 -17.9506 166.399C-18.0837 164.982 -12.864 160.862 -11.4593 161.334C-10.5278 161.644 -5.21939 166.2 -4.01429 167.263C1.23494 171.899 10.5283 180.663 10.8092 187.935C10.8832 189.855 10.6614 192.727 9.0718 194.004V193.997Z" fill="#336DFD"/>
<path d="M757.399 10.9514C757.637 11.0756 757.222 12.5663 759.13 12.794C769.392 14.0052 772.855 5.34074 774.212 21.5206C774.959 30.4231 775.156 57.638 766.324 62.2549C756.455 67.4101 751.459 53.9838 750.505 46.2303C749.873 41.0544 750.785 12.4835 755.076 10.6512C755.947 10.5477 756.569 10.5166 757.399 10.9514Z" fill="#336DFD"/>
<path d="M789.691 -2.13033C789.339 -2.73073 792.096 -13.5794 792.583 -13.9417C794.543 -15.3703 821.298 -11.6126 825.652 -10.5877C830.503 -9.43869 837.407 -7.66854 840.807 -3.97295C846.405 2.11391 847.078 8.77011 838.63 12.3622C825.403 17.9832 802.255 2.61079 789.691 -2.13033Z" fill="#336DFD"/>
<path d="M748.836 10.6071C749.956 12.5326 740.108 28.6089 738.242 31.2797C735.485 35.2133 728.695 43.267 725.17 46.1759C709.134 59.4262 700.25 43.5155 712.731 27.5427C715.623 23.8471 737.081 4.66519 740.357 4.37534C740.886 4.32358 748.577 10.1516 748.847 10.6071H748.836Z" fill="#336DFD"/>
<path d="M815.13 49.1849C803.064 58.8845 785.825 29.8167 781.865 21.4214C780.963 19.5063 777.366 11.7735 777.242 10.4899C777.055 8.50234 784.374 2.72603 786.343 3.38855C787.649 3.82333 795.092 10.2104 796.782 11.701C804.142 18.202 817.172 30.4895 817.566 40.6861C817.67 43.3775 817.359 47.4044 815.13 49.1952V49.1849Z" fill="#336DFD"/>
<path d="M734.878 -13.2123C733.323 -10.7693 737.324 -1.30774 736.951 -0.800502C736.246 0.151863 717.452 6.65279 714.674 7.51199C706.215 10.1103 680.839 17.6153 682.041 1.92202C682.85 -8.64716 697.85 -10.5726 705.251 -12.2599C714.995 -13.5021 725.071 -13.1295 734.867 -13.2227L734.878 -13.2123Z" fill="#336DFD"/>
<circle cx="763.26" cy="-14.7786" r="30.5378" fill="#222222"/>
<path d="M1433.4 740.951C1433.64 741.076 1433.22 742.566 1435.13 742.794C1445.39 744.005 1448.85 735.341 1450.21 751.521C1450.96 760.423 1451.16 787.638 1442.32 792.255C1432.46 797.41 1427.46 783.984 1426.5 776.23C1425.87 771.054 1426.78 742.483 1431.08 740.651C1431.95 740.548 1432.57 740.517 1433.4 740.951Z" fill="#336DFD"/>
<path d="M1410.62 699.175C1413.88 702.166 1411.93 711.255 1409.26 712.166C1403.78 714.04 1382.06 706.928 1376.04 704.206C1368.55 700.81 1358.14 696.028 1360.38 686.131C1363.31 673.14 1388.67 686.38 1395.43 690.024C1398.65 691.763 1408.45 697.156 1410.62 699.175Z" fill="#336DFD"/>
<path d="M1424.84 740.607C1425.96 742.533 1416.11 758.609 1414.24 761.28C1411.48 765.213 1404.69 773.267 1401.17 776.176C1385.13 789.426 1376.25 773.515 1388.73 757.543C1391.62 753.847 1413.08 734.665 1416.36 734.375C1416.89 734.324 1424.58 740.152 1424.85 740.607H1424.84Z" fill="#336DFD"/>
<path d="M1410.88 716.788C1409.32 719.231 1413.32 728.692 1412.95 729.199C1412.25 730.152 1393.45 736.653 1390.67 737.512C1382.22 740.11 1356.84 747.615 1358.04 731.922C1358.85 721.353 1373.85 719.427 1381.25 717.74C1391 716.498 1401.07 716.871 1410.87 716.777L1410.88 716.788Z" fill="#336DFD"/>
<path d="M1443.93 687.899C1442.4 688.873 1433.32 687.558 1430.65 687.993C1428.62 676.202 1423.64 646.596 1432.2 637.372C1436.03 633.263 1442.78 634.826 1445.57 639.443C1446.45 640.871 1448.96 649.577 1449.19 651.358C1449.81 656.151 1446.81 686.057 1443.92 687.899H1443.93Z" fill="#336DFD"/>
<path d="M1414.43 698.678C1412.29 693.295 1406.24 689.703 1402.48 685.242C1396.48 678.12 1383.14 660.511 1388.05 651.163C1389.99 647.478 1395.44 648.337 1399.16 649.217C1409.21 651.609 1421.68 681.349 1424.75 690.987C1424.66 693.637 1417.41 695.552 1415.93 698.668H1414.42L1414.43 698.678Z" fill="#336DFD"/>
<circle cx="1439.26" cy="715.221" r="30.5378" fill="#222222"/>
<path d="M1440.66 658.397C1440.83 658.485 1440.53 659.546 1441.89 659.708C1449.19 660.57 1451.65 654.404 1452.62 665.918C1453.15 672.254 1453.29 691.621 1447.01 694.907C1439.98 698.576 1436.43 689.021 1435.75 683.503C1435.3 679.82 1435.95 659.487 1439 658.183C1439.62 658.11 1440.07 658.087 1440.66 658.397Z" fill="#E1D2F3"/>
<path d="M1424.45 628.669C1426.77 630.798 1425.38 637.267 1423.48 637.915C1419.58 639.248 1404.12 634.187 1399.84 632.25C1394.51 629.833 1387.1 626.43 1388.69 619.387C1390.78 610.142 1408.82 619.564 1413.63 622.157C1415.93 623.395 1422.9 627.233 1424.45 628.669Z" fill="#E1D2F3"/>
<path d="M1434.56 658.154C1435.36 659.524 1428.35 670.965 1427.02 672.866C1425.06 675.665 1420.23 681.396 1417.72 683.466C1406.31 692.896 1399.99 681.573 1408.87 670.206C1410.93 667.576 1426.2 653.925 1428.53 653.719C1428.91 653.682 1434.38 657.83 1434.57 658.154H1434.56Z" fill="#E1D2F3"/>
<path d="M1424.63 641.203C1423.52 642.941 1426.37 649.675 1426.11 650.036C1425.6 650.713 1412.23 655.34 1410.25 655.951C1404.23 657.8 1386.17 663.141 1387.03 651.973C1387.6 644.451 1398.28 643.081 1403.55 641.88C1410.48 640.996 1417.65 641.262 1424.62 641.195L1424.63 641.203Z" fill="#E1D2F3"/>
<path d="M1448.15 620.645C1447.07 621.337 1440.61 620.402 1438.7 620.711C1437.26 612.32 1433.71 591.251 1439.81 584.687C1442.53 581.763 1447.33 582.875 1449.32 586.161C1449.94 587.177 1451.74 593.373 1451.9 594.64C1452.34 598.051 1450.2 619.334 1448.14 620.645H1448.15Z" fill="#E1D2F3"/>
<path d="M1427.16 628.317C1425.63 624.486 1421.33 621.93 1418.65 618.755C1414.38 613.686 1404.89 601.155 1408.38 594.503C1409.76 591.88 1413.64 592.492 1416.29 593.118C1423.44 594.82 1432.31 615.985 1434.5 622.843C1434.44 624.729 1429.28 626.092 1428.23 628.31H1427.15L1427.16 628.317Z" fill="#E1D2F3"/>
<circle cx="1444.83" cy="640.088" r="21.7323" fill="#222222"/>
<path d="M11.8062 78.1447C11.4337 77.5102 14.3478 66.0453 14.8627 65.6624C16.9332 64.1527 45.208 68.1238 49.809 69.2069C54.936 70.4212 62.232 72.2919 65.8252 76.1974C71.7409 82.63 72.453 89.6642 63.5247 93.4603C49.5461 99.4006 25.0837 83.1551 11.8062 78.1447Z" fill="#E1D2F3"/>
<path d="M30.7075 57.7716C29.0643 58.1654 14.4065 60.1345 13.5849 59.8829C11.5253 59.2594 7.81162 48.3743 8.60038 47.0397C9.38914 45.705 32.0002 33.6384 35.1005 32.446C42.8347 29.4813 60.3846 24.0005 65.2814 33.3321C71.2409 44.6767 49.7801 53.2315 41.3777 55.1132C38.1788 55.8352 33.1209 57.3082 30.7075 57.7716Z" fill="#E1D2F3"/>
<path d="M23.8871 -5.68523C32.7935 -13.2993 42.883 -7.17303 40.7797 4.06211C38.4024 16.7741 18.4534 35.8312 8.72538 44.2439C7.31219 41.1151 -0.104329 38.3583 -1.19983 36.597C-2.64588 34.2668 10.2591 10.2868 12.7678 6.73141C15.1012 3.43855 20.9402 -3.16908 23.8871 -5.68523Z" fill="#E1D2F3"/>
<path d="M38.6887 132.375C25.9371 142.626 7.71895 111.907 3.53415 103.035C2.58106 101.011 -1.22031 92.8387 -1.35177 91.4822C-1.54895 89.3817 6.18526 83.2773 8.26671 83.9775C9.64703 84.4369 17.5127 91.1868 19.2984 92.7621C27.0764 99.6323 40.8468 112.618 41.2631 123.393C41.3726 126.238 41.044 130.493 38.6887 132.386V132.375Z" fill="#E1D2F3"/>
<circle cx="-16.1261" cy="64.7762" r="32.2723" fill="#222222"/>
<rect x="891.258" y="772.77" width="30.5203" height="19.6202" transform="rotate(-0.178788 891.258 772.77)" fill="#222222"/>
<rect x="1131.79" y="772.02" width="30.5203" height="19.6202" transform="rotate(-0.178788 1131.79 772.02)" fill="#222222"/>
<circle cx="906.7" cy="830.859" r="42.147" transform="rotate(-0.178788 906.7 830.859)" fill="#336DFD"/>
<circle cx="1147.23" cy="830.105" r="42.147" transform="rotate(-0.178788 1147.23 830.105)" fill="#336DFD"/>
<circle cx="906.7" cy="830.859" r="14.5335" transform="rotate(-0.178788 906.7 830.859)" fill="#222222"/>
<circle cx="1147.22" cy="830.105" r="14.5335" transform="rotate(-0.178788 1147.22 830.105)" fill="#222222"/>
<path d="M642.572 879.592C641.017 879.965 627.147 881.828 626.37 881.59C624.421 881 620.907 870.7 621.653 869.437C622.4 868.174 643.795 856.756 646.729 855.628C654.048 852.823 670.654 847.636 675.288 856.467C680.927 867.201 660.62 875.296 652.669 877.077C649.642 877.76 644.856 879.154 642.572 879.592Z" fill="#E1D2F3"/>
<path d="M636.119 819.543C644.546 812.339 654.094 818.136 652.103 828.767C649.854 840.796 630.977 858.828 621.772 866.789C620.435 863.828 613.417 861.22 612.38 859.553C611.012 857.348 623.223 834.657 625.597 831.293C627.805 828.177 633.33 821.924 636.119 819.543Z" fill="#E1D2F3"/>
<path d="M569.624 870.175C572.879 873.166 570.93 882.255 568.256 883.166C562.783 885.04 541.055 877.928 535.043 875.206C527.548 871.81 517.14 867.028 519.379 857.131C522.313 844.14 547.669 857.38 554.428 861.024C557.651 862.763 567.447 868.156 569.624 870.175Z" fill="#E1D2F3"/>
<path d="M602.926 858.899C601.402 859.873 592.322 858.558 589.647 858.993C587.615 847.202 582.639 817.596 591.202 808.372C595.027 804.263 601.776 805.826 604.574 810.443C605.445 811.871 607.5 814.996 608.192 822.358C608.814 827.151 605.808 857.057 602.916 858.899H602.926Z" fill="#E1D2F3"/>
<path d="M573.432 869.678C571.286 864.295 565.242 860.703 561.479 856.242C555.477 849.12 542.136 831.511 547.05 822.163C548.988 818.478 554.441 819.337 558.162 820.217C568.207 822.609 580.678 852.349 583.746 861.987C583.663 864.637 576.407 866.552 574.935 869.668H573.421L573.432 869.678Z" fill="#E1D2F3"/>
<circle cx="598.26" cy="886.221" r="30.5378" fill="#222222"/>
<path d="M1110.33 -158.004C1114.14 -124.774 1151.58 -117.542 1163.15 -23.3423C1174.73 70.8578 1250.5 73.5983 1329.65 94.2526C1525.89 145.464 1385.63 -6.22259 1339.5 46.4961C1305.45 85.4124 1383.93 242.406 1494.17 182.503C1604.4 122.599 1639.22 255.825 1737.12 296.393" stroke="#8A9D4C" stroke-width="4" stroke-linecap="round" stroke-dasharray="8 8"/>
</svg>
