<svg width="1440" height="1536" viewBox="0 0 1440 1536" fill="none" xmlns="http://www.w3.org/2000/svg">
<path d="M548.764 1161.48C559.54 1154.51 572.393 1163.21 576.166 1167.49C562.247 1188.02 531.953 1229.19 528.777 1234.41C524.808 1240.93 504.805 1259.73 492.55 1261.73C482.745 1263.33 453.895 1275.88 440.871 1280.46C442.362 1282.4 469.168 1293.25 482.386 1298.44L448.881 1345.04C431.388 1336.78 396.977 1310.92 394.773 1308.97C392.568 1307.02 321.094 1245.47 323.316 1242.37C325.094 1239.9 361.372 1188.1 379.289 1162.51C401.126 1174.26 433.128 1187.92 470.572 1192.51C508.016 1197.09 535.294 1170.18 548.764 1161.48Z" fill="white"/>
<path d="M460.492 1224.56C434.776 1227.1 383.889 1262.34 361.66 1279.64L342.632 1262.53C359.476 1250.45 402.565 1223.01 440.17 1209.93C487.177 1193.57 489.051 1210.02 495.41 1214.11C501.77 1218.21 511.884 1248.39 509.946 1250.41C508.394 1252.02 495.736 1257.24 489.6 1259.65C490.612 1246.89 486.207 1222.01 460.492 1224.56Z" fill="#DCFC73"/>
<path d="M569.228 1162.13C570.261 1162.3 574.292 1165.78 576.178 1167.5C544.224 1215.95 522.587 1244.04 516.413 1248.62C510.24 1253.2 494.579 1266.47 484.37 1268.14C476.204 1269.48 450.009 1277.69 441.608 1281.02C443.097 1282.96 469.251 1293.34 482.142 1298.29L448.289 1345.38C427.287 1333.51 395.889 1310.54 396.098 1309.25C396.308 1307.96 410.004 1292.92 425.047 1281.01C440.091 1269.1 463.157 1266.58 483.859 1259.83C504.561 1253.08 509.045 1245.84 521.953 1232.4C532.279 1221.64 557.772 1181.07 569.228 1162.13Z" fill="#222222" stroke="#222222"/>
<path d="M604.449 530.923C615.725 535.93 615.5 550.857 614.046 556.147C590.207 555.751 541.149 553.039 535.279 553.23C527.943 553.47 502.293 547.264 494.228 538.453C487.776 531.404 462.49 514.787 451.951 506.713C451.177 508.933 456.569 536.226 459.363 549.594L404.244 547.159C401.673 528.727 404.336 487.418 404.74 484.618C405.145 481.817 416.991 391.878 420.647 392.039C423.572 392.168 484.329 394.101 514.343 395.052C516.397 418.815 522.273 451.765 538.311 484.319C554.348 516.873 590.354 524.664 604.449 530.923Z" fill="white"/>
<path d="M507.207 493.077C491.601 473.715 436.407 451.302 410.761 442.516L414.498 418.192C433.102 425.391 477.902 445.636 508.265 469.018C546.219 498.245 533.961 508.417 534.022 515.69C534.083 522.963 515.121 546.998 512.476 546.498C510.36 546.099 499.487 538.654 494.315 534.982C505.115 529.081 522.813 512.44 507.207 493.077Z" fill="#E1D2F3"/>
<path d="M614.685 547.745C615.096 548.664 614.421 553.739 614.033 556.162C558.246 555.95 524.263 553.323 517.331 550.764C510.398 548.206 491.483 542.584 484.761 535.249C479.383 529.38 458.985 512.62 451.879 507.614C451.105 509.832 456.533 536.348 459.343 549.328L403.655 546.868C402.137 523.716 404.062 486.357 405.212 485.845C406.362 485.332 425.67 488.438 443.166 494.278C460.663 500.119 474.84 517.355 491.171 530.464C507.502 543.573 515.684 543.371 533.291 546.683C547.377 549.332 593.423 548.495 614.685 547.745Z" fill="#222222" stroke="#222222"/>
<path d="M823.319 872.522C811.375 877.207 810.926 892.727 812.195 898.291C836.981 898.974 888.074 898.408 894.163 898.876C901.774 899.462 928.706 894.191 937.489 885.406C944.514 878.379 971.544 862.273 982.863 854.367C983.566 856.71 976.716 884.821 973.203 898.583L1030.58 898.583C1034.09 879.55 1033.21 836.505 1032.92 833.577C1032.63 830.648 1024.43 736.652 1020.63 736.652C1017.58 736.652 954.37 735.871 923.144 735.48C919.924 760.078 912.313 794.045 894.163 827.134C876.013 860.224 838.249 866.666 823.319 872.522Z" fill="white"/>
<path d="M926.055 837.663C943.137 818.261 1001.45 797.507 1028.47 789.555L1025.7 764.109C1006.06 770.736 958.638 789.714 926.055 812.615C885.327 841.241 897.585 852.374 897.19 859.928C896.794 867.482 915.379 893.325 918.147 892.927C920.361 892.609 931.987 885.373 937.522 881.795C926.582 875.169 908.973 857.065 926.055 837.663Z" fill="#DCFC73"/>
<path d="M811.91 889.533C811.441 890.469 811.91 895.774 812.203 898.309C870.173 900.649 905.6 899.48 912.92 897.139C920.239 894.799 940.149 889.826 947.468 882.512C953.324 876.661 975.283 860.18 982.895 855.305C983.598 857.645 976.746 884.95 973.233 898.309L1031.2 898.309C1033.84 874.32 1033.55 835.411 1032.38 834.826C1031.2 834.241 1011 836.581 992.557 841.847C974.111 847.113 958.594 864.374 941.027 877.246C923.46 890.118 914.969 889.533 896.524 892.166C881.768 894.272 833.966 891.288 811.91 889.533Z" fill="#222222" stroke="#222222"/>
<path d="M178.195 647.147C171.252 657.808 179.817 670.587 184.041 674.345C204.434 660.617 245.336 630.725 250.519 627.595C256.997 623.683 275.697 603.915 277.73 591.768C279.357 582.051 291.904 553.485 296.49 540.586C298.404 542.071 309.046 568.697 314.128 581.824L360.427 548.769C352.313 531.389 326.844 497.168 324.924 494.974C323.003 492.78 262.321 421.669 259.25 423.861C256.794 425.615 205.338 461.402 179.917 479.076C191.467 500.776 204.864 532.565 209.252 569.716C213.64 606.867 186.873 633.82 178.195 647.147Z" fill="white"/>
<path d="M268.523 459.647C277.321 454.217 277.978 444.975 277.207 441.032C278.352 440.215 312.239 479.397 329.04 499.09L317.114 507.604C315.271 505.019 310.062 501.147 303.976 506.343C296.369 512.838 295.139 505.558 295.925 504.642C296.712 503.726 298.948 499.291 296.009 498.197C293.069 497.103 290.247 494.153 291.149 491.381C292.051 488.608 289.325 473.173 283.194 477.195C277.064 481.218 257.526 466.435 268.523 459.647Z" fill="#DCFC73"/>
<path d="M241.331 601.406C239.247 610.516 243.821 619.271 246.369 622.51L247.536 624.147C250.402 621.983 256.907 617.033 259.995 614.546C263.855 611.437 274.866 592.284 275.883 591.205C276.901 590.125 290.612 541.168 290.445 540.934C290.278 540.7 285.856 537.506 280.328 538.276C274.801 539.047 272.844 544.325 272.45 547.783C272.055 551.241 274.003 551.967 262.281 552.573C250.559 553.179 255.131 568.617 259.545 568.289C263.075 568.026 265.216 571.062 265.845 572.613C268.662 588.597 257.958 588.124 257.177 589.034C256.396 589.944 243.936 590.018 241.331 601.406Z" fill="#DCFC73"/>
<path d="M178.624 667.557C176.349 664.199 172.911 655.832 177.364 649.236C181.817 642.639 185.418 637.791 186.662 636.191C190.145 638.568 197.832 642.026 200.713 636.837C203.547 631.734 203.635 631.092 203.314 631.415C203.309 631.421 203.303 631.427 203.298 631.432C203.303 631.426 203.309 631.421 203.314 631.415C205.519 629.132 211.32 624.504 217.037 624.115C217.758 623.956 219.006 623.065 218.229 620.772C217.259 617.905 223.398 609.962 226.946 609.921C230.493 609.88 236.203 620.397 227.426 629.155C220.404 636.162 228.929 634.608 234.069 632.955L179.633 668.972L178.624 667.557Z" fill="#DCFC73"/>
<path d="M178.783 667.441C178.944 668.467 182.373 672.476 184.068 674.353C232.189 642.845 260.102 621.493 264.662 615.388C269.221 609.284 282.425 593.802 284.124 583.685C285.484 575.592 293.722 549.647 297.06 541.328C298.973 542.811 309.151 568.786 314 581.587L360.776 548.192C349.104 527.321 326.487 496.1 325.206 496.303C323.924 496.505 308.97 510.031 297.116 524.906C285.261 539.78 282.669 562.643 275.898 583.148C269.128 603.652 261.94 608.071 248.571 620.821C237.876 631.021 197.59 656.151 178.783 667.441Z" fill="#222222" stroke="#222222"/>
<path d="M199.268 476.974C196.106 479.805 186.499 482.275 182.09 483.157C183.572 486.749 189.102 498.542 195.468 514.031C200.561 526.422 204.417 542.224 205.708 548.577C210.151 550.771 211.022 544.425 213.099 543.3C215.175 542.175 212.818 536.346 217.477 534.808C222.137 533.269 221.214 535.002 228.951 527.689C236.689 520.376 233.716 515.701 228.398 511.27C224.143 507.725 219.834 508.679 218.212 509.599C211.216 508.869 212.1 508.596 211.204 502.797C210.307 496.997 219.683 487.441 215.37 486.943C211.92 486.544 212.017 484.09 212.497 482.913C216.594 467.466 206.647 465.625 202.355 468.689C198.064 471.752 203.222 473.436 199.268 476.974Z" fill="#DCFC73"/>
<path d="M253.292 528.385C250.728 526.79 253.265 518.177 254.853 514.07L273.793 499.12C278.99 498.739 288.93 500.442 287.115 510.301C284.846 522.623 279.887 521.169 277.828 522.283C275.769 523.396 272.906 514.381 268.58 525.318C264.254 536.256 256.497 530.378 253.292 528.385Z" fill="#DCFC73"/>
<path d="M257.174 460.316C260.114 463.64 258.667 465.077 257.576 465.381L239 438.327L255.306 426.685C257.735 427.091 259.049 430.434 259.722 433.879C260.395 437.323 255.736 440.292 255.5 440.461C255.263 440.63 254.42 441.946 257.353 445.56C260.287 449.174 260.217 452.078 260.318 452.719C260.419 453.361 260.08 455.386 258.426 456.568C256.772 457.749 253.499 456.161 257.174 460.316Z" fill="#DCFC73"/>
<path d="M273.219 488.82C271.656 484.227 250.6 452.759 240.182 437.481L210.473 458.336C218.574 472.532 236.746 502.587 244.624 509.235C254.472 517.546 259.468 515.049 269.158 508.132C278.847 501.214 275.173 494.56 273.219 488.82Z" fill="#222222"/>
<path d="M238.39 444.469C247.352 457.516 265.653 484.562 267.153 488.378C269.029 493.147 272.275 498.771 265.367 503.703C258.459 508.634 254.825 510.313 246.767 502.933C240.21 494.339 225.197 473.583 217.593 459.317" stroke="#DCFC73" stroke-width="2" stroke-dasharray="12 12"/>
<path d="M227.777 555.6C225.065 547.417 232.098 540.588 235.953 538.197C241.98 535.701 248.473 540.824 246.782 544.923C245.091 549.022 244.273 556.834 244.486 558.128C244.728 559.603 250.224 570.656 242.659 570.997C235.094 571.338 231.167 565.829 227.777 555.6Z" fill="#DCFC73"/>
<path d="M214.909 606.136C209.302 616.685 201.495 618.678 198.292 618.355C210.771 598.631 210.383 573.437 208.629 563.305C209.142 563.224 212.842 564.211 214.628 564.714C225.475 569.421 220.201 576.033 219.728 576.37C219.255 576.708 217.968 579.405 221.881 578.39C225.795 577.375 242.231 585.917 233.878 597.217C225.525 608.517 223.986 602.857 223.177 602.723C222.368 602.589 221.917 592.95 214.909 606.136Z" fill="#DCFC73"/>
<path d="M212.966 1025.72C200.654 1030.55 200.191 1046.55 201.499 1052.28C227.048 1052.99 279.716 1052.4 285.992 1052.89C293.838 1053.49 321.6 1048.06 330.652 1039C337.895 1031.76 365.757 1015.16 377.425 1007.01C378.149 1009.42 371.088 1038.4 367.467 1052.58H426.612C430.233 1032.96 429.327 988.594 429.026 985.575C428.724 982.557 420.275 885.664 416.352 885.664C413.214 885.664 348.054 884.859 315.866 884.457C312.547 909.812 304.701 944.826 285.992 978.935C267.283 1013.04 228.356 1019.68 212.966 1025.72Z" fill="white"/>
<path d="M402.611 921.57C413.336 922.291 419.47 914.863 421.197 911.059C422.659 911.059 427.697 964.716 430.033 991.545H414.799C414.799 988.241 412.727 981.814 404.439 982.535C394.079 983.436 397.432 976.529 398.651 976.228C399.87 975.928 404.439 973.525 402.611 970.823C400.783 968.12 400.174 963.915 402.611 962.113C405.048 960.311 412.056 945.596 404.439 945.295C396.822 944.995 389.205 920.669 402.611 921.57Z" fill="#E1D2F3"/>
<path d="M294.019 1025.15C286.755 1031.61 285.343 1041.78 285.545 1046.07V1048.16C289.278 1048.06 297.772 1047.8 301.888 1047.56C307.032 1047.26 327.913 1037.7 329.426 1037.4C330.939 1037.1 372.096 1003.94 372.096 1003.64C372.096 1003.34 370.28 997.964 365.136 995.275C359.991 992.586 355.149 995.872 352.728 998.561C350.307 1001.25 351.518 1003.04 341.228 996.47C330.939 989.897 325.492 1005.73 329.426 1008.12C332.574 1010.03 332.553 1013.9 332.15 1015.59C324.887 1030.83 316.111 1023.96 314.9 1024.26C313.69 1024.55 303.098 1017.09 294.019 1025.15Z" fill="#E1D2F3"/>
<path d="M201.004 1043.26C201.105 1039.04 203.244 1029.88 210.996 1026.98C218.747 1024.09 224.722 1022.16 226.741 1021.56C228.255 1025.68 232.675 1033.25 238.247 1030.6C243.725 1027.99 244.187 1027.5 243.721 1027.58C243.713 1027.58 243.705 1027.58 243.697 1027.59C243.705 1027.58 243.713 1027.58 243.721 1027.58C246.965 1026.98 254.67 1026.57 259.744 1029.7C260.451 1030 262.045 1030 262.772 1027.59C263.68 1024.57 273.672 1021.56 276.7 1023.67C279.728 1025.78 278.214 1038.13 265.497 1040.24C255.324 1041.93 263.479 1045.77 268.828 1047.48L201.004 1045.07V1043.26Z" fill="#E1D2F3"/>
<path d="M201.209 1043.26C200.726 1044.22 201.209 1049.69 201.511 1052.3C261.267 1054.72 297.786 1053.51 305.331 1051.1C312.876 1048.68 333.398 1043.56 340.943 1036.02C346.979 1029.99 369.615 1013 377.462 1007.97C378.186 1010.39 371.124 1038.53 367.502 1052.3H427.259C429.975 1027.57 429.673 987.467 428.466 986.864C427.259 986.261 406.435 988.673 387.421 994.101C368.407 999.53 352.412 1017.32 334.304 1030.59C316.196 1043.86 307.443 1043.26 288.43 1045.97C273.219 1048.14 223.945 1045.07 201.209 1043.26Z" fill="#222222" stroke="#222222"/>
<path d="M333.519 894.38C329.133 894.864 319.509 891.149 315.245 889.23C314.332 893.168 311.895 906.495 307.936 923.457C304.769 937.027 298.495 952.737 295.754 958.896C298.19 963.439 302.759 958.593 305.195 958.896C307.632 959.199 309.154 952.838 314.027 954.352C318.9 955.867 317.073 956.776 328.037 955.261C339.001 953.747 339.305 947.992 337.478 941.025C336.016 935.452 331.793 933.655 329.864 933.453C324.382 928.607 325.296 928.909 328.037 923.457C330.778 918.005 344.483 915.582 341.132 912.553C338.452 910.13 340.016 908.111 341.132 907.404C353.924 896.803 346.614 889.23 341.132 889.23C335.65 889.23 339.001 893.774 333.519 894.38Z" fill="#E1D2F3"/>
<path d="M348.222 970.557C347.014 967.657 354.36 961.898 358.184 959.38L383.241 958.172C387.87 960.991 395.257 968.442 387.771 975.692C378.412 984.754 375.092 980.525 372.677 980.223C370.262 979.921 373.279 970.557 363.015 977.203C352.751 983.848 349.732 974.182 348.222 970.557Z" fill="#E1D2F3"/>
<path d="M392.6 915.279C393.082 919.871 390.99 920.213 389.883 919.81L390.487 885.676L411.316 885.676C413.128 887.488 412.222 891.113 410.713 894.436C409.203 897.759 403.467 897.457 403.166 897.457C402.864 897.457 401.355 898.061 401.657 902.894C401.959 907.727 400.148 910.144 399.846 910.748C399.544 911.352 398.035 912.862 395.922 912.862C393.808 912.862 391.996 909.54 392.6 915.279Z" fill="#E1D2F3"/>
<path d="M388.975 949.109C390.424 944.276 391.591 904.905 391.994 885.673L354.259 885.371C352.548 902.287 349.791 938.718 352.447 949.109C355.768 962.099 361.504 963.005 373.881 963.005C386.258 963.005 387.164 955.151 388.975 949.109Z" fill="#222222"/>
<path d="M386.259 890.508C385.972 906.971 385.14 940.932 384.107 945.07C382.816 950.241 382.17 956.965 373.346 956.965C364.522 956.965 360.433 956.189 358.066 945.07C357.703 933.83 357.521 907.182 359.694 890.508" stroke="#E1D2F3" stroke-width="2" stroke-dasharray="12 12"/>
<path d="M310.194 978.179C312.837 969.611 322.912 968.081 327.619 968.387C334.228 969.917 336.632 978.179 332.727 980.628C328.821 983.076 323.413 989.196 322.813 990.42C322.127 991.815 320.108 1004.5 313.499 1000.21C306.889 995.928 306.89 988.889 310.194 978.179Z" fill="#E1D2F3"/>
<path d="M268.793 1013.19C257.679 1018.73 249.868 1015.7 247.352 1013.49C269.82 1004.33 284.698 982.767 289.328 973.129C289.811 973.37 292.348 976.442 293.556 977.948C299.898 988.49 291.442 990.9 290.838 990.9C290.234 990.9 287.516 992.406 291.442 993.912C295.368 995.418 304.126 1012.59 290.234 1017.1C276.343 1021.62 278.457 1015.9 277.853 1015.3C277.249 1014.7 282.685 1006.26 268.793 1013.19Z" fill="#E1D2F3"/>
<path d="M572.478 1240.87C560.201 1245.79 559.856 1261.79 561.205 1267.52C586.759 1268.03 639.422 1267.06 645.702 1267.5C653.552 1268.04 681.273 1262.41 690.26 1253.28C697.449 1245.99 725.19 1229.18 736.798 1220.95C737.54 1223.36 730.69 1252.38 727.173 1266.6L786.317 1266.16C789.795 1246.51 788.565 1202.15 788.241 1199.14C787.918 1196.12 778.761 1099.29 774.838 1099.32C771.7 1099.35 706.535 1099.02 674.345 1098.86C671.211 1124.23 663.621 1159.31 645.161 1193.55C626.702 1227.79 587.824 1234.72 572.478 1240.87Z" fill="white"/>
<path d="M761.356 1135.33C772.086 1135.97 778.166 1128.5 779.865 1124.68C781.327 1124.67 786.757 1178.29 789.289 1205.1L774.055 1205.21C774.031 1201.91 771.912 1195.5 763.629 1196.28C753.276 1197.26 756.578 1190.33 757.795 1190.02C759.011 1189.71 763.564 1187.27 761.716 1184.58C759.868 1181.89 759.228 1177.69 761.652 1175.87C764.076 1174.05 770.977 1159.29 763.357 1159.04C755.738 1158.8 747.944 1134.53 761.356 1135.33Z" fill="#E1D2F3"/>
<path d="M653.525 1239.71C646.309 1246.22 644.972 1256.4 645.205 1260.68L645.22 1262.78C648.952 1262.65 657.444 1262.33 661.558 1262.06C666.7 1261.72 687.511 1252.01 689.022 1251.7C690.533 1251.39 731.446 1217.92 731.444 1217.62C731.442 1217.32 729.587 1211.96 724.423 1209.31C719.259 1206.66 714.441 1209.98 712.04 1212.69C709.638 1215.39 710.862 1217.18 700.525 1210.68C690.188 1204.18 684.856 1220.06 688.808 1222.42C691.969 1224.31 691.977 1228.17 691.586 1229.87C684.435 1245.16 675.609 1238.35 674.4 1238.66C673.192 1238.97 662.545 1231.58 653.525 1239.71Z" fill="#E1D2F3"/>
<path d="M560.647 1258.5C560.717 1254.28 562.789 1245.1 570.52 1242.15C578.25 1239.2 584.211 1237.23 586.225 1236.61C587.768 1240.72 592.244 1248.26 597.796 1245.57C603.256 1242.92 603.714 1242.43 603.249 1242.51C603.24 1242.51 603.232 1242.51 603.224 1242.51C603.233 1242.51 603.241 1242.51 603.249 1242.51C606.488 1241.88 614.19 1241.42 619.287 1244.5C619.996 1244.8 621.59 1244.79 622.299 1242.37C623.186 1239.35 633.155 1236.27 636.198 1238.35C639.242 1240.44 637.818 1252.81 625.117 1255.01C614.956 1256.77 623.139 1260.55 628.5 1262.22L560.66 1260.31L560.647 1258.5Z" fill="#E1D2F3"/>
<path d="M560.852 1258.49C560.376 1259.46 560.899 1264.93 561.22 1267.54C620.993 1269.51 657.502 1268.03 665.029 1265.57C672.556 1263.1 693.041 1257.82 700.531 1250.23C706.522 1244.15 729.033 1227 736.843 1221.91C737.585 1224.32 730.728 1252.52 727.208 1266.31L786.963 1265.87C789.499 1241.13 788.904 1201.02 787.692 1200.43C786.481 1199.84 765.674 1202.4 746.701 1207.97C727.727 1213.54 711.862 1231.45 693.851 1244.85C675.841 1258.25 667.084 1257.71 648.091 1260.56C632.896 1262.85 583.6 1260.13 560.852 1258.49Z" fill="#222222" stroke="#222222"/>
<path d="M692.068 1108.65C687.685 1109.17 678.035 1105.52 673.757 1103.64C672.872 1107.58 670.533 1120.93 666.698 1137.92C663.629 1151.51 657.47 1167.27 654.774 1173.44C657.244 1177.97 661.777 1173.09 664.216 1173.37C666.654 1173.66 668.131 1167.29 673.014 1168.77C677.898 1170.24 676.078 1171.17 687.03 1169.57C697.983 1167.98 698.246 1162.22 696.368 1155.27C694.865 1149.7 690.629 1147.94 688.699 1147.75C683.181 1142.94 684.097 1143.24 686.798 1137.77C689.499 1132.3 703.187 1129.77 699.814 1126.77C697.117 1124.37 698.665 1122.33 699.777 1121.62C712.49 1110.92 705.126 1103.41 699.644 1103.45C694.162 1103.49 697.546 1108.01 692.068 1108.65Z" fill="#E1D2F3"/>
<path d="M707.336 1184.72C706.107 1181.82 713.411 1176.01 717.217 1173.47L742.264 1172.07C746.914 1174.86 754.355 1182.25 746.921 1189.56C737.629 1198.69 734.278 1194.48 731.861 1194.2C729.443 1193.92 732.393 1184.53 722.177 1191.25C711.962 1197.97 708.872 1188.33 707.336 1184.72Z" fill="#E1D2F3"/>
<path d="M751.304 1129.11C751.82 1133.7 749.73 1134.05 748.62 1133.66L748.975 1099.52L769.805 1099.37C771.63 1101.17 770.75 1104.8 769.265 1108.13C767.78 1111.47 762.042 1111.21 761.74 1111.21C761.438 1111.21 759.934 1111.83 760.271 1116.66C760.608 1121.49 758.815 1123.92 758.517 1124.52C758.22 1125.13 756.721 1126.65 754.608 1126.67C752.495 1126.68 750.659 1123.37 751.304 1129.11Z" fill="#E1D2F3"/>
<path d="M747.925 1162.97C749.339 1158.13 750.219 1118.75 750.482 1099.51L712.743 1099.49C711.156 1116.42 708.664 1152.87 711.396 1163.24C714.812 1176.2 720.554 1177.07 732.932 1176.98C745.309 1176.88 746.158 1169.02 747.925 1162.97Z" fill="#222222"/>
<path d="M744.78 1104.39C744.613 1120.85 744.028 1154.82 743.026 1158.96C741.772 1164.14 741.175 1170.87 732.351 1170.94C723.527 1171 719.432 1170.26 716.983 1159.16C716.538 1147.92 716.162 1121.27 718.214 1104.58" stroke="#E1D2F3" stroke-width="2" stroke-dasharray="12 12"/>
<path d="M669.356 1192.62C671.936 1184.03 682 1182.43 686.709 1182.7C693.329 1184.18 695.794 1192.43 691.906 1194.9C688.018 1197.38 682.655 1203.54 682.063 1204.77C681.389 1206.17 679.462 1218.86 672.821 1214.63C666.181 1210.39 666.13 1203.35 669.356 1192.62Z" fill="#E1D2F3"/>
<path d="M628.214 1227.93C617.141 1233.56 609.308 1230.58 606.775 1228.39C629.176 1219.07 643.897 1197.39 648.457 1187.72C648.942 1187.96 651.501 1191.01 652.72 1192.51C659.138 1203 650.7 1205.48 650.096 1205.48C649.492 1205.49 646.785 1207.01 650.722 1208.49C654.659 1209.97 663.542 1227.07 649.684 1231.69C635.825 1236.31 637.897 1230.57 637.289 1229.97C636.681 1229.38 642.055 1220.9 628.214 1227.93Z" fill="#E1D2F3"/>
<path d="M1190.49 648.163C1202.33 652.806 1202.78 668.189 1201.52 673.703C1176.95 674.381 1126.31 673.819 1120.28 674.284C1112.73 674.864 1086.04 669.64 1077.33 660.933C1070.37 653.967 1043.58 638.004 1032.36 630.168C1031.66 632.49 1038.45 660.352 1041.94 673.994L985.065 673.994C981.584 655.128 982.454 612.464 982.744 609.561C983.034 606.659 991.159 513.493 994.931 513.493C997.948 513.493 1060.6 512.719 1091.55 512.332C1094.74 536.712 1102.29 570.379 1120.28 603.176C1138.27 635.973 1175.7 642.358 1190.49 648.163Z" fill="white"/>
<path d="M1008.14 548.017C997.832 548.71 991.933 541.568 990.273 537.91C988.867 537.91 984.023 589.504 981.776 615.301L996.425 615.301C996.425 612.124 998.417 605.945 1006.39 606.638C1016.35 607.504 1013.12 600.862 1011.95 600.573C1010.78 600.285 1006.39 597.975 1008.14 595.376C1009.9 592.777 1010.49 588.734 1008.14 587.001C1005.8 585.269 999.062 571.119 1006.39 570.83C1013.71 570.541 1021.03 547.151 1008.14 548.017Z" fill="#E1D2F3"/>
<path d="M1112.56 647.617C1119.54 653.822 1120.9 663.609 1120.71 667.727L1120.71 669.738C1117.12 669.642 1108.95 669.393 1104.99 669.164C1100.04 668.876 1079.97 659.683 1078.51 659.396C1077.06 659.109 1037.48 627.22 1037.48 626.933C1037.48 626.645 1039.23 621.474 1044.18 618.889C1049.12 616.303 1053.78 619.463 1056.11 622.049C1058.43 624.634 1057.27 626.358 1067.16 620.038C1077.06 613.717 1082.29 628.944 1078.51 631.242C1075.49 633.081 1075.51 636.796 1075.89 638.424C1082.88 653.076 1091.32 646.468 1092.48 646.755C1093.64 647.042 1103.83 639.86 1112.56 647.617Z" fill="#E1D2F3"/>
<path d="M1202 665.025C1201.9 660.968 1199.84 652.159 1192.39 649.376C1184.93 646.594 1179.19 644.74 1177.25 644.16C1175.79 648.121 1171.54 655.404 1166.19 652.854C1160.92 650.346 1160.47 649.875 1160.92 649.952C1160.93 649.953 1160.94 649.955 1160.95 649.956C1160.94 649.954 1160.93 649.953 1160.92 649.952C1157.8 649.374 1150.39 648.978 1145.51 651.985C1144.84 652.274 1143.3 652.274 1142.6 649.956C1141.73 647.058 1132.12 644.16 1129.21 646.189C1126.3 648.217 1127.76 660.099 1139.98 662.127C1149.77 663.75 1141.92 667.44 1136.78 669.083L1202 666.764L1202 665.025Z" fill="#E1D2F3"/>
<path d="M1201.8 665.021C1202.26 665.949 1201.8 671.207 1201.51 673.72C1144.05 676.04 1108.94 674.88 1101.68 672.56C1094.43 670.241 1074.69 665.312 1067.44 658.062C1061.63 652.263 1039.87 635.928 1032.33 631.096C1031.63 633.415 1038.42 660.479 1041.9 673.72L984.443 673.72C981.831 649.943 982.121 611.378 983.282 610.798C984.443 610.218 1004.47 612.538 1022.75 617.757C1041.03 622.976 1056.41 640.084 1073.82 652.843C1091.23 665.601 1099.65 665.021 1117.93 667.631C1132.56 669.719 1179.94 666.761 1201.8 665.021Z" fill="#222222" stroke="#222222"/>
<path d="M1074.58 521.873C1078.8 522.339 1088.05 518.766 1092.15 516.922C1093.03 520.708 1095.37 533.523 1099.18 549.832C1102.22 562.88 1108.26 577.986 1110.89 583.908C1108.55 588.277 1104.16 583.617 1101.81 583.908C1099.47 584.199 1098.01 578.083 1093.32 579.539C1088.63 580.995 1090.39 581.869 1079.85 580.413C1069.31 578.957 1069.01 573.423 1070.77 566.725C1072.18 561.366 1076.24 559.638 1078.09 559.443C1083.36 554.784 1082.49 555.075 1079.85 549.832C1077.21 544.59 1064.04 542.26 1067.26 539.348C1069.83 537.018 1068.33 535.076 1067.26 534.396C1054.96 524.203 1061.99 516.922 1067.26 516.922C1072.53 516.922 1069.31 521.29 1074.58 521.873Z" fill="#E1D2F3"/>
<path d="M1060.43 595.12C1061.59 592.331 1054.53 586.793 1050.85 584.373L1026.76 583.211C1022.31 585.922 1015.21 593.086 1022.4 600.057C1031.4 608.771 1034.6 604.704 1036.92 604.414C1039.24 604.123 1036.34 595.12 1046.21 601.51C1056.08 607.9 1058.98 598.605 1060.43 595.12Z" fill="#E1D2F3"/>
<path d="M1017.76 541.965C1017.3 546.38 1019.31 546.709 1020.38 546.322L1019.79 513.5L999.766 513.5C998.024 515.243 998.895 518.728 1000.35 521.923C1001.8 525.118 1007.31 524.828 1007.6 524.828C1007.89 524.828 1009.34 525.409 1009.05 530.056C1008.76 534.704 1010.5 537.027 1010.79 537.608C1011.09 538.189 1012.54 539.641 1014.57 539.641C1016.6 539.641 1018.34 536.446 1017.76 541.965Z" fill="#E1D2F3"/>
<path d="M1021.25 574.498C1019.86 569.851 1018.73 531.994 1018.35 513.501L1054.63 513.211C1056.28 529.477 1058.93 564.506 1056.37 574.498C1053.18 586.988 1047.66 587.859 1035.76 587.859C1023.86 587.859 1022.99 580.307 1021.25 574.498Z" fill="#222222"/>
<path d="M1023.86 518.148C1024.14 533.979 1024.94 566.634 1025.93 570.612C1027.18 575.585 1027.8 582.049 1036.28 582.049C1044.77 582.049 1048.7 581.303 1050.97 570.612C1051.32 559.805 1051.5 534.182 1049.41 518.148" stroke="#E1D2F3" stroke-width="2" stroke-dasharray="12 12"/>
<path d="M1097.01 602.45C1094.46 594.211 1084.78 592.74 1080.25 593.034C1073.9 594.505 1071.59 602.45 1075.34 604.804C1079.1 607.158 1084.3 613.043 1084.87 614.219C1085.53 615.561 1087.47 627.754 1093.83 623.635C1100.18 619.516 1100.18 612.748 1097.01 602.45Z" fill="#E1D2F3"/>
<path d="M1136.81 636.113C1147.5 641.442 1155.01 638.527 1157.43 636.403C1135.83 627.598 1121.52 606.862 1117.07 597.594C1116.6 597.825 1114.16 600.78 1113 602.228C1106.9 612.364 1115.03 614.681 1115.62 614.681C1116.2 614.681 1118.81 616.13 1115.03 617.578C1111.26 619.026 1102.84 635.534 1116.2 639.878C1129.55 644.223 1127.52 638.72 1128.1 638.141C1128.68 637.561 1123.46 629.452 1136.81 636.113Z" fill="#E1D2F3"/>
<path d="M1252.07 1388.08C1264.38 1392.91 1264.84 1408.9 1263.53 1414.64C1237.98 1415.34 1185.32 1414.76 1179.04 1415.24C1171.19 1415.85 1143.43 1410.41 1134.38 1401.36C1127.14 1394.11 1099.27 1377.51 1087.61 1369.36C1086.88 1371.78 1093.94 1400.75 1097.56 1414.94L1038.42 1414.94C1034.8 1395.32 1035.7 1350.95 1036.01 1347.93C1036.31 1344.91 1044.76 1248.02 1048.68 1248.02C1051.82 1248.02 1116.98 1247.21 1149.17 1246.81C1152.48 1272.17 1160.33 1307.18 1179.04 1341.29C1197.75 1375.4 1236.68 1382.04 1252.07 1388.08Z" fill="white"/>
<path d="M1062.42 1283.93C1051.7 1284.65 1045.56 1277.22 1043.84 1273.42C1042.38 1273.42 1037.34 1327.08 1035 1353.9L1050.24 1353.9C1050.24 1350.6 1052.31 1344.17 1060.6 1344.89C1070.96 1345.8 1067.6 1338.89 1066.38 1338.59C1065.17 1338.29 1060.6 1335.88 1062.42 1333.18C1064.25 1330.48 1064.86 1326.27 1062.42 1324.47C1059.99 1322.67 1052.98 1307.95 1060.6 1307.65C1068.21 1307.35 1075.83 1283.03 1062.42 1283.93Z" fill="#E1D2F3"/>
<path d="M1171.01 1387.51C1178.28 1393.96 1179.69 1404.14 1179.49 1408.42L1179.49 1410.51C1175.75 1410.41 1167.26 1410.16 1163.14 1409.92C1158 1409.62 1137.12 1400.06 1135.6 1399.76C1134.09 1399.46 1092.94 1366.29 1092.94 1366C1092.94 1365.7 1094.75 1360.32 1099.9 1357.63C1105.04 1354.94 1109.88 1358.23 1112.3 1360.92C1114.72 1363.61 1113.51 1365.4 1123.8 1358.83C1134.09 1352.25 1139.54 1368.09 1135.6 1370.48C1132.46 1372.39 1132.48 1376.25 1132.88 1377.95C1140.14 1393.18 1148.92 1386.31 1150.13 1386.61C1151.34 1386.91 1161.93 1379.44 1171.01 1387.51Z" fill="#E1D2F3"/>
<path d="M1264.03 1405.61C1263.93 1401.39 1261.79 1392.23 1254.04 1389.34C1246.28 1386.45 1240.31 1384.52 1238.29 1383.91C1236.78 1388.03 1232.36 1395.61 1226.78 1392.96C1221.31 1390.35 1220.84 1389.86 1221.31 1389.94C1221.32 1389.94 1221.33 1389.94 1221.33 1389.94C1221.33 1389.94 1221.32 1389.94 1221.31 1389.94C1218.07 1389.34 1210.36 1388.92 1205.29 1392.05C1204.58 1392.35 1202.99 1392.35 1202.26 1389.94C1201.35 1386.93 1191.36 1383.91 1188.33 1386.02C1185.3 1388.13 1186.82 1400.49 1199.53 1402.6C1209.71 1404.29 1201.55 1408.13 1196.2 1409.83L1264.03 1407.42L1264.03 1405.61Z" fill="#E1D2F3"/>
<path d="M1263.82 1405.61C1264.31 1406.57 1263.82 1412.04 1263.52 1414.65C1203.76 1417.07 1167.25 1415.86 1159.7 1413.45C1152.16 1411.04 1131.63 1405.91 1124.09 1398.37C1118.05 1392.34 1095.42 1375.35 1087.57 1370.33C1086.85 1372.74 1093.91 1400.88 1097.53 1414.65L1037.77 1414.65C1035.06 1389.93 1035.36 1349.82 1036.57 1349.22C1037.77 1348.61 1058.6 1351.02 1077.61 1356.45C1096.62 1361.88 1112.62 1379.67 1130.73 1392.94C1148.84 1406.21 1157.59 1405.61 1176.6 1408.32C1191.81 1410.49 1241.09 1407.42 1263.82 1405.61Z" fill="#222222" stroke="#222222"/>
<path d="M1131.51 1256.74C1135.9 1257.22 1145.52 1253.5 1149.79 1251.59C1150.7 1255.52 1153.14 1268.85 1157.1 1285.81C1160.26 1299.38 1166.54 1315.09 1169.28 1321.25C1166.84 1325.79 1162.27 1320.95 1159.84 1321.25C1157.4 1321.55 1155.88 1315.19 1151 1316.71C1146.13 1318.22 1147.96 1319.13 1136.99 1317.62C1126.03 1316.1 1125.73 1310.35 1127.55 1303.38C1129.02 1297.81 1133.24 1296.01 1135.17 1295.81C1140.65 1290.96 1139.74 1291.26 1136.99 1285.81C1134.25 1280.36 1120.55 1277.94 1123.9 1274.91C1126.58 1272.49 1125.02 1270.47 1123.9 1269.76C1111.11 1259.16 1118.42 1251.59 1123.9 1251.59C1129.38 1251.59 1126.03 1256.13 1131.51 1256.74Z" fill="#E1D2F3"/>
<path d="M1116.8 1332.91C1118.01 1330.01 1110.67 1324.25 1106.84 1321.74L1081.79 1320.53C1077.16 1323.35 1069.77 1330.8 1077.26 1338.05C1086.62 1347.11 1089.94 1342.88 1092.35 1342.58C1094.77 1342.28 1091.75 1332.91 1102.01 1339.56C1112.28 1346.2 1115.3 1336.54 1116.8 1332.91Z" fill="#E1D2F3"/>
<path d="M1072.43 1277.63C1071.95 1282.22 1074.04 1282.56 1075.15 1282.16L1074.54 1248.03L1053.71 1248.03C1051.9 1249.84 1052.81 1253.46 1054.32 1256.79C1055.83 1260.11 1061.56 1259.81 1061.87 1259.81C1062.17 1259.81 1063.68 1260.41 1063.37 1265.25C1063.07 1270.08 1064.88 1272.5 1065.19 1273.1C1065.49 1273.7 1067 1275.21 1069.11 1275.21C1071.22 1275.21 1073.03 1271.89 1072.43 1277.63Z" fill="#E1D2F3"/>
<path d="M1076.06 1311.46C1074.61 1306.63 1073.44 1267.26 1073.04 1248.03L1110.77 1247.73C1112.48 1264.64 1115.24 1301.07 1112.58 1311.46C1109.26 1324.45 1103.53 1325.36 1091.15 1325.36C1078.77 1325.36 1077.87 1317.51 1076.06 1311.46Z" fill="#222222"/>
<path d="M1078.77 1252.86C1079.06 1269.33 1079.89 1303.29 1080.92 1307.43C1082.21 1312.6 1082.86 1319.32 1091.68 1319.32C1100.51 1319.32 1104.6 1318.54 1106.97 1307.43C1107.33 1296.19 1107.51 1269.54 1105.34 1252.86" stroke="#E1D2F3" stroke-width="2" stroke-dasharray="12 12"/>
<path d="M1154.84 1340.54C1152.19 1331.97 1142.12 1330.44 1137.41 1330.75C1130.8 1332.28 1128.4 1340.54 1132.3 1342.99C1136.21 1345.44 1141.62 1351.56 1142.22 1352.78C1142.9 1354.17 1144.92 1366.86 1151.53 1362.57C1158.14 1358.29 1158.14 1351.25 1154.84 1340.54Z" fill="#E1D2F3"/>
<path d="M1196.24 1375.54C1207.35 1381.09 1215.16 1378.05 1217.68 1375.85C1195.21 1366.69 1180.33 1345.12 1175.7 1335.48C1175.22 1335.73 1172.68 1338.8 1171.48 1340.3C1165.13 1350.85 1173.59 1353.26 1174.19 1353.26C1174.8 1353.26 1177.51 1354.76 1173.59 1356.27C1169.66 1357.77 1160.91 1374.94 1174.8 1379.46C1188.69 1383.98 1186.57 1378.26 1187.18 1377.65C1187.78 1377.05 1182.35 1368.62 1196.24 1375.54Z" fill="#E1D2F3"/>
<path d="M895.422 -38.0234C901.975 -9.91677 874.422 5.00458 918.922 64.5433C963.422 124.082 996.855 137.131 1066.7 147.006C1239.87 171.49 1054.59 -6.18752 1020.28 43.5656C994.958 80.2927 1127.85 268.631 1216.35 206.378C1304.86 144.124 1347.86 254.88 1435.73 279.97" stroke="#193F79" stroke-width="4" stroke-linecap="round" stroke-dasharray="8 8"/>
<path d="M1229.57 335.789C1218.18 336.232 1206.8 336.291 1195.41 336.622C1191.18 336.749 1179.63 340.067 1178.31 334.926L1175.31 248.399C1176.23 244.542 1181.06 235.398 1183.9 232.404C1182.3 234.003 1184.89 231.349 1183.9 232.404C1187.25 229.05 1199.94 211.701 1204.21 211.451C1203.18 210.933 1204.89 211.413 1204.21 211.451C1203.24 211.179 1205.68 212.173 1204.21 211.451C1207.63 212.404 1216.26 217.811 1220.19 220.228C1218.89 223.13 1217.87 224.84 1215.95 227.385C1214.38 229.466 1208.92 232.456 1212.55 235.394C1215.68 237.93 1222.93 225.732 1223.96 223.607C1229.55 226.904 1230.73 227.368 1234.15 230.007C1236.3 231.672 1240.28 233.766 1242.15 235.281C1249.4 241.154 1252.18 242.121 1253.46 252.033L1255.65 333.179C1255.47 333.973 1254.85 334.227 1254.22 334.561C1251.14 336.172 1234.39 335.599 1229.57 335.78L1229.57 335.789Z" fill="#E1D2F3"/>
<path d="M1223.97 223.61C1222.93 225.727 1215.68 237.927 1212.56 235.396C1208.92 232.459 1214.39 229.469 1215.96 227.388C1217.87 224.846 1218.89 223.125 1220.2 220.231C1223.05 213.896 1225.12 203.359 1217.73 199.172C1208.6 194.003 1209.07 209.112 1210.15 214.236C1209.17 213.965 1207.77 214.326 1206.31 213.604C1204.44 209.079 1204.39 202.762 1206.08 198.181C1206.37 197.419 1207.98 196.344 1207.8 194.914C1213.94 194.568 1217.21 191.807 1222.78 197.506C1229.97 204.844 1228.1 215.193 1223.98 223.616L1223.97 223.61Z" fill="#222222"/>
<path d="M992.309 262.145C980.93 261.448 969.597 260.368 958.239 259.56C954.016 259.264 942.193 261.411 941.394 256.164L947.042 169.77C948.341 166.024 954.061 157.408 957.18 154.713C955.429 156.144 958.274 153.762 957.18 154.713C960.848 151.71 975.207 135.716 979.486 135.894C978.508 135.276 980.167 135.924 979.486 135.894C978.541 135.526 980.869 136.759 979.486 135.894C982.793 137.184 990.838 143.427 994.509 146.225C992.92 148.982 991.736 150.581 989.575 152.922C987.807 154.836 982.069 157.264 985.39 160.55C988.257 163.387 996.68 151.974 997.922 149.963C1003.15 153.802 1004.28 154.382 1007.42 157.349C1009.4 159.221 1013.14 161.702 1014.85 163.397C1021.48 169.964 1024.15 171.205 1024.43 181.194L1018.52 262.154C1018.25 262.926 1017.62 263.118 1016.95 263.386C1013.73 264.681 997.118 262.437 992.307 262.136L992.309 262.145Z" fill="#DCFC73"/>
<path d="M997.93 149.97C996.686 151.973 988.254 163.387 985.398 160.557C982.077 157.271 987.815 154.842 989.583 152.928C991.736 150.59 992.927 148.98 994.517 146.231C997.99 140.213 1001.1 129.935 994.161 125.03C985.59 118.974 984.552 134.055 985.112 139.261C984.168 138.894 982.739 139.113 981.356 138.249C979.951 133.56 980.528 127.27 982.673 122.881C983.031 122.151 984.746 121.242 984.711 119.802C990.855 120.071 994.375 117.65 999.35 123.877C1005.77 131.898 1002.88 142.008 997.94 149.976L997.93 149.97Z" fill="#222222"/>
<path d="M-6 162C31.5 153.5 28.3 48.2983 103.5 51.4983C178.7 54.6983 156 18 136.5 3" stroke="#193F79" stroke-width="4" stroke-linecap="round" stroke-dasharray="8 8"/>
</svg>
