<svg width="1440" height="286" viewBox="0 0 1440 286" fill="none" xmlns="http://www.w3.org/2000/svg">
<path d="M0 158.729V156.47C5.14615 161.731 11.5472 165.576 19.703 167.249C41.855 171.795 59.1037 157.827 66.8533 138.117L66.8767 75.7582C52.1534 75.5876 38.2929 68.0954 28.911 57.0345C21.5994 65.7666 11.2381 72.3155 0 74.8081V67.6368C9.42574 65.2857 18.1883 59.8452 24.5361 51.3151C25.0312 50.6528 28.0782 46.1508 28.0782 45.8264V37.9664L23.6665 45.7629C17.8417 55.1104 9.29895 61.0753 0 63.6609V62.0749C9.07709 59.391 17.2197 53.3419 22.6598 44.4216C23.3555 43.2811 28.0748 35.0197 28.0748 34.4511V0H29.8193L29.9077 34.6317C33.7608 42.2944 37.4601 49.5825 44.31 55.0143C62.3146 69.2961 88.4099 65.4632 101.267 46.4318C102.14 45.1374 108.02 34.8223 108.02 34.1199V0H109.425L109.341 33.4577C117.542 55.7133 138.958 69.925 162.702 61.0481C175.493 56.2686 182.165 46.1174 187.791 34.2939L187.798 0H189.374L189.477 34.6015C192.086 38.9196 194.016 43.7159 197.043 47.773C212.462 68.4399 243.434 69.1089 259.331 48.6326C260.505 47.1208 267.559 35.4411 267.559 34.4511V0H269.218L269.211 33.4678C272.479 41.2576 276.79 49.2213 283.453 54.6798C300.772 68.8747 326.82 65.8177 339.938 47.6359C340.908 46.2947 347.494 35.2137 347.494 34.4544V0H349.25L349.354 34.9394C351.414 38.2908 352.942 41.9766 355.05 45.2979C369.368 67.8546 401.176 70.0454 418.395 49.4955C419.706 47.9302 427.436 35.227 427.436 34.1199V0H428.759L428.75 33.1366C433.536 45.1474 440.567 55.3521 452.859 60.5364C469.188 67.4198 488.48 62.4429 499.143 48.3115C500.16 46.967 507.033 35.5782 507.033 34.7955V0H508.702L508.695 33.4544C512.983 44.0102 519.355 53.76 529.777 59.1985C545.862 67.5937 564.512 63.6704 576.944 50.9973V53.0041C557.635 72.0054 526.9 68.1891 512.789 45.0806L508.712 37.6185V45.813C508.712 46.3415 514.063 53.4289 514.896 54.3453C531.142 72.3198 558.441 73.8215 576.944 58.3556V67.0519C569.489 71.6609 561.227 75.039 552.374 75.7615C551.337 75.8451 547.761 75.4304 547.323 76.0625L547.159 137.475C547.357 139.481 552.447 148.388 553.855 150.512C559.066 158.362 567.656 164.754 576.944 166.724V168.396C567.572 166.219 559.207 160.553 553.594 152.78L547.176 141.973V149.833C547.176 150.054 549.103 153.078 549.44 153.589C555.682 163.052 565.866 169.992 576.944 172.41V179.434C565.09 177.233 554.243 170.691 546.674 161.379C537.242 172.413 523.485 180.002 508.712 180.103L508.699 241.829C513.512 253.847 521.137 264.56 533.717 269.323C549.477 275.286 565.281 271.085 576.947 259.372V261.379C559.2 279.34 529.456 277.083 514.796 256.469L508.715 246.328V254.188C508.715 254.706 513.766 261.489 514.565 262.386C520.944 269.574 530.272 274.892 539.754 276.664C553.183 279.173 566.472 275.219 576.951 266.727V274.599C569.499 279.208 554.698 283.394 545.845 284.116C531.319 283.929 517.204 276.598 508.214 265.383L507.705 265.543C498.026 277.621 483.048 284.337 467.579 284.451C453.464 284.146 439.336 277.28 429.777 267.232C429.312 266.744 428.559 265.232 427.951 265.383C418.328 277.357 403.14 284.728 387.64 284.11C373.084 283.849 357.541 276.457 348.344 265.389C338.283 277.434 323.516 284.434 307.705 284.444C292.895 284.27 277.907 276.403 268.405 265.386C258.635 277.2 241.959 284.682 226.429 284.106C211.883 283.919 197.879 276.577 188.798 265.379L188.289 265.533C178.61 277.644 161.977 283.976 146.494 284.103C134.624 283.799 122.817 278.815 114.047 270.898C112.117 269.156 110.508 266.938 108.538 265.369C98.9926 277.31 83.5066 285.076 68.044 284.461C53.3106 284.28 38.2862 276.48 28.9311 265.379C22.8374 272.688 11.1267 278.466 0 281.617V276.018C9.46412 273.657 18.2415 268.2 24.5361 259.69C25.0312 259.021 28.0782 254.526 28.0782 254.201V246.341L23.6665 254.138C17.8667 263.503 9.31548 269.475 0 272.059V270.466C7.41247 268.337 14.2472 264.002 19.3753 257.539C20.5426 256.068 28.0815 243.689 28.0815 242.833V180.454L28.0748 180.451C17.5276 180.373 8.20511 177.491 0 172.181V163.901C17.681 177.816 44.5167 176.661 60.5251 158.887C61.5286 157.774 66.8701 150.756 66.8701 149.847V141.987L60.3111 152.987C45.3303 173.175 17.2369 174.667 0 158.729ZM29.7472 37.9664V45.8264C29.7472 46.1542 32.7942 50.6495 33.2892 51.3151C50.0127 73.9186 84.1622 74.9755 102.501 53.6898C103.23 52.8436 108.017 46.3047 108.017 45.8264V37.6319L104.271 44.4216C89.1257 71.2595 50.7553 72.2228 34.296 45.9669L29.7539 37.9664H29.7472ZM109.351 37.6319V45.4919C109.351 45.8063 112.278 50.121 112.756 50.7832C129.172 73.4603 163.047 75.3133 181.767 54.3621C182.71 53.3085 187.952 46.308 187.952 45.4953V37.6352L183.54 45.4317C167.616 71.7144 129.931 71.6977 113.766 45.4317C112.224 42.9265 111.167 39.9029 109.354 37.6352L109.351 37.6319ZM189.289 37.6319V45.8264C189.289 46.3181 194.223 52.9673 194.986 53.8436C212.047 73.5172 243.293 74.136 261.04 55.0277C262.057 53.9306 267.559 46.7362 267.559 45.8264V37.9664L262.682 46.6358C247.146 70.4702 212.271 71.5305 195.511 48.3082L189.293 37.6352L189.289 37.6319ZM349.166 37.9664V45.8264C349.166 46.9302 355.033 54.3487 356.183 55.5327C375.382 75.33 408.458 72.9988 424.362 50.4454C424.84 49.7665 427.436 45.8899 427.436 45.4919V37.6319L421.211 48.2981C403.441 72.2864 368.341 70.3097 352.912 44.7561L349.17 37.963L349.166 37.9664ZM507.036 38.3008C505.09 40.816 503.906 43.9467 502.16 46.6358C486.603 70.5638 452.223 71.3632 435.329 48.6326L428.77 37.6319V45.4919C428.77 45.7127 430.697 48.7363 431.035 49.248C447.367 74.0055 484.175 75.8853 502.678 52.5091C503.26 51.7733 507.036 46.5489 507.036 46.1642V38.3008ZM347.494 37.9664C346.123 39.3377 345.5 41.5017 344.541 43.2075C328.707 71.3833 291.507 72.7379 273.77 45.9669L269.228 37.9664V45.8264C269.228 46.3917 273.82 52.6228 274.589 53.5092C292.37 74.0891 324.084 74.2096 341.982 53.6898C342.775 52.78 347.497 46.4218 347.497 45.8264V37.9664H347.494ZM68.2113 75.7615V138.809C68.2113 139.689 76.0412 152.412 77.252 153.85C94.5508 174.39 126.262 172.353 140.597 149.653C141.965 147.485 146.287 139.943 146.494 137.822L146.477 75.7582C134.607 75.4538 122.8 70.4736 114.027 62.5533C113.181 61.7874 108.906 56.9375 108.525 57.0312C98.8923 69.0086 83.7106 76.3568 68.2113 75.7615ZM148.15 76.096V138.809C148.15 139.652 155.568 151.874 156.712 153.325C172.686 173.587 204.297 172.664 219.131 151.593C220.606 149.495 226.245 139.796 226.432 137.822L226.419 75.7615C211.883 75.5574 197.865 68.2259 188.784 57.0345L188.276 57.1883C178.596 69.3029 163.632 75.9655 148.15 76.096ZM228.088 75.7615V139.144C228.088 139.95 235.219 151.576 236.316 152.991C248.099 168.172 269.295 172.45 286.176 163.115C296.119 157.616 301.471 148.613 306.197 138.652L306.354 75.7615C291.821 75.4604 277.717 68.2961 268.72 57.0278C268.074 57.0211 264.629 61.202 263.716 62.0582C254.267 70.9284 241.132 76.1929 228.085 75.7615H228.088ZM307.692 76.096V138.475C307.692 139.294 314.833 151.238 315.92 152.656C330.881 172.146 360.22 173.32 376.429 154.703C380.422 150.118 382.784 144.529 385.771 139.294L385.958 75.7615C371.358 75.4571 357.568 68.1055 348.33 57.0379C338.199 69.0621 323.543 76.0257 307.692 76.096ZM387.63 75.7615V138.809C387.63 139.706 395.43 152.385 396.671 153.85C410.401 170.052 434.112 172.952 451.002 159.704C458.063 154.165 461.792 146.84 465.739 138.986L465.9 75.7615C454.253 75.5173 442.433 70.5839 433.784 62.8911C432.857 62.0649 428.352 56.9342 427.947 57.0345C418.315 69.0119 403.133 76.3602 387.634 75.7648L387.63 75.7615ZM467.569 76.096V138.809C467.569 139.485 473.285 149.402 474.121 150.653C489.67 173.858 523.997 173.748 539.356 150.392C540.811 148.181 545.638 139.662 545.852 137.488L545.835 75.7582C531.319 75.5809 517.221 68.1991 508.2 57.0245C507.458 57.0111 506.892 58.3356 506.374 58.8774C495.828 69.8648 483.041 75.9655 467.565 76.0926L467.569 76.096ZM68.2113 141.987V150.181C68.2113 150.696 73.4156 157.636 74.2217 158.553C92.1627 178.855 124.71 178.253 141.785 157.198C142.541 156.268 146.477 150.89 146.477 150.184V142.324L141.601 150.994C126.158 175.069 91.0155 175.698 74.4358 152.66L68.2113 141.993V141.987ZM228.088 142.321V150.516C228.088 150.807 230.854 154.73 231.296 155.335C247.832 178.056 281.981 179.581 300.508 158.379C301.441 157.312 306.357 150.716 306.357 149.847V141.987L302.611 148.776C286.644 175.611 250.417 176.638 232.971 150.991L228.095 142.321H228.088ZM385.958 142.656C384.269 144.696 383.279 147.492 381.881 149.783C366.151 175.494 329.964 176.159 313.11 151.455L307.695 141.987V149.847C307.695 150.76 312.89 157.613 313.88 158.713C332.041 178.942 364.666 178.21 381.6 156.854C382.192 156.105 385.961 150.897 385.961 150.512V142.652L385.958 142.656ZM387.63 141.987V150.181C387.63 150.833 392.473 157.272 393.306 158.218C410.478 177.728 441.069 178.675 459.043 159.72C460.14 158.563 465.896 151.195 465.896 150.184V142.324L461.354 150.325C444.952 176.494 407.384 175.634 391.711 149.452L387.634 141.99L387.63 141.987ZM467.569 150.181C467.569 150.509 470.616 155.004 471.111 155.67C488.018 178.531 521.964 179.267 540.493 157.881C541.242 157.014 545.835 150.706 545.835 150.178V141.983L541.878 149.231C526.415 175.778 488.58 176.41 472.111 150.315L467.569 142.314V150.181ZM148.15 142.321V150.181C148.15 150.693 152.598 156.864 153.331 157.71C171.288 178.534 203.04 178.691 221.074 157.881C221.823 157.014 226.416 150.706 226.416 150.178V142.318L222.004 150.114C205.983 175.986 168.894 175.986 152.695 150.318L148.153 142.318L148.15 142.321ZM108.013 180.116C92.4972 180.728 77.3657 173.326 67.7062 161.386L67.1978 161.54C58.1839 172.688 44.2097 179.936 29.7472 180.113L29.9077 243.007C33.7675 250.723 37.4166 257.921 44.31 263.389C62.3246 277.681 88.1357 273.882 101.13 255.007C101.999 253.743 108.017 243.528 108.017 242.829V180.116H108.013ZM147.314 161.393C140.417 169.651 130.741 176.2 120.198 178.752C116.669 179.608 113.08 179.916 109.498 180.427L109.344 241.833C117.215 263.072 137.109 277.373 160.264 270.329C174.242 266.075 181.914 255.355 187.794 242.672L187.808 180.431C187.37 179.805 183.236 180.213 182.105 180.113C168.669 178.922 155.916 171.53 147.317 161.396L147.314 161.393ZM267.556 180.116C252.1 180.708 236.982 173.146 227.252 161.393C217.903 172.48 203.999 179.989 189.286 180.113L189.473 242.977C192.082 247.295 194.012 252.091 197.039 256.148C212.472 276.835 243.42 277.501 259.328 257.008C260.522 255.469 267.556 243.87 267.556 242.826V180.113V180.116ZM347.494 180.451C332.045 180.35 317.03 173.617 307.368 161.543L306.859 161.389C299.089 171.075 287.901 177.541 275.653 179.688C274.586 179.875 269.489 180.16 269.275 180.501L269.248 242.478C273.031 250.138 276.733 257.559 283.453 263.058C301.581 277.899 328.443 273.862 341.146 254.211C341.958 252.957 347.494 243.485 347.494 242.833V180.451ZM427.432 242.495V180.116C411.97 180.768 396.674 173.306 387.125 161.383C386.383 161.369 385.818 162.694 385.299 163.235C375.66 173.276 363.401 179.979 349.166 180.116L349.354 243.314C351.758 247.308 353.558 251.666 356.254 255.479C371.673 277.29 403.732 277.621 419.679 256.148C421.057 254.295 427.081 244.221 427.436 242.498L427.432 242.495ZM507.036 180.451C491.42 180.33 476.63 173.363 466.733 161.393C458.715 171.032 447.634 177.584 435.199 179.691C434.165 179.865 429.058 180.113 428.814 180.501L428.787 242.144C432.75 250.402 436.647 257.971 443.999 263.724C461.127 277.133 486.269 273.935 499.283 256.489C500.307 255.118 507.033 243.619 507.033 242.833V180.454L507.036 180.451ZM29.7472 246.341V254.201C29.7472 255.325 35.9014 263.038 37.0955 264.245C55.2673 282.568 85.6472 281.625 102.498 262.068C103.227 261.222 108.013 254.683 108.013 254.205V246.01L104.267 252.8C88.9618 279.715 50.976 280.628 34.2926 254.345L29.7505 246.345L29.7472 246.341ZM109.351 246.007V253.867C109.351 254.181 112.278 258.496 112.756 259.158C129.182 281.849 163.06 283.695 181.767 262.737C182.731 261.657 187.952 254.726 187.952 253.87V246.01L182.537 255.479C166.766 278.838 132.891 279.711 115.903 257.018L109.351 246.01V246.007ZM189.289 246.007V254.201C189.289 254.693 194.223 261.342 194.986 262.219C213.83 283.949 249.066 282.049 265.154 258.151C265.549 257.566 267.559 254.539 267.559 254.201V246.341L262.682 255.011C247.2 278.869 212.248 279.909 195.517 256.676L189.293 246.01L189.289 246.007ZM349.166 246.341V254.201C349.166 254.539 351.176 257.57 351.571 258.151C367.562 281.919 402.735 283.973 421.586 262.399C422.519 261.332 427.436 254.737 427.436 253.867V246.007L423.69 252.797C408.792 279.337 370.766 280.685 354.05 255.011L349.173 246.341H349.166ZM507.036 246.676C505.347 248.716 504.357 251.512 502.959 253.803C487.697 278.748 452.755 280.327 435.329 257.011L428.77 246.01V253.87C428.77 254.091 430.697 257.115 431.035 257.626C447.407 282.447 484.128 284.264 502.675 260.881C503.267 260.132 507.036 254.924 507.036 254.539V246.676ZM347.494 246.341C345.31 249.408 343.922 253.007 341.748 256.148C325.412 279.721 290.463 279.079 274.573 255.549L269.231 246.341V254.201C269.231 254.807 273.797 261.008 274.573 261.904C293.487 283.745 327.954 282.33 344.618 258.683C345.032 258.095 347.497 254.472 347.497 254.205V246.345L347.494 246.341Z" fill="#054FF0"/>
<path d="M68.2113 75.7615C83.7106 76.3568 98.8956 69.0086 108.525 57.0312C108.906 56.9375 113.181 61.7874 114.027 62.5533C122.797 70.4736 134.607 75.4538 146.477 75.7582L146.494 137.822C146.287 139.943 141.965 147.482 140.597 149.653C126.265 172.353 94.5542 174.39 77.252 153.85C76.0412 152.412 68.2113 139.689 68.2113 138.809V75.7615Z" fill="#054FF0"/>
<path d="M269.218 0H347.494V34.4544C347.494 35.2137 340.908 46.2947 339.938 47.6359C326.82 65.8177 300.772 68.8747 283.453 54.6798C276.79 49.2213 272.479 41.2576 269.211 33.4678L269.218 0Z" fill="white"/>
<path d="M307.692 76.096C323.543 76.0257 338.199 69.0621 348.33 57.0379C357.572 68.1021 371.358 75.4537 385.958 75.7615L385.771 139.294C382.781 144.525 380.422 150.114 376.429 154.703C360.22 173.32 330.881 172.149 315.92 152.656C314.833 151.238 307.692 139.297 307.692 138.475V76.096Z" fill="white"/>
<path d="M28.068 180.447L28.0748 180.451L28.0747 242.829C28.0747 243.685 20.5391 256.064 19.3685 257.536C14.2429 263.997 7.41051 268.332 0 270.462V172.183C8.20346 177.49 17.5237 180.37 28.068 180.447Z" fill="white"/>
<path d="M385.958 142.656L385.957 150.516C385.957 150.901 382.188 156.108 381.596 156.857C364.662 178.21 332.037 178.946 313.876 158.717C312.886 157.613 307.691 150.763 307.691 149.85V141.99L313.106 151.459C329.964 176.16 366.147 175.497 381.877 149.787C383.278 147.499 384.268 144.703 385.954 142.659L385.958 142.656Z" fill="white"/>
<path d="M228.088 142.321L232.965 150.99C250.415 176.637 286.638 175.611 302.605 148.776L306.351 141.986V149.846C306.351 150.719 301.435 157.312 300.501 158.379C281.975 179.581 247.826 178.056 231.29 155.335C230.848 154.73 228.082 150.803 228.082 150.515V142.321L228.088 142.321Z" fill="white"/>
<path d="M66.874 149.846C66.874 150.756 61.5325 157.773 60.5291 158.887C44.5171 176.661 17.6791 177.816 0 163.899V158.725C17.2365 174.667 45.333 173.176 60.315 152.987L66.874 141.986V149.846Z" fill="white"/>
<path d="M0 276.018V272.059C9.31359 269.474 17.8624 263.502 23.66 254.138L28.0716 246.342V254.202C28.0716 254.53 25.0246 259.025 24.5296 259.691C18.2362 268.199 9.46154 273.656 0 276.018Z" fill="white"/>
<path d="M0 62.0774V0H28.0761V34.4532C28.0761 35.0218 23.3567 43.2799 22.661 44.4238C17.2207 53.3445 9.0776 59.3937 0 62.0774Z" fill="white"/>
<path d="M28.9089 57.0332C38.2908 68.0908 52.1479 75.5829 66.8746 75.7568L66.8512 138.116C59.1015 157.822 41.8529 171.793 19.7009 167.248C11.5462 165.575 5.14578 161.73 0 156.47V74.8063C11.2372 72.3134 21.5977 65.7647 28.9089 57.0332Z" fill="white"/>
<path d="M28.0716 45.8249C28.0716 46.1527 25.0246 50.6513 24.5296 51.3136C18.1841 59.8422 9.42387 65.2822 0 67.634V63.6589C9.29706 61.0721 17.8375 55.1072 23.66 45.7614L28.0716 37.9648V45.8249Z" fill="white"/>
<path d="M508.691 33.4661L508.699 0H576.94V51.0091C564.508 63.6822 545.858 67.6055 529.773 59.2103C519.351 53.7718 512.979 44.022 508.691 33.4661Z" fill="#054FF0"/>
<path d="M189.369 0H267.555V34.4527C267.555 35.4394 260.501 47.1191 259.327 48.6343C243.429 69.1139 212.457 68.4449 197.038 47.7747C194.011 43.7175 192.085 38.9179 189.472 34.6032L189.369 0Z" fill="#054FF0"/>
<path d="M349.244 0H427.43V34.1189C427.43 35.226 419.7 47.9292 418.389 49.4945C401.17 70.041 369.362 67.8536 355.043 45.297C352.936 41.9757 351.408 38.2898 349.347 34.9384L349.244 0Z" fill="#054FF0"/>
<path d="M108.011 0V34.1208C108.011 34.8231 102.134 45.1416 101.258 46.4326C88.4044 65.464 62.3057 69.297 44.3011 55.0151C37.4512 49.5833 33.7519 42.2919 29.8988 34.6325L29.8104 0H108.011Z" fill="#054FF0"/>
<path d="M428.763 0H507.036L507.037 34.7897C507.037 35.5724 500.163 46.9611 499.146 48.3056C488.484 62.437 469.191 67.4173 452.862 60.5305C440.571 55.3462 433.54 45.1449 428.754 33.1307L428.763 0Z" fill="white"/>
<path d="M109.424 0H187.797L187.79 34.2939C182.164 46.1174 175.491 56.2686 162.701 61.0481C138.957 69.9216 117.541 55.71 109.34 33.4577L109.424 0Z" fill="white"/>
<path d="M576.94 179.447V259.386C565.277 271.099 549.47 275.3 533.71 269.336C521.13 264.577 513.504 253.86 508.691 241.843L508.705 180.116C523.478 180.016 537.238 172.43 546.667 161.393C554.236 170.704 565.083 177.246 576.937 179.447H576.94Z" fill="#054FF0"/>
<path d="M576.941 67.0645V166.737C567.653 164.767 559.063 158.375 553.852 150.525C552.444 148.401 547.354 139.494 547.156 137.487L547.32 76.0751C547.758 75.4429 551.334 75.861 552.371 75.7741C561.224 75.0516 569.485 71.6735 576.941 67.0645Z" fill="#054FF0"/>
<path d="M576.939 53.0165V58.368C558.436 73.8373 531.133 72.3355 514.891 54.3577C514.062 53.4379 508.707 46.3505 508.707 45.8254V37.6309L512.784 45.0929C526.892 68.2048 557.63 72.0211 576.939 53.0165Z" fill="white"/>
<path d="M576.942 261.392V266.743C566.463 275.232 553.175 279.189 539.746 276.68C530.264 274.907 520.935 269.589 514.557 262.402C513.761 261.505 508.707 254.722 508.707 254.204V246.344L514.788 256.485C529.444 277.098 559.192 279.356 576.939 261.395L576.942 261.392Z" fill="white"/>
<path d="M576.94 168.409V172.423C565.862 170.005 555.677 163.061 549.436 153.602C549.098 153.091 547.172 150.067 547.172 149.846V141.986L553.59 152.793C559.206 160.563 567.568 166.229 576.94 168.409Z" fill="white"/>
<path d="M228.086 75.761C241.134 76.1892 254.265 70.9246 263.717 62.0578C264.63 61.2016 268.075 57.0207 268.721 57.0274C277.718 68.2957 291.819 75.46 306.355 75.761L306.198 138.652C301.472 148.612 296.121 157.616 286.177 163.115C269.296 172.446 248.104 168.172 236.317 152.99C235.22 151.579 228.089 139.949 228.089 139.143V75.761H228.086Z" fill="#054FF0"/>
<path d="M387.628 75.7611C403.128 76.3564 418.313 69.0081 427.942 57.0307C428.347 56.9304 432.852 62.0645 433.779 62.8873C442.428 70.5801 454.248 75.5136 465.894 75.7577L465.734 138.983C461.79 146.836 458.058 154.164 450.997 159.7C434.106 172.948 410.392 170.045 396.666 153.846C395.425 152.382 387.625 139.702 387.625 138.805V75.7577L387.628 75.7611Z" fill="#054FF0"/>
<path d="M148.148 76.0947C163.631 75.9642 178.592 69.2982 188.275 57.187L188.783 57.0332C197.861 68.2279 211.878 75.5562 226.418 75.7602L226.431 137.821C226.247 139.795 220.608 149.494 219.13 151.591C204.296 172.663 172.682 173.586 156.711 153.324C155.567 151.872 148.148 139.651 148.148 138.808V76.0947Z" fill="white"/>
<path d="M467.57 76.0956C483.043 75.9651 495.83 69.8677 506.379 58.8804C506.897 58.3385 507.462 57.0174 508.205 57.0274C517.226 68.1987 531.324 75.5805 545.84 75.7611L545.856 137.491C545.642 139.665 540.813 148.184 539.361 150.395C524.005 173.751 489.675 173.861 474.126 150.656C473.29 149.405 467.574 139.488 467.574 138.812V76.0989L467.57 76.0956Z" fill="white"/>
<path d="M147.312 161.392C155.915 171.526 168.668 178.922 182.1 180.109C183.231 180.209 187.365 179.801 187.803 180.427L187.79 242.668C181.91 255.351 174.24 266.075 160.26 270.326C137.104 277.373 117.21 263.071 109.34 241.829L109.494 180.423C113.079 179.912 116.665 179.604 120.193 178.748C130.736 176.192 140.415 169.647 147.309 161.389L147.312 161.392Z" fill="white"/>
<path d="M108.012 180.115V242.828C108.012 243.527 101.994 253.742 101.125 255.006C88.1273 273.881 62.3196 277.68 44.305 263.388C37.4116 257.92 33.7625 250.718 29.9027 243.006L29.7422 180.112C44.2047 179.934 58.1789 172.687 67.1928 161.539L67.7012 161.385C77.3607 173.325 92.4922 180.727 108.008 180.115H108.012Z" fill="#054FF0"/>
<path d="M427.43 242.495C427.075 244.221 421.051 254.292 419.673 256.145C403.726 277.617 371.663 277.286 356.248 255.476C353.552 251.663 351.749 247.304 349.347 243.311L349.16 180.113C363.399 179.979 375.654 173.273 385.293 163.232C385.811 162.693 386.377 161.366 387.119 161.379C396.668 173.303 411.964 180.765 427.426 180.113V242.491L427.43 242.495Z" fill="#054FF0"/>
<path d="M267.555 180.115V242.828C267.555 243.868 260.521 255.471 259.327 257.01C243.419 277.503 212.471 276.837 197.038 256.15C194.011 252.093 192.085 247.293 189.472 242.979L189.285 180.115C203.998 179.988 217.902 172.482 227.251 161.395C236.981 173.148 252.099 180.707 267.555 180.118V180.115Z" fill="#054FF0"/>
<path d="M347.496 242.828C347.496 243.48 341.96 252.953 341.148 254.207C328.441 273.857 301.583 277.894 283.455 263.054C276.735 257.552 273.033 250.133 269.25 242.474L269.277 180.496C269.491 180.155 274.588 179.868 275.655 179.684C287.907 177.536 299.091 171.071 306.861 161.385L307.37 161.539C317.032 173.616 332.047 180.346 347.496 180.446V242.828Z" fill="white"/>
<path d="M507.035 180.45V242.829C507.035 243.618 500.309 255.114 499.285 256.485C486.271 273.931 461.129 277.125 444.001 263.72C436.649 257.967 432.752 250.398 428.789 242.14L428.816 180.497C429.057 180.112 434.164 179.865 435.201 179.688C447.636 177.58 458.714 171.028 466.735 161.389C476.632 173.359 491.422 180.326 507.038 180.447L507.035 180.45Z" fill="white"/>
<path d="M109.351 37.6303C111.164 39.8947 112.224 42.9216 113.763 45.4268C129.928 71.6928 167.612 71.7128 183.536 45.4268L187.948 37.6303V45.4903C187.948 46.3065 182.707 53.3036 181.764 54.3572C163.043 75.3084 129.168 73.4554 112.753 50.7784C112.274 50.1161 109.348 45.8048 109.348 45.487V37.627L109.351 37.6303Z" fill="white"/>
<path d="M109.352 246.005L115.904 257.013C132.892 279.707 166.767 278.834 182.537 255.474L187.952 246.005V253.865C187.952 254.722 182.734 261.652 181.768 262.732C163.061 283.693 129.182 281.844 112.756 259.153C112.278 258.491 109.352 254.18 109.352 253.862V246.002V246.005Z" fill="white"/>
<path d="M387.628 141.986L391.706 149.448C407.379 175.63 444.946 176.49 461.349 150.321L465.891 142.32V150.18C465.891 151.19 460.135 158.562 459.038 159.716C441.063 178.674 410.473 177.724 393.301 158.214C392.468 157.268 387.625 150.829 387.625 150.177V141.982L387.628 141.986Z" fill="white"/>
<path d="M507.036 46.1593C507.036 46.5439 503.259 51.7717 502.677 52.5042C484.174 75.8803 447.366 74.0039 431.034 49.2431C430.696 48.7314 428.769 45.7078 428.769 45.487V37.627L435.328 48.6277C452.219 71.3549 486.599 70.5589 502.159 46.6309C503.908 43.9418 505.092 40.8111 507.036 38.2959V46.1593Z" fill="white"/>
<path d="M349.163 37.9659L352.906 44.759C368.332 70.3092 403.435 72.2859 421.205 48.301L427.43 37.6348V45.4948C427.43 45.8962 424.837 49.7693 424.356 50.4483C408.452 73.0016 375.376 75.3329 356.177 55.5356C355.027 54.3516 349.16 46.9297 349.16 45.8293V37.9692L349.163 37.9659Z" fill="white"/>
<path d="M29.745 37.9653L34.2871 45.9659C50.7464 72.2218 89.1168 71.2585 104.262 44.4206L108.008 37.6309V45.8254C108.008 46.307 103.221 52.8459 102.492 53.6888C84.1533 74.9745 50.0038 73.9176 33.2803 51.314C32.7853 50.6451 29.7383 46.1498 29.7383 45.8254V37.9653H29.745Z" fill="white"/>
<path d="M68.211 141.985L74.4354 152.651C91.0151 175.69 126.155 175.061 141.6 150.986L146.477 142.316V150.176C146.477 150.885 142.54 156.26 141.784 157.19C124.713 178.248 92.1624 178.851 74.2214 158.545C73.4153 157.632 68.211 150.688 68.211 150.173V141.979V141.985Z" fill="white"/>
<path d="M29.7455 246.34L34.2876 254.341C50.971 280.627 88.9602 279.714 104.262 252.796L108.008 246.006V254.2C108.008 254.682 103.222 261.221 102.493 262.064C85.6389 281.624 55.2589 282.563 37.0905 264.241C35.8965 263.037 29.7422 255.321 29.7422 254.197V246.337L29.7455 246.34Z" fill="white"/>
<path d="M467.57 142.321L472.112 150.322C488.582 176.417 526.417 175.782 541.88 149.238L545.836 141.99V150.185C545.836 150.713 541.244 157.021 540.495 157.888C521.965 179.274 488.023 178.534 471.112 155.677C470.617 155.008 467.57 150.513 467.57 150.188V142.321Z" fill="white"/>
<path d="M507.036 254.535C507.036 254.919 503.266 260.127 502.674 260.876C484.128 284.259 447.406 282.443 431.034 257.622C430.696 257.11 428.769 254.087 428.769 253.866V246.006L435.328 257.007C452.754 280.326 487.696 278.747 502.958 253.799C504.36 251.511 505.35 248.715 507.036 246.671V254.535Z" fill="white"/>
<path d="M189.288 37.6303L195.506 48.3033C212.267 71.5289 247.142 70.4653 262.678 46.6309L267.555 37.9614V45.8215C267.555 46.7312 262.056 53.929 261.036 55.0228C243.289 74.131 212.046 73.5123 194.981 53.8387C194.219 52.9591 189.285 46.3131 189.285 45.8215V37.627L189.288 37.6303Z" fill="white"/>
<path d="M189.288 246.005L195.513 256.672C212.243 279.904 247.192 278.867 262.678 255.006L267.555 246.336V254.196C267.555 254.534 265.544 257.565 265.15 258.147C249.062 282.044 213.825 283.941 194.981 262.214C194.219 261.334 189.285 254.688 189.285 254.196V246.002L189.288 246.005Z" fill="white"/>
<path d="M349.167 246.34L354.043 255.01C370.76 280.687 408.786 279.339 423.683 252.796L427.43 246.006V253.866C427.43 254.739 422.513 261.331 421.58 262.398C402.729 283.972 367.556 281.918 351.565 258.15C351.17 257.565 349.16 254.538 349.16 254.2V246.34H349.167Z" fill="white"/>
<path d="M347.493 246.341V254.201C347.493 254.469 345.028 258.091 344.613 258.68C327.953 282.33 293.486 283.742 274.568 261.901C273.792 261.004 269.227 254.807 269.227 254.198V246.338L274.568 255.546C290.459 279.076 325.408 279.718 341.743 256.145C343.917 253.004 345.308 249.405 347.489 246.338L347.493 246.341Z" fill="white"/>
<path d="M347.496 37.9648V45.8249C347.496 46.4203 342.777 52.7785 341.98 53.6883C324.083 74.208 292.369 74.0876 274.588 53.5077C273.822 52.6213 269.227 46.3868 269.227 45.8249V37.9648L273.769 45.9654C291.509 72.7364 328.705 71.3818 344.539 43.206C345.499 41.5002 346.121 39.3328 347.493 37.9648H347.496Z" fill="white"/>
<path d="M148.148 142.32L152.69 150.321C168.888 175.988 205.978 175.988 221.999 150.117L226.411 142.32V150.18C226.411 150.709 221.818 157.017 221.069 157.883C203.034 178.694 171.283 178.537 153.325 157.713C152.593 156.863 148.145 150.692 148.145 150.184V142.324L148.148 142.32Z" fill="white"/>
<path d="M1424.57 76.0926L1424.57 76.096V138.809C1424.57 139.485 1430.28 149.402 1431.12 150.653C1433.64 154.414 1436.65 157.562 1440 160.098V161.939C1435.84 158.951 1432.12 155.079 1429.11 150.315L1424.57 142.314V150.181C1424.57 150.509 1427.62 155.004 1428.11 155.67C1431.48 160.228 1435.53 163.907 1440 166.706V174.504C1433.81 171.299 1428.26 166.869 1423.73 161.393C1415.72 171.032 1404.63 177.584 1392.2 179.691C1391.17 179.865 1386.06 180.113 1385.81 180.501L1385.79 242.144C1389.75 250.402 1393.65 257.971 1401 263.724C1412.43 272.67 1427.42 274.224 1440 269.087V270.715C1423.74 277.123 1404.06 272.711 1392.33 257.011L1385.77 246.01V253.87C1385.77 254.091 1387.7 257.115 1388.03 257.626C1399.68 275.283 1421.63 281.299 1440 274.883V282.093C1435.04 283.61 1429.84 284.412 1424.58 284.451C1410.46 284.146 1396.34 277.28 1386.78 267.232C1386.31 266.744 1385.56 265.232 1384.95 265.383C1375.33 277.357 1360.14 284.728 1344.64 284.11C1330.08 283.849 1314.54 276.457 1305.34 265.389C1295.28 277.434 1280.52 284.434 1264.71 284.444C1249.89 284.27 1234.91 276.403 1225.41 265.386C1215.64 277.2 1198.96 284.682 1183.43 284.106C1168.88 283.919 1154.88 276.577 1145.8 265.379L1145.29 265.533C1135.61 277.644 1118.98 283.976 1103.49 284.103C1091.62 283.799 1079.82 278.815 1071.05 270.898C1069.12 269.156 1067.51 266.938 1065.54 265.369C1055.99 277.31 1040.51 285.076 1025.04 284.461C1010.31 284.28 995.286 276.48 985.931 265.379C977.322 275.704 957.501 282.976 943.955 284.1C932.282 283.919 920.512 278.942 911.843 271.229C909.786 269.4 908.083 267.042 905.999 265.366C897.694 275.788 878.574 283.094 865 284.094V277.41C879.77 277.745 894.326 270.544 902.735 258.452C903.123 257.897 905.471 254.419 905.471 254.165V246.305L900.39 255.104C892.677 266.734 879.108 274.149 865 273.397V272.059C877.827 272.39 890.37 266.262 897.915 255.974C898.892 254.64 905.471 243.552 905.471 242.793V180.079C889.804 180.812 874.897 173.163 865 161.349V69.0353C878.329 69.3798 891.443 63.5065 900.109 53.4724C900.875 52.5861 905.471 46.3515 905.471 45.7896V37.9296C903.748 40.0534 902.715 42.8998 901.263 45.2612C893.52 57.854 880.004 65.7006 865 65.0216V63.6838C880.018 63.9045 892.761 56.4157 900.387 43.7159C901.049 42.6155 905.471 34.9494 905.471 34.4176V0H907.227L907.331 34.936C911.896 43.6557 916.05 51.6629 924.566 57.1683C943.691 69.527 967.943 63.6336 979.66 44.4216C980.355 43.2811 985.075 35.0197 985.075 34.4511V0H986.819L986.908 34.6317C990.761 42.2944 994.46 49.5825 1001.31 55.0143C1019.31 69.2961 1045.41 65.4632 1058.27 46.4318C1059.14 45.1374 1065.02 34.8223 1065.02 34.1199V0H1066.42L1066.34 33.4577C1074.54 55.7133 1095.96 69.925 1119.7 61.0481C1132.49 56.2686 1139.17 46.1174 1144.79 34.2939L1144.8 0H1146.37L1146.48 34.6015C1149.09 38.9196 1151.02 43.7159 1154.04 47.773C1169.46 68.4399 1200.43 69.1089 1216.33 48.6326C1217.5 47.1208 1224.56 35.4411 1224.56 34.4511V0H1226.22L1226.21 33.4678C1229.48 41.2576 1233.79 49.2213 1240.45 54.6798C1257.77 68.8747 1283.82 65.8177 1296.94 47.6359C1297.91 46.2947 1304.49 35.2137 1304.49 34.4544V0H1306.25L1306.35 34.9394C1308.41 38.2908 1309.94 41.9766 1312.05 45.2979C1326.37 67.8546 1358.18 70.0454 1375.4 49.4955C1376.71 47.9302 1384.44 35.227 1384.44 34.1199V0H1385.76L1385.75 33.1366C1390.54 45.1474 1397.57 55.3521 1409.86 60.5364C1419.67 64.6742 1430.56 64.5262 1440 60.6804V62.3467C1423.69 68.7344 1403.9 64.2061 1392.33 48.6326L1385.77 37.6319V45.4919C1385.77 45.7127 1387.7 48.7363 1388.03 49.248C1399.65 66.8553 1421.62 72.8912 1440 66.5004V73.7631C1435.18 75.2551 1430.04 76.0476 1424.57 76.0926ZM986.747 37.9664V45.8264C986.747 46.1542 989.794 50.6495 990.289 51.3151C1007.01 73.9186 1041.16 74.9755 1059.5 53.6898C1060.23 52.8436 1065.02 46.3047 1065.02 45.8264V37.6319L1061.27 44.4216C1046.13 71.2595 1007.76 72.2228 991.296 45.9669L986.754 37.9664H986.747ZM1066.35 37.6319V45.4919C1066.35 45.8063 1069.28 50.121 1069.76 50.7832C1086.17 73.4603 1120.05 75.3133 1138.77 54.3621C1139.71 53.3085 1144.95 46.308 1144.95 45.4953V37.6352L1140.54 45.4317C1124.62 71.7144 1086.93 71.6977 1070.77 45.4317C1069.22 42.9265 1068.17 39.9029 1066.35 37.6352L1066.35 37.6319ZM1146.29 37.6319V45.8264C1146.29 46.3181 1151.22 52.9673 1151.99 53.8436C1169.05 73.5172 1200.29 74.136 1218.04 55.0277C1219.06 53.9306 1224.56 46.7362 1224.56 45.8264V37.9664L1219.68 46.6358C1204.15 70.4702 1169.27 71.5305 1152.51 48.3082L1146.29 37.6352L1146.29 37.6319ZM1306.17 37.9664V45.8264C1306.17 46.9302 1312.03 54.3487 1313.18 55.5327C1332.38 75.33 1365.46 72.9988 1381.36 50.4454C1381.84 49.7665 1384.44 45.8899 1384.44 45.4919V37.6319L1378.21 48.2981C1360.44 72.2864 1325.34 70.3097 1309.91 44.7561L1306.17 37.963L1306.17 37.9664ZM907.143 37.9664V46.1609C907.143 46.4519 909.909 50.3752 910.351 50.9806C927.733 74.8651 963.926 74.9789 981.536 51.3151C982.031 50.6528 985.078 46.1508 985.078 45.8264V37.9664L980.667 45.7629C964.739 71.3231 928.489 71.5906 912.027 46.6358L907.15 37.9664H907.143ZM1304.49 37.9664C1303.12 39.3377 1302.5 41.5017 1301.54 43.2075C1285.71 71.3833 1248.51 72.7379 1230.77 45.9669L1226.23 37.9664V45.8264C1226.23 46.3917 1230.82 52.6228 1231.59 53.5092C1249.37 74.0891 1281.08 74.2096 1298.98 53.6898C1299.77 52.78 1304.5 46.4218 1304.5 45.8264V37.9664H1304.49ZM943.935 75.7582C932.061 75.4806 920.221 70.5371 911.485 62.5533C910.575 61.7238 906.494 57.0211 905.976 57.0245C897.694 67.4231 884.55 74.6009 871.181 75.7548C870.101 75.8485 866.244 75.4538 865.813 76.0726L865.743 138.398C871.8 152.108 880.653 163.533 895.979 167.028C918.381 172.139 936.172 158.259 943.948 138.154L943.935 75.7582ZM1023.88 75.7582C1009.15 75.5876 995.293 68.0954 985.911 57.0345C977.268 67.3563 964.364 74.6276 950.788 75.7548C949.711 75.8451 945.848 75.4538 945.42 76.0726L945.35 138.398C951.614 152.522 960.839 163.995 976.703 167.249C998.855 171.795 1016.1 157.827 1023.85 138.117L1023.88 75.7582ZM1025.21 75.7615V138.809C1025.21 139.689 1033.04 152.412 1034.25 153.85C1051.55 174.39 1083.26 172.353 1097.6 149.653C1098.97 147.485 1103.29 139.943 1103.49 137.822L1103.48 75.7582C1091.61 75.4538 1079.8 70.4736 1071.03 62.5533C1070.18 61.7874 1065.91 56.9375 1065.53 57.0312C1055.89 69.0086 1040.71 76.3568 1025.21 75.7615ZM1105.15 76.096V138.809C1105.15 139.652 1112.57 151.874 1113.71 153.325C1129.69 173.587 1161.3 172.664 1176.13 151.593C1177.61 149.495 1183.25 139.796 1183.43 137.822L1183.42 75.7615C1168.88 75.5574 1154.87 68.2259 1145.78 57.0345L1145.28 57.1883C1135.6 69.3029 1120.63 75.9655 1105.15 76.096ZM1185.09 75.7615V139.144C1185.09 139.95 1192.22 151.576 1193.32 152.991C1205.1 168.172 1226.29 172.45 1243.18 163.115C1253.12 157.616 1258.47 148.613 1263.2 138.652L1263.35 75.7615C1248.82 75.4604 1234.72 68.2961 1225.72 57.0278C1225.07 57.0211 1221.63 61.202 1220.72 62.0582C1211.27 70.9284 1198.13 76.1929 1185.08 75.7615H1185.09ZM1264.69 76.096V138.475C1264.69 139.294 1271.83 151.238 1272.92 152.656C1287.88 172.146 1317.22 173.32 1333.43 154.703C1337.42 150.118 1339.78 144.529 1342.77 139.294L1342.96 75.7615C1328.36 75.4571 1314.57 68.1055 1305.33 57.0379C1295.2 69.0621 1280.54 76.0257 1264.69 76.096ZM1344.63 75.7615V138.809C1344.63 139.706 1352.43 152.385 1353.67 153.85C1367.4 170.052 1391.11 172.952 1408 159.704C1415.06 154.165 1418.79 146.84 1422.74 138.986L1422.9 75.7615C1411.25 75.5173 1399.43 70.5839 1390.78 62.8911C1389.86 62.0649 1385.35 56.9342 1384.95 57.0345C1375.31 69.0119 1360.13 76.3602 1344.63 75.7648L1344.63 75.7615ZM865.669 142.321V149.847C865.669 150.248 868.261 154.121 868.743 154.8C885.192 178.129 919.485 179.762 938.259 158.215C939.022 157.339 943.935 150.673 943.935 150.178V141.983L939.858 149.445C924.586 175.511 886.767 176.424 870.546 150.656C868.833 147.937 867.763 144.776 865.669 142.321ZM945.273 141.987V149.847C945.273 150.091 947.444 153.449 947.812 153.997C963.749 177.631 998.38 180.143 1017.53 158.887C1018.53 157.774 1023.87 150.756 1023.87 149.847V141.987L1017.31 152.987C999.942 176.394 964.946 174.668 949.681 149.783L945.27 141.987H945.273ZM1025.21 141.987V150.181C1025.21 150.696 1030.42 157.636 1031.22 158.553C1049.16 178.855 1081.71 178.253 1098.78 157.198C1099.54 156.268 1103.48 150.89 1103.48 150.184V142.324L1098.6 150.994C1083.16 175.069 1048.02 175.698 1031.44 152.66L1025.21 141.993V141.987ZM1185.09 142.321V150.516C1185.09 150.807 1187.85 154.73 1188.3 155.335C1204.83 178.056 1238.98 179.581 1257.51 158.379C1258.44 157.312 1263.36 150.716 1263.36 149.847V141.987L1259.61 148.776C1243.64 175.611 1207.42 176.638 1189.97 150.991L1185.09 142.321H1185.09ZM1342.96 142.656C1341.27 144.696 1340.28 147.492 1338.88 149.783C1323.15 175.494 1286.96 176.159 1270.11 151.455L1264.7 141.987V149.847C1264.7 150.76 1269.89 157.613 1270.88 158.713C1289.04 178.942 1321.67 178.21 1338.6 156.854C1339.19 156.105 1342.96 150.897 1342.96 150.512V142.652L1342.96 142.656ZM1344.63 141.987V150.181C1344.63 150.833 1349.47 157.272 1350.31 158.218C1367.48 177.728 1398.07 178.675 1416.04 159.72C1417.14 158.563 1422.9 151.195 1422.9 150.184V142.324L1418.35 150.325C1401.95 176.494 1364.38 175.634 1348.71 149.452L1344.63 141.99L1344.63 141.987ZM1105.15 142.321V150.181C1105.15 150.693 1109.6 156.864 1110.33 157.71C1128.29 178.534 1160.04 178.691 1178.07 157.881C1178.82 157.014 1183.42 150.706 1183.42 150.178V142.318L1179 150.114C1162.98 175.986 1125.89 175.986 1109.7 150.318L1105.15 142.318L1105.15 142.321ZM985.075 180.451C969.622 180.337 956.799 174.203 946.266 163.235C945.748 162.697 945.183 161.369 944.44 161.383C935.546 172.604 921.85 179.528 907.458 180.263L907.13 181.273C907.337 201.917 906.792 222.647 907.407 243.241C910.95 250.218 914.388 257.151 920.368 262.389C936.908 276.872 962.705 274.768 976.375 257.539C977.543 256.068 985.082 243.689 985.082 242.833V180.454L985.075 180.451ZM1065.01 180.116C1049.5 180.728 1034.37 173.326 1024.71 161.386L1024.2 161.54C1015.18 172.688 1001.21 179.936 986.747 180.113L986.908 243.007C990.768 250.723 994.417 257.921 1001.31 263.389C1019.32 277.681 1045.14 273.882 1058.13 255.007C1059 253.743 1065.02 243.528 1065.02 242.829V180.116H1065.01ZM1104.31 161.393C1097.42 169.651 1087.74 176.2 1077.2 178.752C1073.67 179.608 1070.08 179.916 1066.5 180.427L1066.34 241.833C1074.21 263.072 1094.11 277.373 1117.26 270.329C1131.24 266.075 1138.91 255.355 1144.79 242.672L1144.81 180.431C1144.37 179.805 1140.24 180.213 1139.11 180.113C1125.67 178.922 1112.92 171.53 1104.32 161.396L1104.31 161.393ZM1224.56 180.116C1209.1 180.708 1193.98 173.146 1184.25 161.393C1174.9 172.48 1161 179.989 1146.29 180.113L1146.47 242.977C1149.08 247.295 1151.01 252.091 1154.04 256.148C1169.47 276.835 1200.42 277.501 1216.33 257.008C1217.52 255.469 1224.56 243.87 1224.56 242.826V180.113V180.116ZM1304.49 180.451C1289.04 180.35 1274.03 173.617 1264.37 161.543L1263.86 161.389C1256.09 171.075 1244.9 177.541 1232.65 179.688C1231.59 179.875 1226.49 180.16 1226.27 180.501L1226.25 242.478C1230.03 250.138 1233.73 257.559 1240.45 263.058C1258.58 277.899 1285.44 273.862 1298.15 254.211C1298.96 252.957 1304.49 243.485 1304.49 242.833V180.451ZM1384.43 242.495V180.116C1368.97 180.768 1353.67 173.306 1344.13 161.383C1343.38 161.369 1342.82 162.694 1342.3 163.235C1332.66 173.276 1320.4 179.979 1306.17 180.116L1306.35 243.314C1308.76 247.308 1310.56 251.666 1313.25 255.479C1328.67 277.29 1360.73 277.621 1376.68 256.148C1378.06 254.295 1384.08 244.221 1384.44 242.498L1384.43 242.495ZM986.747 246.341V254.201C986.747 255.325 992.901 263.038 994.095 264.245C1012.27 282.568 1042.65 281.625 1059.5 262.068C1060.23 261.222 1065.01 254.683 1065.01 254.205V246.01L1061.27 252.8C1045.96 279.715 1007.98 280.628 991.293 254.345L986.75 246.345L986.747 246.341ZM1066.35 246.007V253.867C1066.35 254.181 1069.28 258.496 1069.76 259.158C1086.18 281.849 1120.06 283.695 1138.77 262.737C1139.73 261.657 1144.95 254.726 1144.95 253.87V246.01L1139.54 255.479C1123.77 278.838 1089.89 279.711 1072.9 257.018L1066.35 246.01V246.007ZM1146.29 246.007V254.201C1146.29 254.693 1151.22 261.342 1151.99 262.219C1170.83 283.949 1206.07 282.049 1222.15 258.151C1222.55 257.566 1224.56 254.539 1224.56 254.201V246.341L1219.68 255.011C1204.2 278.869 1169.25 279.909 1152.52 256.676L1146.29 246.01L1146.29 246.007ZM1306.17 246.341V254.201C1306.17 254.539 1308.18 257.57 1308.57 258.151C1324.56 281.919 1359.73 283.973 1378.59 262.399C1379.52 261.332 1384.44 254.737 1384.44 253.867V246.007L1380.69 252.797C1365.79 279.337 1327.77 280.685 1311.05 255.011L1306.17 246.341H1306.17ZM907.143 246.341V254.536C907.143 254.92 910.919 260.148 911.501 260.881C929.312 283.387 964.508 282.712 981.536 259.69C982.031 259.021 985.078 254.526 985.078 254.201V246.341L980.667 254.138C964.816 279.732 928.416 279.982 912.027 255.011L907.15 246.341H907.143ZM1304.49 246.341C1302.31 249.408 1300.92 253.007 1298.75 256.148C1282.41 279.721 1247.46 279.079 1231.57 255.549L1226.23 246.341V254.201C1226.23 254.807 1230.8 261.008 1231.57 261.904C1250.49 283.745 1284.95 282.33 1301.62 258.683C1302.03 258.095 1304.5 254.472 1304.5 254.205V246.345L1304.49 246.341Z" fill="#054FF0"/>
<path d="M1025.21 75.7615C1040.71 76.3568 1055.9 69.0086 1065.53 57.0312C1065.91 56.9375 1070.18 61.7874 1071.03 62.5533C1079.8 70.4736 1091.61 75.4538 1103.48 75.7582L1103.49 137.822C1103.29 139.943 1098.97 147.482 1097.6 149.653C1083.27 172.353 1051.55 174.39 1034.25 153.85C1033.04 152.412 1025.21 139.689 1025.21 138.809V75.7615Z" fill="#054FF0"/>
<path d="M1226.22 0H1304.49V34.4544C1304.49 35.2137 1297.91 46.2947 1296.94 47.6359C1283.82 65.8177 1257.77 68.8747 1240.45 54.6798C1233.79 49.2213 1229.48 41.2576 1226.21 33.4678L1226.22 0Z" fill="white"/>
<path d="M1264.69 76.096C1280.54 76.0257 1295.2 69.0621 1305.33 57.0379C1314.57 68.1021 1328.36 75.4537 1342.96 75.7615L1342.77 139.294C1339.78 144.525 1337.42 150.114 1333.43 154.703C1317.22 173.32 1287.88 172.149 1272.92 152.656C1271.83 151.238 1264.69 139.297 1264.69 138.475V76.096Z" fill="white"/>
<path d="M985.075 180.451L985.075 242.829C985.075 243.685 977.539 256.064 976.368 257.536C962.702 274.764 936.901 276.872 920.361 262.386C914.381 257.148 910.946 250.214 907.401 243.237C906.785 222.644 907.334 201.913 907.123 181.27L907.451 180.26C921.843 179.524 935.54 172.604 944.433 161.379C945.176 161.366 945.741 162.69 946.259 163.232C956.792 174.203 969.615 180.333 985.068 180.447L985.075 180.451Z" fill="white"/>
<path d="M945.273 141.987L949.685 149.783C964.95 174.667 999.946 176.393 1017.31 152.987L1023.87 141.986V149.846C1023.87 150.756 1018.53 157.773 1017.53 158.887C998.381 180.143 963.75 177.631 947.815 153.997C947.444 153.449 945.277 150.091 945.277 149.846V141.986L945.273 141.987Z" fill="white"/>
<path d="M1342.96 142.656L1342.96 150.516C1342.96 150.901 1339.19 156.108 1338.6 156.857C1321.66 178.21 1289.04 178.946 1270.88 158.717C1269.89 157.613 1264.69 150.763 1264.69 149.85V141.99L1270.11 151.459C1286.96 176.16 1323.15 175.497 1338.88 149.787C1340.28 147.499 1341.27 144.703 1342.95 142.659L1342.96 142.656Z" fill="white"/>
<path d="M1185.09 142.321L1189.97 150.99C1207.41 176.637 1243.64 175.611 1259.61 148.776L1263.35 141.986V149.846C1263.35 150.719 1258.43 157.312 1257.5 158.379C1238.98 179.581 1204.83 178.056 1188.29 155.335C1187.85 154.73 1185.08 150.803 1185.08 150.515V142.321L1185.09 142.321Z" fill="white"/>
<path d="M907.143 246.341L912.02 255.011C928.409 279.983 964.813 279.732 980.66 254.138L985.072 246.342V254.202C985.072 254.53 982.025 259.025 981.53 259.691C964.502 282.712 929.309 283.388 911.495 260.881C910.913 260.145 907.137 254.921 907.137 254.536V246.342L907.143 246.341Z" fill="white"/>
<path d="M900.387 43.7535C892.764 56.4533 880.018 63.9421 865 63.7214V0H905.471V34.4552C905.471 34.9837 901.046 42.6531 900.387 43.7535Z" fill="#054FF0"/>
<path d="M1385.75 33.1307L1385.76 0H1440V60.677C1430.56 64.522 1419.68 64.6697 1409.86 60.5305C1397.57 55.3462 1390.54 45.1449 1385.75 33.1307Z" fill="white"/>
<path d="M1424.57 76.0989L1424.57 76.0956C1430.04 76.0494 1435.18 75.2568 1440 73.7654V160.098C1436.66 157.563 1433.64 154.415 1431.13 150.656C1430.29 149.405 1424.57 139.488 1424.57 138.812V76.0989Z" fill="white"/>
<path d="M1423.73 161.389C1428.26 166.865 1433.81 171.294 1440 174.499V269.083C1427.42 274.218 1412.43 272.663 1401 263.72C1393.65 257.967 1389.75 250.398 1385.79 242.14L1385.82 180.497C1386.06 180.112 1391.16 179.865 1392.2 179.688C1404.64 177.58 1415.71 171.028 1423.73 161.389Z" fill="white"/>
<path d="M1440 66.4958C1421.62 72.8878 1399.65 66.8529 1388.03 49.2431C1387.7 48.7314 1385.77 45.7078 1385.77 45.487V37.627L1392.33 48.6277C1403.9 64.1998 1423.69 68.7286 1440 62.34V66.4958Z" fill="white"/>
<path d="M1424.57 150.188V142.321L1429.11 150.322C1432.12 155.085 1435.84 158.957 1440 161.944V166.71C1435.53 163.912 1431.48 160.234 1428.11 155.677C1427.62 155.008 1424.57 150.513 1424.57 150.188Z" fill="white"/>
<path d="M1440 270.713V274.878C1421.63 281.295 1399.68 275.279 1388.03 257.622C1387.7 257.11 1385.77 254.087 1385.77 253.866V246.006L1392.33 257.007C1404.06 272.709 1423.74 277.122 1440 270.713Z" fill="white"/>
<path d="M426.471 34.4176V0H428.227L428.331 34.936C432.896 43.6557 437.05 51.6629 445.566 57.1683C464.691 69.527 488.943 63.6336 500.66 44.4216C501.355 43.2811 506.075 35.0197 506.075 34.4511V0H507.819L507.908 34.6317C511.761 42.2944 515.46 49.5825 522.31 55.0143C540.315 69.2961 566.41 65.4632 579.267 46.4318C580.14 45.1374 586.02 34.8223 586.02 34.1199V0H587.425L587.341 33.4577C595.542 55.7133 616.958 69.925 640.703 61.0481C653.493 56.2686 660.165 46.1174 665.791 34.2939L665.798 0H667.374L667.477 34.6015C670.086 38.9196 672.016 43.7159 675.042 47.773C690.462 68.4399 721.434 69.1089 737.331 48.6326C738.505 47.1208 745.559 35.4411 745.559 34.4511V0H747.218L747.211 33.4678C750.479 41.2576 754.79 49.2213 761.453 54.6798C778.772 68.8747 804.82 65.8177 817.938 47.6359C818.908 46.2947 825.494 35.2137 825.494 34.4544V0H827.25L827.354 34.9394C829.414 38.2908 830.942 41.9766 833.05 45.2979C847.368 67.8546 879.176 70.0454 896.395 49.4955C897.706 47.9302 905.436 35.227 905.436 34.1199V0H906.759L906.75 33.1366C911.536 45.1474 918.567 55.3521 930.859 60.5364C947.188 67.4198 966.48 62.4429 977.143 48.3115C978.16 46.967 985.033 35.5782 985.033 34.7955V0H986.702L986.695 33.4544C990.983 44.0102 997.355 53.76 1007.78 59.1985C1023.86 67.5937 1042.51 63.6704 1054.94 50.9973V53.0041C1035.63 72.0054 1004.9 68.1891 990.789 45.0806L986.712 37.6185V45.813C986.712 46.3415 992.063 53.4289 992.896 54.3453C1009.14 72.3198 1036.44 73.8215 1054.94 58.3556V67.0519C1047.49 71.6609 1039.23 75.039 1030.37 75.7615C1029.34 75.8451 1025.76 75.4304 1025.32 76.0625L1025.16 137.475C1025.36 139.481 1030.45 148.388 1031.86 150.512C1037.07 158.362 1045.66 164.754 1054.94 166.724V168.396C1045.57 166.219 1037.21 160.553 1031.59 152.78L1025.18 141.973V149.833C1025.18 150.054 1027.1 153.078 1027.44 153.589C1033.68 163.052 1043.87 169.992 1054.94 172.41V179.434C1043.09 177.233 1032.24 170.691 1024.67 161.379C1015.24 172.413 1001.49 180.002 986.712 180.103L986.698 241.829C991.512 253.847 999.137 264.56 1011.72 269.323C1027.48 275.286 1043.28 271.085 1054.95 259.372V261.379C1037.2 279.34 1007.46 277.083 992.796 256.469L986.715 246.328V254.188C986.715 254.706 991.766 261.489 992.565 262.386C998.944 269.574 1008.27 274.892 1017.75 276.664C1031.18 279.173 1044.47 275.219 1054.95 266.727L1054.92 275.291C1047.47 279.9 1032.7 283.394 1023.84 284.116C1009.32 283.929 995.204 276.598 986.214 265.383L985.705 265.543C976.026 277.621 961.048 284.337 945.579 284.451C931.464 284.146 917.336 277.28 907.777 267.232C907.312 266.744 906.559 265.232 905.951 265.383C896.328 277.357 881.14 284.728 865.64 284.11C851.084 283.849 835.541 276.457 826.344 265.389C816.283 277.434 801.516 284.434 785.705 284.444C770.895 284.27 755.907 276.403 746.405 265.386C736.635 277.2 719.959 284.682 704.429 284.106C689.883 283.919 675.879 276.577 666.798 265.379L666.289 265.533C656.61 277.644 639.977 283.976 624.494 284.103C612.624 283.799 600.817 278.815 592.047 270.898C590.117 269.156 588.508 266.938 586.538 265.369C576.993 277.31 561.507 285.076 546.044 284.461C531.311 284.28 516.286 276.48 506.931 265.379C498.322 275.704 478.501 282.976 464.955 284.1C453.282 283.919 441.512 278.942 432.843 271.229C430.786 269.4 429.083 267.042 426.999 265.366C418.694 275.788 399.574 283 386 284V277.41C400.77 277.745 415.326 270.544 423.735 258.452C424.123 257.897 426.471 254.419 426.471 254.165V246.305L421.39 255.104C413.677 266.734 400.108 274.149 386 273.397V272.059C398.827 272.39 411.37 266.262 418.915 255.974C419.892 254.64 426.471 243.552 426.471 242.793V180.079C410.804 180.812 395.897 173.163 386 161.349V69.0353C399.329 69.3798 412.443 63.5065 421.109 53.4724C421.875 52.5861 426.471 46.3515 426.471 45.7896V37.9296C424.748 40.0534 423.715 42.8998 422.263 45.2612C414.52 57.854 401.004 65.7006 386 65.0216V63.6838C401.018 63.9045 413.761 56.4157 421.387 43.7159C422.049 42.6155 426.471 34.9494 426.471 34.4176ZM825.494 246.341C823.31 249.408 821.922 253.007 819.748 256.148C803.412 279.721 768.463 279.079 752.573 255.549L747.231 246.341V254.201C747.231 254.807 751.797 261.008 752.573 261.904C771.487 283.745 805.954 282.33 822.618 258.683C823.032 258.095 825.497 254.472 825.497 254.205V246.345L825.494 246.341ZM428.143 246.341V254.536C428.143 254.92 431.919 260.148 432.501 260.881C450.312 283.387 485.508 282.712 502.536 259.69C503.031 259.021 506.078 254.526 506.078 254.201V246.341L501.667 254.138C485.816 279.732 449.416 279.982 433.027 255.011L428.15 246.341H428.143ZM985.036 246.676C983.347 248.716 982.357 251.512 980.959 253.803C965.697 278.748 930.755 280.327 913.329 257.011L906.77 246.01V253.87C906.77 254.091 908.697 257.115 909.035 257.626C925.407 282.447 962.128 284.264 980.675 260.881C981.267 260.132 985.036 254.924 985.036 254.539V246.676ZM827.166 246.341V254.201C827.166 254.539 829.176 257.57 829.571 258.151C845.562 281.919 880.735 283.973 899.586 262.399C900.519 261.332 905.436 254.737 905.436 253.867V246.007L901.69 252.797C886.792 279.337 848.766 280.685 832.05 255.011L827.173 246.341H827.166ZM667.289 246.007V254.201C667.289 254.693 672.223 261.342 672.986 262.219C691.83 283.949 727.066 282.049 743.154 258.151C743.549 257.566 745.559 254.539 745.559 254.201V246.341L740.682 255.011C725.2 278.869 690.248 279.909 673.517 256.676L667.293 246.01L667.289 246.007ZM587.351 246.007V253.867C587.351 254.181 590.278 258.496 590.756 259.158C607.182 281.849 641.06 283.695 659.767 262.737C660.73 261.657 665.952 254.726 665.952 253.87V246.01L660.536 255.479C644.766 278.838 610.891 279.711 593.903 257.018L587.351 246.01V246.007ZM507.747 246.341V254.201C507.747 255.325 513.901 263.038 515.096 264.245C533.267 282.568 563.647 281.625 580.498 262.068C581.227 261.222 586.013 254.683 586.013 254.205V246.01L582.267 252.8C566.962 279.715 528.976 280.628 512.293 254.345L507.751 246.345L507.747 246.341ZM985.036 180.451C969.42 180.33 954.63 173.363 944.733 161.393C936.715 171.032 925.634 177.584 913.199 179.691C912.165 179.865 907.058 180.113 906.814 180.501L906.787 242.144C910.75 250.402 914.647 257.971 921.999 263.724C939.127 277.133 964.269 273.935 977.283 256.489C978.307 255.118 985.033 243.619 985.033 242.833V180.454L985.036 180.451ZM905.432 242.495V180.116C889.97 180.768 874.674 173.306 865.125 161.383C864.383 161.369 863.818 162.694 863.299 163.235C853.66 173.276 841.401 179.979 827.166 180.116L827.354 243.314C829.758 247.308 831.558 251.666 834.254 255.479C849.673 277.29 881.732 277.621 897.679 256.148C899.057 254.295 905.081 244.221 905.436 242.498L905.432 242.495ZM825.494 180.451C810.045 180.35 795.03 173.617 785.368 161.543L784.859 161.389C777.089 171.075 765.901 177.541 753.653 179.688C752.586 179.875 747.489 180.16 747.275 180.501L747.248 242.478C751.031 250.138 754.733 257.559 761.453 263.058C779.581 277.899 806.443 273.862 819.146 254.211C819.958 252.957 825.494 243.485 825.494 242.833V180.451ZM745.556 180.116C730.1 180.708 714.982 173.146 705.252 161.393C695.903 172.48 681.999 179.989 667.286 180.113L667.473 242.977C670.082 247.295 672.012 252.091 675.039 256.148C690.472 276.835 721.42 277.501 737.328 257.008C738.522 255.469 745.556 243.87 745.556 242.826V180.113V180.116ZM625.314 161.393C618.417 169.651 608.741 176.2 598.198 178.752C594.669 179.608 591.08 179.916 587.498 180.427L587.344 241.833C595.215 263.072 615.109 277.373 638.264 270.329C652.242 266.075 659.914 255.355 665.794 242.672L665.808 180.431C665.37 179.805 661.236 180.213 660.105 180.113C646.669 178.922 633.916 171.53 625.317 161.396L625.314 161.393ZM586.013 180.116C570.497 180.728 555.366 173.326 545.706 161.386L545.198 161.54C536.184 172.688 522.21 179.936 507.747 180.113L507.908 243.007C511.768 250.723 515.417 257.921 522.31 263.389C540.325 277.681 566.136 273.882 579.13 255.007C579.999 253.743 586.017 243.528 586.017 242.829V180.116H586.013ZM506.075 180.451C490.622 180.337 477.799 174.203 467.266 163.235C466.748 162.697 466.183 161.369 465.44 161.383C456.546 172.604 442.85 179.528 428.458 180.263L428.13 181.273C428.337 201.917 427.792 222.647 428.407 243.241C431.95 250.218 435.388 257.151 441.368 262.389C457.908 276.872 483.705 274.768 497.375 257.539C498.543 256.068 506.082 243.689 506.082 242.833V180.454L506.075 180.451ZM626.15 142.321V150.181C626.15 150.693 630.598 156.864 631.331 157.71C649.288 178.534 681.04 178.691 699.074 157.881C699.823 157.014 704.416 150.706 704.416 150.178V142.318L700.004 150.114C683.983 175.986 646.894 175.986 630.695 150.318L626.153 142.318L626.15 142.321ZM945.569 150.181C945.569 150.509 948.616 155.004 949.111 155.67C966.018 178.531 999.964 179.267 1018.49 157.881C1019.24 157.014 1023.83 150.706 1023.83 150.178V141.983L1019.88 149.231C1004.42 175.778 966.58 176.41 950.111 150.315L945.569 142.314V150.181ZM865.63 141.987V150.181C865.63 150.833 870.473 157.272 871.306 158.218C888.478 177.728 919.069 178.675 937.043 159.72C938.14 158.563 943.896 151.195 943.896 150.184V142.324L939.354 150.325C922.952 176.494 885.384 175.634 869.711 149.452L865.634 141.99L865.63 141.987ZM863.958 142.656C862.269 144.696 861.279 147.492 859.881 149.783C844.151 175.494 807.964 176.159 791.11 151.455L785.695 141.987V149.847C785.695 150.76 790.89 157.613 791.88 158.713C810.041 178.942 842.666 178.21 859.6 156.854C860.192 156.105 863.961 150.897 863.961 150.512V142.652L863.958 142.656ZM706.088 142.321V150.516C706.088 150.807 708.854 154.73 709.296 155.335C725.832 178.056 759.981 179.581 778.508 158.379C779.441 157.312 784.357 150.716 784.357 149.847V141.987L780.611 148.776C764.644 175.611 728.417 176.638 710.971 150.991L706.095 142.321H706.088ZM546.211 141.987V150.181C546.211 150.696 551.416 157.636 552.222 158.553C570.163 178.855 602.71 178.253 619.785 157.198C620.541 156.268 624.477 150.89 624.477 150.184V142.324L619.601 150.994C604.158 175.069 569.015 175.698 552.436 152.66L546.211 141.993V141.987ZM466.273 141.987V149.847C466.273 150.091 468.444 153.449 468.812 153.997C484.749 177.631 519.38 180.143 538.525 158.887C539.529 157.774 544.87 150.756 544.87 149.847V141.987L538.311 152.987C520.942 176.394 485.946 174.668 470.681 149.783L466.27 141.987H466.273ZM386.669 142.321V149.847C386.669 150.248 389.261 154.121 389.743 154.8C406.192 178.129 440.485 179.762 459.259 158.215C460.022 157.339 464.935 150.673 464.935 150.178V141.983L460.858 149.445C445.586 175.511 407.767 176.424 391.546 150.656C389.833 147.937 388.763 144.776 386.669 142.321ZM945.569 76.096V138.809C945.569 139.485 951.285 149.402 952.121 150.653C967.67 173.858 1002 173.748 1017.36 150.392C1018.81 148.181 1023.64 139.662 1023.85 137.488L1023.83 75.7582C1009.32 75.5809 995.221 68.1991 986.2 57.0245C985.458 57.0111 984.892 58.3356 984.374 58.8774C973.828 69.8648 961.041 75.9655 945.565 76.0926L945.569 76.096ZM865.63 75.7615V138.809C865.63 139.706 873.43 152.385 874.671 153.85C888.401 170.052 912.112 172.952 929.002 159.704C936.063 154.165 939.793 146.84 943.739 138.986L943.9 75.7615C932.253 75.5173 920.433 70.5839 911.784 62.8911C910.857 62.0649 906.352 56.9342 905.947 57.0345C896.315 69.0119 881.133 76.3602 865.634 75.7648L865.63 75.7615ZM785.692 76.096V138.475C785.692 139.294 792.833 151.238 793.92 152.656C808.881 172.146 838.221 173.32 854.429 154.703C858.423 150.118 860.784 144.529 863.771 139.294L863.958 75.7615C849.358 75.4571 835.568 68.1055 826.33 57.0379C816.199 69.0621 801.543 76.0257 785.692 76.096ZM706.088 75.7615V139.144C706.088 139.95 713.219 151.576 714.316 152.991C726.099 168.172 747.295 172.45 764.176 163.115C774.119 157.616 779.471 148.613 784.197 138.652L784.354 75.7615C769.821 75.4604 755.717 68.2961 746.719 57.0278C746.074 57.0211 742.629 61.202 741.716 62.0582C732.267 70.9284 719.132 76.1929 706.085 75.7615H706.088ZM626.15 76.096V138.809C626.15 139.652 633.568 151.874 634.712 153.325C650.686 173.587 682.297 172.664 697.131 151.593C698.606 149.495 704.245 139.796 704.432 137.822L704.419 75.7615C689.883 75.5574 675.865 68.2259 666.784 57.0345L666.276 57.1883C656.596 69.3029 641.632 75.9655 626.15 76.096ZM546.211 75.7615V138.809C546.211 139.689 554.041 152.412 555.252 153.85C572.551 174.39 604.262 172.353 618.597 149.653C619.965 147.485 624.287 139.943 624.494 137.822L624.477 75.7582C612.607 75.4538 600.8 70.4736 592.027 62.5533C591.181 61.7874 586.906 56.9375 586.525 57.0312C576.892 69.0086 561.711 76.3568 546.211 75.7615ZM544.877 75.7582C530.153 75.5876 516.293 68.0954 506.911 57.0345C498.268 67.3563 485.364 74.6276 471.788 75.7548C470.711 75.8451 466.848 75.4538 466.42 76.0726L466.35 138.398C472.614 152.522 481.839 163.995 497.703 167.249C519.855 171.795 537.104 157.827 544.853 138.117L544.877 75.7582ZM464.935 75.7582C453.061 75.4806 441.221 70.5371 432.485 62.5533C431.575 61.7238 427.494 57.0211 426.976 57.0245C418.694 67.4231 405.55 74.6009 392.181 75.7548C391.101 75.8485 387.244 75.4538 386.813 76.0726L386.743 138.398C392.8 152.108 401.653 163.533 416.979 167.028C439.381 172.139 457.172 158.259 464.948 138.154L464.935 75.7582ZM825.494 37.9664C824.123 39.3377 823.5 41.5017 822.541 43.2075C806.707 71.3833 769.507 72.7379 751.77 45.9669L747.228 37.9664V45.8264C747.228 46.3917 751.82 52.6228 752.589 53.5092C770.37 74.0891 802.084 74.2096 819.982 53.6898C820.775 52.78 825.497 46.4218 825.497 45.8264V37.9664H825.494ZM428.143 37.9664V46.1609C428.143 46.4519 430.909 50.3752 431.351 50.9806C448.733 74.8651 484.926 74.9789 502.536 51.3151C503.031 50.6528 506.078 46.1508 506.078 45.8264V37.9664L501.667 45.7629C485.739 71.3231 449.489 71.5906 433.027 46.6358L428.15 37.9664H428.143ZM985.036 38.3008C983.09 40.816 981.906 43.9467 980.16 46.6358C964.603 70.5638 930.223 71.3632 913.329 48.6326L906.77 37.6319V45.4919C906.77 45.7127 908.697 48.7363 909.035 49.248C925.367 74.0055 962.175 75.8853 980.678 52.5091C981.26 51.7733 985.036 46.5489 985.036 46.1642V38.3008ZM827.166 37.9664V45.8264C827.166 46.9302 833.033 54.3487 834.183 55.5327C853.382 75.33 886.458 72.9988 902.362 50.4454C902.84 49.7665 905.436 45.8899 905.436 45.4919V37.6319L899.211 48.2981C881.441 72.2864 846.341 70.3097 830.912 44.7561L827.17 37.963L827.166 37.9664ZM667.289 37.6319V45.8264C667.289 46.3181 672.223 52.9673 672.986 53.8436C690.047 73.5172 721.293 74.136 739.04 55.0277C740.057 53.9306 745.559 46.7362 745.559 45.8264V37.9664L740.682 46.6358C725.146 70.4702 690.271 71.5305 673.511 48.3082L667.293 37.6352L667.289 37.6319ZM587.351 37.6319V45.4919C587.351 45.8063 590.278 50.121 590.756 50.7832C607.172 73.4603 641.047 75.3133 659.767 54.3621C660.71 53.3085 665.952 46.308 665.952 45.4953V37.6352L661.54 45.4317C645.616 71.7144 607.931 71.6977 591.766 45.4317C590.224 42.9265 589.167 39.9029 587.354 37.6352L587.351 37.6319ZM507.747 37.9664V45.8264C507.747 46.1542 510.794 50.6495 511.289 51.3151C528.013 73.9186 562.162 74.9755 580.501 53.6898C581.23 52.8436 586.017 46.3047 586.017 45.8264V37.6319L582.271 44.4216C567.126 71.2595 528.755 72.2228 512.296 45.9669L507.754 37.9664H507.747Z" fill="#054FF0"/>
<path d="M546.211 75.7615C561.711 76.3568 576.896 69.0086 586.525 57.0312C586.906 56.9375 591.181 61.7874 592.027 62.5533C600.797 70.4736 612.607 75.4538 624.477 75.7582L624.494 137.822C624.287 139.943 619.965 147.482 618.597 149.653C604.265 172.353 572.554 174.39 555.252 153.85C554.041 152.412 546.211 139.689 546.211 138.809V75.7615Z" fill="#054FF0"/>
<path d="M747.218 0H825.494V34.4544C825.494 35.2137 818.908 46.2947 817.938 47.6359C804.82 65.8177 778.772 68.8747 761.453 54.6798C754.79 49.2213 750.479 41.2576 747.211 33.4678L747.218 0Z" fill="white"/>
<path d="M785.692 76.096C801.543 76.0257 816.199 69.0621 826.33 57.0379C835.571 68.1021 849.358 75.4537 863.958 75.7615L863.771 139.294C860.781 144.525 858.423 150.114 854.429 154.703C838.221 173.32 808.881 172.149 793.92 152.656C792.833 151.238 785.692 139.297 785.692 138.475V76.096Z" fill="white"/>
<path d="M506.075 180.451L506.075 242.829C506.075 243.685 498.539 256.064 497.368 257.536C483.702 274.764 457.901 276.872 441.361 262.386C435.381 257.148 431.946 250.214 428.401 243.237C427.785 222.644 428.334 201.913 428.123 181.27L428.451 180.26C442.843 179.524 456.54 172.604 465.433 161.379C466.176 161.366 466.741 162.69 467.259 163.232C477.792 174.203 490.616 180.333 506.068 180.447L506.075 180.451Z" fill="white"/>
<path d="M466.273 141.987L470.685 149.783C485.95 174.667 520.946 176.393 538.315 152.987L544.874 141.986V149.846C544.874 150.756 539.532 157.773 538.529 158.887C519.381 180.143 484.75 177.631 468.815 153.997C468.444 153.449 466.277 150.091 466.277 149.846V141.986L466.273 141.987Z" fill="white"/>
<path d="M863.958 142.656L863.957 150.516C863.957 150.901 860.188 156.108 859.596 156.857C842.662 178.21 810.037 178.946 791.876 158.717C790.886 157.613 785.691 150.763 785.691 149.85V141.99L791.106 151.459C807.964 176.16 844.147 175.497 859.877 149.787C861.278 147.499 862.268 144.703 863.954 142.659L863.958 142.656Z" fill="white"/>
<path d="M706.088 142.321L710.965 150.99C728.415 176.637 764.638 175.611 780.605 148.776L784.351 141.986V149.846C784.351 150.719 779.435 157.312 778.501 158.379C759.975 179.581 725.826 178.056 709.29 155.335C708.848 154.73 706.082 150.803 706.082 150.515V142.321L706.088 142.321Z" fill="white"/>
<path d="M428.143 246.341L433.02 255.011C449.409 279.983 485.813 279.732 501.66 254.138L506.072 246.342V254.202C506.072 254.53 503.025 259.025 502.53 259.691C485.502 282.712 450.309 283.388 432.495 260.881C431.913 260.145 428.137 254.921 428.137 254.536V246.342L428.143 246.341Z" fill="white"/>
<path d="M421.387 43.7535C413.764 56.4533 401.018 63.9421 386 63.7214V0H426.471V34.4552C426.471 34.9837 422.046 42.6531 421.387 43.7535Z" fill="#054FF0"/>
<path d="M986.691 33.4661L986.699 0H1054.94V51.0091C1042.51 63.6822 1023.86 67.6055 1007.77 59.2103C997.351 53.7718 990.979 44.022 986.691 33.4661Z" fill="#054FF0"/>
<path d="M667.369 0H745.555V34.4527C745.555 35.4394 738.501 47.1191 737.327 48.6343C721.429 69.1139 690.457 68.4449 675.038 47.7747C672.011 43.7175 670.085 38.9179 667.472 34.6032L667.369 0Z" fill="#054FF0"/>
<path d="M827.244 0H905.43V34.1189C905.43 35.226 897.7 47.9292 896.389 49.4945C879.17 70.041 847.362 67.8536 833.043 45.297C830.936 41.9757 829.408 38.2898 827.347 34.9384L827.244 0Z" fill="#054FF0"/>
<path d="M586.011 0V34.1208C586.011 34.8231 580.134 45.1416 579.258 46.4326C566.404 65.464 540.306 69.297 522.301 55.0151C515.451 49.5833 511.752 42.2919 507.899 34.6325L507.81 0H586.011Z" fill="#054FF0"/>
<path d="M906.763 0H985.036L985.037 34.7897C985.037 35.5724 978.163 46.9611 977.146 48.3056C966.484 62.437 947.191 67.4173 930.862 60.5305C918.571 55.3462 911.54 45.1449 906.754 33.1307L906.763 0Z" fill="white"/>
<path d="M587.424 0H665.797L665.79 34.2939C660.164 46.1174 653.491 56.2686 640.701 61.0481C616.957 69.9216 595.541 55.71 587.34 33.4577L587.424 0Z" fill="white"/>
<path d="M428.228 0H506.076V34.4532C506.076 35.0218 501.357 43.2799 500.661 44.4238C488.945 63.6358 464.692 69.5291 445.567 57.1705C437.048 51.6684 432.897 43.6578 428.332 34.9382L428.228 0Z" fill="white"/>
<path d="M1054.94 179.447V259.386C1043.28 271.099 1027.47 275.3 1011.71 269.336C999.13 264.577 991.504 253.86 986.691 241.843L986.705 180.116C1001.48 180.016 1015.24 172.43 1024.67 161.393C1032.24 170.704 1043.08 177.246 1054.94 179.447H1054.94Z" fill="#054FF0"/>
<path d="M386 161.385C395.897 173.198 410.804 180.848 426.471 180.115V242.828C426.471 243.588 419.895 254.679 418.915 256.01C411.366 266.298 398.827 272.426 386 272.094V161.385Z" fill="#054FF0"/>
<path d="M1054.94 67.0645V166.737C1045.65 164.767 1037.06 158.375 1031.85 150.525C1030.44 148.401 1025.35 139.494 1025.16 137.487L1025.32 76.0751C1025.76 75.4429 1029.33 75.861 1030.37 75.7741C1039.22 75.0516 1047.49 71.6735 1054.94 67.0645Z" fill="#054FF0"/>
<path d="M1054.94 53.0165V58.368C1036.44 73.8373 1009.13 72.3355 992.891 54.3577C992.062 53.4379 986.707 46.3505 986.707 45.8254V37.6309L990.784 45.0929C1004.89 68.2048 1035.63 72.0211 1054.94 53.0165Z" fill="white"/>
<path d="M1054.94 261.392V266.635C1044.46 275.124 1031.17 279.189 1017.75 276.68C1008.26 274.907 998.935 269.589 992.557 262.402C991.761 261.505 986.707 254.722 986.707 254.204V246.344L992.788 256.485C1007.44 277.098 1037.19 279.356 1054.94 261.395L1054.94 261.392Z" fill="white"/>
<path d="M386 69.0706V65.0569C401.004 65.7359 414.52 57.8893 422.263 45.2964C423.715 42.9351 424.748 40.0887 426.471 37.9648V45.8249C426.471 46.3902 421.879 52.6213 421.109 53.5077C412.443 63.5384 399.325 69.4151 386 69.0706Z" fill="white"/>
<path d="M386 277.316V273.434C400.108 274.186 413.677 266.771 421.39 255.142L426.471 246.342V254.202C426.471 254.456 424.12 257.931 423.735 258.49C415.33 270.581 400.77 277.654 386 277.316Z" fill="white"/>
<path d="M1054.94 168.409V172.423C1043.86 170.005 1033.68 163.061 1027.44 153.602C1027.1 153.091 1025.17 150.067 1025.17 149.846V141.986L1031.59 152.793C1037.21 160.563 1045.57 166.229 1054.94 168.409Z" fill="white"/>
<path d="M544.875 75.7568L544.851 138.116C537.102 157.822 519.853 171.793 497.701 167.248C481.837 163.993 472.612 152.521 466.348 138.396L466.418 76.0713C466.846 75.4558 470.709 75.8438 471.786 75.7535C485.362 74.6263 498.266 67.355 506.909 57.0332C516.291 68.0908 530.148 75.5829 544.875 75.7568Z" fill="white"/>
<path d="M706.086 75.761C719.134 76.1892 732.265 70.9246 741.717 62.0578C742.63 61.2016 746.075 57.0207 746.721 57.0274C755.718 68.2957 769.819 75.46 784.355 75.761L784.198 138.652C779.472 148.612 774.121 157.616 764.177 163.115C747.296 172.446 726.104 168.172 714.317 152.99C713.22 151.579 706.089 139.949 706.089 139.143V75.761H706.086Z" fill="#054FF0"/>
<path d="M865.628 75.7611C881.128 76.3564 896.313 69.0081 905.942 57.0307C906.347 56.9304 910.852 62.0645 911.779 62.8873C920.428 70.5801 932.248 75.5136 943.894 75.7577L943.734 138.983C939.79 146.836 936.058 154.164 928.997 159.7C912.106 172.948 888.392 170.045 874.666 153.846C873.425 152.382 865.625 139.702 865.625 138.805V75.7577L865.628 75.7611Z" fill="#054FF0"/>
<path d="M626.148 76.0947C641.631 75.9642 656.592 69.2982 666.275 57.187L666.783 57.0332C675.861 68.2279 689.878 75.5562 704.418 75.7602L704.431 137.821C704.247 139.795 698.608 149.494 697.13 151.591C682.296 172.663 650.682 173.586 634.711 153.324C633.567 151.872 626.148 139.651 626.148 138.808V76.0947Z" fill="white"/>
<path d="M945.57 76.0956C961.043 75.9651 973.83 69.8677 984.379 58.8804C984.897 58.3385 985.463 57.0174 986.205 57.0274C995.226 68.1987 1009.32 75.5805 1023.84 75.7611L1023.86 137.491C1023.64 139.665 1018.81 148.184 1017.36 150.395C1002.01 173.751 967.675 173.861 952.126 150.656C951.29 149.405 945.574 139.488 945.574 138.812V76.0989L945.57 76.0956Z" fill="white"/>
<path d="M625.312 161.392C633.915 171.526 646.668 178.922 660.1 180.109C661.231 180.209 665.365 179.801 665.803 180.427L665.79 242.668C659.91 255.351 652.241 266.075 638.26 270.326C615.104 277.373 595.21 263.071 587.34 241.829L587.494 180.423C591.079 179.912 594.665 179.604 598.193 178.748C608.736 176.192 618.416 169.647 625.309 161.389L625.312 161.392Z" fill="white"/>
<path d="M586.012 180.115V242.828C586.012 243.527 579.995 253.742 579.125 255.006C566.127 273.881 540.32 277.68 522.305 263.388C515.412 257.92 511.763 250.718 507.903 243.006L507.742 180.112C522.205 179.934 536.179 172.687 545.193 161.539L545.701 161.385C555.361 173.325 570.492 180.727 586.008 180.115H586.012Z" fill="#054FF0"/>
<path d="M905.43 242.495C905.075 244.221 899.051 254.292 897.673 256.145C881.726 277.617 849.663 277.286 834.248 255.476C831.552 251.663 829.749 247.304 827.347 243.311L827.16 180.113C841.399 179.979 853.654 173.273 863.293 163.232C863.811 162.693 864.377 161.366 865.119 161.379C874.668 173.303 889.964 180.765 905.426 180.113V242.491L905.43 242.495Z" fill="#054FF0"/>
<path d="M745.555 180.115V242.828C745.555 243.868 738.521 255.471 737.327 257.01C721.419 277.503 690.471 276.837 675.038 256.15C672.011 252.093 670.085 247.293 667.472 242.979L667.285 180.115C681.999 179.988 695.902 172.482 705.251 161.395C714.981 173.148 730.099 180.707 745.555 180.118V180.115Z" fill="#054FF0"/>
<path d="M825.496 242.828C825.496 243.48 819.96 252.953 819.148 254.207C806.441 273.857 779.583 277.894 761.455 263.054C754.735 257.552 751.033 250.133 747.25 242.474L747.277 180.496C747.491 180.155 752.588 179.868 753.655 179.684C765.907 177.536 777.091 171.071 784.861 161.385L785.37 161.539C795.032 173.616 810.047 180.346 825.496 180.446V242.828Z" fill="white"/>
<path d="M985.035 180.45V242.829C985.035 243.618 978.309 255.114 977.285 256.485C964.271 273.931 939.129 277.125 922.001 263.72C914.649 257.967 910.752 250.398 906.789 242.14L906.816 180.497C907.057 180.112 912.164 179.865 913.201 179.688C925.636 177.58 936.714 171.028 944.735 161.389C954.632 173.359 969.422 180.326 985.038 180.447L985.035 180.45Z" fill="white"/>
<path d="M464.935 75.7571L464.948 138.153C457.172 158.258 439.378 172.138 416.978 167.027C401.653 163.532 392.799 152.107 386.742 138.397L386.812 76.0715C387.244 75.4528 391.104 75.8474 392.181 75.7538C405.549 74.5999 418.694 67.4188 426.976 57.0234C427.494 57.0201 431.578 61.7228 432.484 62.5522C441.221 70.5361 453.058 75.4795 464.935 75.7571Z" fill="#054FF0"/>
<path d="M587.351 37.6303C589.164 39.8947 590.224 42.9216 591.763 45.4268C607.928 71.6928 645.612 71.7128 661.536 45.4268L665.948 37.6303V45.4903C665.948 46.3065 660.707 53.3036 659.764 54.3572C641.043 75.3084 607.168 73.4554 590.753 50.7784C590.274 50.1161 587.348 45.8048 587.348 45.487V37.627L587.351 37.6303Z" fill="white"/>
<path d="M587.352 246.005L593.904 257.013C610.892 279.707 644.767 278.834 660.537 255.474L665.952 246.005V253.865C665.952 254.722 660.734 261.652 659.768 262.732C641.061 283.693 607.182 281.844 590.756 259.153C590.278 258.491 587.352 254.18 587.352 253.862V246.002V246.005Z" fill="white"/>
<path d="M865.628 141.986L869.706 149.448C885.379 175.63 922.946 176.49 939.349 150.321L943.891 142.32V150.18C943.891 151.19 938.135 158.562 937.038 159.716C919.063 178.674 888.473 177.724 871.301 158.214C870.468 157.268 865.625 150.829 865.625 150.177V141.982L865.628 141.986Z" fill="white"/>
<path d="M985.036 46.1593C985.036 46.5439 981.259 51.7717 980.677 52.5042C962.174 75.8803 925.366 74.0039 909.034 49.2431C908.696 48.7314 906.769 45.7078 906.769 45.487V37.627L913.328 48.6277C930.219 71.3549 964.599 70.5589 980.159 46.6309C981.908 43.9418 983.092 40.8111 985.036 38.2959V46.1593Z" fill="white"/>
<path d="M827.163 37.9659L830.906 44.759C846.332 70.3092 881.435 72.2859 899.205 48.301L905.43 37.6348V45.4948C905.43 45.8962 902.837 49.7693 902.356 50.4483C886.452 73.0016 853.376 75.3329 834.177 55.5356C833.027 54.3516 827.16 46.9297 827.16 45.8293V37.9692L827.163 37.9659Z" fill="white"/>
<path d="M507.745 37.9653L512.287 45.9659C528.746 72.2218 567.117 71.2585 582.262 44.4206L586.008 37.6309V45.8254C586.008 46.307 581.221 52.8459 580.492 53.6888C562.153 74.9745 528.004 73.9176 511.28 51.314C510.785 50.6451 507.738 46.1498 507.738 45.8254V37.9653H507.745Z" fill="white"/>
<path d="M546.211 141.985L552.435 152.651C569.015 175.69 604.155 175.061 619.6 150.986L624.477 142.316V150.176C624.477 150.885 620.54 156.26 619.784 157.19C602.713 178.248 570.162 178.851 552.221 158.545C551.415 157.632 546.211 150.688 546.211 150.173V141.979V141.985Z" fill="white"/>
<path d="M507.746 246.34L512.288 254.341C528.971 280.627 566.96 279.714 582.262 252.796L586.008 246.006V254.2C586.008 254.682 581.222 261.221 580.493 262.064C563.639 281.624 533.259 282.563 515.091 264.241C513.896 263.037 507.742 255.321 507.742 254.197V246.337L507.746 246.34Z" fill="white"/>
<path d="M386.668 142.32C388.762 144.775 389.832 147.936 391.545 150.655C407.766 176.426 445.585 175.513 460.857 149.444L464.934 141.982V150.177C464.934 150.669 460.021 157.338 459.258 158.214C440.484 179.761 406.191 178.129 389.742 154.799C389.263 154.12 386.668 150.244 386.668 149.846V142.32Z" fill="white"/>
<path d="M945.57 142.321L950.112 150.322C966.582 176.417 1004.42 175.782 1019.88 149.238L1023.84 141.99V150.185C1023.84 150.713 1019.24 157.021 1018.49 157.888C999.965 179.274 966.023 178.534 949.112 155.677C948.617 155.008 945.57 150.513 945.57 150.188V142.321Z" fill="white"/>
<path d="M985.036 254.535C985.036 254.919 981.266 260.127 980.674 260.876C962.128 284.259 925.406 282.443 909.034 257.622C908.696 257.11 906.769 254.087 906.769 253.866V246.006L913.328 257.007C930.754 280.326 965.696 278.747 980.958 253.799C982.36 251.511 983.35 248.715 985.036 246.671V254.535Z" fill="white"/>
<path d="M667.288 37.6303L673.506 48.3033C690.267 71.5289 725.142 70.4653 740.678 46.6309L745.555 37.9614V45.8215C745.555 46.7312 740.056 53.929 739.036 55.0228C721.289 74.131 690.046 73.5123 672.981 53.8387C672.219 52.9591 667.285 46.3131 667.285 45.8215V37.627L667.288 37.6303Z" fill="white"/>
<path d="M667.288 246.005L673.513 256.672C690.243 279.904 725.192 278.867 740.678 255.006L745.555 246.336V254.196C745.555 254.534 743.544 257.565 743.15 258.147C727.062 282.044 691.825 283.941 672.981 262.214C672.219 261.334 667.285 254.688 667.285 254.196V246.002L667.288 246.005Z" fill="white"/>
<path d="M827.167 246.34L832.043 255.01C848.76 280.687 886.786 279.339 901.683 252.796L905.43 246.006V253.866C905.43 254.739 900.513 261.331 899.58 262.398C880.729 283.972 845.556 281.918 829.565 258.15C829.17 257.565 827.16 254.538 827.16 254.2V246.34H827.167Z" fill="white"/>
<path d="M825.493 246.341V254.201C825.493 254.469 823.028 258.091 822.613 258.68C805.953 282.33 771.486 283.742 752.568 261.901C751.792 261.004 747.227 254.807 747.227 254.198V246.338L752.568 255.546C768.459 279.076 803.408 279.718 819.743 256.145C821.917 253.004 823.309 249.405 825.489 246.338L825.493 246.341Z" fill="white"/>
<path d="M428.143 37.9648L433.02 46.6343C449.483 71.5925 485.736 71.3216 501.66 45.7614L506.072 37.9648V45.8249C506.072 46.1527 503.025 50.6513 502.53 51.3136C484.923 74.9773 448.727 74.8636 431.344 50.9791C430.903 50.3737 428.137 46.447 428.137 46.1594V37.9648H428.143Z" fill="white"/>
<path d="M825.496 37.9648V45.8249C825.496 46.4203 820.777 52.7785 819.98 53.6883C802.083 74.208 770.369 74.0876 752.588 53.5077C751.822 52.6213 747.227 46.3868 747.227 45.8249V37.9648L751.769 45.9654C769.509 72.7364 806.705 71.3818 822.539 43.206C823.499 41.5002 824.121 39.3328 825.493 37.9648H825.496Z" fill="white"/>
<path d="M626.148 142.32L630.69 150.321C646.888 175.988 683.978 175.988 699.999 150.117L704.411 142.32V150.18C704.411 150.709 699.818 157.017 699.069 157.883C681.034 178.694 649.283 178.537 631.326 157.713C630.593 156.863 626.145 150.692 626.145 150.184V142.324L626.148 142.32Z" fill="white"/>
<path d="M1146.37 0H1224.55V34.4527C1224.55 35.4394 1217.5 47.1191 1216.33 48.6343C1200.43 69.1139 1169.46 68.4449 1154.04 47.7747C1151.01 43.7175 1149.08 38.9179 1146.47 34.6032L1146.37 0Z" fill="#054FF0"/>
<path d="M1306.24 0H1384.43V34.1189C1384.43 35.226 1376.7 47.9292 1375.39 49.4945C1358.17 70.041 1326.36 67.8536 1312.04 45.297C1309.94 41.9757 1308.41 38.2898 1306.35 34.9384L1306.24 0Z" fill="#054FF0"/>
<path d="M1065.01 0V34.1208C1065.01 34.8231 1059.13 45.1416 1058.26 46.4326C1045.4 65.464 1019.31 69.297 1001.3 55.0151C994.451 49.5833 990.752 42.2919 986.899 34.6325L986.81 0H1065.01Z" fill="#054FF0"/>
<path d="M1066.42 0H1144.8L1144.79 34.2939C1139.16 46.1174 1132.49 56.2686 1119.7 61.0481C1095.96 69.9216 1074.54 55.71 1066.34 33.4577L1066.42 0Z" fill="white"/>
<path d="M907.228 0H985.076V34.4532C985.076 35.0218 980.357 43.2799 979.661 44.4238C967.945 63.6358 943.692 69.5291 924.567 57.1705C916.048 51.6684 911.897 43.6578 907.332 34.9382L907.228 0Z" fill="white"/>
<path d="M865 161.385C874.897 173.198 889.804 180.848 905.471 180.115V242.828C905.471 243.588 898.895 254.679 897.915 256.01C890.366 266.298 877.827 272.426 865 272.094V161.385Z" fill="#054FF0"/>
<path d="M865 69.0706V65.0569C880.004 65.7359 893.52 57.8893 901.263 45.2964C902.715 42.9351 903.748 40.0887 905.471 37.9648V45.8249C905.471 46.3902 900.879 52.6213 900.109 53.5077C891.443 63.5384 878.325 69.4151 865 69.0706Z" fill="white"/>
<path d="M864.966 277.342L865 273.5C879.108 274.253 892.677 266.771 900.39 255.142L905.471 246.342V254.202C905.471 254.456 903.12 257.931 902.735 258.49C894.33 270.581 879.736 277.68 864.966 277.342Z" fill="white"/>
<path d="M1023.87 75.7568L1023.85 138.116C1016.1 157.822 998.853 171.793 976.701 167.248C960.837 163.993 951.612 152.521 945.348 138.396L945.418 76.0713C945.846 75.4558 949.709 75.8438 950.786 75.7535C964.362 74.6263 977.266 67.355 985.909 57.0332C995.291 68.0908 1009.15 75.5829 1023.87 75.7568Z" fill="white"/>
<path d="M1185.09 75.761C1198.13 76.1892 1211.26 70.9246 1220.72 62.0578C1221.63 61.2016 1225.08 57.0207 1225.72 57.0274C1234.72 68.2957 1248.82 75.46 1263.36 75.761L1263.2 138.652C1258.47 148.612 1253.12 157.616 1243.18 163.115C1226.3 172.446 1205.1 168.172 1193.32 152.99C1192.22 151.579 1185.09 139.949 1185.09 139.143V75.761H1185.09Z" fill="#054FF0"/>
<path d="M1344.63 75.7611C1360.13 76.3564 1375.31 69.0081 1384.94 57.0307C1385.35 56.9304 1389.85 62.0645 1390.78 62.8873C1399.43 70.5801 1411.25 75.5136 1422.89 75.7577L1422.73 138.983C1418.79 146.836 1415.06 154.164 1408 159.7C1391.11 172.948 1367.39 170.045 1353.67 153.846C1352.42 152.382 1344.62 139.702 1344.62 138.805V75.7577L1344.63 75.7611Z" fill="#054FF0"/>
<path d="M1105.15 76.0947C1120.63 75.9642 1135.59 69.2982 1145.27 57.187L1145.78 57.0332C1154.86 68.2279 1168.88 75.5562 1183.42 75.7602L1183.43 137.821C1183.25 139.795 1177.61 149.494 1176.13 151.591C1161.3 172.663 1129.68 173.586 1113.71 153.324C1112.57 151.872 1105.15 139.651 1105.15 138.808V76.0947Z" fill="white"/>
<path d="M1104.31 161.392C1112.91 171.526 1125.67 178.922 1139.1 180.109C1140.23 180.209 1144.37 179.801 1144.8 180.427L1144.79 242.668C1138.91 255.351 1131.24 266.075 1117.26 270.326C1094.1 277.373 1074.21 263.071 1066.34 241.829L1066.49 180.423C1070.08 179.912 1073.66 179.604 1077.19 178.748C1087.74 176.192 1097.42 169.647 1104.31 161.389L1104.31 161.392Z" fill="white"/>
<path d="M1065.01 180.115V242.828C1065.01 243.527 1058.99 253.742 1058.12 255.006C1045.13 273.881 1019.32 277.68 1001.31 263.388C994.412 257.92 990.762 250.718 986.903 243.006L986.742 180.112C1001.2 179.934 1015.18 172.687 1024.19 161.539L1024.7 161.385C1034.36 173.325 1049.49 180.727 1065.01 180.115H1065.01Z" fill="#054FF0"/>
<path d="M1384.43 242.495C1384.07 244.221 1378.05 254.292 1376.67 256.145C1360.73 277.617 1328.66 277.286 1313.25 255.476C1310.55 251.663 1308.75 247.304 1306.35 243.311L1306.16 180.113C1320.4 179.979 1332.65 173.273 1342.29 163.232C1342.81 162.693 1343.38 161.366 1344.12 161.379C1353.67 173.303 1368.96 180.765 1384.43 180.113V242.491L1384.43 242.495Z" fill="#054FF0"/>
<path d="M1224.55 180.115V242.828C1224.55 243.868 1217.52 255.471 1216.33 257.01C1200.42 277.503 1169.47 276.837 1154.04 256.15C1151.01 252.093 1149.08 247.293 1146.47 242.979L1146.29 180.115C1161 179.988 1174.9 172.482 1184.25 161.395C1193.98 173.148 1209.1 180.707 1224.55 180.118V180.115Z" fill="#054FF0"/>
<path d="M1304.5 242.828C1304.5 243.48 1298.96 252.953 1298.15 254.207C1285.44 273.857 1258.58 277.894 1240.45 263.054C1233.74 257.552 1230.03 250.133 1226.25 242.474L1226.28 180.496C1226.49 180.155 1231.59 179.868 1232.66 179.684C1244.91 177.536 1256.09 171.071 1263.86 161.385L1264.37 161.539C1274.03 173.616 1289.05 180.346 1304.5 180.446V242.828Z" fill="white"/>
<path d="M943.935 75.7571L943.948 138.153C936.172 158.258 918.378 172.138 895.978 167.027C880.653 163.532 871.799 152.107 865.742 138.397L865.812 76.0715C866.244 75.4528 870.104 75.8474 871.181 75.7538C884.549 74.5999 897.694 67.4188 905.976 57.0234C906.494 57.0201 910.578 61.7228 911.484 62.5522C920.221 70.5361 932.058 75.4795 943.935 75.7571Z" fill="#054FF0"/>
<path d="M1066.35 37.6303C1068.16 39.8947 1069.22 42.9216 1070.76 45.4268C1086.93 71.6928 1124.61 71.7128 1140.54 45.4268L1144.95 37.6303V45.4903C1144.95 46.3065 1139.71 53.3036 1138.76 54.3572C1120.04 75.3084 1086.17 73.4554 1069.75 50.7784C1069.27 50.1161 1066.35 45.8048 1066.35 45.487V37.627L1066.35 37.6303Z" fill="white"/>
<path d="M1066.35 246.005L1072.9 257.013C1089.89 279.707 1123.77 278.834 1139.54 255.474L1144.95 246.005V253.865C1144.95 254.722 1139.73 261.652 1138.77 262.732C1120.06 283.693 1086.18 281.844 1069.76 259.153C1069.28 258.491 1066.35 254.18 1066.35 253.862V246.002V246.005Z" fill="white"/>
<path d="M1344.63 141.986L1348.71 149.448C1364.38 175.63 1401.95 176.49 1418.35 150.321L1422.89 142.32V150.18C1422.89 151.19 1417.13 158.562 1416.04 159.716C1398.06 178.674 1367.47 177.724 1350.3 158.214C1349.47 157.268 1344.62 150.829 1344.62 150.177V141.982L1344.63 141.986Z" fill="white"/>
<path d="M1306.16 37.9659L1309.91 44.759C1325.33 70.3092 1360.43 72.2859 1378.21 48.301L1384.43 37.6348V45.4948C1384.43 45.8962 1381.84 49.7693 1381.36 50.4483C1365.45 73.0016 1332.38 75.3329 1313.18 55.5356C1312.03 54.3516 1306.16 46.9297 1306.16 45.8293V37.9692L1306.16 37.9659Z" fill="white"/>
<path d="M986.745 37.9653L991.287 45.9659C1007.75 72.2218 1046.12 71.2585 1061.26 44.4206L1065.01 37.6309V45.8254C1065.01 46.307 1060.22 52.8459 1059.49 53.6888C1041.15 74.9745 1007 73.9176 990.28 51.314C989.785 50.6451 986.738 46.1498 986.738 45.8254V37.9653H986.745Z" fill="white"/>
<path d="M1025.21 141.985L1031.44 152.651C1048.02 175.69 1083.15 175.061 1098.6 150.986L1103.48 142.316V150.176C1103.48 150.885 1099.54 156.26 1098.78 157.19C1081.71 178.248 1049.16 178.851 1031.22 158.545C1030.42 157.632 1025.21 150.688 1025.21 150.173V141.979V141.985Z" fill="white"/>
<path d="M986.746 246.34L991.288 254.341C1007.97 280.627 1045.96 279.714 1061.26 252.796L1065.01 246.006V254.2C1065.01 254.682 1060.22 261.221 1059.49 262.064C1042.64 281.624 1012.26 282.563 994.091 264.241C992.897 263.037 986.742 255.321 986.742 254.197V246.337L986.746 246.34Z" fill="white"/>
<path d="M865.668 142.32C867.762 144.775 868.832 147.936 870.545 150.655C886.766 176.426 924.585 175.513 939.857 149.444L943.934 141.982V150.177C943.934 150.669 939.021 157.338 938.258 158.214C919.484 179.761 885.191 178.129 868.742 154.799C868.263 154.12 865.668 150.244 865.668 149.846V142.32Z" fill="white"/>
<path d="M1146.29 37.6303L1152.51 48.3033C1169.27 71.5289 1204.14 70.4653 1219.68 46.6309L1224.55 37.9614V45.8215C1224.55 46.7312 1219.06 53.929 1218.04 55.0228C1200.29 74.131 1169.05 73.5123 1151.98 53.8387C1151.22 52.9591 1146.29 46.3131 1146.29 45.8215V37.627L1146.29 37.6303Z" fill="white"/>
<path d="M1146.29 246.005L1152.51 256.672C1169.24 279.904 1204.19 278.867 1219.68 255.006L1224.55 246.336V254.196C1224.55 254.534 1222.54 257.565 1222.15 258.147C1206.06 282.044 1170.83 283.941 1151.98 262.214C1151.22 261.334 1146.29 254.688 1146.29 254.196V246.002L1146.29 246.005Z" fill="white"/>
<path d="M1306.17 246.34L1311.04 255.01C1327.76 280.687 1365.79 279.339 1380.68 252.796L1384.43 246.006V253.866C1384.43 254.739 1379.51 261.331 1378.58 262.398C1359.73 283.972 1324.56 281.918 1308.56 258.15C1308.17 257.565 1306.16 254.538 1306.16 254.2V246.34H1306.17Z" fill="white"/>
<path d="M1304.49 246.341V254.201C1304.49 254.469 1302.03 258.091 1301.61 258.68C1284.95 282.33 1250.49 283.742 1231.57 261.901C1230.79 261.004 1226.23 254.807 1226.23 254.198V246.338L1231.57 255.546C1247.46 279.076 1282.41 279.718 1298.74 256.145C1300.92 253.004 1302.31 249.405 1304.49 246.338L1304.49 246.341Z" fill="white"/>
<path d="M907.143 37.9648L912.02 46.6343C928.483 71.5925 964.736 71.3216 980.66 45.7614L985.072 37.9648V45.8249C985.072 46.1527 982.025 50.6513 981.53 51.3136C963.923 74.9773 927.727 74.8636 910.344 50.9791C909.903 50.3737 907.137 46.447 907.137 46.1594V37.9648H907.143Z" fill="white"/>
<path d="M1304.5 37.9648V45.8249C1304.5 46.4203 1299.78 52.7785 1298.98 53.6883C1281.08 74.208 1249.37 74.0876 1231.59 53.5077C1230.82 52.6213 1226.23 46.3868 1226.23 45.8249V37.9648L1230.77 45.9654C1248.51 72.7364 1285.71 71.3818 1301.54 43.206C1302.5 41.5002 1303.12 39.3328 1304.49 37.9648H1304.5Z" fill="white"/>
<path d="M1105.15 142.32L1109.69 150.321C1125.89 175.988 1162.98 175.988 1179 150.117L1183.41 142.32V150.18C1183.41 150.709 1178.82 157.017 1178.07 157.883C1160.03 178.694 1128.28 178.537 1110.33 157.713C1109.59 156.863 1105.14 150.692 1105.14 150.184V142.324L1105.15 142.32Z" fill="white"/>
<ellipse cx="720" cy="122.5" rx="166" ry="103.5" fill="white"/>
<path d="M627.974 165.984C618.524 169.675 618.255 182.12 619.293 186.59C638.959 187.276 679.488 187.108 684.321 187.517C690.362 188.03 711.698 183.952 718.616 176.955C724.15 171.358 745.503 158.591 754.438 152.313C755.008 154.196 749.731 176.705 747.021 187.724L792.538 188.044C795.219 172.797 794.282 138.267 794.033 135.916C793.785 133.566 786.758 58.1273 783.739 58.106C781.324 58.089 731.173 57.1097 706.4 56.6222C703.982 76.3333 698.134 103.536 683.92 129.975C669.707 156.413 639.785 161.37 627.974 165.984Z" fill="#054FF0"/>
<path d="M773.357 85.9687C781.615 86.5877 786.296 80.8411 787.604 77.8904C788.729 77.8984 792.897 119.677 794.84 140.566L783.116 140.483C783.098 137.912 781.469 132.9 775.094 133.416C767.126 134.061 769.669 128.705 770.605 128.478C771.542 128.251 775.045 126.406 773.624 124.293C772.202 122.18 771.711 118.905 773.577 117.516C775.442 116.127 780.756 104.715 774.893 104.44C769.029 104.165 763.036 85.1949 773.357 85.9687Z" fill="#054FF0"/>
<path d="M619.022 179.564C618.655 180.312 619.057 184.57 619.303 186.605C665.305 188.806 693.402 188.066 699.196 186.229C704.989 184.393 720.755 180.515 726.521 174.69C731.134 170.029 748.461 156.933 754.473 153.065C755.044 154.946 749.761 176.809 747.048 187.505L793.037 187.828C794.993 168.602 794.544 137.392 793.611 136.916C792.679 136.44 776.666 138.204 762.063 142.325C747.459 146.446 735.246 160.203 721.382 170.43C707.518 180.656 700.779 180.14 686.161 182.148C674.467 183.756 636.529 181.095 619.022 179.564Z" fill="#222222" stroke="#222222"/>
<path d="M720.038 64.4417C716.666 64.7951 709.239 61.8518 705.948 60.3361C705.266 63.395 703.463 73.7519 700.508 86.9288C698.144 97.4703 693.4 109.661 691.324 114.438C693.224 117.986 696.714 114.24 698.59 114.489C700.467 114.738 701.604 109.797 705.363 111.002C709.121 112.206 707.72 112.904 716.149 111.785C724.579 110.666 724.782 106.189 723.338 100.759C722.183 96.414 718.923 94.9928 717.437 94.8252C713.192 91.0245 713.897 91.2652 715.977 87.0377C718.057 82.8102 728.591 80.999 725.996 78.624C723.921 76.724 725.113 75.1612 725.968 74.6174C735.755 66.4377 730.089 60.506 725.87 60.4763C721.651 60.4466 724.254 63.9999 720.038 64.4417Z" fill="#054FF0"/>
<path d="M713.404 84.5798C712.478 82.3569 718.113 77.9418 721.046 76.0122L740.266 75.0859C743.816 77.247 749.483 82.9584 743.74 88.5158C736.562 95.4626 734.014 92.2208 732.162 91.9892C730.31 91.7576 732.624 84.5798 724.751 89.6741C716.878 94.7683 714.563 87.3584 713.404 84.5798Z" fill="#054FF0"/>
<path d="M763.013 107.327C764.101 103.574 764.787 72.9453 764.992 57.9826L735.95 57.5431C734.725 70.6967 732.801 99.0287 734.901 107.129C737.527 117.254 741.946 117.99 751.472 118.057C760.997 118.124 761.652 112.018 763.013 107.327Z" fill="#222222"/>
<path d="M760.601 61.7125C760.469 74.5214 760.012 100.942 759.24 104.156C758.274 108.173 757.814 113.401 751.023 113.354C744.232 113.306 741.081 112.68 739.199 104.015C738.859 95.2675 738.574 74.5316 740.157 61.5686" stroke="#054FF0" stroke-width="2" stroke-dasharray="12 12"/>
</svg>
